<svg width="665" height="665" viewBox="0 0 665 665" fill="none" xmlns="http://www.w3.org/2000/svg">
<path d="M205.902 167.324C215.872 166.396 225.675 162.488 230.238 153.888C234.147 146.519 233.204 137.66 232.657 129.334C230.74 100.073 259.115 75.9755 285.421 69.4739C346.984 54.2656 415.916 75.025 462.573 117.296C483.814 136.542 499.329 164.237 497.002 192.798C494.18 227.366 464.969 262.102 483.244 297.043C490.849 311.544 505.466 320.616 518.417 330.638C546.731 352.5 569.66 382.225 579.775 416.565C611.321 523.578 499.237 610.014 400.037 600.433C354.536 596.038 310.654 571.233 286.432 532.452C282.166 525.608 278.47 518.369 273.169 512.309C251.205 487.154 207.765 494.059 178.105 491.261C136.278 487.291 97.8795 474.151 68.6912 442.457C44.2029 415.843 30.0879 380.993 23.5475 345.443C12.3224 284.428 25.8746 213.078 85.4376 182.038C121.44 163.271 159.078 165.37 198.168 167.461C200.746 167.601 203.331 167.555 205.902 167.324Z" fill="#2293FC" fill-opacity="0.5"/>
<path d="M183.022 386.981C183.022 386.981 183.661 389.259 185.176 392.957" stroke="#161616" stroke-width="1.39" stroke-linecap="round"/>
<path d="M191.058 405.092C203.836 427.873 234.179 464.026 298 463.745" stroke="#161616" stroke-width="1.39" stroke-linecap="round" stroke-dasharray="17.76"/>
<path d="M304.765 463.585C306.851 463.494 308.969 463.365 311.12 463.198" stroke="#161616" stroke-width="1.39" stroke-linecap="round"/>
<path d="M285.222 240.205C285.222 240.205 323.411 234.555 330.124 270.579" stroke="#161616" stroke-width="1.39" stroke-linecap="round" stroke-dasharray="16.73"/>
<path d="M42.2831 322.147H126.393V355.749H42.2831L42.2831 322.147Z" fill="#00649D" stroke="#161616" stroke-width="1.39" stroke-linecap="round"/>
<path d="M42.5604 119.7H269.325V307.23H42.5604L42.5604 119.7Z" fill="#00649D"/>
<path opacity="0.7" d="M269.325 119.7H234.09C239.978 126.012 246.542 135.861 240.061 143.789C229.653 156.543 233.414 165.721 243.184 169.273C252.954 172.826 210.592 217.879 227.177 243.889C243.761 269.899 108.921 270.197 114.573 287.41C120.225 304.623 51.7376 286.541 42.5604 307.23H269.325V119.7Z" fill="#58BFED"/>
<path fill-rule="evenodd" clip-rule="evenodd" d="M42.5604 119.7H269.325V307.23H42.5604L42.5604 119.7Z" stroke="#161616" stroke-width="1.39" stroke-linecap="round"/>
<path d="M42.5604 119.7H269.325V144.305H42.5604L42.5604 119.7Z" fill="white"/>
<path opacity="0.48" d="M240.053 144.305H269.325V119.7H234.08C239.969 126.147 246.527 136.207 240.053 144.305Z" fill="#CACBCC"/>
<path fill-rule="evenodd" clip-rule="evenodd" d="M42.9471 119.7H269.666V143.704H42.9471L42.9471 119.7Z" stroke="#161616" stroke-width="1.39" stroke-linecap="round"/>
<path d="M349.219 285.815C349.219 285.815 353.488 309.424 344.722 311.095C335.956 312.766 332.933 280.178 349.219 285.815Z" fill="white" stroke="#161616" stroke-width="1.39" stroke-linecap="round"/>
<path d="M376.55 284.857L376.489 284.713L376.55 284.857Z" fill="white" stroke="#161616" stroke-width="1.39" stroke-linecap="round"/>
<path d="M343.805 179.55H644.384V483.455H343.805V179.55Z" fill="#698BF7"/>
<path opacity="0.48" d="M644.385 483.455V179.55H582.504C578.857 184.694 570.197 199.585 588.786 203.953C611.378 209.28 633.56 226.934 619.294 250.622C605.028 274.31 604.055 320.278 622.014 348.913C639.972 377.547 596.55 395.612 608.233 434.481C619.917 473.35 410.214 422.815 377.381 479.741C376.697 480.916 376.142 482.161 375.725 483.455H644.385Z" fill="#3C6ADD"/>
<path fill-rule="evenodd" clip-rule="evenodd" d="M343.805 179.55H644.384V483.455H343.805V179.55Z" stroke="#161616" stroke-width="1.39" stroke-linecap="round"/>
<path d="M343.805 179.55H644.384V204.155H343.805V179.55Z" fill="white"/>
<path opacity="0.48" d="M582.445 179.55C578.795 184.736 570.127 199.751 588.733 204.155H644.385V179.55H582.445Z" fill="#CACBCC"/>
<path fill-rule="evenodd" clip-rule="evenodd" d="M344.021 178.954H644.738V203.347H344.021V178.954Z" stroke="#161616" stroke-linecap="round"/>
<path d="M422.144 243.513H553.878V381.266H422.144V243.513Z" fill="#161616" stroke="#161616" stroke-linecap="round"/>
<path d="M388.555 233.401H543.269V371.154H388.555V233.401Z" fill="#AADDF9" stroke="#161616" stroke-linecap="round"/>
<path d="M269.811 164.985C269.811 164.985 274.43 196.241 261.265 196.507C248.1 196.774 269.043 211.002 262.323 222.848C255.604 234.695 199.207 210.956 202.297 191.843C205.387 172.731 259.994 145.104 269.811 164.985Z" fill="#061947" stroke="#161616" stroke-linecap="round"/>
<path d="M347.454 391.477C347.454 391.477 340.293 408.74 346.655 410.65C353.017 412.56 366.014 389.225 347.454 391.477Z" fill="#161616" stroke="#161616" stroke-linecap="round"/>
<path fill-rule="evenodd" clip-rule="evenodd" d="M427.752 299.2C443.714 299.2 456.654 286.262 456.654 270.303C456.654 254.343 443.714 241.405 427.752 241.405C411.79 241.405 398.85 254.343 398.85 270.303C398.85 286.262 411.79 299.2 427.752 299.2Z" stroke="#58BFED"/>
<path d="M334.934 344.415C302.517 340.177 296.761 309.113 282.836 313.67C272.059 317.232 277.587 388.102 353.018 400.33C366.375 375.813 368.379 354.904 368.41 344.726C357.262 345.554 346.064 345.449 334.934 344.415Z" fill="#AADDF9"/>
<path opacity="0.6" d="M352.892 400.33C355.186 396.08 357.258 391.71 359.1 387.24C330.465 387.446 294.567 370.69 279.487 317.87C274.843 334.849 287.786 389.651 352.892 400.33Z" fill="#40BEF4"/>
<path fill-rule="evenodd" clip-rule="evenodd" d="M334.934 344.415C302.517 340.177 296.761 309.113 282.836 313.67C272.059 317.232 277.587 388.102 353.018 400.33C366.375 375.813 368.379 354.904 368.41 344.726C357.262 345.554 346.064 345.449 334.934 344.415V344.415Z" stroke="#161616" stroke-width="1.39" stroke-linecap="round"/>
<path d="M456.128 325.85C456.128 325.85 447.007 326.048 435.164 332.396C415.903 342.762 393.815 342.701 367.918 344.435C367.918 354.671 365.874 375.701 352.45 400.359C350.482 403.965 348.278 407.647 345.8 411.39C348.186 415.377 398.581 424.75 413.912 407.983C419.027 402.383 424.926 391.857 429.578 380.17C452.669 358.475 461.144 328.363 456.128 325.85Z" fill="#F9C110"/>
<path opacity="0.6" d="M421.41 352.942C421.41 352.942 411.678 347.325 397.601 374.045C392.8 383.155 377.321 386.692 358.733 386.821C356.874 391.255 354.783 395.587 352.468 399.802C350.494 403.385 348.284 407.044 345.8 410.764C348.193 414.726 398.722 424.041 414.094 407.378C419.223 401.814 425.137 391.353 429.801 379.739C431.325 378.296 432.85 376.809 434.244 375.298C434.305 363.258 421.41 352.942 421.41 352.942Z" fill="#F9751C"/>
<path fill-rule="evenodd" clip-rule="evenodd" d="M456.128 325.85C456.128 325.85 447.007 326.048 435.164 332.396C415.903 342.762 393.815 342.701 367.918 344.435C367.918 354.671 365.874 375.701 352.45 400.359C350.482 403.965 348.278 407.647 345.8 411.39C348.186 415.377 398.581 424.75 413.912 407.983C419.027 402.383 424.926 391.857 429.578 380.17C452.669 358.475 461.144 328.363 456.128 325.85V325.85Z" stroke="#161616" stroke-width="1.39" stroke-linecap="round"/>
<path d="M340.621 298.086C339.859 290.226 341.78 282.983 343.351 278.611C331.959 279.988 320.406 278.341 309.854 273.836C293.914 266.952 281.105 254.394 273.918 238.602C258.333 204.984 230.342 199.5 230.342 199.5C230.342 199.5 207.314 236.127 226.27 267.979C227.347 269.862 228.476 271.652 229.655 273.348L229.831 273.6C233.208 278.306 237.123 282.603 241.497 286.403C276.03 316.594 334.757 316.015 345.135 311.773C342.588 307.622 341.042 302.936 340.621 298.086Z" fill="#AADDF9"/>
<path opacity="0.38" d="M301.024 294.784C294.467 279.851 277.638 295.481 258.492 284.277C239.346 273.074 254.26 267.017 250.539 247.451C246.818 227.885 231.98 228.766 231.98 228.766C227.108 230.209 222.627 232.743 218.873 236.179C218.354 246.233 220.054 257.238 226.269 267.729C227.346 269.623 228.475 271.422 229.654 273.128L229.83 273.38C233.207 278.112 237.122 282.432 241.496 286.253C276.03 316.609 334.757 316.027 345.135 311.761C342.584 307.581 341.039 302.862 340.621 297.977C340.412 295.626 340.412 293.26 340.621 290.909C323.594 296.476 304.753 303.276 301.024 294.784Z" fill="#4FAEE8"/>
<path fill-rule="evenodd" clip-rule="evenodd" d="M339.98 298.212C339.219 290.376 341.138 283.155 342.707 278.796C331.328 280.169 319.787 278.527 309.248 274.035C293.325 267.172 280.531 254.652 273.352 238.909C257.784 205.392 229.824 199.925 229.824 199.925C229.824 199.925 206.822 236.441 225.756 268.196C226.833 270.074 227.96 271.859 229.138 273.549L229.313 273.8C232.687 278.492 236.597 282.776 240.966 286.564C275.461 316.664 334.123 316.087 344.489 311.857C341.945 307.719 340.401 303.048 339.98 298.212V298.212Z" stroke="#161616" stroke-width="1.39" stroke-linecap="round"/>
<path d="M217.702 353.65L409.823 266.645L436.828 325.913L244.707 412.919L217.702 353.65Z" fill="white" stroke="#161616" stroke-width="1.39" stroke-linecap="round"/>
<path d="M231.444 357.023L279.549 335.238L299.309 378.606L251.204 400.391L231.444 357.023Z" fill="#F9D564" stroke="#161616" stroke-width="1.39" stroke-linecap="round"/>
<path d="M296.026 334.584L404.378 285.509L296.026 334.584Z" fill="white"/>
<path d="M296.026 334.584L404.378 285.509" stroke="#161616" stroke-width="1.39" stroke-linecap="round"/>
<path d="M301 345.511L409.351 296.428L301 345.511Z" fill="white"/>
<path d="M301 345.511L409.351 296.428" stroke="#161616" stroke-width="1.39" stroke-linecap="round"/>
<path d="M305.981 356.43L414.333 307.354L305.981 356.43Z" fill="white"/>
<path d="M305.981 356.43L414.333 307.354" stroke="#161616" stroke-width="1.39" stroke-linecap="round"/>
<path d="M310.954 367.349L419.305 318.274L310.954 367.349Z" fill="white"/>
<path d="M310.954 367.349L419.305 318.274" stroke="#161616" stroke-width="1.39" stroke-linecap="round"/>
<path d="M362.596 273.375C356.481 276.038 350.003 277.802 343.368 278.611C341.805 282.905 339.893 290.019 340.652 297.738C348.316 295.599 353.551 293.475 355.016 292.502C355.987 292.323 361.276 289.114 361.23 298.599C362.285 302.675 366.473 295.367 365.419 290.587C365.419 290.587 369.971 302.556 372.119 301.883C374.266 301.209 368.59 287.46 368.59 287.46C368.59 287.46 375.116 301.71 376.702 301.883C378.288 302.055 373.173 286.069 373.173 286.069C373.173 286.069 378.288 297.364 380.222 297.02C382.036 296.691 377.536 286.653 376.937 285.344L376.876 285.201L376.937 285.344C377.392 286.331 380.405 292.742 382.514 293.572C384.806 294.402 379.873 267.989 362.596 273.375Z" fill="#F9C110"/>
<path opacity="0.6" d="M340.636 290.661C340.428 292.994 340.428 295.341 340.636 297.673C348.271 295.501 353.487 293.343 354.946 292.355C355.913 292.173 361.182 288.914 361.137 298.547C362.188 302.687 366.36 295.265 365.31 290.411C365.31 290.411 369.845 302.566 371.985 301.882C372.204 301.814 372.332 301.586 372.4 301.252C372.317 300.12 372.204 299.033 372.053 297.985C371.079 294.331 369.882 290.741 368.469 287.235C365.166 282.95 353.426 286.468 340.636 290.661Z" fill="#F9751C"/>
<path opacity="0.6" d="M367.745 287.945C367.745 287.945 368.902 290.323 370.405 293.265C369.863 291.357 368.962 289.555 367.745 287.945V287.945Z" fill="#F9751C"/>
<path fill-rule="evenodd" clip-rule="evenodd" d="M362.596 273.375C356.481 276.038 350.003 277.802 343.368 278.611C341.805 282.905 339.893 290.019 340.652 297.738C348.316 295.599 353.551 293.475 355.016 292.502C355.987 292.323 361.276 289.114 361.23 298.599C362.285 302.675 366.473 295.367 365.419 290.587C365.419 290.587 369.971 302.556 372.119 301.883C374.266 301.209 368.59 287.46 368.59 287.46C368.59 287.46 375.116 301.71 376.702 301.883C378.288 302.055 373.173 286.069 373.173 286.069C373.173 286.069 378.288 297.364 380.222 297.02C382.036 296.691 377.536 286.653 376.937 285.344L376.876 285.201L376.937 285.344C377.392 286.331 380.405 292.742 382.514 293.572C384.805 294.402 379.873 267.989 362.596 273.375V273.375Z" stroke="#161616" stroke-width="1.39" stroke-linecap="round"/>
<path d="M223.177 195.13C127.254 189.11 104.413 280.061 99.75 307.23H243.39C229.478 289.772 228.03 270.434 230.042 262.276C253.142 250.86 236.944 230.054 236.944 230.054" fill="#AADDF9"/>
<path opacity="0.38" d="M230.046 262.492C230.191 262.424 230.312 262.348 230.45 262.272C229.459 261.605 228.043 261.931 226.596 266.602C223.937 275.178 227.129 296.842 218.629 292.618C210.129 288.395 194.477 290.503 194.606 299.086C194.736 307.67 109.271 294.969 99.75 307.23H243.39C229.482 289.866 228.035 270.598 230.046 262.492Z" fill="#4FAEE8"/>
<path d="M222.989 195.137C127.248 189.123 104.45 279.996 99.7957 307.141H243.164C229.278 289.698 227.833 270.377 229.841 262.226C252.898 250.82 236.731 230.031 236.731 230.031" stroke="#161616" stroke-width="1.39" stroke-linecap="round"/>
<path d="M257.271 171.467C257.271 171.467 263.628 208.832 240.039 203.266C235.271 212.01 230.412 226.761 225.644 222.518C220.876 218.276 221.134 199.646 222.99 195.145C224.845 190.643 251.438 150.533 257.271 171.467Z" fill="#F9C110" stroke="#161616" stroke-width="1.39" stroke-linecap="round"/>
<path d="M229.461 273.532C232.766 278.281 236.677 282.578 241.096 286.314C236.733 282.52 232.829 278.231 229.461 273.532Z" fill="white" stroke="#161616" stroke-width="1.39" stroke-linecap="round"/>
<path d="M220.83 331.253C220.83 331.253 219.24 356.824 207.712 355.098C195.195 353.235 205.324 319.459 220.83 331.253Z" fill="#161616" stroke="#161616" stroke-width="1.39" stroke-linecap="round"/>
<path d="M270.528 330.499C269.294 325.924 254.343 325.36 218.118 313.215C218.118 313.215 208.526 326.992 206.815 341.043C247.484 331.894 248.195 357.77 251.352 357.77C254.509 357.77 249.422 342.011 249.422 342.011C249.422 342.011 254.872 355.65 256.992 355.65C259.112 355.65 254.176 339.708 254.176 339.708C254.176 339.708 260.157 354.408 262.095 354.194C263.836 354.034 260.581 340.318 259.914 338.031C259.869 337.931 259.833 337.826 259.808 337.719C259.808 337.665 259.846 337.787 259.914 338.031C260.671 339.83 265.774 348.705 267.72 349.056C269.832 349.406 263.677 333.289 263.677 333.289C263.677 333.289 271.755 335.104 270.528 330.499Z" fill="#F9C110"/>
<path opacity="0.6" d="M250.464 357.77C253.668 357.77 248.515 342.022 248.515 342.022C248.515 342.022 254.019 355.652 256.16 355.652C256.565 355.652 256.711 355.073 256.688 354.128C252.773 328.369 241.152 331.828 225.692 331.751C210.233 331.675 219.025 319.897 216.9 313.215C216.9 313.215 207.213 326.982 205.485 341.024C246.557 331.889 247.276 357.77 250.464 357.77Z" fill="#F9751C"/>
<path fill-rule="evenodd" clip-rule="evenodd" d="M270.046 330.474C268.804 325.914 253.759 325.352 217.308 313.245C217.308 313.245 207.656 326.978 205.934 340.985C246.857 331.865 247.574 357.66 250.75 357.66C253.927 357.66 248.808 341.95 248.808 341.95C248.808 341.95 254.292 355.547 256.425 355.547C258.558 355.547 253.592 339.655 253.592 339.655C253.592 339.655 259.61 354.308 261.56 354.095C263.312 353.936 260.036 340.263 259.366 337.983C259.32 337.883 259.284 337.779 259.259 337.672C259.259 337.618 259.297 337.74 259.366 337.983C260.128 339.777 265.262 348.623 267.22 348.973C269.345 349.322 263.152 333.256 263.152 333.256C263.152 333.256 271.28 335.065 270.046 330.474V330.474Z" stroke="#161616" stroke-linecap="round"/>
<path d="M529.503 332.906H484.093" stroke="#58BFED"/>
<path d="M529.503 341.981H484.093" stroke="#58BFED"/>
<path d="M529.503 351.055H484.093" stroke="#58BFED"/>
<path d="M529.503 360.13H484.093" stroke="#58BFED"/>
<path d="M259.251 337.71C259.276 337.817 259.312 337.921 259.358 338.021C259.289 337.778 259.251 337.656 259.251 337.71Z" fill="white" stroke="#161616" stroke-linecap="round"/>
<path d="M191.539 197.505C174.13 199.468 124.651 218.385 127.103 268.49C128.542 333.737 198.192 355.11 207.956 355.11C205.92 350.76 205.564 345.879 206.155 341.036C207.865 327.068 217.455 313.372 217.455 313.372C184.25 299.291 176.378 283.056 179.247 268.353C183.788 244.957 215.692 225.608 215.692 225.608" fill="#AADDF9"/>
<path opacity="0.38" d="M183.334 325.94C179.027 306.246 168.65 322.115 147.812 302.459C120.049 270.933 135.505 236.559 146.071 220.115C134.596 231.25 126.051 247.012 127.103 268.539C128.541 333.749 198.192 355.11 207.956 355.11C205.92 350.762 205.564 345.884 206.155 341.044C207.865 327.084 217.455 313.396 217.455 313.396L215.942 312.722C209.568 314.578 187.171 343.46 183.334 325.94Z" fill="#4FAEE8"/>
<path d="M204.155 234.08C205.555 232.858 206.892 231.727 208.145 230.755" stroke="#161616" stroke-width="1.39" stroke-linecap="round"/>
<path d="M191.539 197.505C174.13 199.468 124.651 218.385 127.103 268.49C128.542 333.737 198.192 355.11 207.956 355.11C205.92 350.76 205.564 345.879 206.155 341.036C207.865 327.068 217.455 313.372 217.455 313.372C184.25 299.291 176.378 283.056 179.247 268.353C181.517 256.583 190.752 245.836 199.335 238.037" stroke="#161616" stroke-width="1.39" stroke-linecap="round"/>
<path d="M418.413 352.718C399.182 393.189 374.037 430.567 343.805 463.622V483.455H538.204C564.539 332.307 465.001 327.845 465.001 327.845" fill="#F9C110"/>
<path opacity="0.6" d="M464.993 327.845L464.036 328.354C481.79 334.437 525.887 355.588 531.499 416.549C538.561 493.164 432.704 454.662 428.467 473.913C424.473 492.099 362.546 462.851 343.805 482.489V483.455H538.204C564.54 332.308 464.993 327.845 464.993 327.845Z" fill="#F9751C"/>
<path d="M418.413 352.718C399.182 393.189 374.037 430.567 343.805 463.622V483.455H538.204C564.539 332.307 465.001 327.845 465.001 327.845" stroke="#161616" stroke-width="1.39" stroke-linecap="round"/>
<path d="M436.278 291.536C436.278 291.536 429.46 305.223 437.501 313.88C442.511 307.861 456.478 285.844 436.278 291.536Z" fill="#161616" stroke="#161616" stroke-width="1.39" stroke-linecap="round"/>
<path d="M266.861 156.231C266.861 156.231 277.292 176.659 255.235 183.763C244.773 185.862 240.651 180.872 240.469 176.478C240.288 172.085 238.737 187.191 229.456 185.039C223.601 182.88 198.117 215.07 182.217 189.72C166.317 164.369 184.94 140.786 204.532 141.669C224.123 142.552 233.087 161.833 239.244 154.91C245.401 147.988 259.039 141.767 266.861 156.231Z" fill="#0F4DB2"/>
<rect x="472.15" y="248.71" width="63.175" height="31.92" rx="10.04" fill="#58BFED"/>
<rect x="472.15" y="290.605" width="63.175" height="31.92" rx="10.04" fill="#58BFED"/>
<path opacity="0.5" d="M263.921 151.62C265.809 157.524 269.822 175.032 251.426 176.358C243.598 176.891 243.203 164.808 237.72 169.722C232.238 174.636 236.129 180.738 229.497 180.868C222.865 180.997 210.918 171.581 206.944 182.727C202.969 193.873 183.591 195.244 176.89 179.222C177.976 182.898 179.576 186.402 181.642 189.629C197.632 215.213 223.299 182.727 229.192 184.906C238.535 187.077 240.096 171.84 240.279 176.266C240.461 180.693 244.611 185.736 255.142 183.618C277.345 176.449 266.845 155.833 266.845 155.833C266.039 154.319 265.057 152.904 263.921 151.62V151.62Z" fill="#073372"/>
<path fill-rule="evenodd" clip-rule="evenodd" d="M266.861 156.231C266.861 156.231 277.292 176.659 255.235 183.763C244.773 185.862 240.651 180.872 240.469 176.478C240.288 172.085 238.737 187.191 229.456 185.039C223.601 182.88 198.117 215.07 182.217 189.72C166.317 164.369 184.94 140.786 204.532 141.669C224.123 142.552 233.087 161.833 239.244 154.91C245.401 147.988 259.039 141.767 266.861 156.231V156.231Z" stroke="#161616" stroke-width="1.39" stroke-linecap="round"/>
<path d="M441.879 295.802C441.879 295.802 422.446 325.421 445.589 328.438C443.468 336.778 434.284 358.988 441.347 362.15C448.41 365.312 472.085 340.925 469.257 301.851C465.014 283.902 441.879 295.802 441.879 295.802Z" fill="#AADDF9" stroke="#161616" stroke-width="1.39" stroke-linecap="round"/>
<path d="M458.646 322.525C458.646 322.525 463.953 295.056 442.619 296.834C426.942 298.238 406.723 288.356 407.678 268.304C408.633 248.251 436.486 239.385 446.145 262.253C451.451 274.828 455.416 279.269 470.154 275.728C484.892 272.188 485.915 310.828 469.108 322.525C466.045 293.804 458.646 322.525 458.646 322.525Z" fill="#113389"/>
<path opacity="0.83" d="M442.588 296.337C463.914 294.594 458.626 321.86 458.626 321.86C458.626 321.86 466.03 293.328 469.095 321.86C485.452 310.558 484.928 273.953 471.371 275.173C474.603 278.061 478.252 283.769 474.967 293.768C469.657 309.883 463.003 284.74 446.897 286.483C430.791 288.226 416.476 290.273 407.645 267.995C407.797 270.587 408.025 273.058 408.336 275.393C411.977 290.319 428.986 297.55 442.588 296.337Z" fill="#0C81EC"/>
<path fill-rule="evenodd" clip-rule="evenodd" d="M458.418 321.436C458.418 321.436 463.743 294.042 442.336 295.815C426.605 297.215 406.316 287.361 407.275 267.363C408.233 247.365 436.182 238.522 445.874 261.328C451.199 273.869 455.177 278.298 469.966 274.767C484.754 271.236 485.781 309.771 468.916 321.436C465.843 292.794 458.418 321.436 458.418 321.436Z" stroke="#161616" stroke-width="1.39" stroke-linecap="round"/>
<path d="M301.695 310.653C301.695 310.653 310.489 309.413 308.899 312.86C307.309 316.307 302.539 316.619 301.033 313.705C299.527 310.79 301.695 310.653 301.695 310.653Z" fill="#9A5BFF" stroke="#161616" stroke-width="1.39" stroke-linecap="round"/>
<path d="M449.32 459.154C449.32 459.154 448.696 477.896 456.737 473.3C465.287 468.415 462.039 452.701 449.32 459.154Z" fill="#161616" stroke="#161616" stroke-width="1.39" stroke-linecap="round"/>
<path d="M281.087 314.07C281.087 314.07 291.737 302.017 301.542 311.308C308.556 317.959 307.004 320.797 300.614 316.528C302.79 319.427 305.939 324.898 296.978 319.062C300.188 322.342 300.021 324.663 298.096 324.389C296.172 324.115 292.391 320.698 292.391 320.698C292.391 320.698 295.434 328.247 292.642 326.953C289.85 325.659 287.195 318.202 285.096 320.508" fill="#9A5BFF"/>
<path d="M281.087 314.07C281.087 314.07 291.737 302.017 301.542 311.308C308.556 317.959 307.004 320.797 300.614 316.528C302.79 319.427 305.939 324.898 296.978 319.062C300.188 322.342 300.021 324.663 298.096 324.389C296.172 324.115 292.391 320.698 292.391 320.698C292.391 320.698 295.434 328.247 292.642 326.953C289.85 325.659 287.195 318.202 285.096 320.508" stroke="#161616" stroke-width="1.39" stroke-linecap="round"/>
<path d="M445.74 410.646C443.26 411.717 440.577 412.249 437.872 412.207C398.878 409.836 417.775 325.341 415.912 324.061C414.048 322.78 409.19 328.152 407.509 332.115C398.06 316.401 390.475 312.181 388.482 312.575C386.488 312.969 394.333 322.826 394.333 322.826C394.333 322.826 384.685 314.423 383.219 315.81C381.752 317.196 389.276 325.311 389.276 325.311C389.276 325.311 379.56 317.393 378.826 318.447C378.093 319.5 385.22 328.402 385.22 328.402C385.22 328.402 376.764 320.894 375.038 322.826C373.311 324.758 387.015 333.736 388.077 342.927C368.98 387.492 357.523 459.425 421.442 469.282C433.843 471.222 446.539 469.916 458.275 465.493C461.086 444.627 453.065 424.193 445.74 410.646Z" fill="#AADDF9"/>
<path opacity="0.6" d="M456.469 437.853C456.247 457.116 372.971 472.132 374.148 392.35C369.562 427.941 378.489 462.645 421.457 469.281C433.865 471.223 446.569 469.916 458.311 465.489C459.429 456.243 458.805 446.872 456.469 437.853Z" fill="#40BEF4"/>
<path fill-rule="evenodd" clip-rule="evenodd" d="M445.74 410.646C443.26 411.717 440.577 412.249 437.872 412.207C398.878 409.836 417.775 325.341 415.912 324.061C414.048 322.78 409.19 328.152 407.509 332.115C398.06 316.401 390.475 312.181 388.482 312.575C386.488 312.969 394.333 322.826 394.333 322.826C394.333 322.826 384.685 314.423 383.219 315.81C381.752 317.196 389.276 325.311 389.276 325.311C389.276 325.311 379.56 317.393 378.826 318.447C378.093 319.5 385.22 328.402 385.22 328.402C385.22 328.402 376.764 320.894 375.038 322.826C373.311 324.758 387.015 333.736 388.077 342.927C368.98 387.492 357.523 459.425 421.442 469.282C433.843 471.222 446.539 469.916 458.275 465.493C461.086 444.627 453.065 424.193 445.74 410.646V410.646Z" stroke="#161616" stroke-width="1.39" stroke-linecap="round"/>
<path d="M468.3 359.1C467.664 368.628 465.913 378.047 463.083 387.164C459.824 397.075 454.592 406.719 446.215 410.401C453.468 424.033 461.473 444.595 458.693 465.53C458.312 468.441 457.718 471.321 456.916 474.145C490.264 460.33 513.557 431.108 523.355 401.878" fill="#F9C110"/>
<path opacity="0.6" d="M504.05 422.831C490.507 447.365 456.404 418.146 456.19 437.373C458.516 446.365 459.138 455.708 458.027 464.926C457.645 467.817 457.049 470.676 456.244 473.48C489.471 459.855 512.737 431.158 522.69 402.325C518.285 404.089 511.625 409.092 504.05 422.831Z" fill="#F9751C"/>
<path d="M468.3 359.1C467.664 368.628 465.913 378.047 463.083 387.164C459.824 397.075 454.592 406.719 446.215 410.401C453.468 424.033 461.473 444.595 458.693 465.53C458.312 468.441 457.718 471.321 456.916 474.145C490.264 460.33 513.557 431.108 523.355 401.878" stroke="#161616" stroke-width="1.39" stroke-linecap="round"/>
<path d="M57.8553 163.59H132.335V214.13H57.8553L57.8553 163.59Z" fill="#58BFED" stroke="#161616" stroke-width="1.39" stroke-linecap="round"/>
<rect x="556.605" y="405.65" width="75.81" height="64.505" rx="32.2525" fill="#AADDF9"/>
<path opacity="0.38" d="M603.811 405.65H600.189C609.259 409.631 620.841 418.193 619.311 435.806C616.838 464.271 596.148 447.298 597.564 457.376C598.873 466.661 570.931 466.007 564.585 461.44C569.966 467.015 577.383 470.161 585.13 470.155H603.804C611.393 470.155 618.672 467.139 624.037 461.77C629.403 456.402 632.417 449.12 632.415 441.529V434.268C632.417 426.679 629.404 419.4 624.04 414.032C618.675 408.665 611.399 405.65 603.811 405.65V405.65Z" fill="#4FAEE8"/>
<rect x="556.707" y="405.199" width="75.8347" height="64.5761" rx="32.2881" stroke="#161616" stroke-width="1.39" stroke-linecap="round"/>
<path d="M604.89 255.748L615.351 266.636L604.89 255.748Z" fill="#F9D564"/>
<path d="M604.89 255.748L615.351 266.636" stroke="#161616" stroke-width="1.39" stroke-linecap="round"/>
<path d="M615.352 270.355C614.345 270.356 613.382 269.946 612.683 269.22L602.215 258.331C600.954 256.837 601.065 254.618 602.469 253.258C603.872 251.897 606.088 251.86 607.536 253.173L618.005 264.061C619.035 265.136 619.325 266.723 618.742 268.094C618.159 269.465 616.816 270.355 615.329 270.355H615.352Z" fill="#F9D564" stroke="#161616" stroke-width="1.39" stroke-linecap="round"/>
<path fill-rule="evenodd" clip-rule="evenodd" d="M573.18 245.279C573.18 256.132 581.959 264.93 592.787 264.93C603.611 264.917 612.381 256.126 612.394 245.279C612.394 234.426 603.616 225.628 592.787 225.628C581.959 225.628 573.18 234.426 573.18 245.279ZM580.623 245.256C580.623 238.523 586.069 233.065 592.787 233.065V233.049C596.016 233.049 599.112 234.336 601.393 236.625C603.675 238.915 604.955 242.02 604.951 245.256C604.951 251.989 599.505 257.447 592.787 257.447C586.069 257.447 580.623 251.989 580.623 245.256Z" fill="#F9D564"/>
<path d="M592.787 264.93V265.625H592.788L592.787 264.93ZM612.394 245.279L613.089 245.28V245.279H612.394ZM592.787 233.065V233.76H593.482V233.065H592.787ZM592.787 233.049V232.354L592.092 232.354V233.049H592.787ZM604.951 245.256L604.256 245.255V245.256H604.951ZM592.787 264.235C582.344 264.235 573.875 255.749 573.875 245.279H572.485C572.485 256.514 581.573 265.625 592.787 265.625V264.235ZM611.699 245.278C611.687 255.744 603.225 264.223 592.786 264.235L592.788 265.625C603.996 265.612 613.076 256.509 613.089 245.28L611.699 245.278ZM592.787 226.323C603.23 226.323 611.699 234.808 611.699 245.279H613.089C613.089 234.043 604.001 224.933 592.787 224.933V226.323ZM573.875 245.279C573.875 234.808 582.344 226.323 592.787 226.323V224.933C581.573 224.933 572.485 234.043 572.485 245.279H573.875ZM592.787 232.37C585.684 232.37 579.928 238.14 579.928 245.256H581.318C581.318 238.905 586.454 233.76 592.787 233.76V232.37ZM592.092 233.049V233.065H593.482V233.049H592.092ZM601.886 236.135C599.474 233.715 596.201 232.354 592.787 232.354V233.744C595.831 233.744 598.75 234.957 600.901 237.116L601.886 236.135ZM605.646 245.257C605.65 241.837 604.298 238.555 601.886 236.135L600.901 237.116C603.053 239.275 604.26 242.203 604.256 245.255L605.646 245.257ZM592.787 258.142C599.89 258.142 605.646 252.371 605.646 245.256H604.256C604.256 251.607 599.119 256.752 592.787 256.752V258.142ZM579.928 245.256C579.928 252.371 585.684 258.142 592.787 258.142V256.752C586.454 256.752 581.318 251.607 581.318 245.256H579.928Z" fill="#161616"/>
<path d="M570.117 282.965H621.784H570.117Z" fill="white"/>
<path d="M570.117 282.965H621.784" stroke="#161616" stroke-width="1.39" stroke-linecap="round"/>
<path d="M570.117 307.394H621.784H570.117Z" fill="white"/>
<path d="M570.117 307.394H621.784" stroke="#161616" stroke-width="1.39" stroke-linecap="round"/>
<path d="M570.117 331.83H621.784H570.117Z" fill="white"/>
<path d="M570.117 331.83H621.784" stroke="#161616" stroke-width="1.39" stroke-linecap="round"/>
<path d="M570.117 356.258H621.784H570.117Z" fill="white"/>
<path d="M570.117 356.258H621.784" stroke="#161616" stroke-width="1.39" stroke-linecap="round"/>
<path d="M570.117 380.687H621.784H570.117Z" fill="white"/>
<path d="M570.117 380.687H621.784" stroke="#161616" stroke-width="1.39" stroke-linecap="round"/>
<path d="M592.772 442.291V501.77V442.291Z" fill="white"/>
<path d="M592.772 442.291V501.77" stroke="#161616" stroke-width="1.39" stroke-linecap="round"/>
<path d="M58.1209 229.506H103.166" stroke="#161616" stroke-width="1.39" stroke-linecap="round"/>
<path d="M58.1209 244.38H103.166" stroke="#161616" stroke-width="1.39" stroke-linecap="round"/>
<path d="M58.1209 259.245H103.166" stroke="#161616" stroke-width="1.39" stroke-linecap="round"/>
<path d="M58.1209 274.119H85.1477" stroke="#161616" stroke-width="1.39" stroke-linecap="round"/>
<path d="M445.641 328.462C449.503 329.331 454.384 328.378 454.384 328.378C454.384 329.613 451.016 336.76 443.026 336.973C444.341 332.866 445.641 328.462 445.641 328.462Z" fill="#161616" stroke="#161616" stroke-width="1.39" stroke-linecap="round"/>
<path d="M240.397 202.777C236.873 201.593 234.281 198.568 233.646 194.898C232.453 199.607 233.776 205.169 237.448 208.217C238.588 206.343 240.397 202.777 240.397 202.777Z" fill="#161616" stroke="#161616" stroke-width="1.39" stroke-linecap="round"/>
<path d="M354.883 195.5C357.31 195.5 359.277 193.528 359.277 191.096C359.277 188.663 357.31 186.691 354.883 186.691C352.456 186.691 350.489 188.663 350.489 191.096C350.489 193.528 352.456 195.5 354.883 195.5Z" fill="#F9C110" stroke="#161616" stroke-width="1.39"/>
<path d="M373.312 195.5C375.739 195.5 377.706 193.528 377.706 191.096C377.706 188.663 375.739 186.691 373.312 186.691C370.885 186.691 368.918 188.663 368.918 191.096C368.918 193.528 370.885 195.5 373.312 195.5Z" fill="#F9C110" stroke="#161616" stroke-width="1.39"/>
<path d="M391.74 195.5C394.166 195.5 396.134 193.528 396.134 191.096C396.134 188.663 394.166 186.691 391.74 186.691C389.313 186.691 387.345 188.663 387.345 191.096C387.345 193.528 389.313 195.5 391.74 195.5Z" fill="#F9C110" stroke="#161616" stroke-width="1.39"/>
<path d="M53.2321 133.842C55.1089 133.842 56.6304 132.317 56.6304 130.436C56.6304 128.555 55.1089 127.03 53.2321 127.03C51.3553 127.03 49.8338 128.555 49.8338 130.436C49.8338 132.317 51.3553 133.842 53.2321 133.842Z" fill="#698BF7" stroke="#161616" stroke-width="1.39"/>
<path d="M67.487 133.842C69.3638 133.842 70.8853 132.317 70.8853 130.436C70.8853 128.555 69.3638 127.03 67.487 127.03C65.6102 127.03 64.0887 128.555 64.0887 130.436C64.0887 132.317 65.6102 133.842 67.487 133.842Z" fill="#698BF7" stroke="#161616" stroke-width="1.39"/>
<path d="M81.7487 133.842C83.6255 133.842 85.147 132.317 85.147 130.436C85.147 128.555 83.6255 127.03 81.7487 127.03C79.8719 127.03 78.3504 128.555 78.3504 130.436C78.3504 132.317 79.8719 133.842 81.7487 133.842Z" fill="#698BF7" stroke="#161616" stroke-width="1.39"/>
<path d="M261.593 131.434H246.495" stroke="#161616" stroke-width="1.39"/>
<path d="M343.805 502.075H647.71V521.36H343.805V502.075Z" fill="#AADDF9"/>
<path opacity="0.38" d="M557.27 521.36H647.71V502.075H607.502C602.642 508.639 589.983 517.293 557.27 521.36Z" fill="#4FAEE8"/>
<path fill-rule="evenodd" clip-rule="evenodd" d="M343.805 502.075H647.71V521.36H343.805V502.075Z" stroke="#161616" stroke-width="1.39" stroke-linecap="round"/>
<path d="M92.7679 205.485C101.766 205.485 109.06 198.191 109.06 189.192C109.06 180.194 101.766 172.9 92.7679 172.9C83.7698 172.9 76.4754 180.194 76.4754 189.192C76.4754 198.191 83.7698 205.485 92.7679 205.485Z" fill="#B5811C"/>
<path d="M53.8923 331.075H89.9493" stroke="white"/>
<path d="M53.8923 338.177H115.22" stroke="white"/>
<path d="M53.8923 345.279H115.22" stroke="white"/>
<path d="M356.544 510.994H550.331" stroke="#161616"/>
<path d="M561.468 510.994H570.817" stroke="#161616"/>
<path d="M409.718 345.085C409.718 345.085 402.731 347.372 405.78 374.575C408.653 397.158 410.311 342.424 409.718 345.085Z" fill="white"/>
<path d="M409.817 387.201C409.817 387.201 407.331 381.101 406.776 387.201C406.221 393.3 410.045 394.375 409.817 387.201Z" fill="white"/>
<path d="M453.288 411.293C453.288 411.293 458.496 401.298 461.286 404.995C464.076 408.693 448.712 420.465 453.288 411.293Z" fill="white"/>
<path d="M425.478 251.873C425.478 251.873 412.409 252.399 411.702 261.967C410.995 271.536 414.705 256.196 421.943 256.867C429.18 257.538 429.013 251.355 425.478 251.873Z" fill="white"/>
<path d="M412.76 268.013C412.76 268.013 409.468 267.823 409.719 270.956C409.969 274.09 413.664 270.926 412.76 268.013Z" fill="white"/>
<path d="M356.327 279.061C356.327 279.061 365.693 272.199 368.43 276.293C371.167 280.387 352.822 283.559 356.327 279.061Z" fill="white"/>
<path d="M327.756 282.865C327.756 282.865 311.304 282.476 304.63 276.293C297.955 270.11 298.837 287.508 326.395 286.608C336.811 286.586 331.056 281.805 327.756 282.865Z" fill="white"/>
<path d="M296.563 272.252C296.563 272.252 294.07 267.281 292.306 270.118C290.542 272.954 294.465 276.514 296.563 272.252Z" fill="white"/>
<path d="M202.605 225.654C202.605 225.654 198.165 213.966 187.568 221.224C176.97 228.482 162.13 250.104 167.604 259.84C173.077 269.576 179.973 237.73 187.743 235.398C195.512 233.065 205.213 229.695 202.605 225.654Z" fill="white"/>
<path d="M169.375 266.588C169.375 266.588 166.015 264.3 165.483 271.741C164.95 279.183 174.849 272.809 169.375 266.588Z" fill="white"/>
<path d="M209.645 145.067C209.645 145.067 194.85 141.789 189.878 151.007C184.906 160.224 196.021 146.661 200.438 149.146C204.855 151.632 214.944 149.489 209.645 145.067Z" fill="white"/>
<path d="M243.673 156.221C243.673 156.221 248.47 150.198 252.195 151.083C255.921 151.967 242.373 159.408 243.673 156.221Z" fill="white"/>
<path d="M188.624 156.046C188.624 156.046 185.781 153.553 184.732 157.014C183.682 160.476 186.564 160.056 188.624 156.046Z" fill="white"/>
<path d="M257.327 329.166C257.327 329.166 247.877 322.983 247.482 326.216C247.087 329.448 260.71 332.78 257.327 329.166Z" fill="white"/>
<path d="M243.673 324.493C243.673 324.493 240.549 322.724 240.549 324.493C240.549 326.261 243.803 327.565 243.673 324.493Z" fill="white"/>
<path d="M441.072 263.602C442.063 265.904 442.827 268.296 443.353 270.746C446.829 286.273 466.168 280.558 466.168 280.558" stroke="white"/>
<path d="M432.554 255.516C432.554 255.516 434.988 255.417 437.703 258.305" stroke="white"/>
<path d="M416.942 408.587C421.505 413.763 428.494 418.642 438.312 417.137" stroke="white"/>
<path d="M410.485 398.274C411.252 400.102 412.167 401.863 413.223 403.541" stroke="white"/>
<path d="M364.925 448.898C359.111 455.523 352.726 461.627 345.844 467.138" stroke="white"/>
<path d="M372.765 437.787C371.989 439.341 371.089 440.83 370.073 442.24" stroke="white"/>
<path d="M174.887 290.233C178.955 296.86 185.815 305.136 195.815 308.191" stroke="white"/>
<path d="M170.24 281.014C170.24 281.014 170.727 282.359 171.761 284.472" stroke="white"/>
<path d="M270.624 241.775C270.077 240.478 269.57 239.133 269.103 237.739" stroke="white"/>
<path d="M286.99 266.095C286.99 266.095 279.028 259.042 272.716 246.381" stroke="white"/>
<path d="M180.643 172.349C180.788 178.725 183.031 187.42 192.902 192.595" stroke="white"/>
<path d="M181.511 164.407C181.212 165.537 180.995 166.688 180.864 167.85" stroke="white"/>
<path d="M441.399 302.195C441.118 302.795 438.577 307.971 436.326 309.917C434.075 311.862 438.494 312.197 440.342 312.463" stroke="#141414"/>
<path d="M452.464 303.636C452.659 302.755 450.923 301.62 448.586 301.102C446.249 300.584 444.196 300.878 444 301.759C443.804 302.64 445.54 303.774 447.878 304.292C450.215 304.811 452.268 304.517 452.464 303.636Z" fill="white" stroke="#141414"/>
<path d="M447.028 301.272C445.525 301.139 444.365 301.496 444.232 302.235C444.099 302.973 445.022 303.894 446.434 304.508C446.933 304.674 447.469 304.499 447.825 304.053C448.182 303.607 448.302 302.963 448.136 302.38C447.971 301.797 447.547 301.371 447.035 301.272H447.028Z" fill="#141414"/>
<path d="M439.149 301.181C439.345 300.3 437.608 299.164 435.271 298.646C432.933 298.127 430.879 298.421 430.683 299.303C430.487 300.185 432.224 301.32 434.562 301.839C436.9 302.357 438.954 302.063 439.149 301.181Z" fill="white" stroke="#141414" stroke-width="1.39"/>
<path d="M433.734 297.948C432.228 297.815 431.066 298.163 430.933 298.902C430.799 299.64 431.717 300.561 433.131 301.183C433.631 301.349 434.168 301.174 434.525 300.728C434.882 300.282 435.002 299.638 434.836 299.055C434.67 298.472 434.246 298.046 433.734 297.948Z" fill="#141414"/>
<path d="M253.846 187.53C253.846 188.194 253.657 193.919 254.546 196.66C255.435 199.401 252.118 197.695 250.705 197.068" stroke="#141414" stroke-width="1.39" stroke-linecap="round"/>
<path d="M250.705 188.295C250.897 187.412 249.156 186.284 246.816 185.775C244.476 185.266 242.423 185.569 242.231 186.452C242.039 187.334 243.781 188.462 246.121 188.971C248.461 189.48 250.513 189.177 250.705 188.295Z" fill="white" stroke="#141414" stroke-width="1.39"/>
<path d="M247.83 186.264C249.225 186.887 250.16 187.783 250.027 188.529C249.895 189.276 248.737 189.625 247.237 189.5C246.723 189.408 246.294 188.983 246.125 188.398C245.956 187.813 246.075 187.165 246.433 186.716C246.792 186.268 247.33 186.094 247.83 186.264Z" fill="#141414"/>
<path d="M263.626 190.476C263.818 189.594 262.077 188.466 259.737 187.957C257.397 187.448 255.344 187.751 255.152 188.633C254.96 189.516 256.701 190.644 259.042 191.153C261.382 191.662 263.434 191.359 263.626 190.476Z" fill="white" stroke="#141414" stroke-width="1.39"/>
<path d="M261.07 188.203C262.499 188.836 263.463 189.747 263.328 190.507C263.192 191.267 262.006 191.621 260.469 191.495C259.757 191.194 259.301 190.369 259.355 189.477C259.619 188.645 260.32 188.124 261.07 188.203Z" fill="#141414"/>
<path d="M438.003 316.044C437.686 315.982 437.359 316.073 437.121 316.291C436.884 316.508 436.764 316.825 436.8 317.145C436.993 319.116 438.455 320.729 440.402 321.121C442.35 321.512 444.325 320.588 445.268 318.846C445.425 318.565 445.439 318.227 445.305 317.935C445.171 317.642 444.906 317.431 444.59 317.365L438.003 316.044Z" fill="white" stroke="#141414" stroke-width="1.39"/>
<path d="M247.968 200.065C247.968 200.065 244.122 200.065 242.142 195.609" stroke="#141414" stroke-width="1.39" stroke-linecap="round"/>
<path d="M396.528 465.847C396.528 465.847 409.977 474.957 422.003 474.024" stroke="#141414" stroke-width="1.39" stroke-linecap="round"/>
<path d="M162.246 341.926C162.246 341.926 181.673 359.441 205.754 358.956" stroke="#141414" stroke-width="1.39" stroke-linecap="round"/>
<path d="M42.3054 256.734H31.6891V331.684H42.3054" stroke="#141414" stroke-width="1.39" stroke-linecap="round"/>
</svg>
