<svg width="550" height="550" viewBox="0 0 550 550" fill="none" xmlns="http://www.w3.org/2000/svg">
<path opacity="0.47" d="M509.715 388.114C509.715 388.114 347.109 551.36 91.8223 451.863C-73.0382 371.691 32.1017 221.024 127.64 240.64C223.177 260.255 175.402 109.588 260.686 79.4526C345.969 49.3167 435.237 104.471 415.925 181.793C396.614 259.115 511.881 236.998 534.049 284.703C566.035 339.851 509.715 388.114 509.715 388.114Z" fill="#2293FC"/>
<path d="M53.7883 87.2494H305.649V274.772H53.7883L53.7883 87.2494Z" fill="#FC5480" stroke="#1E1E1E" stroke-width="1.24"/>
<path opacity="0.52" d="M305.649 274.772V100.823C303.882 95.5972 302.172 91.0243 300.531 87.2494H290.397C292.677 113.655 297.998 184.44 293.564 225.325C288.789 253.959 261.655 218.991 259.14 243.528C261.332 275.95 53.7883 267.083 53.7883 267.083V274.766L305.649 274.772Z" fill="#D11E5E"/>
<path d="M53.7883 87.2494H305.649V100.981H53.7883L53.7883 87.2494Z" fill="white" stroke="#1E1E1E" stroke-width="1.24"/>
<path d="M95.4769 115.168H253.617V222.335H95.4769V115.168Z" fill="#E53068"/>
<path opacity="0.52" d="M253.617 118.411C253.432 117.259 253.235 116.178 253.028 115.168H238.461V155.305C238.461 155.305 238.328 161.265 244.541 161.462C250.748 161.918 240.431 215.621 205.703 214.266C170.975 212.91 148.554 211.872 148.389 215.533C148.275 218.155 114.909 216.343 95.5023 218.066V222.297H253.617V118.411Z" fill="#B21857"/>
<path fill-rule="evenodd" clip-rule="evenodd" d="M95.4769 115.168H253.617V222.335H95.4769V115.168Z" stroke="#1E1E1E"/>
<path d="M168.536 122.427H239.348" stroke="white"/>
<path d="M168.536 136.937H239.348" stroke="white"/>
<path d="M239.348 151.454H168.536" stroke="white"/>
<path d="M168.536 165.971H239.348" stroke="white"/>
<path d="M168.536 180.488H239.348" stroke="white"/>
<path d="M168.536 194.999H239.348" stroke="white"/>
<path d="M168.536 209.516H239.348" stroke="white"/>
<path opacity="0.51" d="M103.179 122.427H162.089V185.327H103.179L103.179 122.427Z" fill="white"/>
<path fill-rule="evenodd" clip-rule="evenodd" d="M100.443 120.495H159.353V183.395H100.443L100.443 120.495Z" stroke="white" stroke-width="1.24" stroke-linecap="round"/>
<path opacity="0.51" d="M103.179 190.882H162.089V209.452H103.179L103.179 190.882Z" fill="white"/>
<path fill-rule="evenodd" clip-rule="evenodd" d="M100.443 188.526H159.353V207.096H100.443L100.443 188.526Z" stroke="white" stroke-width="1.24" stroke-linecap="round"/>
<path d="M163.666 168.524L163.533 155.768L163.393 143.005L80.4214 140.655C67.7983 140.294 57.2779 147.711 57.373 156.901C57.4743 166.085 68.1403 173.28 80.7634 172.647L163.666 168.524Z" fill="#F9DD12"/>
<path opacity="0.57" d="M102.539 164.337C78.5276 172.862 58.3483 161.474 58.3293 161.462C61.2302 168.34 70.3634 173.166 80.7571 172.647L90.188 172.178C102.026 168.315 110.165 163.096 102.539 164.337Z" fill="#F78B14"/>
<path opacity="0.57" d="M134.309 164.629C127.836 164.806 134.189 143.594 136.665 142.232L131.712 142.106C125.29 148.167 115.7 161.519 116.955 170.848L166.598 168.403C157.554 159.042 140.446 164.476 134.309 164.629Z" fill="#F78B14"/>
<path fill-rule="evenodd" clip-rule="evenodd" d="M163.666 168.524L163.533 155.768L163.393 143.005L80.4214 140.655C67.7983 140.294 57.2779 147.711 57.373 156.901C57.4743 166.085 68.1403 173.28 80.7634 172.647L163.666 168.524Z" stroke="#1E1E1E" stroke-width="1.24"/>
<path d="M159.358 150.15L158.345 151.948L159.358 150.15Z" fill="white"/>
<path d="M159.358 150.15L158.345 151.948" stroke="#1E1E1E" stroke-width="1.24" stroke-linecap="round"/>
<path d="M161.227 164.42L168.625 176.929C170.034 179.312 172.609 180.761 175.377 180.729L195.398 180.514C198.167 180.487 200.711 178.982 202.067 176.568L206.849 168.087C207.236 167.399 207.226 166.556 206.824 165.877C206.422 165.198 205.688 164.785 204.898 164.793L185.663 165.002L181.951 157.744C181.251 156.382 181.233 154.77 181.901 153.393L185.46 146.058L204.702 145.855C205.494 145.854 206.225 145.428 206.617 144.74C207.01 144.052 207.004 143.207 206.602 142.524L201.643 134.144C200.228 131.764 197.654 130.316 194.885 130.344L174.864 130.559C172.096 130.591 169.554 132.095 168.194 134.505L160.778 147.679" fill="#F9DD12"/>
<path opacity="0.57" d="M195.398 180.514C198.167 180.487 200.711 178.982 202.067 176.568L206.849 168.087C207.236 167.399 207.226 166.556 206.824 165.877C206.422 165.198 205.688 164.785 204.898 164.793L195.562 164.895C195.571 164.945 195.586 164.994 195.607 165.04C195.607 165.04 201.035 165.775 200.18 170.221C199.325 174.667 199.268 176.365 187.303 176.498C166.402 177.182 162.602 161.81 161.234 164.464L168.625 176.954C170.034 179.337 172.609 180.786 175.377 180.754L195.398 180.514Z" fill="#F78B14"/>
<path opacity="0.57" d="M181.901 153.393L185.46 146.058L204.696 145.855C205.488 145.854 206.219 145.428 206.611 144.74C207.004 144.052 206.998 143.207 206.596 142.524L201.637 134.144C200.222 131.764 197.648 130.316 194.879 130.344L187.082 130.426C188.938 130.895 197.672 133.384 197.849 139.167C197.989 143.753 186.404 137.989 182.61 143.81C178.816 149.63 177.189 153.031 178.43 155.844C179.671 158.656 183.909 165.61 185.682 165.009L181.971 157.75C181.263 156.39 181.237 154.775 181.901 153.393Z" fill="#F78B14"/>
<path d="M161.227 164.42L168.625 176.929C170.034 179.312 172.609 180.761 175.377 180.729L195.398 180.514C198.167 180.487 200.711 178.982 202.067 176.568L206.849 168.087C207.236 167.399 207.226 166.556 206.824 165.877C206.422 165.198 205.688 164.785 204.898 164.793L185.663 165.002L181.951 157.744C181.251 156.382 181.233 154.77 181.901 153.393L185.46 146.058L204.702 145.855C205.494 145.854 206.225 145.428 206.617 144.74C207.01 144.052 207.004 143.207 206.602 142.524L201.643 134.144C200.228 131.764 197.654 130.316 194.885 130.344L174.864 130.559C172.096 130.591 169.554 132.095 168.194 134.505L160.778 147.679" stroke="#1E1E1E" stroke-width="1.24" stroke-linecap="round"/>
<path d="M107.663 257.43C130.05 257.43 148.199 255.817 148.199 253.826C148.199 251.836 130.05 250.222 107.663 250.222C85.2757 250.222 67.1272 251.836 67.1272 253.826C67.1272 255.817 85.2757 257.43 107.663 257.43Z" fill="#1E1E1E" stroke="#1E1E1E" stroke-width="1.24" stroke-linecap="round"/>
<path d="M128.324 170.418C128.324 170.418 149.117 161.848 152.841 167.111C156.566 172.375 129.109 181.793 136.374 253.389C126.955 254.371 79.2942 253.389 79.2942 253.389C82.233 250.222 92.6964 203.233 85.1782 185.517C75.2723 162.177 78.4455 135.24 92.8294 138.052C98.9097 131.775 105.775 129.419 108.322 135.303C112.641 132.365 120.615 129.875 122.383 135.569C127.481 132.403 134.151 132.821 135.525 137.723C136.899 142.625 125.974 143.74 128.324 170.418Z" fill="#72CEFC"/>
<path opacity="0.52" d="M96.7627 134.619C97.1859 134.691 97.6206 134.605 97.9851 134.379C100.734 132.814 104.154 133.277 102.697 135.854C99.4419 141.605 99.7332 152.126 102.875 151.733C103.464 151.391 103.267 149.833 103.267 149.833C102.662 144.475 104.526 139.133 108.334 135.316C108.258 135.132 108.17 134.961 108.081 134.79C105.934 130.718 101.437 131.288 96.7627 134.619H96.7627Z" fill="#35A5F9"/>
<path opacity="0.52" d="M123.554 164.793C123.877 179.703 132.84 179.715 131.592 178.132C129.91 175.854 128.79 173.211 128.324 170.418C125.974 143.74 136.893 142.625 135.519 137.723C134.423 133.828 129.989 132.789 125.651 134.1C128.229 134.315 131.985 135.246 131.269 138.901C130.224 144.392 123.225 149.909 123.554 164.793Z" fill="#35A5F9"/>
<path opacity="0.52" d="M86.755 138.876C87.6861 139.509 89.0605 140.142 88.5031 141.092C87.477 142.859 88.0344 150.998 89.3962 150.802C89.5424 150.258 89.6211 149.699 89.6305 149.136C88.8515 141.58 92.7974 138.052 92.7974 138.052C90.7497 137.593 88.6051 137.885 86.755 138.876H86.755Z" fill="#35A5F9"/>
<path opacity="0.52" d="M117.93 149.82C117.352 144.659 118.959 139.491 122.364 135.569C121.097 131.452 116.568 131.611 112.527 133.131C114.339 133.853 116.328 134.809 115.561 136.678C113.895 140.896 113.933 149.725 117.784 151.049C118.126 151.176 117.93 149.82 117.93 149.82Z" fill="#35A5F9"/>
<path opacity="0.52" d="M135.975 192.871C126.557 217.496 132.384 234.755 117.797 235.94C103.21 237.124 118.126 247.708 104.788 248.493C93.3868 249.158 82.8981 247.157 80.048 253.408C86.179 253.529 127.652 254.301 136.367 253.408C129.4 184.947 154.229 173.344 153.158 167.852C149.573 169.771 142.581 175.592 135.975 192.871Z" fill="#35A5F9"/>
<path fill-rule="evenodd" clip-rule="evenodd" d="M128.324 170.418C128.324 170.418 149.117 161.848 152.841 167.111C156.566 172.375 129.109 181.793 136.374 253.389C126.955 254.371 79.2942 253.389 79.2942 253.389C82.233 250.222 92.6964 203.233 85.1782 185.517C75.2723 162.177 78.4455 135.24 92.8294 138.052C98.9097 131.775 105.775 129.419 108.322 135.303C112.641 132.365 120.615 129.875 122.383 135.569C127.481 132.403 134.151 132.821 135.525 137.723C136.899 142.625 125.974 143.74 128.324 170.418Z" stroke="#1E1E1E" stroke-width="1.24"/>
<path d="M92.8235 138.052C92.8235 138.052 88.8522 141.58 89.6566 149.136" stroke="#1E1E1E" stroke-width="1.24" stroke-linecap="round"/>
<path d="M108.315 135.303C104.507 139.121 102.643 144.463 103.248 149.82" stroke="#1E1E1E" stroke-width="1.24" stroke-linecap="round"/>
<path d="M122.377 135.569C118.972 139.491 117.365 144.659 117.943 149.82" stroke="#1E1E1E" stroke-width="1.24" stroke-linecap="round"/>
<path d="M186.385 250.9V298.371" stroke="#1E1E1E" stroke-width="1.24" stroke-linecap="round"/>
<path d="M154.412 234.559H201.098V255.353H154.412V234.559Z" fill="white" stroke="#1E1E1E" stroke-width="1.24"/>
<path d="M63.789 96.275C64.9818 96.275 65.9488 95.308 65.9488 94.1152C65.9488 92.9224 64.9818 91.9554 63.789 91.9554C62.5961 91.9554 61.6292 92.9224 61.6292 94.1152C61.6292 95.308 62.5961 96.275 63.789 96.275Z" fill="#35A5F9" stroke="#1E1E1E" stroke-width="1.24" stroke-linecap="round"/>
<path d="M74.2391 96.275C75.432 96.275 76.3989 95.308 76.3989 94.1152C76.3989 92.9224 75.432 91.9554 74.2391 91.9554C73.0463 91.9554 72.0793 92.9224 72.0793 94.1152C72.0793 95.308 73.0463 96.275 74.2391 96.275Z" fill="#35A5F9" stroke="#1E1E1E" stroke-width="1.24" stroke-linecap="round"/>
<path d="M84.6902 96.275C85.883 96.275 86.85 95.308 86.85 94.1152C86.85 92.9224 85.883 91.9554 84.6902 91.9554C83.4974 91.9554 82.5304 92.9224 82.5304 94.1152C82.5304 95.308 83.4974 96.275 84.6902 96.275Z" fill="#35A5F9" stroke="#1E1E1E" stroke-width="1.24" stroke-linecap="round"/>
<path opacity="0.65" d="M74.24 134.562C80.0117 134.562 84.6906 129.883 84.6906 124.112C84.6906 118.34 80.0117 113.661 74.24 113.661C68.4682 113.661 63.7893 118.34 63.7893 124.112C63.7893 129.883 68.4682 134.562 74.24 134.562Z" fill="white"/>
<path fill-rule="evenodd" clip-rule="evenodd" d="M72.0865 131.11C77.8582 131.11 82.5372 126.432 82.5372 120.66C82.5372 114.888 77.8582 110.209 72.0865 110.209C66.3148 110.209 61.6359 114.888 61.6359 120.66C61.6359 126.432 66.3148 131.11 72.0865 131.11Z" stroke="#1E1E1E" stroke-width="1.24" stroke-linecap="round"/>
<path d="M284.729 94.1151H295.705H284.729Z" fill="white"/>
<path d="M284.729 94.1151H295.705" stroke="#1E1E1E" stroke-width="1.24" stroke-linecap="round"/>
<path d="M121.686 303.869H198.185V347.413H121.686L121.686 303.869Z" fill="#1E1E1E" stroke="#1E1E1E" stroke-width="1.24"/>
<path d="M117.569 298.371H194.067V341.916H117.569L117.569 298.371Z" fill="#F97AA1"/>
<path opacity="0.52" d="M118.069 341.922H194.074V298.371H170.956C170.43 301.665 170.785 305.63 175.535 305.63C183.642 305.63 189 315.833 184.035 318.057C179.069 320.28 189 335.842 176.314 337.279C163.627 338.717 119.627 334.664 117.569 339.503V341.238C117.695 341.493 117.864 341.724 118.069 341.922Z" fill="#D11E5E"/>
<path fill-rule="evenodd" clip-rule="evenodd" d="M117.569 298.371H194.067V341.916H117.569L117.569 298.371Z" stroke="#1E1E1E" stroke-width="1.24"/>
<path d="M117.569 298.371H194.067V305.63H117.569L117.569 298.371Z" fill="white" stroke="#1E1E1E" stroke-width="1.24"/>
<path opacity="0.27" d="M194.068 298.371H170.956C170.43 301.665 170.785 305.63 175.535 305.63H194.068V298.371Z" fill="#35A5F9"/>
<path opacity="0.52" d="M135.031 333.91C140.425 333.91 144.798 329.537 144.798 324.143C144.798 318.749 140.425 314.377 135.031 314.377C129.638 314.377 125.265 318.749 125.265 324.143C125.265 329.537 129.638 333.91 135.031 333.91Z" fill="#D11E5E"/>
<path d="M132.681 332.339C138.075 332.339 142.448 327.967 142.448 322.573C142.448 317.179 138.075 312.806 132.681 312.806C127.287 312.806 122.914 317.179 122.914 322.573C122.914 327.967 127.287 332.339 132.681 332.339Z" fill="white" stroke="#1E1E1E" stroke-width="1.24"/>
<path d="M148.364 315.13H166.674H148.364Z" fill="white"/>
<path d="M148.364 315.13H166.674" stroke="#1E1E1E" stroke-width="1.24" stroke-linecap="round"/>
<path d="M148.364 322.573H187.734H148.364Z" fill="white"/>
<path d="M148.364 322.573H187.734" stroke="#1E1E1E" stroke-width="1.24" stroke-linecap="round"/>
<path d="M148.364 330.021H187.734H148.364Z" fill="white"/>
<path d="M148.364 330.021H187.734" stroke="#1E1E1E" stroke-width="1.24" stroke-linecap="round"/>
<path d="M157.877 239.55H179.716" stroke="#1E1E1E" stroke-width="1.24" stroke-linecap="round"/>
<path d="M157.877 244.015H197.108" stroke="#1E1E1E" stroke-width="1.24" stroke-linecap="round"/>
<path d="M157.877 248.487H197.108" stroke="#1E1E1E" stroke-width="1.24" stroke-linecap="round"/>
<path d="M257.93 109.088L255.58 108.809C254.973 108.735 254.357 108.839 253.807 109.107L256.169 109.386C256.773 109.458 257.384 109.354 257.93 109.088Z" fill="#3E8FC6"/>
<path d="M253.807 82.6891H375.687V165.971H253.807V82.6891Z" fill="#1E1E1E" stroke="#1E1E1E" stroke-width="1.24"/>
<path d="M238.436 76.9128H366.326V155.305H238.436V76.9128Z" fill="#93DDF9"/>
<path opacity="0.5" d="M366.326 76.9128H339.484C340.58 79.2183 340.39 81.8974 337.293 84.7349C328.14 93.1335 355.527 88.4148 357.263 106.599C358.998 124.783 338.338 120.007 341.739 133.245C345.14 146.482 241.837 144.646 238.436 155.305H366.326V76.9128Z" fill="#35A5F9"/>
<path fill-rule="evenodd" clip-rule="evenodd" d="M238.436 76.9128H366.326V155.305H238.436V76.9128Z" stroke="#1E1E1E" stroke-width="1.24"/>
<path d="M238.436 72.0231H366.326V84.7349H238.436V72.0231Z" fill="white"/>
<path opacity="0.27" d="M337.292 84.7349H366.326V72.0041H334.923C338.856 74.8163 342.999 79.5032 337.292 84.7349Z" fill="#35A5F9"/>
<path fill-rule="evenodd" clip-rule="evenodd" d="M238.436 72.0231H366.326V84.7349H238.436V72.0231Z" stroke="#1E1E1E" stroke-width="1.24"/>
<path d="M248.095 80.5357C249.288 80.5357 250.255 79.5687 250.255 78.3759C250.255 77.183 249.288 76.2161 248.095 76.2161C246.902 76.2161 245.935 77.183 245.935 78.3759C245.935 79.5687 246.902 80.5357 248.095 80.5357Z" fill="#F9DD12" stroke="#1E1E1E" stroke-width="1.24" stroke-linecap="round"/>
<path d="M258.545 80.5357C259.738 80.5357 260.705 79.5687 260.705 78.3759C260.705 77.183 259.738 76.2161 258.545 76.2161C257.352 76.2161 256.385 77.183 256.385 78.3759C256.385 79.5687 257.352 80.5357 258.545 80.5357Z" fill="#F9DD12" stroke="#1E1E1E" stroke-width="1.24" stroke-linecap="round"/>
<path d="M268.996 80.5357C270.189 80.5357 271.156 79.5687 271.156 78.3759C271.156 77.183 270.189 76.2161 268.996 76.2161C267.803 76.2161 266.836 77.183 266.836 78.3759C266.836 79.5687 267.803 80.5357 268.996 80.5357Z" fill="#F9DD12" stroke="#1E1E1E" stroke-width="1.24" stroke-linecap="round"/>
<path d="M259.806 135.975L256.417 137.368C257.322 138.029 258.505 138.17 259.54 137.742L262.922 136.355C262.017 135.701 260.841 135.558 259.806 135.975Z" fill="#E5396E"/>
<path d="M288.561 122.56C289.177 120.265 288.856 117.819 287.668 115.762C286.48 113.704 284.523 112.203 282.227 111.59C280.778 111.193 279.252 111.173 277.793 111.533C277.907 111.533 278.028 111.577 278.142 111.609C282.092 112.67 284.82 116.273 284.77 120.363C284.719 124.453 281.902 127.988 277.926 128.951C282.612 130.022 287.307 127.2 288.561 122.56Z" fill="#E5396E"/>
<path d="M278.699 140.687L277.996 140.776C276.83 140.882 275.811 141.608 275.329 142.676L273.429 147.002C273.177 147.577 272.763 148.068 272.239 148.414L273.721 148.813C275.266 149.231 276.884 148.452 277.521 146.983L279.421 142.657C279.708 141.99 280.216 141.442 280.859 141.105C280.209 140.721 279.446 140.573 278.699 140.687Z" fill="#E5396E"/>
<path d="M292.469 132.447C292.215 132.795 291.956 133.125 291.69 133.448C290.933 134.341 290.715 135.573 291.12 136.671L292.798 141.105C293.369 142.602 292.754 144.291 291.354 145.07L289.289 146.216C290.305 147.019 291.705 147.132 292.836 146.501L295.446 145.051C296.845 144.272 297.46 142.583 296.89 141.086L295.211 136.652C294.805 135.554 295.023 134.321 295.781 133.429C296.047 133.106 296.307 132.795 296.56 132.428C296.891 131.982 297.326 131.626 297.827 131.389L295.49 131.117C294.316 130.979 293.16 131.488 292.469 132.447Z" fill="#E5396E"/>
<path d="M269.901 98.6057C270.623 99.5363 271.789 100.006 272.954 99.8345L273.651 99.7458C274.081 99.7037 274.499 99.5767 274.88 99.3721C274.537 99.1684 274.236 98.902 273.993 98.5867L271.13 94.8055C270.153 93.5363 268.394 93.1728 266.994 93.9505L266.449 94.2545C266.672 94.4184 266.87 94.6124 267.038 94.8308L269.901 98.6057Z" fill="#E5396E"/>
<path d="M287.243 95.9139L286.718 100.595C286.585 101.765 287.096 102.917 288.054 103.603C288.244 103.742 288.428 103.888 288.612 104.034C289.531 104.769 290.776 104.951 291.867 104.509L292.842 104.103C292.798 104.103 292.747 104.046 292.703 104.008C292.519 103.869 292.336 103.723 292.139 103.584C291.185 102.895 290.676 101.745 290.809 100.576L291.36 95.8949C291.551 94.3044 290.545 92.8153 288.998 92.3987L286.084 91.6386C285.194 91.3988 284.243 91.5534 283.475 92.063L284.875 92.443C286.415 92.8534 287.423 94.3299 287.243 95.9139Z" fill="#E5396E"/>
<path d="M306.694 122.604L302.368 120.704C301.302 120.218 300.577 119.198 300.468 118.031C300.422 117.609 300.365 117.187 300.297 116.764C300.091 115.611 300.525 114.436 301.431 113.693L305.105 110.716C306.346 109.708 306.662 107.942 305.846 106.567L304.326 103.996C303.507 102.62 301.804 102.051 300.323 102.659L299.354 103.058C299.711 103.312 300.011 103.638 300.234 104.015L301.754 106.586C302.571 107.963 302.256 109.731 301.013 110.741L297.339 113.718C296.434 114.459 296.001 115.632 296.206 116.783C296.275 117.201 296.332 117.62 296.377 118.05C296.467 119.236 297.195 120.279 298.277 120.774L302.603 122.674C304.072 123.31 304.851 124.929 304.433 126.474L303.654 129.356C303.408 130.264 302.779 131.02 301.931 131.427L304.25 131.699C305.84 131.89 307.329 130.884 307.746 129.337L308.525 126.455C308.972 124.894 308.187 123.243 306.694 122.604Z" fill="#E5396E"/>
<path d="M276.368 133.391C270.182 131.697 266.014 125.92 266.358 119.515C266.701 113.111 271.462 107.812 277.793 106.789C272.493 106.022 267.235 108.431 264.355 112.946C261.475 117.461 261.507 123.245 264.438 127.728C267.369 132.21 272.654 134.56 277.945 133.733C277.413 133.649 276.887 133.535 276.368 133.391Z" fill="#FC5480"/>
<path d="M284.469 122.585C285.086 120.29 284.765 117.843 283.577 115.784C282.389 113.725 280.432 112.223 278.135 111.609C278.021 111.609 277.901 111.558 277.787 111.533C273.811 112.494 270.993 116.028 270.94 120.118C270.888 124.208 273.615 127.813 277.565 128.875L277.92 128.951C281.101 128.182 283.611 125.743 284.469 122.585Z" fill="#FC5480"/>
<path fill-rule="evenodd" clip-rule="evenodd" d="M304.452 126.423L303.654 129.305C303.421 130.209 302.809 130.969 301.975 131.389L299.613 131.104C299.012 131.038 298.404 131.141 297.858 131.402L295.521 131.129C294.352 130.996 293.201 131.505 292.513 132.46C292.277 132.801 292.037 133.093 291.791 133.391C291.772 133.414 291.753 133.437 291.734 133.46C290.977 134.354 290.759 135.585 291.164 136.684L292.842 141.118C293.413 142.615 292.798 144.303 291.398 145.083L289.333 146.229C289.116 146.064 288.92 145.872 288.75 145.659L285.888 141.922C285.166 140.992 284 140.522 282.835 140.693C282.771 140.702 282.707 140.712 282.643 140.722C282.473 140.749 282.302 140.776 282.132 140.776C281.702 140.823 281.285 140.952 280.903 141.156C280.256 140.763 279.493 140.606 278.743 140.712L278.04 140.801C276.874 140.908 275.855 141.633 275.374 142.701L273.474 147.027C273.221 147.603 272.808 148.093 272.283 148.439L270.877 148.059C269.332 147.64 268.327 146.153 268.514 144.563L269.072 139.883C269.205 138.712 268.693 137.56 267.735 136.874C267.545 136.735 267.355 136.595 267.171 136.45C266.252 135.714 265.007 135.533 263.916 135.975L262.896 136.38C261.992 135.727 260.815 135.583 259.78 136L256.391 137.393C256.039 137.134 255.742 136.807 255.517 136.431L253.991 133.897C253.173 132.519 253.491 130.749 254.738 129.742L258.412 126.765C259.315 126.02 259.748 124.847 259.546 123.694C259.47 123.269 259.413 122.845 259.368 122.427C259.262 121.261 258.536 120.242 257.468 119.76L253.142 117.86C251.673 117.224 250.894 115.606 251.312 114.06L252.059 111.172C252.304 110.265 252.933 109.51 253.782 109.107L256.17 109.392C256.773 109.464 257.384 109.36 257.931 109.094L260.261 109.373C261.428 109.508 262.577 109.004 263.27 108.056C263.523 107.688 263.783 107.378 264.055 107.055C264.811 106.161 265.027 104.929 264.619 103.831L262.941 99.3975C262.374 97.9024 262.988 96.2177 264.385 95.4389L266.449 94.2925C266.672 94.4564 266.87 94.6504 267.038 94.8688L269.901 98.6057C270.621 99.5184 271.772 99.9793 272.923 99.8155L273.619 99.7268C274.049 99.6847 274.467 99.5577 274.848 99.3531C275.498 99.7439 276.263 99.8983 277.014 99.7902L277.711 99.7078C278.886 99.5962 279.909 98.857 280.384 97.776L282.284 93.4564C282.543 92.8751 282.968 92.3836 283.506 92.044L284.906 92.424C286.452 92.838 287.458 94.325 287.268 95.9139L286.717 100.595C286.595 101.754 287.102 102.889 288.047 103.571C288.237 103.711 288.421 103.856 288.605 104.002L288.605 104.002C289.524 104.737 290.769 104.919 291.86 104.477L292.836 104.072C293.739 104.729 294.917 104.872 295.952 104.452L299.34 103.065C299.698 103.318 299.998 103.644 300.221 104.021L301.741 106.593C302.558 107.97 302.243 109.738 301 110.747L297.326 113.724C296.421 114.465 295.988 115.638 296.193 116.79C296.262 117.214 296.319 117.632 296.364 118.057C296.48 119.229 297.218 120.247 298.295 120.723L302.621 122.623C304.091 123.26 304.87 124.878 304.452 126.423ZM277.92 133.714C284.751 134.713 291.25 130.447 293.051 123.782C294.253 119.324 293.116 114.56 290.03 111.125C286.944 107.69 282.329 106.051 277.768 106.77C272.467 106.003 267.209 108.412 264.329 112.927C261.449 117.442 261.482 123.226 264.413 127.709C267.343 132.191 272.628 134.541 277.92 133.714Z" fill="#FC5480"/>
<path fill-rule="evenodd" clip-rule="evenodd" d="M279.915 129.179C284.857 129.179 288.864 125.172 288.864 120.229C288.864 115.286 284.857 111.28 279.915 111.28C274.972 111.28 270.965 115.286 270.965 120.229C270.965 125.172 274.972 129.179 279.915 129.179Z" stroke="#231F20"/>
<path d="M280.383 97.7761L279.925 97.5747L279.925 97.575L280.383 97.7761ZM277.71 99.7079L277.663 99.21L277.651 99.2113L277.71 99.7079ZM277.013 99.7902L276.955 99.2936L276.947 99.2945L276.94 99.2956L277.013 99.7902ZM273.961 98.5678L273.561 98.8685L273.566 98.875L273.961 98.5678ZM271.129 94.8055L271.529 94.5049L271.526 94.5005L271.129 94.8055ZM266.994 93.9505L266.751 93.5134L266.746 93.5162L266.994 93.9505ZM264.384 95.4389L264.628 95.8756L264.632 95.8732L264.384 95.4389ZM262.94 99.3975L263.408 99.2205L263.407 99.2202L262.94 99.3975ZM264.618 103.831L265.087 103.657L265.086 103.654L264.618 103.831ZM264.055 107.055L263.673 106.732L263.672 106.733L264.055 107.055ZM263.269 108.056L263.673 108.351L263.681 108.34L263.269 108.056ZM260.261 109.373L260.202 109.87L260.203 109.87L260.261 109.373ZM255.58 108.816L255.521 109.312L255.521 109.312L255.58 108.816ZM252.084 111.178L252.567 111.308L252.567 111.308L252.084 111.178ZM251.305 114.066L250.822 113.936L250.822 113.938L251.305 114.066ZM253.142 117.867L253.343 117.409L253.341 117.408L253.142 117.867ZM257.468 119.767L257.673 119.311L257.669 119.309L257.468 119.767ZM259.368 122.433L258.87 122.479L258.87 122.486L259.368 122.433ZM259.545 123.7L260.038 123.614L260.037 123.612L259.545 123.7ZM258.411 126.772L258.726 127.16L258.73 127.157L258.411 126.772ZM254.738 129.749L255.052 130.138L255.053 130.137L254.738 129.749ZM253.99 133.904L253.56 134.159L253.562 134.162L253.99 133.904ZM255.517 136.437L255.948 136.183L255.945 136.179L255.517 136.437ZM259.513 137.774L259.324 137.311L259.322 137.312L259.513 137.774ZM263.915 135.975L263.728 135.511L263.726 135.512L263.915 135.975ZM267.171 136.45L266.859 136.84L266.86 136.842L267.171 136.45ZM267.735 136.874L267.439 137.277L267.443 137.281L267.735 136.874ZM269.071 139.883L269.567 139.942L269.568 139.939L269.071 139.883ZM268.514 144.563L268.017 144.504L268.017 144.505L268.514 144.563ZM270.876 148.06L270.745 148.542L270.746 148.542L270.876 148.06ZM273.764 148.839L273.895 148.356L273.894 148.356L273.764 148.839ZM277.564 147.008L277.107 146.807L277.106 146.809L277.564 147.008ZM279.465 142.682L279.009 142.475L279.007 142.481L279.465 142.682ZM282.131 140.782V140.282H282.107L282.084 140.284L282.131 140.782ZM282.834 140.7L282.901 141.195L282.907 141.194L282.834 140.7ZM285.887 141.928L286.284 141.624L286.282 141.622L285.887 141.928ZM288.75 145.665L289.147 145.361L289.147 145.361L288.75 145.665ZM292.879 146.52L292.637 146.083L292.636 146.084L292.879 146.52ZM295.489 145.07L295.732 145.507L295.732 145.507L295.489 145.07ZM296.933 141.105L296.465 141.282L296.466 141.283L296.933 141.105ZM295.255 136.671L294.786 136.845L294.787 136.848L295.255 136.671ZM295.825 133.448L296.206 133.771L296.211 133.765L295.825 133.448ZM296.604 132.447L296.198 132.155L296.192 132.163L296.604 132.447ZM299.612 131.11L299.671 130.614L299.668 130.614L299.612 131.11ZM304.293 131.668L304.352 131.171L304.352 131.171L304.293 131.668ZM307.789 129.305L307.306 129.175L307.306 129.175L307.789 129.305ZM308.568 126.424L308.085 126.293L308.085 126.293L308.568 126.424ZM306.738 122.623L306.537 123.081L306.539 123.082L306.738 122.623ZM302.412 120.723L302.205 121.178L302.211 121.181L302.412 120.723ZM300.512 118.05L301.01 118.004L301.009 117.996L300.512 118.05ZM300.341 116.784L300.834 116.705L300.833 116.696L300.341 116.784ZM301.474 113.712L301.16 113.323L301.157 113.325L301.474 113.712ZM305.148 110.735L305.463 111.123L305.463 111.123L305.148 110.735ZM305.889 106.586L305.458 106.841L305.459 106.841L305.889 106.586ZM304.369 104.015L304.799 103.76L304.799 103.759L304.369 104.015ZM300.366 102.678L300.556 103.141L300.556 103.141L300.366 102.678ZM296.008 104.464L296.196 104.928L296.198 104.927L296.008 104.464ZM292.753 103.989L293.065 103.599L293.055 103.591L292.753 103.989ZM292.189 103.565L291.897 103.971L291.9 103.973L292.189 103.565ZM290.859 100.557L290.362 100.498L290.362 100.5L290.859 100.557ZM291.41 95.8759L290.914 95.8165L290.913 95.8175L291.41 95.8759ZM289.048 92.3797L289.178 91.8969L289.169 91.8947L289.048 92.3797ZM286.083 91.6387L285.953 92.1214L285.962 92.1238L286.083 91.6387ZM283.442 107.074L283.573 106.591L283.572 106.591L283.442 107.074ZM281.825 93.2551L279.925 97.5747L280.841 97.9774L282.741 93.6578L281.825 93.2551ZM279.925 97.575C279.523 98.4899 278.658 99.1156 277.663 99.2101L277.757 100.206C279.113 100.077 280.293 99.2241 280.841 97.9771L279.925 97.575ZM277.651 99.2113L276.955 99.2936L277.072 100.287L277.769 100.204L277.651 99.2113ZM276.94 99.2956C275.955 99.442 274.967 99.0465 274.355 98.2606L273.566 98.875C274.4 99.9454 275.745 100.484 277.087 100.285L276.94 99.2956ZM274.36 98.2671L271.529 94.5049L270.73 95.1062L273.561 98.8684L274.36 98.2671ZM271.526 94.5005C270.398 93.0353 268.367 92.6156 266.751 93.5134L267.236 94.3876C268.42 93.7301 269.907 94.0375 270.733 95.1106L271.526 94.5005ZM266.746 93.5162L264.136 95.0046L264.632 95.8732L267.241 94.3848L266.746 93.5162ZM264.14 95.0022C262.527 95.9019 261.818 97.8478 262.472 99.5748L263.407 99.2202C262.928 97.957 263.448 96.5336 264.628 95.8756L264.14 95.0022ZM262.472 99.5745L264.151 104.008L265.086 103.654L263.408 99.2205L262.472 99.5745ZM264.15 104.005C264.495 104.934 264.312 105.976 263.673 106.732L264.436 107.378C265.309 106.346 265.558 104.924 265.087 103.657L264.15 104.005ZM263.672 106.733C263.401 107.055 263.126 107.382 262.858 107.772L263.681 108.34C263.919 107.994 264.164 107.701 264.437 107.377L263.672 106.733ZM262.865 107.761C262.279 108.564 261.306 108.99 260.318 108.876L260.203 109.87C261.549 110.025 262.875 109.445 263.673 108.35L262.865 107.761ZM260.32 108.877L255.639 108.319L255.521 109.312L260.202 109.87L260.32 108.877ZM255.64 108.319C253.802 108.099 252.082 109.262 251.601 111.048L252.567 111.308C252.919 110.001 254.177 109.151 255.521 109.312L255.64 108.319ZM251.601 111.048L250.822 113.936L251.788 114.197L252.567 111.308L251.601 111.048ZM250.822 113.938C250.347 115.723 251.248 117.588 252.942 118.325L253.341 117.408C252.1 116.868 251.44 115.503 251.788 114.195L250.822 113.938ZM252.941 118.324L257.267 120.225L257.669 119.309L253.343 117.409L252.941 118.324ZM257.262 120.223C258.165 120.63 258.78 121.492 258.87 122.479L259.866 122.388C259.743 121.042 258.905 119.866 257.673 119.311L257.262 120.223ZM258.87 122.486C258.916 122.913 258.974 123.35 259.053 123.788L260.037 123.612C259.964 123.202 259.908 122.789 259.865 122.381L258.87 122.486ZM259.053 123.786C259.224 124.762 258.857 125.755 258.093 126.386L258.73 127.157C259.771 126.297 260.271 124.944 260.038 123.614L259.053 123.786ZM258.097 126.383L254.423 129.36L255.053 130.137L258.726 127.16L258.097 126.383ZM254.424 129.36C252.983 130.522 252.615 132.567 253.56 134.159L254.42 133.648C253.729 132.484 253.998 130.988 255.052 130.138L254.424 129.36ZM253.562 134.162L255.089 136.695L255.945 136.179L254.419 133.646L253.562 134.162ZM255.086 136.691C256.025 138.285 257.995 138.944 259.705 138.235L259.322 137.312C258.073 137.829 256.634 137.348 255.948 136.183L255.086 136.691ZM259.703 138.236L264.104 136.438L263.726 135.512L259.324 137.311L259.703 138.236ZM264.103 136.438C265.027 136.064 266.08 136.218 266.859 136.84L267.483 136.059C266.422 135.211 264.986 135.001 263.728 135.511L264.103 136.438ZM266.86 136.842C267.052 136.994 267.25 137.139 267.439 137.277L268.03 136.471C267.839 136.331 267.657 136.197 267.482 136.058L266.86 136.842ZM267.443 137.281C268.254 137.861 268.687 138.835 268.574 139.826L269.568 139.939C269.721 138.588 269.131 137.26 268.026 136.468L267.443 137.281ZM268.574 139.824L268.017 144.504L269.01 144.622L269.567 139.942L268.574 139.824ZM268.017 144.505C267.8 146.341 268.961 148.058 270.745 148.542L271.007 147.577C269.701 147.223 268.852 145.966 269.01 144.622L268.017 144.505ZM270.746 148.542L273.634 149.321L273.894 148.356L271.006 147.577L270.746 148.542ZM273.634 149.321C275.419 149.804 277.288 148.904 278.023 147.207L277.106 146.809C276.568 148.051 275.201 148.709 273.895 148.356L273.634 149.321ZM278.022 147.209L279.922 142.883L279.007 142.481L277.107 146.807L278.022 147.209ZM279.92 142.889C280.33 141.987 281.192 141.373 282.178 141.28L282.084 140.284C280.741 140.412 279.568 141.247 279.01 142.475L279.92 142.889ZM282.131 141.282C282.41 141.282 282.72 141.22 282.901 141.195L282.767 140.204C282.479 140.243 282.321 140.282 282.131 140.282V141.282ZM282.907 141.194C283.893 141.049 284.881 141.447 285.492 142.235L286.282 141.622C285.45 140.549 284.105 140.007 282.761 140.205L282.907 141.194ZM285.49 142.233L288.353 145.969L289.147 145.361L286.284 141.624L285.49 142.233ZM288.353 145.969C289.477 147.437 291.508 147.858 293.123 146.957L292.636 146.084C291.455 146.742 289.969 146.435 289.147 145.361L288.353 145.969ZM293.122 146.957L295.732 145.507L295.246 144.633L292.637 146.083L293.122 146.957ZM295.732 145.507C297.349 144.607 298.059 142.656 297.4 140.927L296.466 141.283C296.948 142.548 296.428 143.975 295.246 144.633L295.732 145.507ZM297.401 140.928L295.722 136.494L294.787 136.848L296.465 141.282L297.401 140.928ZM295.724 136.498C295.38 135.569 295.564 134.526 296.206 133.771L295.444 133.124C294.568 134.154 294.317 135.577 294.786 136.845L295.724 136.498ZM296.211 133.765C296.473 133.447 296.747 133.119 297.015 132.731L296.192 132.163C295.953 132.509 295.708 132.802 295.439 133.13L296.211 133.765ZM297.009 132.739C297.592 131.93 298.566 131.497 299.557 131.607L299.668 130.614C298.318 130.463 296.991 131.052 296.198 132.155L297.009 132.739ZM299.553 131.607L304.234 132.164L304.352 131.171L299.671 130.614L299.553 131.607ZM304.233 132.164C306.071 132.384 307.791 131.222 308.272 129.435L307.306 129.175C306.954 130.482 305.696 131.332 304.352 131.171L304.233 132.164ZM308.272 129.436L309.051 126.554L308.085 126.293L307.306 129.175L308.272 129.436ZM309.051 126.554C309.534 124.769 308.633 122.9 306.936 122.164L306.539 123.082C307.78 123.62 308.439 124.987 308.085 126.293L309.051 126.554ZM306.939 122.165L302.613 120.265L302.211 121.181L306.537 123.081L306.939 122.165ZM302.619 120.268C301.715 119.857 301.101 118.993 301.009 118.004L300.014 118.096C300.138 119.442 300.974 120.618 302.205 121.178L302.619 120.268ZM301.009 117.996C300.961 117.565 300.903 117.135 300.834 116.705L299.847 116.863C299.913 117.277 299.969 117.691 300.015 118.105L301.009 117.996ZM300.833 116.696C300.658 115.72 301.025 114.727 301.791 114.098L301.157 113.325C300.111 114.183 299.61 115.54 299.848 116.872L300.833 116.696ZM301.789 114.1L305.463 111.123L304.833 110.346L301.16 113.323L301.789 114.1ZM305.463 111.123C306.897 109.959 307.262 107.92 306.319 106.331L305.459 106.841C306.148 108.003 305.882 109.495 304.833 110.347L305.463 111.123ZM306.319 106.332L304.799 103.76L303.938 104.269L305.458 106.841L306.319 106.332ZM304.799 103.759C303.853 102.17 301.886 101.514 300.176 102.216L300.556 103.141C301.808 102.627 303.247 103.107 303.939 104.27L304.799 103.759ZM300.176 102.216L295.819 104.002L296.198 104.927L300.556 103.141L300.176 102.216ZM295.821 104.001C294.897 104.375 293.843 104.221 293.065 103.599L292.44 104.38C293.501 105.228 294.937 105.438 296.196 104.928L295.821 104.001ZM293.055 103.591C292.883 103.46 292.683 103.303 292.478 103.157L291.9 103.973C292.087 104.106 292.256 104.24 292.451 104.388L293.055 103.591ZM292.482 103.16C291.674 102.577 291.243 101.603 291.356 100.613L290.362 100.5C290.209 101.849 290.795 103.176 291.897 103.971L292.482 103.16ZM291.356 100.615L291.907 95.9344L290.913 95.8175L290.362 100.498L291.356 100.615ZM291.906 95.9354C292.126 94.0982 290.964 92.3782 289.178 91.8969L288.917 92.8625C290.224 93.2145 291.074 94.4727 290.914 95.8165L291.906 95.9354ZM289.169 91.8947L286.205 91.1536L285.962 92.1238L288.926 92.8648L289.169 91.8947ZM286.214 91.156C284.433 90.6744 282.568 91.5666 281.825 93.2552L282.741 93.6577C283.284 92.4219 284.65 91.7689 285.953 92.1213L286.214 91.156ZM292.568 123.652C291.185 128.78 286.849 132.57 281.583 133.254L281.711 134.246C287.379 133.509 292.045 129.431 293.533 123.913L292.568 123.652ZM281.583 133.254C276.316 133.938 271.156 131.383 268.508 126.779L267.641 127.277C270.49 132.232 276.044 134.982 281.711 134.246L281.583 133.254ZM268.508 126.779C265.861 122.175 266.247 116.429 269.488 112.222L268.695 111.611C265.208 116.14 264.792 122.323 267.641 127.277L268.508 126.779ZM269.488 112.222C272.728 108.014 278.184 106.173 283.312 107.557L283.572 106.591C278.055 105.102 272.183 107.083 268.695 111.611L269.488 112.222ZM283.312 107.557C290.31 109.449 294.452 116.652 292.568 123.652L293.533 123.912C295.561 116.379 291.103 108.628 283.573 106.591L283.312 107.557Z" fill="#231F20"/>
<path d="M314.934 98.1308H337.292" stroke="#1E1E1E" stroke-linecap="round"/>
<path d="M353.119 78.3949H359.13" stroke="#1E1E1E" stroke-linecap="round"/>
<path d="M314.934 108.79H356.128" stroke="#1E1E1E" stroke-linecap="round"/>
<path d="M314.934 119.45H356.128" stroke="#1E1E1E" stroke-linecap="round"/>
<path d="M314.934 130.11H356.128" stroke="#1E1E1E" stroke-linecap="round"/>
<path d="M314.934 140.769H356.128" stroke="#1E1E1E" stroke-linecap="round"/>
<path d="M128.222 169.119C128.297 171.447 128.869 173.732 129.9 175.82" stroke="#1E1E1E" stroke-linecap="round"/>
<path d="M339.122 187.873C339.122 187.873 330.889 193.827 335.658 205.918C339.084 214.608 325.264 217.509 325.657 232.52C326.05 247.531 341.542 257.823 356.255 243.11C370.968 228.397 348.211 202.359 350.96 192.44C353.709 182.521 342.194 182.103 339.122 187.873Z" fill="#1E1E1E" stroke="#1E1E1E" stroke-linecap="round"/>
<path d="M214.829 279.345C214.829 279.345 205.088 281.15 205.708 285.045C206.329 288.941 222.607 291.873 222.936 285.045C223.265 278.218 214.829 279.345 214.829 279.345Z" fill="#1E1E1E" stroke="#1E1E1E"/>
<path d="M451.096 246.916C450.311 231.912 439.328 226.42 427.851 224.064C416.375 221.708 421.473 195.721 414.272 190.166L414.171 190.09C408.933 194.91 398.856 205.633 394.84 219.947L420.004 259.178C435.598 266.45 451.882 261.921 451.096 246.916Z" fill="#F7500F"/>
<path d="M415.001 240.101C415.001 240.101 415.311 222.018 410.82 222.272C405.462 222.569 410.789 239.462 404.379 240.64C397.969 241.818 415.001 240.101 415.001 240.101Z" fill="#1E1E1E"/>
<path opacity="0.61" d="M427.852 224.064C416.375 221.708 421.474 195.721 414.272 190.166L414.171 190.09C407.001 184.662 399.179 190.128 392.054 189.735C381.426 189.229 381.92 164.553 363.786 159.581C363.824 159.581 379.025 167.966 380.127 191.604C381.229 215.241 409.345 185.587 413.012 195.917C416.679 206.247 410.915 222.221 427.788 230.974C444.661 239.728 422.424 239.462 426.218 248.354C427.845 252.154 430.512 258.114 434.04 262.567C443.984 262.675 451.641 257.316 451.097 246.916C450.311 231.912 439.36 226.42 427.852 224.064Z" fill="#E0290B"/>
<path d="M243.211 281.752C231.715 267.938 239.411 243.198 251.806 235.934C260.432 231.323 256.803 227.7 255.606 228.377C254.409 229.055 250.501 229.556 242.362 229.461C234.388 229.366 204.36 238.328 211.194 286.375C222.081 288.549 233.384 286.916 243.211 281.752Z" fill="#F9DD12"/>
<path opacity="0.57" d="M211.219 286.375C221.48 288.414 232.124 287.081 241.564 282.575C241.729 281.764 241.868 280.941 241.976 280.105C236.554 272.213 236.561 261.471 239.715 252.319C239.715 252.059 239.715 251.819 239.715 251.622C239.753 250.799 240.291 249.817 241.172 248.734C243.737 243.141 247.505 238.473 251.825 235.934C260.451 231.323 256.822 227.7 255.625 228.377C256.081 231.291 252.94 234.363 241.153 238.036C211.435 243.889 228.618 277.388 221.037 279.282C216.464 280.422 213.126 283.779 211.2 286.249C211.202 286.292 211.208 286.334 211.219 286.375Z" fill="#F78B14"/>
<path fill-rule="evenodd" clip-rule="evenodd" d="M243.211 281.752C231.715 267.938 239.411 243.198 251.806 235.934C260.432 231.323 256.803 227.7 255.606 228.377C254.409 229.055 250.501 229.556 242.362 229.461C234.388 229.366 204.36 238.328 211.194 286.375C222.081 288.549 233.384 286.916 243.211 281.752V281.752Z" stroke="#1E1E1E" stroke-width="1.24"/>
<path d="M367.434 231.734C367.434 231.734 333.112 224.166 310.748 256.721C298.118 275.127 276.773 290.334 259.786 289.732C255.401 289.65 251.14 288.265 247.543 285.755C245.931 284.615 244.474 283.269 243.211 281.752C233.391 286.91 222.098 288.543 211.219 286.375C209.362 286.033 207.523 285.597 205.709 285.071C207.47 301.538 224.425 342.29 250.229 350.118C254.135 352.877 258.309 355.236 262.687 357.161C262.687 357.161 349.586 314.009 348.015 288.51C346.444 263.01 367.434 231.734 367.434 231.734Z" fill="#35A5F9"/>
<path opacity="0.66" d="M292.519 340.725C319.019 312.812 344.525 259.482 335.987 263.321C335.987 263.321 326.05 255.771 309.956 267.723C294.274 279.364 278.319 329.571 258.437 335.582C238.556 341.593 223.513 327.982 223.513 327.982C230.664 338.236 239.709 346.9 250.229 350.093C254.071 352.797 258.162 355.13 262.447 357.06L262.833 357.091C264.252 356.388 277.153 349.877 292.519 340.725Z" fill="#1788C1"/>
<path fill-rule="evenodd" clip-rule="evenodd" d="M367.434 231.734C367.434 231.734 333.112 224.166 310.748 256.721C298.118 275.127 276.774 290.334 259.786 289.732C255.401 289.65 251.14 288.265 247.543 285.755C245.931 284.615 244.474 283.269 243.211 281.752C233.391 286.91 222.098 288.543 211.219 286.375C209.362 286.033 207.523 285.597 205.709 285.071C207.47 301.538 224.425 342.29 250.229 350.118C254.135 352.877 258.309 355.236 262.687 357.161C262.687 357.161 349.586 314.009 348.015 288.51C346.444 263.01 367.434 231.734 367.434 231.734V231.734Z" stroke="#1E1E1E" stroke-width="1.24"/>
<path d="M384.111 451.698C381.881 452.57 379.603 453.314 377.289 453.928C405.265 468.229 426.496 474.025 431.164 467.229C434.876 461.813 427.364 449.494 412.353 434.122C404.133 441.711 394.55 447.675 384.111 451.698Z" fill="#1E1E1E" stroke="#1E1E1E" stroke-width="1.24"/>
<path d="M332.13 261.63C298.979 269.863 314.275 292.031 310.943 304.978C306.079 328.868 289.409 339.18 274.841 344.247C263.618 348.148 253.617 348.959 251.159 350.479C255.245 365.363 286.375 395.664 328.431 424.52C344.081 435.343 360.399 445.165 377.289 453.928C379.607 453.323 381.889 452.587 384.123 451.724C394.561 447.687 404.139 441.711 412.353 434.11C459.406 390.926 462.579 301.101 444.275 266.297C422.829 225.496 369.606 232.165 369.606 232.165" fill="#35A5F9"/>
<path opacity="0.66" d="M328.45 424.501C344.093 435.33 360.405 445.158 377.289 453.928C379.607 453.323 381.889 452.587 384.123 451.724C394.561 447.687 404.139 441.711 412.353 434.11C459.406 390.926 462.579 301.101 444.275 266.297C422.829 225.496 369.606 232.165 369.606 232.165L358.32 241.032C355.504 249.962 353.376 259.095 351.954 268.35C351.954 268.35 364.311 275.684 376.865 256.721C384.725 244.845 398.438 262.719 408.445 250.9C418.452 239.081 446.872 261.414 448.284 304.566C449.696 347.718 432.45 400.579 377.289 390.831C322.129 381.084 315.466 377.252 315.466 392.731C315.466 407.755 258.393 349.117 251.628 350.257C251.472 350.324 251.32 350.401 251.172 350.485C255.245 365.344 286.375 395.657 328.45 424.501Z" fill="#1788C1"/>
<path d="M342.821 191.11C342.821 191.11 330.072 227.497 351.955 229.359C350.283 239.854 342.929 264.961 353.519 268.394C364.109 271.827 381.084 230.145 380.121 227.788C379.158 225.432 378.854 188.171 368.644 184.149C358.434 180.127 346.153 181.793 342.821 191.11Z" fill="#F9DD12"/>
<path d="M332.13 261.63C298.979 269.863 314.275 292.031 310.943 304.978C306.079 328.868 289.409 339.18 274.841 344.247C263.618 348.148 253.617 348.959 251.159 350.479C255.245 365.363 286.375 395.664 328.431 424.52C344.081 435.343 360.399 445.165 377.289 453.928C379.607 453.323 381.889 452.587 384.123 451.724C394.561 447.687 404.139 441.711 412.353 434.11C459.406 390.926 462.579 301.101 444.275 266.297C422.829 225.496 369.606 232.165 369.606 232.165" stroke="#1E1E1E" stroke-width="1.24" stroke-linecap="round"/>
<path d="M342.821 191.11C342.821 191.11 330.072 227.497 351.955 229.359C350.283 239.854 342.929 264.961 353.519 268.394C364.109 271.827 381.084 230.145 380.121 227.788C379.158 225.432 378.854 188.171 368.644 184.149C358.434 180.127 346.153 181.793 342.821 191.11Z" fill="#F9DD12" stroke="#1E1E1E" stroke-width="1.24"/>
<path d="M366.345 192.478C366.345 192.478 360.221 205.722 366.345 211.606C372.47 217.49 372.47 222.721 371.032 229.264C369.595 235.807 372.996 244.041 385.676 246.916C398.356 249.792 416.8 243.116 410.916 222.595C411.442 218.408 372.73 179.829 370.64 181.008C368.55 182.186 366.345 192.478 366.345 192.478Z" fill="#F7500F"/>
<path opacity="0.61" d="M410.915 222.595C410.928 222.432 410.907 222.268 410.852 222.113C409.731 221.296 408.318 221.113 407.457 224.014C405.816 229.505 397.184 244.674 382.933 238.005C368.682 231.335 381.033 217.56 364.641 209.186C365.055 210.086 365.632 210.9 366.345 211.587C372.469 217.477 372.469 222.703 371.032 229.245C369.594 235.788 372.995 244.022 385.675 246.897C398.355 249.773 416.799 243.122 410.915 222.595Z" fill="#E0290B"/>
<path d="M414.171 190.09C407.001 184.662 399.179 190.128 392.054 189.735C379.823 189.178 382.357 156.388 354.001 158.846C325.645 161.303 329.932 196.702 352.183 195.619C374.433 194.536 371.589 183.655 371.589 183.655L394.872 219.947C398.856 205.646 408.958 194.91 414.171 190.09Z" fill="#F7500F"/>
<path opacity="0.61" d="M391.04 189.609C390.774 189.551 390.512 189.477 390.255 189.387L390.109 189.336C389.855 189.242 389.608 189.132 389.368 189.007L389.26 188.95C389.026 188.823 388.798 188.678 388.57 188.526L388.519 188.488C388.291 188.323 388.063 188.146 387.848 187.956L387.721 187.848C387.512 187.658 387.31 187.462 387.088 187.215L386.949 187.069C386.752 186.854 386.556 186.632 386.366 186.398L386.265 186.265C386.096 186.045 385.925 185.817 385.752 185.58L385.644 185.428C385.473 185.175 385.295 184.915 385.124 184.649C385.074 184.561 385.017 184.478 384.96 184.39C384.801 184.136 384.643 183.877 384.491 183.604C384.421 183.497 384.358 183.383 384.295 183.269C384.168 183.053 384.048 182.838 383.927 182.635C383.807 182.433 383.712 182.243 383.604 182.04L383.383 181.628C379.278 173.812 375.276 162.728 363.748 159.568C363.786 159.568 378.987 167.954 380.089 191.591C381.052 212.214 402.53 192.326 410.453 193.707C411.815 192.275 413.075 191.053 414.133 190.077C406.963 184.649 399.141 190.115 392.016 189.723C391.72 189.71 391.425 189.674 391.135 189.615L391.04 189.609Z" fill="#E0290B"/>
<path d="M366.345 192.478C366.345 192.478 360.22 205.722 366.345 211.606C372.469 217.49 372.469 222.721 371.031 229.264C369.594 235.807 372.995 244.041 385.675 246.916C398.355 249.792 416.799 243.116 410.915 222.595" stroke="#1E1E1E" stroke-width="1.24" stroke-linecap="round"/>
<path d="M214.367 250.9C213.328 253.437 212.45 256.037 211.738 258.684C210.434 263.454 240.424 340.877 304.47 355.913C306.063 354.365 307.14 352.363 307.555 350.181L237.884 289.283L214.367 250.9Z" fill="#1E1E1E" stroke="#1E1E1E" stroke-width="1.24" stroke-linecap="round"/>
<path d="M371.588 183.655C371.588 183.655 374.477 194.543 352.214 195.619C329.951 196.696 325.688 161.297 354.031 158.846C382.375 156.395 379.822 189.178 392.053 189.735C399.21 190.128 407.07 184.605 414.271 190.166C421.473 195.727 416.374 221.708 427.851 224.064C439.328 226.42 450.31 231.912 451.096 246.916C451.495 254.517 447.511 259.425 441.462 261.484" stroke="#1E1E1E" stroke-width="1.24" stroke-linecap="round"/>
<path d="M214.366 250.9C214.366 250.9 267.741 229.898 269.704 230.588C271.668 231.278 294.988 282.847 318.803 297.295C314.471 322.927 307.219 351.53 307.219 351.53C307.219 351.53 243.014 331.687 214.366 250.9Z" fill="#CDEAFC" stroke="#1E1E1E" stroke-width="1.24" stroke-linecap="round"/>
<path fill-rule="evenodd" clip-rule="evenodd" d="M214.366 250.9C214.366 250.9 267.741 229.898 269.704 230.588C271.668 231.278 294.988 282.847 318.803 297.295C314.471 322.927 307.219 351.53 307.219 351.53C307.219 351.53 243.014 331.687 214.366 250.9Z" stroke="#1E1E1E" stroke-width="1.24" stroke-linecap="round"/>
<path d="M216.128 255.682L272.251 234.591C270.902 232.184 270.022 230.727 269.718 230.62C267.754 229.929 214.38 250.932 214.38 250.932C214.937 252.515 215.526 254.086 216.128 255.682Z" fill="#67BDE8"/>
<path d="M247.79 238.036C232.323 243.832 214.367 250.9 214.367 250.9C239.848 322.737 293.393 346.375 304.971 350.739C305.947 350.746 306.895 350.412 307.65 349.795C307.796 349.212 307.967 348.528 308.176 347.667C263.84 333.099 234.249 285.951 225.616 264.575C221.068 253.307 234.281 244.161 247.79 238.036Z" fill="white"/>
<path d="M258.665 260.8L269.585 254.979" stroke="#67BDE8"/>
<path d="M261.332 264.575L277.838 255.771" stroke="#67BDE8"/>
<path d="M263.998 268.35L280.504 259.546" stroke="#67BDE8"/>
<path d="M266.664 272.125L283.17 263.321" stroke="#67BDE8"/>
<path d="M278.629 270.94L285.837 267.089" stroke="#67BDE8"/>
<path fill-rule="evenodd" clip-rule="evenodd" d="M214.367 250.9C214.367 250.9 267.742 229.898 269.705 230.588C271.669 231.278 294.989 282.848 318.804 297.295C314.472 322.927 307.22 351.53 307.22 351.53C307.22 351.53 243.015 331.687 214.367 250.9Z" stroke="#1E1E1E"/>
<path d="M246.409 282.778C248.189 286.489 251.476 288.757 253.744 287.845C256.011 286.933 256.455 283.19 254.7 279.484C252.946 275.779 249.633 273.505 247.334 274.417C245.035 275.329 244.617 279.073 246.409 282.778Z" fill="#67BDE8"/>
<path fill-rule="evenodd" clip-rule="evenodd" d="M240.171 265.759L238.796 262.136C238.328 260.901 238.543 259.774 239.227 259.476L240.646 258.925C241.425 258.634 242.495 259.261 243.179 260.407L245.181 263.783C245.573 264.536 246.262 265.092 247.081 265.316L247.48 265.398C247.786 265.481 248.113 265.432 248.38 265.262C248.648 265.092 248.831 264.817 248.886 264.505L249.627 261.668C249.88 260.705 250.774 260.445 251.711 261.079L253.465 262.244C254.457 262.97 255.067 264.107 255.125 265.335L255.169 268.717C255.221 269.64 255.578 270.52 256.183 271.219L256.221 271.266C256.418 271.504 256.62 271.749 256.816 272.004C257.235 272.669 257.962 273.077 258.748 273.087L261.174 272.739C262.003 272.638 263.029 273.442 263.587 274.639L264.625 276.881C265.183 278.085 265.081 279.32 264.448 279.782L262.51 281.156C262.048 281.498 261.864 282.277 262.048 283.183C262.117 283.519 262.174 283.829 262.231 284.152C262.382 285.065 262.827 285.903 263.498 286.54L266.114 288.903C267.01 289.727 267.486 290.911 267.412 292.126L267.146 294.084C267.157 294.525 266.915 294.934 266.524 295.138C266.133 295.343 265.659 295.307 265.303 295.046L262.586 293.583C262.331 293.398 262.011 293.326 261.702 293.384C261.392 293.443 261.121 293.628 260.952 293.894C260.889 293.999 260.819 294.107 260.743 294.217C260.375 294.935 260.359 295.783 260.698 296.516L262.029 300.139C262.478 301.367 262.276 302.501 261.547 302.799L260.198 303.343C259.47 303.641 258.437 303.008 257.772 301.868L255.803 298.492C255.422 297.745 254.751 297.188 253.947 296.953L253.554 296.877C253.255 296.793 252.934 296.844 252.676 297.015C252.417 297.187 252.245 297.462 252.205 297.77L251.54 300.607C251.312 301.57 250.463 301.83 249.538 301.196L247.822 300.025C246.836 299.292 246.219 298.165 246.131 296.94L246.004 293.558C245.934 292.633 245.568 291.756 244.959 291.056C244.874 290.949 244.786 290.841 244.697 290.731C244.575 290.581 244.45 290.428 244.326 290.271C243.912 289.616 243.2 289.209 242.426 289.188L240.044 289.536C239.234 289.637 238.201 288.833 237.612 287.636L236.516 285.394C235.921 284.19 235.972 282.955 236.605 282.493L238.505 281.118C238.98 280.776 239.132 279.997 238.923 279.092C238.905 279.005 238.887 278.919 238.869 278.835C238.818 278.594 238.769 278.362 238.727 278.123C238.551 277.205 238.084 276.368 237.397 275.735L234.705 273.372C233.781 272.562 233.273 271.376 233.324 270.148L233.552 268.191C233.698 267.14 234.496 266.735 235.452 267.229L238.252 268.692C238.512 268.877 238.836 268.948 239.151 268.89C239.465 268.831 239.741 268.648 239.918 268.381L239.918 268.381C239.987 268.274 240.057 268.166 240.133 268.058C240.513 267.342 240.527 266.487 240.171 265.759ZM255.41 291.335C258.868 289.948 259.533 284.247 256.88 278.604V278.623C254.213 272.973 249.165 269.509 245.65 270.889C242.135 272.27 241.527 277.971 244.25 283.62C246.974 289.27 251.952 292.722 255.41 291.335Z" fill="#67BDE8"/>
<path d="M304.712 317.024L293.812 335.582" stroke="#67BDE8" stroke-width="1.24" stroke-linecap="round"/>
<path d="M283.38 295.547L265.988 308.22" stroke="#67BDE8" stroke-width="1.24" stroke-linecap="round"/>
<path d="M307.739 319.412L296.845 337.97" stroke="#67BDE8" stroke-width="1.24" stroke-linecap="round"/>
<path d="M294.078 291.664L264.657 315.371C264.657 315.371 278.421 332.846 289.289 334.22C292.507 330.091 304.864 308.664 304.864 308.664L294.078 291.664Z" fill="#67BDE8"/>
<path d="M247.543 232.729C247.543 232.729 257.557 237.536 259.128 243.547C259.913 247.67 253.617 241.767 253.617 241.767C253.617 241.767 256.423 244.047 255.518 246.302C254.612 248.557 249.431 243.768 249.431 243.768C249.431 243.768 252.705 247.22 251.914 248.158C250.647 249.678 246.289 247.334 244.459 244.991C246.277 246.777 246.359 248.911 245.346 249.203C244.332 249.494 233.375 238.651 229.847 242.837" fill="#F9DD12"/>
<path opacity="0.57" d="M259.128 243.547C257.557 237.536 247.543 232.729 247.543 232.729L246.992 233.039C248.652 234.534 255.486 241.096 253.244 246.163C253.841 246.459 254.483 246.656 255.144 246.745C255.313 246.642 255.444 246.486 255.518 246.302C256.24 244.528 254.662 242.749 253.953 242.065C255.22 243.205 259.805 247.1 259.128 243.547Z" fill="#F78B14"/>
<path d="M247.543 232.729C247.543 232.729 257.557 237.536 259.128 243.547C259.913 247.67 253.617 241.767 253.617 241.767C253.617 241.767 256.423 244.047 255.518 246.302C254.612 248.557 249.431 243.768 249.431 243.768C249.431 243.768 252.705 247.22 251.914 248.158C250.647 249.678 246.289 247.334 244.459 244.991C246.277 246.777 246.359 248.911 245.346 249.203C244.332 249.494 233.375 238.651 229.847 242.837" stroke="#1E1E1E" stroke-width="1.24" stroke-linecap="round"/>
<path d="M248.784 237.327L253.617 241.767L248.784 237.327Z" fill="#F9DD12"/>
<path d="M248.784 237.327L253.617 241.767" stroke="#1E1E1E" stroke-width="1.24" stroke-linecap="round"/>
<path d="M244.18 238.48L249.684 244.015L244.18 238.48Z" fill="#F9DD12"/>
<path d="M244.18 238.48L249.684 244.015" stroke="#1E1E1E" stroke-width="1.24" stroke-linecap="round"/>
<path d="M237.878 239.55C237.878 239.55 242.312 242.198 244.446 244.985L237.878 239.55Z" fill="#F9DD12"/>
<path d="M237.878 239.55C237.878 239.55 242.312 242.198 244.446 244.985" stroke="#1E1E1E" stroke-width="1.24" stroke-linecap="round"/>
<path d="M382.933 277.597C387.443 279.978 403.334 311.704 379.006 317.195C367.112 319.881 341.739 308.93 318.665 297.282C318.209 304.547 316.391 325.017 309.956 336.159L302.356 342.34C302.356 342.34 361.158 400.091 398.426 391.984C398.825 391.895 399.192 391.807 399.553 391.712C406.048 390.957 412.249 388.58 417.585 384.802C470.681 347.927 440.387 269.73 440.387 269.73" fill="#35A5F9"/>
<path opacity="0.66" d="M440.539 270.085C435.966 278.845 437.568 329.293 426.674 332.156C414.317 335.392 424.318 370.703 382.933 369.132C356.205 368.118 330.781 346.406 313.579 327.665C312.67 330.619 311.456 333.469 309.956 336.171L302.356 342.353C302.356 342.353 361.158 400.091 398.426 391.984C398.825 391.895 399.192 391.807 399.553 391.712C406.048 390.957 412.249 388.58 417.585 384.801C468.629 349.352 442.622 275.716 440.539 270.085V270.085Z" fill="#1788C1"/>
<path fill-rule="evenodd" clip-rule="evenodd" d="M423.133 380.539C401.934 369.829 390.711 386.239 387.322 392.617C391.034 392.953 394.776 392.74 398.425 391.984C398.824 391.895 399.192 391.807 399.553 391.712C406.048 390.957 412.249 388.58 417.585 384.801C419.555 383.44 421.391 382.008 423.133 380.539V380.539Z" stroke="white"/>
<path d="M382.933 277.54C387.443 279.921 403.334 311.647 379.006 317.138C367.112 319.824 341.739 308.904 318.665 297.225C318.209 304.49 316.391 324.96 309.956 336.101L302.356 342.283C302.356 342.283 361.133 400.021 398.4 391.927C398.799 391.838 399.167 391.75 399.528 391.655C406.023 390.9 412.224 388.523 417.56 384.744C470.655 347.87 440.361 269.673 440.361 269.673" stroke="#1E1E1E" stroke-linecap="round"/>
<path d="M305.155 341.757C307.136 340.232 308.772 338.304 309.956 336.101C307.587 333.517 305.326 330.996 303.179 328.571C300.842 338.109 300.55 345.045 305.155 341.757Z" fill="#1E1E1E" stroke="#1E1E1E"/>
<path d="M315.764 295.749C292.874 284.045 272.967 272.194 271.909 273.201C269.749 275.26 277.793 283.304 277.793 283.304C277.793 283.304 254.358 281.536 254.65 284.482C254.941 287.427 268.869 287.522 268.869 287.522C268.869 287.522 249.868 288.402 250.235 290.689C250.602 292.975 270.047 293.856 270.047 293.856C270.047 293.856 255.923 295.623 255.923 296.699C255.923 297.776 272.302 299.543 272.302 299.543C272.302 299.543 262.016 300.272 262.396 301.918C262.776 303.565 271.896 303.913 280.016 304.173C282.442 304.256 290.98 314.795 303.179 328.552C305.326 330.978 307.612 333.498 309.956 336.082C316.391 324.941 318.19 304.471 318.665 297.206L315.764 295.749Z" fill="#F9DD12"/>
<path fill-rule="evenodd" clip-rule="evenodd" d="M315.764 295.749C292.874 284.045 272.967 272.194 271.909 273.201C269.749 275.26 277.793 283.303 277.793 283.303C277.793 283.303 254.358 281.536 254.65 284.482C254.941 287.427 268.869 287.522 268.869 287.522C268.869 287.522 249.868 288.402 250.235 290.689C250.602 292.975 270.047 293.855 270.047 293.855C270.047 293.855 255.923 295.623 255.923 296.699C255.923 297.776 272.302 299.543 272.302 299.543C272.302 299.543 262.016 300.272 262.396 301.918C262.776 303.565 271.896 303.913 280.016 304.173C282.442 304.255 290.98 314.795 303.179 328.552C305.326 330.977 307.612 333.498 309.956 336.082C316.391 324.941 318.19 304.471 318.665 297.206L315.764 295.749Z" stroke="#1E1E1E" stroke-width="1.24"/>
<path d="M275.525 403.616C277.768 400.987 269.779 390.486 257.681 380.16C245.583 369.835 233.957 363.595 231.713 366.224C229.469 368.853 237.458 379.354 249.556 389.68C261.655 400.005 273.281 406.245 275.525 403.616Z" fill="#1E1E1E" stroke="#1E1E1E" stroke-width="1.24"/>
<path d="M253.092 188.526H265.278V250.26" stroke="#1E1E1E" stroke-width="1.24" stroke-linecap="round"/>
<path d="M351.955 229.359C351.955 229.359 361.861 230.36 364.312 226.332" stroke="#1E1E1E" stroke-width="1.24" stroke-linecap="round"/>
<path d="M351.955 229.359C351.955 229.359 361.861 230.36 364.312 226.332C364.635 228.232 363.983 235.668 350.188 238.48C351.321 232.646 351.955 229.359 351.955 229.359Z" fill="#1E1E1E" stroke="#1E1E1E" stroke-width="1.24" stroke-linecap="round"/>
<path d="M265.277 252.534C266.558 252.534 267.596 251.496 267.596 250.216C267.596 248.936 266.558 247.898 265.277 247.898C263.997 247.898 262.959 248.936 262.959 250.216C262.959 251.496 263.997 252.534 265.277 252.534Z" fill="#1E1E1E" stroke="#1E1E1E" stroke-width="1.24"/>
<path opacity="0.57" d="M309.956 336.12C311.447 333.431 312.657 330.596 313.566 327.659C306.537 319.954 299.942 311.863 293.811 303.426C284.311 290.473 255.923 296.661 255.923 296.661L257.139 297.244C260.939 298.276 272.302 299.505 272.302 299.505C272.302 299.505 262.016 300.272 262.396 301.918C262.776 303.565 271.897 303.913 280.017 304.173C282.442 304.255 290.98 314.795 303.179 328.552C305.326 330.996 307.619 333.517 309.956 336.12Z" fill="#F78B14"/>
<path d="M230.911 252.997C230.911 252.997 226.857 255.448 227.953 261.528C229.048 267.609 236.009 250.888 230.911 252.997Z" fill="white"/>
<path d="M344.487 191.604C344.487 191.604 338.211 187.759 337.425 182.103C336.64 176.447 342.543 174.737 343.449 178.138C344.354 181.54 343.309 186.638 348.516 186.898C353.722 187.158 349.846 194.739 344.487 191.604Z" fill="white"/>
<path d="M340.167 173.033C340.167 173.033 337.552 173.426 339.122 169.373C340.693 165.319 346.577 173.426 340.167 173.033Z" fill="white"/>
<path d="M368.942 196.437C368.942 196.437 365.674 204.417 368.942 208.078C372.21 211.739 368.549 203.011 369.727 201.022C370.905 199.033 371.165 193.434 368.942 196.437Z" fill="white"/>
<path d="M371.292 211.074C371.292 211.074 373.452 209.908 374.136 211.872C374.82 213.835 370.64 214.203 371.292 211.074Z" fill="white"/>
<path d="M320.457 317.024C320.457 317.024 320.552 303.996 325.36 306.447C330.167 308.898 340.846 310.963 337.666 313.313C334.486 315.663 324.574 310.013 325.36 312.939C326.145 315.865 321.553 320.73 320.457 317.024H320.457Z" fill="white"/>
<path d="M342.233 316.062C342.233 316.062 341.84 312.527 344.766 313.705C347.692 314.883 346.799 318.804 342.233 316.062Z" fill="white"/>
<path d="M325.353 246.916C325.353 246.916 335.227 236.586 340.782 237.498C346.337 238.41 335.082 241.229 336.925 243.775C338.768 246.321 321.337 251.692 325.353 246.916Z" fill="white"/>
<path d="M320.552 250.26C320.552 250.26 324.137 248.607 324.732 250.894C325.328 253.18 317.753 253.009 320.552 250.26Z" fill="white"/>
<path d="M209.142 291.05C209.142 291.05 208.357 288.174 213.576 289.15C218.795 290.125 214.139 293.798 209.142 291.05Z" fill="white"/>
<path d="M243.015 230.981C243.015 230.981 236.219 230.905 234.648 233.324C233.078 235.744 241.052 231.753 242.559 232.735C244.067 233.717 245.979 230.791 243.015 230.981Z" fill="white"/>
<path d="M232.754 233.837C232.754 233.837 230.715 233.97 230.652 234.889C230.588 235.807 233.229 235.737 232.754 233.837Z" fill="white"/>
<path d="M284.761 284.228C284.761 284.228 277.623 278.224 277.838 277.54C278.053 276.856 297.061 288.111 296.839 289.675C296.617 291.24 285.768 287.927 284.761 284.228Z" fill="white"/>
<path d="M83.4049 145.9C83.4049 145.9 79.6047 158.707 83.7976 169.119C87.9905 179.532 84.906 159.137 86.7555 158.649C88.6049 158.162 85.8687 140.408 83.4049 145.9Z" fill="white"/>
<path d="M85.4633 176.694C85.4633 176.694 85.1973 173.527 86.7301 174.243C88.2628 174.959 88.5479 181.698 87.3635 180.716C86.1791 179.734 85.4633 176.694 85.4633 176.694Z" fill="white"/>
<path d="M97.9217 135.303C97.9217 135.303 94.3875 137.166 94.2925 141.004C94.1975 144.842 96.7437 138.065 97.9217 138.16C99.0998 138.255 99.3848 134.208 97.9217 135.303Z" fill="white"/>
<path d="M111.159 135.113C111.159 135.113 107.359 137.755 107.726 139.819C108.094 141.884 114.694 133.752 111.159 135.113Z" fill="white"/>
<path d="M124.745 135.569C124.745 135.569 121.756 137.368 123.029 138.641C124.302 139.914 125.676 135.633 124.745 135.569Z" fill="white"/>
<path d="M94.8812 144.842C94.8812 144.842 92.2337 145.9 93.3104 147.857C94.3871 149.814 96.0719 145.165 94.8812 144.842V144.842Z" fill="white"/>
<path d="M141.72 168.752C141.72 168.752 146.958 165.99 147.94 167.073C148.921 168.156 142.347 169.714 142.936 170.874C143.525 172.033 137.508 170.481 141.72 168.752Z" fill="white"/>
<path d="M76.3993 143.575C75.3352 143.442 64.7706 144.905 62.5474 150.783C60.3243 156.661 68.8242 147.711 70.9143 149.117C73.0044 150.523 80.5732 144.101 76.3993 143.575Z" fill="white"/>
<path d="M61.6295 154.045C61.6295 154.045 58.887 154.172 59.4064 156.319C59.9258 158.466 62.6809 155.115 61.6295 154.045Z" fill="white"/>
<path d="M164.42 146.59C164.42 146.59 170.563 133.758 171.868 134.556C173.173 135.354 168.34 140.845 170.038 142.156C171.735 143.468 162.222 150.954 164.42 146.59Z" fill="white"/>
<path d="M173.261 164.065C173.261 164.065 175.01 169.968 177.974 170.126C180.938 170.285 184.656 170.684 183.554 169.049C182.452 167.415 178.949 168.498 178.005 165.94C177.062 163.381 172.248 161.531 173.261 164.065Z" fill="white"/>
<path d="M186.107 168.784C186.107 168.784 189.78 167.631 190.091 169.189C190.401 170.747 183.548 170.177 186.107 168.784Z" fill="white"/>
<path d="M161.424 151.049C161.424 151.049 163.071 149.282 164.084 150.416C165.098 151.549 160.202 153.5 161.424 151.049Z" fill="white"/>
<path d="M364.622 323.054C362.722 322.661 360.949 322.186 359.346 321.692" stroke="white"/>
<path d="M375.681 323.96C373.81 324.054 371.935 324.018 370.069 323.852" stroke="white"/>
<path d="M395.74 285.704C398.906 295.667 401.814 312.059 390.388 319.412C387.773 321.088 384.899 322.319 381.881 323.054" stroke="white"/>
<path d="M392.611 277.514C392.611 277.514 393.244 278.857 394.112 281.08" stroke="white"/>
<path d="M301.526 291.664L314.472 298.371" stroke="white"/>
<path d="M327.506 267.083C329.46 266.427 331.476 265.977 333.523 265.74" stroke="white"/>
<path d="M315.65 281.131C316.052 276.492 318.523 272.281 322.376 269.667" stroke="white"/>
<path d="M215.836 305.89C218.908 313.629 224.279 324.061 232.754 331.186" stroke="white"/>
<path d="M212.467 295.547C212.467 295.547 212.923 297.535 213.949 300.664" stroke="white"/>
<path d="M349.674 162.773C354.228 161.104 359.269 161.386 363.609 163.552" stroke="white"/>
<path d="M344.177 165.971C344.796 165.425 345.462 164.933 346.166 164.502" stroke="white"/>
<path d="M277.85 348.395C277.85 348.395 265.816 353.969 255.942 352.1" stroke="white"/>
<path d="M377.245 222.747C377.76 224.429 378.056 226.17 378.126 227.928" stroke="white"/>
<path d="M374.212 215.431C374.212 215.431 374.845 216.584 375.63 218.339" stroke="white"/>
<path d="M88.9469 234.642C88.6872 235.535 88.4149 236.434 88.1235 237.327" stroke="white"/>
<path d="M91.6384 197.754C92.5442 206.26 92.8418 218.218 89.979 230.613" stroke="white"/>
<path d="M90.6886 190.882C90.8343 191.75 90.9927 192.712 91.1447 193.757" stroke="white"/>
<path d="M89.5297 185.327C89.5297 185.327 89.8147 186.379 90.201 188.279" stroke="white"/>
<path d="M144.126 144.842H157.75" stroke="white"/>
<path d="M136.659 144.842H140.212" stroke="white"/>
<path d="M182.553 132.916L185.536 132.77C186.708 132.719 187.892 132.688 189.032 132.669C193.219 132.599 196.848 132.789 197.665 133.562" stroke="white"/>
<path d="M173.832 133.562C173.832 133.562 175.732 133.384 178.436 133.188" stroke="white"/>
<path d="M192.44 168.752H199.135" stroke="white"/>
<path d="M345.273 202.821C345.146 203.454 343.961 209.06 342.27 211.473C340.579 213.886 344.912 213.158 346.742 212.948" stroke="#141414"/>
<path d="M353.497 203.285C356.114 203.098 358.179 202.148 358.108 201.164C358.038 200.18 355.859 199.535 353.243 199.722C350.626 199.909 348.561 200.858 348.632 201.842C348.702 202.826 350.881 203.472 353.497 203.285Z" fill="white" stroke="#141414"/>
<path d="M351.562 199.945C349.807 200.325 348.585 201.06 348.636 201.845C348.686 202.631 350.004 203.163 351.802 203.29C352.771 202.96 353.43 202.27 353.38 201.51C353.329 200.75 352.588 200.123 351.562 199.945Z" fill="#141414"/>
<path d="M338.012 204.86C340.629 204.673 342.693 203.724 342.623 202.74C342.552 201.756 340.374 201.11 337.757 201.297C335.14 201.484 333.076 202.434 333.146 203.417C333.217 204.401 335.395 205.047 338.012 204.86Z" fill="white" stroke="#141414" stroke-width="1.24"/>
<path d="M336.076 201.516C334.316 201.903 333.1 202.637 333.15 203.416C333.201 204.195 334.518 204.727 336.317 204.86C337.286 204.531 337.945 203.834 337.894 203.074C337.843 202.314 337.083 201.706 336.076 201.516Z" fill="#141414"/>
<path d="M348.706 222.886C350.276 222.886 351.549 221.613 351.549 220.042C351.549 218.472 350.276 217.198 348.706 217.198C347.135 217.198 345.862 218.472 345.862 220.042C345.862 221.613 347.135 222.886 348.706 222.886Z" fill="#1E1E1E" stroke="#1E1E1E" stroke-width="1.24" stroke-linecap="round"/>
<path d="M272.505 183.395H287.338H272.505Z" fill="#1E1E1E"/>
<path d="M272.505 183.395H287.338" stroke="#1E1E1E" stroke-width="1.24" stroke-linecap="round"/>
<path d="M272.505 194.429H287.338H272.505Z" fill="#1E1E1E"/>
<path d="M272.505 194.429H287.338" stroke="#1E1E1E" stroke-width="1.24" stroke-linecap="round"/>
<path d="M272.505 205.456H287.338H272.505Z" fill="#1E1E1E"/>
<path d="M272.505 205.456H287.338" stroke="#1E1E1E" stroke-width="1.24" stroke-linecap="round"/>
<path d="M453.927 372.976C453.218 375.225 452.445 377.473 451.59 379.715" stroke="#1E1E1E" stroke-width="1.24" stroke-linecap="round"/>
<path d="M457.379 359.682C457.101 361.008 456.801 362.34 456.48 363.679" stroke="#1E1E1E" stroke-width="1.24" stroke-linecap="round"/>
<path d="M460.609 313.465C461.503 327.382 460.716 341.355 458.266 355.084" stroke="#1E1E1E" stroke-width="1.24" stroke-linecap="round"/>
<path d="M403.531 182.578C403.531 182.578 416.375 179.633 419.416 187.481" stroke="#1E1E1E" stroke-width="1.24" stroke-linecap="round"/>
<path d="M400.091 401.085C408.958 399.749 419.726 395.727 427.25 384.909" stroke="#1E1E1E" stroke-width="1.24" stroke-linecap="round"/>
<path d="M384.504 401.092C387.184 401.526 389.897 401.719 392.611 401.668" stroke="#1E1E1E" stroke-width="1.24" stroke-linecap="round"/>
<path d="M211.206 322.573C211.206 322.573 220.124 342.758 239.347 350.739" stroke="#1E1E1E" stroke-width="1.24" stroke-linecap="round"/>
<path d="M77.6351 284.228H81.8154" stroke="#1E1E1E" stroke-width="1.24" stroke-linecap="round"/>
<path d="M42.6283 265.816V275.317C42.6266 277.686 43.5668 279.959 45.2418 281.636C46.9167 283.312 49.1892 284.254 51.5589 284.254H72.0865" stroke="#1E1E1E" stroke-width="1.24" stroke-linecap="round"/>
<path d="M335.519 66.0631H357.262" stroke="#1E1E1E" stroke-width="1.24" stroke-linecap="round"/>
<path d="M318.664 66.0631H325.644" stroke="#1E1E1E" stroke-width="1.24" stroke-linecap="round"/>
<path d="M455.91 243.11C455.91 243.11 458.362 256.569 449 264.549" stroke="#1E1E1E" stroke-width="1.24" stroke-linecap="round"/>
</svg>
