<svg width="410" height="356" viewBox="0 0 410 356" fill="none" xmlns="http://www.w3.org/2000/svg">
<path d="M121 12.5L142.5 0.5L164 12.5L142.5 25V97.5L181.5 119.5V49L203 35.5L225 49L203 61.5V159L121 110.5V12.5Z" fill="#005478"/>
<path d="M225 120.5V94L242.5 84.5V13L266 0L288 13L266 25.5V94L225 120.5Z" fill="#202020"/>
<path d="M26.016 274.824C22.624 274.824 19.648 274.408 17.088 273.576C14.592 272.744 12.448 271.752 10.656 270.6C8.928 269.384 7.552 268.2 6.528 267.048C5.504 265.896 4.8 265.032 4.416 264.456C3.328 263.048 2.656 261.832 2.4 260.808C2.144 259.72 2.272 258.632 2.784 257.544C3.36 256.456 4.32 255.272 5.664 253.992C7.008 252.84 8.256 252.232 9.408 252.168C10.624 252.04 11.808 252.328 12.96 253.032C14.112 253.736 15.232 254.728 16.32 256.008C17.856 257.864 19.36 259.176 20.832 259.944C22.368 260.648 23.968 261 25.632 261C27.744 261 29.536 260.744 31.008 260.232C32.48 259.72 33.6 258.92 34.368 257.832C35.136 256.68 35.52 255.24 35.52 253.512C35.52 252.104 34.976 250.984 33.888 250.152C32.864 249.256 31.456 248.488 29.664 247.848C27.936 247.208 25.984 246.6 23.808 246.024C21.696 245.384 19.584 244.648 17.472 243.816C16 243.304 14.592 242.664 13.248 241.896C11.904 241.128 10.624 240.264 9.408 239.304C8.192 238.344 7.136 237.192 6.24 235.848C5.408 234.504 4.736 232.968 4.224 231.24C3.776 229.512 3.552 227.528 3.552 225.288C3.552 221.512 4.48 218.152 6.336 215.208C8.192 212.264 10.752 209.96 14.016 208.296C17.344 206.568 21.152 205.704 25.44 205.704C28.32 205.704 30.816 205.96 32.928 206.472C35.104 206.984 36.928 207.592 38.4 208.296C39.872 209 41.024 209.704 41.856 210.408C42.752 211.048 43.36 211.56 43.68 211.944C45.472 213.608 46.464 215.048 46.656 216.264C46.848 217.416 46.176 219.048 44.64 221.16C43.04 223.4 41.44 224.648 39.84 224.904C38.304 225.16 36.544 224.616 34.56 223.272C33.792 222.568 33.024 221.928 32.256 221.352C31.488 220.776 30.56 220.328 29.472 220.008C28.448 219.624 27.072 219.432 25.344 219.432C24.32 219.432 23.36 219.592 22.464 219.912C21.568 220.168 20.8 220.552 20.16 221.064C19.52 221.576 19.008 222.216 18.624 222.984C18.24 223.688 18.048 224.488 18.048 225.384C18.048 226.856 18.528 228.04 19.488 228.936C20.512 229.832 21.824 230.568 23.424 231.144C25.088 231.656 26.912 232.168 28.896 232.68C30.944 233.128 33.024 233.672 35.136 234.312C37.056 234.952 38.912 235.752 40.704 236.712C42.496 237.608 44.096 238.76 45.504 240.168C46.912 241.576 48.032 243.336 48.864 245.448C49.76 247.56 50.208 250.152 50.208 253.224C50.208 257.064 49.472 260.36 48 263.112C46.528 265.864 44.576 268.104 42.144 269.832C39.712 271.56 37.088 272.808 34.272 273.576C31.456 274.408 28.704 274.824 26.016 274.824ZM79.3823 274.632C76.3743 274.632 73.3663 274.056 70.3583 272.904C67.4143 271.688 64.7263 269.992 62.2943 267.816C59.8623 265.64 57.9423 263.048 56.5343 260.04C55.1263 256.968 54.4223 253.576 54.4223 249.864C54.4223 246.408 55.0623 243.208 56.3423 240.264C57.6223 237.256 59.4143 234.6 61.7183 232.296C64.0223 229.992 66.6463 228.2 69.5903 226.92C72.5983 225.576 75.7983 224.904 79.1903 224.904C83.7983 224.904 87.9583 226.024 91.6703 228.264C95.4463 230.44 98.4543 233.416 100.694 237.192C102.934 240.968 104.054 245.16 104.054 249.768C104.054 253.672 103.318 257.16 101.846 260.232C100.438 263.24 98.5183 265.832 96.0863 268.008C93.7183 270.184 91.0623 271.848 88.1183 273C85.2383 274.088 82.3263 274.632 79.3823 274.632ZM79.1903 260.136C80.7263 260.136 82.2943 259.752 83.8943 258.984C85.4943 258.216 86.8383 257.064 87.9263 255.528C89.0143 253.992 89.5583 252.04 89.5583 249.672C89.5583 247.624 89.1103 245.832 88.2143 244.296C87.3183 242.76 86.0703 241.576 84.4703 240.744C82.9343 239.848 81.1423 239.4 79.0943 239.4C77.1743 239.4 75.4463 239.848 73.9103 240.744C72.4383 241.64 71.2223 242.888 70.2623 244.488C69.3663 246.024 68.9183 247.784 68.9183 249.768C68.9183 252.072 69.4303 254.024 70.4543 255.624C71.5423 257.16 72.8863 258.312 74.4863 259.08C76.0863 259.784 77.6543 260.136 79.1903 260.136ZM151.823 273.768C149.455 273.768 147.279 273.512 145.295 273C143.375 272.552 141.679 271.848 140.207 270.888C138.799 269.864 137.583 268.616 136.559 267.144C135.599 265.672 134.863 263.976 134.351 262.056C133.903 260.136 133.679 257.96 133.679 255.528L133.583 211.08C133.583 209.8 133.679 208.616 133.871 207.528C134.127 206.44 134.767 205.544 135.791 204.84C136.815 204.136 138.511 203.784 140.879 203.784C143.183 203.784 144.815 204.136 145.775 204.84C146.799 205.544 147.439 206.44 147.695 207.528C147.951 208.616 148.079 209.8 148.079 211.08V255.816C148.079 256.456 148.143 257 148.271 257.448C148.399 257.896 148.591 258.28 148.847 258.6C149.167 258.856 149.583 259.048 150.095 259.176C150.607 259.304 151.247 259.368 152.015 259.368C153.743 259.368 155.151 259.592 156.239 260.04C157.327 260.488 158.095 261.256 158.543 262.344C159.055 263.432 159.311 264.84 159.311 266.568C159.311 268.232 159.023 269.608 158.447 270.696C157.935 271.72 157.135 272.488 156.047 273C154.959 273.512 153.551 273.768 151.823 273.768ZM125.903 273.768C123.599 273.768 121.551 273.544 119.759 273.096C118.031 272.648 116.527 271.976 115.247 271.08C113.967 270.12 112.911 268.936 112.079 267.528C111.247 266.056 110.607 264.328 110.159 262.344C109.775 260.36 109.583 258.088 109.583 255.528V211.08C109.583 209.8 109.711 208.616 109.967 207.528C110.223 206.44 110.831 205.544 111.791 204.84C112.815 204.136 114.511 203.784 116.879 203.784C119.183 203.784 120.815 204.136 121.775 204.84C122.799 205.544 123.439 206.44 123.695 207.528C123.951 208.616 124.079 209.8 124.079 211.08V255.816C124.079 256.648 124.175 257.32 124.367 257.832C124.559 258.344 124.815 258.728 125.135 258.984C125.455 259.24 125.711 259.368 125.903 259.368C127.375 259.368 128.527 259.592 129.359 260.04C130.191 260.488 130.799 261.256 131.183 262.344C131.567 263.432 131.759 264.84 131.759 266.568C131.759 268.232 131.535 269.608 131.087 270.696C130.703 271.72 130.063 272.488 129.167 273C128.335 273.512 127.247 273.768 125.903 273.768ZM172.772 273.864C170.404 273.864 168.708 273.544 167.684 272.904C166.724 272.2 166.116 271.304 165.86 270.216C165.668 269.064 165.572 267.88 165.572 266.664V233.16C165.572 231.88 165.668 230.696 165.86 229.608C166.116 228.52 166.756 227.656 167.78 227.016C168.804 226.312 170.5 225.96 172.868 225.96C175.172 225.96 176.804 226.312 177.764 227.016C178.788 227.72 179.396 228.616 179.588 229.704C179.844 230.792 179.972 232.008 179.972 233.352V266.76C179.972 267.976 179.844 269.16 179.588 270.312C179.396 271.4 178.788 272.264 177.764 272.904C176.804 273.544 175.14 273.864 172.772 273.864ZM172.772 218.952C170.34 218.952 168.612 218.6 167.588 217.896C166.564 217.192 165.924 216.264 165.668 215.112C165.476 213.96 165.38 212.744 165.38 211.464C165.38 210.12 165.508 208.904 165.764 207.816C166.02 206.664 166.66 205.768 167.684 205.128C168.708 204.424 170.436 204.072 172.868 204.072C175.236 204.072 176.932 204.424 177.956 205.128C178.98 205.832 179.588 206.76 179.78 207.912C180.036 209.064 180.164 210.28 180.164 211.56C180.164 212.84 180.036 214.056 179.78 215.208C179.588 216.36 178.98 217.288 177.956 217.992C176.932 218.632 175.204 218.952 172.772 218.952ZM210.554 274.248C207.738 274.248 204.858 273.736 201.914 272.712C199.034 271.624 196.346 270.056 193.85 268.008C191.418 265.896 189.466 263.336 187.994 260.328C186.522 257.256 185.786 253.736 185.786 249.768C185.786 245.8 186.522 242.312 187.994 239.304C189.466 236.296 191.418 233.768 193.85 231.72C196.282 229.672 198.938 228.136 201.818 227.112C204.762 226.024 207.61 225.48 210.362 225.48C212.73 225.48 214.842 225.768 216.698 226.344C218.618 226.856 220.218 227.496 221.498 228.264C222.842 229.032 223.802 229.704 224.378 230.28C225.466 231.112 226.426 231.944 227.258 232.776C228.09 233.608 228.474 234.696 228.41 236.04C228.346 236.744 228.122 237.48 227.738 238.248C227.354 238.952 226.874 239.688 226.298 240.456C224.378 243.144 222.458 244.36 220.538 244.104C219.578 243.912 218.682 243.592 217.85 243.144C217.082 242.696 216.314 242.248 215.546 241.8C214.842 241.288 214.074 240.872 213.242 240.552C212.41 240.232 211.45 240.072 210.362 240.072C208.506 240.072 206.842 240.488 205.37 241.32C203.898 242.152 202.714 243.304 201.818 244.776C200.986 246.248 200.57 247.944 200.57 249.864C200.57 251.72 200.986 253.384 201.818 254.856C202.714 256.328 203.866 257.512 205.274 258.408C206.746 259.24 208.378 259.656 210.17 259.656C211.258 259.656 212.186 259.528 212.954 259.272C213.786 259.016 214.49 258.728 215.066 258.408C215.642 258.024 216.09 257.736 216.41 257.544C217.178 257.032 217.914 256.584 218.618 256.2C219.322 255.752 220.058 255.528 220.826 255.528C221.722 255.528 222.65 255.88 223.61 256.584C224.57 257.224 225.626 258.28 226.778 259.752C227.802 261.096 228.378 262.344 228.506 263.496C228.698 264.648 228.442 265.736 227.738 266.76C227.034 267.784 225.946 268.776 224.474 269.736C223.962 270.184 223.034 270.76 221.69 271.464C220.41 272.168 218.81 272.808 216.89 273.384C215.034 273.96 212.922 274.248 210.554 274.248ZM242.991 273.864C240.623 273.864 238.927 273.544 237.903 272.904C236.943 272.2 236.335 271.304 236.079 270.216C235.887 269.064 235.791 267.88 235.791 266.664V233.16C235.791 231.88 235.887 230.696 236.079 229.608C236.335 228.52 236.975 227.656 237.999 227.016C239.023 226.312 240.719 225.96 243.087 225.96C245.391 225.96 247.023 226.312 247.983 227.016C249.007 227.72 249.615 228.616 249.807 229.704C250.063 230.792 250.191 232.008 250.191 233.352V266.76C250.191 267.976 250.063 269.16 249.807 270.312C249.615 271.4 249.007 272.264 247.983 272.904C247.023 273.544 245.359 273.864 242.991 273.864ZM242.991 218.952C240.559 218.952 238.831 218.6 237.807 217.896C236.783 217.192 236.143 216.264 235.887 215.112C235.695 213.96 235.599 212.744 235.599 211.464C235.599 210.12 235.727 208.904 235.983 207.816C236.239 206.664 236.879 205.768 237.903 205.128C238.927 204.424 240.655 204.072 243.087 204.072C245.455 204.072 247.151 204.424 248.175 205.128C249.199 205.832 249.807 206.76 249.999 207.912C250.255 209.064 250.383 210.28 250.383 211.56C250.383 212.84 250.255 214.056 249.999 215.208C249.807 216.36 249.199 217.288 248.175 217.992C247.151 218.632 245.423 218.952 242.991 218.952ZM282.577 273.864C279.313 273.864 276.497 273.512 274.129 272.808C271.825 272.104 269.905 271.016 268.369 269.544C266.833 268.072 265.681 266.216 264.913 263.976C264.209 261.672 263.857 258.952 263.857 255.816V216.84C263.857 215.56 263.953 214.408 264.145 213.384C264.401 212.36 265.041 211.528 266.065 210.888C267.089 210.184 268.753 209.832 271.057 209.832C273.361 209.832 275.025 210.184 276.049 210.888C277.073 211.592 277.681 212.488 277.873 213.576C278.129 214.664 278.257 215.848 278.257 217.128V255.24C278.257 256.264 278.321 257.128 278.449 257.832C278.641 258.472 278.897 258.952 279.217 259.272C279.537 259.592 279.985 259.816 280.561 259.944C281.137 260.072 281.841 260.136 282.673 260.136C284.081 260.136 285.329 260.264 286.417 260.52C287.505 260.776 288.337 261.352 288.913 262.248C289.553 263.144 289.873 264.648 289.873 266.76C289.873 269.064 289.521 270.728 288.817 271.752C288.113 272.776 287.185 273.384 286.033 273.576C284.945 273.768 283.793 273.864 282.577 273.864ZM260.881 226.632H271.441L284.689 226.248C285.905 226.248 287.057 226.376 288.145 226.632C289.233 226.824 290.129 227.432 290.833 228.456C291.537 229.48 291.889 231.176 291.889 233.544C291.889 235.72 291.537 237.32 290.833 238.344C290.193 239.368 289.329 240.04 288.241 240.36C287.153 240.616 285.969 240.744 284.689 240.744L272.113 240.456H260.497C258.641 240.392 257.329 239.848 256.561 238.824C255.857 237.736 255.505 235.944 255.505 233.448C255.505 231.144 255.953 229.448 256.849 228.36C257.745 227.208 259.089 226.632 260.881 226.632ZM326.27 274.728C321.598 274.728 317.47 273.832 313.886 272.04C310.366 270.184 307.358 267.752 304.862 264.744C302.43 261.672 300.606 258.248 299.39 254.472C298.174 250.632 297.566 246.728 297.566 242.76V214.056C297.566 212.776 297.662 211.592 297.854 210.504C298.11 209.352 298.75 208.424 299.773 207.72C300.798 207.016 302.494 206.664 304.862 206.664C307.294 206.664 309.022 207.016 310.046 207.72C311.07 208.424 311.678 209.352 311.87 210.504C312.126 211.592 312.254 212.808 312.254 214.152V242.76C312.254 245.576 312.702 248.296 313.598 250.92C314.558 253.544 316.094 255.72 318.206 257.448C320.318 259.176 323.102 260.04 326.558 260.04C329.502 260.04 332.03 259.336 334.142 257.928C336.254 256.456 337.886 254.44 339.038 251.88C340.19 249.256 340.766 246.184 340.766 242.664V213.48C340.766 212.328 340.894 211.24 341.15 210.216C341.406 209.192 342.046 208.36 343.07 207.72C344.094 207.016 345.79 206.664 348.158 206.664C350.526 206.664 352.19 207.048 353.15 207.816C354.174 208.52 354.782 209.416 354.974 210.504C355.23 211.592 355.358 212.808 355.358 214.152V242.952C355.358 246.984 354.718 250.888 353.438 254.664C352.222 258.44 350.366 261.832 347.87 264.84C345.438 267.848 342.398 270.248 338.75 272.04C335.166 273.832 331.006 274.728 326.27 274.728ZM382.641 274.824C379.249 274.824 376.273 274.408 373.713 273.576C371.217 272.744 369.073 271.752 367.281 270.6C365.553 269.384 364.177 268.2 363.153 267.048C362.129 265.896 361.425 265.032 361.041 264.456C359.953 263.048 359.281 261.832 359.025 260.808C358.769 259.72 358.897 258.632 359.409 257.544C359.985 256.456 360.945 255.272 362.289 253.992C363.633 252.84 364.881 252.232 366.033 252.168C367.249 252.04 368.433 252.328 369.585 253.032C370.737 253.736 371.857 254.728 372.945 256.008C374.481 257.864 375.985 259.176 377.457 259.944C378.993 260.648 380.593 261 382.257 261C384.369 261 386.161 260.744 387.633 260.232C389.105 259.72 390.225 258.92 390.993 257.832C391.761 256.68 392.145 255.24 392.145 253.512C392.145 252.104 391.601 250.984 390.513 250.152C389.489 249.256 388.081 248.488 386.289 247.848C384.561 247.208 382.609 246.6 380.433 246.024C378.321 245.384 376.209 244.648 374.097 243.816C372.625 243.304 371.217 242.664 369.873 241.896C368.529 241.128 367.249 240.264 366.033 239.304C364.817 238.344 363.761 237.192 362.865 235.848C362.033 234.504 361.361 232.968 360.849 231.24C360.401 229.512 360.177 227.528 360.177 225.288C360.177 221.512 361.105 218.152 362.961 215.208C364.817 212.264 367.377 209.96 370.641 208.296C373.969 206.568 377.777 205.704 382.065 205.704C384.945 205.704 387.441 205.96 389.553 206.472C391.729 206.984 393.553 207.592 395.025 208.296C396.497 209 397.649 209.704 398.481 210.408C399.377 211.048 399.985 211.56 400.305 211.944C402.097 213.608 403.089 215.048 403.281 216.264C403.473 217.416 402.801 219.048 401.265 221.16C399.665 223.4 398.065 224.648 396.465 224.904C394.929 225.16 393.169 224.616 391.185 223.272C390.417 222.568 389.649 221.928 388.881 221.352C388.113 220.776 387.185 220.328 386.097 220.008C385.073 219.624 383.697 219.432 381.969 219.432C380.945 219.432 379.985 219.592 379.089 219.912C378.193 220.168 377.425 220.552 376.785 221.064C376.145 221.576 375.633 222.216 375.249 222.984C374.865 223.688 374.673 224.488 374.673 225.384C374.673 226.856 375.153 228.04 376.113 228.936C377.137 229.832 378.449 230.568 380.049 231.144C381.713 231.656 383.537 232.168 385.521 232.68C387.569 233.128 389.649 233.672 391.761 234.312C393.681 234.952 395.537 235.752 397.329 236.712C399.121 237.608 400.721 238.76 402.129 240.168C403.537 241.576 404.657 243.336 405.489 245.448C406.385 247.56 406.833 250.152 406.833 253.224C406.833 257.064 406.097 260.36 404.625 263.112C403.153 265.864 401.201 268.104 398.769 269.832C396.337 271.56 393.713 272.808 390.897 273.576C388.081 274.408 385.329 274.824 382.641 274.824Z" fill="#202020"/>
<path d="M97.944 348.576C96.3867 348.576 95.0107 348.277 93.816 347.68C92.6427 347.061 91.64 346.251 90.808 345.248C89.9973 344.224 89.3893 343.083 88.984 341.824C88.5787 340.544 88.376 339.243 88.376 337.92V328.352C88.376 327.925 88.408 327.531 88.472 327.168C88.5573 326.784 88.7707 326.475 89.112 326.24C89.4533 326.005 90.0187 325.888 90.808 325.888C91.6187 325.888 92.1947 326.005 92.536 326.24C92.8773 326.475 93.08 326.784 93.144 327.168C93.2293 327.531 93.272 327.936 93.272 328.384V337.92C93.272 338.859 93.4213 339.765 93.72 340.64C94.04 341.515 94.552 342.24 95.256 342.816C95.96 343.392 96.888 343.68 98.04 343.68C99.0213 343.68 99.864 343.445 100.568 342.976C101.272 342.485 101.816 341.813 102.2 340.96C102.584 340.085 102.776 339.061 102.776 337.888V328.16C102.776 327.776 102.819 327.413 102.904 327.072C102.989 326.731 103.203 326.453 103.544 326.24C103.885 326.005 104.451 325.888 105.24 325.888C106.029 325.888 106.584 326.016 106.904 326.272C107.245 326.507 107.448 326.805 107.512 327.168C107.597 327.531 107.64 327.936 107.64 328.384V337.984C107.64 339.328 107.427 340.629 107 341.888C106.595 343.147 105.976 344.277 105.144 345.28C104.333 346.283 103.32 347.083 102.104 347.68C100.909 348.277 99.5227 348.576 97.944 348.576ZM115.478 348.544C114.902 348.544 114.273 348.48 113.59 348.352C112.929 348.224 112.278 348.043 111.638 347.808C110.998 347.552 110.465 347.264 110.038 346.944C109.612 346.603 109.366 346.219 109.302 345.792C109.26 345.579 109.26 345.355 109.302 345.12C109.366 344.864 109.473 344.608 109.622 344.352C109.772 344.075 109.953 343.787 110.166 343.488C110.337 343.253 110.529 343.104 110.742 343.04C110.956 342.976 111.201 342.987 111.478 343.072C111.82 343.136 112.161 343.253 112.502 343.424C112.865 343.573 113.217 343.744 113.558 343.936C113.921 344.107 114.294 344.267 114.678 344.416C115.062 344.544 115.457 344.608 115.862 344.608C116.46 344.608 116.918 344.523 117.238 344.352C117.58 344.16 117.75 343.904 117.75 343.584C117.75 343.349 117.676 343.157 117.526 343.008C117.398 342.859 117.206 342.731 116.95 342.624C116.716 342.496 116.438 342.389 116.118 342.304C115.798 342.219 115.446 342.133 115.062 342.048C114.7 341.941 114.326 341.835 113.942 341.728C113.409 341.579 112.897 341.387 112.406 341.152C111.916 340.917 111.468 340.619 111.062 340.256C110.657 339.872 110.337 339.413 110.102 338.88C109.868 338.325 109.75 337.653 109.75 336.864C109.75 335.819 109.996 334.944 110.486 334.24C110.977 333.536 111.692 333.003 112.63 332.64C113.569 332.256 114.71 332.064 116.054 332.064C116.438 332.064 116.822 332.085 117.206 332.128C117.59 332.171 117.964 332.245 118.326 332.352C118.71 332.459 119.084 332.587 119.446 332.736C119.809 332.885 120.172 333.067 120.534 333.28C121.174 333.579 121.505 333.984 121.526 334.496C121.548 335.008 121.366 335.531 120.982 336.064C120.748 336.427 120.502 336.693 120.246 336.864C119.99 337.013 119.724 337.056 119.446 336.992C119.105 336.907 118.732 336.768 118.326 336.576C117.942 336.384 117.526 336.203 117.078 336.032C116.652 335.861 116.225 335.776 115.798 335.776C115.436 335.776 115.126 335.829 114.87 335.936C114.614 336.021 114.422 336.149 114.294 336.32C114.166 336.469 114.102 336.651 114.102 336.864C114.102 337.141 114.177 337.365 114.326 337.536C114.497 337.685 114.721 337.813 114.998 337.92C115.276 338.027 115.596 338.123 115.958 338.208C116.321 338.293 116.716 338.379 117.142 338.464C117.718 338.571 118.305 338.72 118.902 338.912C119.521 339.083 120.076 339.339 120.566 339.68C121.078 340.021 121.484 340.48 121.782 341.056C122.102 341.632 122.262 342.389 122.262 343.328C122.262 345.013 121.676 346.304 120.502 347.2C119.329 348.096 117.654 348.544 115.478 348.544ZM132.311 348.576C130.817 348.576 129.527 348.331 128.439 347.84C127.372 347.349 126.497 346.709 125.815 345.92C125.132 345.109 124.62 344.213 124.279 343.232C123.959 342.251 123.799 341.269 123.799 340.288C123.799 338.688 124.161 337.269 124.887 336.032C125.612 334.795 126.615 333.824 127.895 333.12C129.175 332.395 130.647 332.032 132.311 332.032C133.548 332.032 134.615 332.235 135.511 332.64C136.428 333.024 137.175 333.536 137.751 334.176C138.348 334.795 138.785 335.467 139.062 336.192C139.361 336.917 139.51 337.611 139.51 338.272C139.51 339.445 139.223 340.32 138.647 340.896C138.092 341.451 137.377 341.728 136.503 341.728H128.887C128.929 342.283 129.121 342.752 129.463 343.136C129.825 343.52 130.273 343.819 130.807 344.032C131.34 344.245 131.905 344.352 132.503 344.352C133.015 344.352 133.463 344.331 133.847 344.288C134.231 344.224 134.561 344.149 134.839 344.064C135.116 343.957 135.372 343.861 135.607 343.776C135.841 343.669 136.044 343.584 136.215 343.52C136.407 343.456 136.588 343.413 136.759 343.392C137.079 343.371 137.367 343.467 137.623 343.68C137.9 343.872 138.145 344.171 138.359 344.576C138.508 344.811 138.604 345.035 138.647 345.248C138.711 345.461 138.743 345.675 138.743 345.888C138.743 346.4 138.476 346.859 137.943 347.264C137.431 347.669 136.695 347.989 135.735 348.224C134.796 348.459 133.655 348.576 132.311 348.576ZM128.887 339.104H133.943C134.284 339.104 134.529 339.051 134.679 338.944C134.849 338.816 134.935 338.581 134.935 338.24C134.935 337.856 134.817 337.525 134.583 337.248C134.348 336.949 134.028 336.725 133.623 336.576C133.239 336.405 132.791 336.32 132.279 336.32C131.617 336.32 131.031 336.448 130.519 336.704C130.007 336.96 129.601 337.301 129.303 337.728C129.025 338.155 128.887 338.613 128.887 339.104ZM145.506 348.32C144.759 348.32 144.215 348.203 143.874 347.968C143.532 347.733 143.319 347.435 143.234 347.072C143.17 346.688 143.138 346.283 143.138 345.856V330.88C143.138 330.155 143.255 329.44 143.49 328.736C143.724 328.032 144.098 327.403 144.61 326.848C145.122 326.272 145.772 325.813 146.562 325.472C147.351 325.131 148.311 324.96 149.442 324.96C149.847 324.96 150.231 325.003 150.594 325.088C150.978 325.152 151.276 325.355 151.49 325.696C151.724 326.016 151.842 326.571 151.842 327.36C151.842 328.149 151.724 328.715 151.49 329.056C151.255 329.376 150.946 329.579 150.562 329.664C150.199 329.728 149.815 329.76 149.41 329.76C149.132 329.76 148.898 329.781 148.706 329.824C148.535 329.845 148.396 329.888 148.29 329.952C148.183 330.016 148.098 330.123 148.034 330.272C147.991 330.421 147.97 330.603 147.97 330.816V345.952C147.97 346.357 147.927 346.741 147.842 347.104C147.756 347.467 147.543 347.765 147.202 348C146.86 348.213 146.295 348.32 145.506 348.32ZM142.146 332.544H145.666L150.082 332.416C150.487 332.416 150.871 332.459 151.234 332.544C151.596 332.608 151.895 332.811 152.13 333.152C152.364 333.493 152.482 334.059 152.482 334.848C152.482 335.573 152.364 336.107 152.13 336.448C151.916 336.789 151.628 337.013 151.266 337.12C150.903 337.205 150.508 337.248 150.082 337.248L145.89 337.152H142.018C141.399 337.131 140.962 336.949 140.706 336.608C140.471 336.245 140.354 335.648 140.354 334.816C140.354 334.048 140.503 333.483 140.802 333.12C141.1 332.736 141.548 332.544 142.146 332.544ZM161.098 348.256C160.117 348.256 159.189 348.064 158.314 347.68C157.461 347.296 156.714 346.763 156.074 346.08C155.434 345.376 154.933 344.555 154.57 343.616C154.229 342.656 154.058 341.611 154.058 340.48V334.688C154.058 334.261 154.101 333.867 154.186 333.504C154.272 333.141 154.474 332.843 154.794 332.608C155.136 332.373 155.701 332.256 156.49 332.256C157.28 332.256 157.834 332.373 158.154 332.608C158.496 332.843 158.698 333.152 158.762 333.536C158.848 333.899 158.89 334.293 158.89 334.72V340.48C158.89 341.099 158.997 341.643 159.21 342.112C159.445 342.56 159.776 342.901 160.202 343.136C160.65 343.371 161.173 343.488 161.77 343.488C162.389 343.488 162.912 343.371 163.338 343.136C163.786 342.88 164.128 342.528 164.362 342.08C164.618 341.632 164.746 341.099 164.746 340.48V334.656C164.746 334.229 164.789 333.835 164.874 333.472C164.96 333.109 165.162 332.821 165.482 332.608C165.824 332.373 166.389 332.256 167.178 332.256C167.968 332.256 168.522 332.373 168.842 332.608C169.184 332.843 169.386 333.152 169.45 333.536C169.536 333.899 169.578 334.283 169.578 334.688V345.952C169.578 346.357 169.536 346.741 169.45 347.104C169.386 347.445 169.184 347.723 168.842 347.936C168.501 348.149 167.946 348.256 167.178 348.256C166.602 348.256 166.154 348.192 165.834 348.064C165.514 347.936 165.28 347.776 165.13 347.584C164.981 347.392 164.885 347.189 164.842 346.976C164.821 346.763 164.81 346.571 164.81 346.4L165.226 346.048C165.162 346.133 165.024 346.293 164.81 346.528C164.597 346.763 164.309 347.019 163.946 347.296C163.605 347.552 163.2 347.776 162.73 347.968C162.261 348.16 161.717 348.256 161.098 348.256ZM178.269 348.288C177.394 348.288 176.615 348.235 175.933 348.128C175.271 348.043 174.695 347.872 174.205 347.616C173.735 347.36 173.351 347.008 173.053 346.56C172.754 346.112 172.53 345.536 172.381 344.832C172.253 344.107 172.189 343.221 172.189 342.176V327.392C172.189 326.965 172.221 326.571 172.285 326.208C172.37 325.845 172.583 325.547 172.924 325.312C173.266 325.077 173.821 324.96 174.589 324.96C175.357 324.96 175.901 325.077 176.221 325.312C176.562 325.547 176.775 325.845 176.861 326.208C176.946 326.571 176.989 326.965 176.989 327.392V341.952C176.989 342.293 176.999 342.581 177.021 342.816C177.063 343.029 177.127 343.2 177.213 343.328C177.319 343.456 177.458 343.541 177.629 343.584C177.799 343.627 178.023 343.648 178.301 343.648C178.557 343.648 178.813 343.68 179.069 343.744C179.346 343.808 179.581 344 179.773 344.32C179.965 344.64 180.061 345.173 180.061 345.92C180.061 346.688 179.965 347.243 179.773 347.584C179.581 347.925 179.346 348.128 179.069 348.192C178.813 348.256 178.546 348.288 178.269 348.288ZM196.828 348.608C195.698 348.608 194.706 348.469 193.852 348.192C193.02 347.915 192.306 347.584 191.708 347.2C191.132 346.795 190.674 346.4 190.332 346.016C189.991 345.632 189.756 345.344 189.628 345.152C189.266 344.683 189.042 344.277 188.956 343.936C188.871 343.573 188.914 343.211 189.084 342.848C189.276 342.485 189.596 342.091 190.044 341.664C190.492 341.28 190.908 341.077 191.292 341.056C191.698 341.013 192.092 341.109 192.476 341.344C192.86 341.579 193.234 341.909 193.596 342.336C194.108 342.955 194.61 343.392 195.1 343.648C195.612 343.883 196.146 344 196.7 344C197.404 344 198.002 343.915 198.492 343.744C198.983 343.573 199.356 343.307 199.612 342.944C199.868 342.56 199.996 342.08 199.996 341.504C199.996 341.035 199.815 340.661 199.452 340.384C199.111 340.085 198.642 339.829 198.044 339.616C197.468 339.403 196.818 339.2 196.092 339.008C195.388 338.795 194.684 338.549 193.98 338.272C193.49 338.101 193.02 337.888 192.572 337.632C192.124 337.376 191.698 337.088 191.292 336.768C190.887 336.448 190.535 336.064 190.236 335.616C189.959 335.168 189.735 334.656 189.564 334.08C189.415 333.504 189.34 332.843 189.34 332.096C189.34 330.837 189.65 329.717 190.268 328.736C190.887 327.755 191.74 326.987 192.828 326.432C193.938 325.856 195.207 325.568 196.636 325.568C197.596 325.568 198.428 325.653 199.132 325.824C199.858 325.995 200.466 326.197 200.956 326.432C201.447 326.667 201.831 326.901 202.108 327.136C202.407 327.349 202.61 327.52 202.716 327.648C203.314 328.203 203.644 328.683 203.708 329.088C203.772 329.472 203.548 330.016 203.036 330.72C202.503 331.467 201.97 331.883 201.436 331.968C200.924 332.053 200.338 331.872 199.676 331.424C199.42 331.189 199.164 330.976 198.908 330.784C198.652 330.592 198.343 330.443 197.98 330.336C197.639 330.208 197.18 330.144 196.604 330.144C196.263 330.144 195.943 330.197 195.644 330.304C195.346 330.389 195.09 330.517 194.876 330.688C194.663 330.859 194.492 331.072 194.364 331.328C194.236 331.563 194.172 331.829 194.172 332.128C194.172 332.619 194.332 333.013 194.652 333.312C194.994 333.611 195.431 333.856 195.964 334.048C196.519 334.219 197.127 334.389 197.788 334.56C198.471 334.709 199.164 334.891 199.868 335.104C200.508 335.317 201.127 335.584 201.724 335.904C202.322 336.203 202.855 336.587 203.324 337.056C203.794 337.525 204.167 338.112 204.444 338.816C204.743 339.52 204.892 340.384 204.892 341.408C204.892 342.688 204.647 343.787 204.156 344.704C203.666 345.621 203.015 346.368 202.204 346.944C201.394 347.52 200.519 347.936 199.58 348.192C198.642 348.469 197.724 348.608 196.828 348.608ZM214.617 348.544C213.614 348.544 212.612 348.352 211.609 347.968C210.628 347.563 209.732 346.997 208.921 346.272C208.11 345.547 207.47 344.683 207.001 343.68C206.532 342.656 206.297 341.525 206.297 340.288C206.297 339.136 206.51 338.069 206.937 337.088C207.364 336.085 207.961 335.2 208.729 334.432C209.497 333.664 210.372 333.067 211.353 332.64C212.356 332.192 213.422 331.968 214.553 331.968C216.089 331.968 217.476 332.341 218.713 333.088C219.972 333.813 220.974 334.805 221.721 336.064C222.468 337.323 222.841 338.72 222.841 340.256C222.841 341.557 222.596 342.72 222.105 343.744C221.636 344.747 220.996 345.611 220.185 346.336C219.396 347.061 218.51 347.616 217.529 348C216.569 348.363 215.598 348.544 214.617 348.544ZM214.553 343.712C215.065 343.712 215.588 343.584 216.121 343.328C216.654 343.072 217.102 342.688 217.465 342.176C217.828 341.664 218.009 341.013 218.009 340.224C218.009 339.541 217.86 338.944 217.561 338.432C217.262 337.92 216.846 337.525 216.313 337.248C215.801 336.949 215.204 336.8 214.521 336.8C213.881 336.8 213.305 336.949 212.793 337.248C212.302 337.547 211.897 337.963 211.577 338.496C211.278 339.008 211.129 339.595 211.129 340.256C211.129 341.024 211.3 341.675 211.641 342.208C212.004 342.72 212.452 343.104 212.985 343.36C213.518 343.595 214.041 343.712 214.553 343.712ZM230.956 348.288C230.081 348.288 229.303 348.235 228.62 348.128C227.959 348.043 227.383 347.872 226.892 347.616C226.423 347.36 226.039 347.008 225.74 346.56C225.441 346.112 225.217 345.536 225.068 344.832C224.94 344.107 224.876 343.221 224.876 342.176V327.392C224.876 326.965 224.908 326.571 224.972 326.208C225.057 325.845 225.271 325.547 225.612 325.312C225.953 325.077 226.508 324.96 227.276 324.96C228.044 324.96 228.588 325.077 228.908 325.312C229.249 325.547 229.463 325.845 229.548 326.208C229.633 326.571 229.676 326.965 229.676 327.392V341.952C229.676 342.293 229.687 342.581 229.708 342.816C229.751 343.029 229.815 343.2 229.9 343.328C230.007 343.456 230.145 343.541 230.316 343.584C230.487 343.627 230.711 343.648 230.988 343.648C231.244 343.648 231.5 343.68 231.756 343.744C232.033 343.808 232.268 344 232.46 344.32C232.652 344.64 232.748 345.173 232.748 345.92C232.748 346.688 232.652 347.243 232.46 347.584C232.268 347.925 232.033 348.128 231.756 348.192C231.5 348.256 231.233 348.288 230.956 348.288ZM241.005 348.256C240.023 348.256 239.095 348.064 238.221 347.68C237.367 347.296 236.621 346.763 235.981 346.08C235.341 345.376 234.839 344.555 234.477 343.616C234.135 342.656 233.965 341.611 233.965 340.48V334.688C233.965 334.261 234.007 333.867 234.093 333.504C234.178 333.141 234.381 332.843 234.701 332.608C235.042 332.373 235.607 332.256 236.397 332.256C237.186 332.256 237.741 332.373 238.061 332.608C238.402 332.843 238.605 333.152 238.669 333.536C238.754 333.899 238.797 334.293 238.797 334.72V340.48C238.797 341.099 238.903 341.643 239.117 342.112C239.351 342.56 239.682 342.901 240.109 343.136C240.557 343.371 241.079 343.488 241.677 343.488C242.295 343.488 242.818 343.371 243.245 343.136C243.693 342.88 244.034 342.528 244.269 342.08C244.525 341.632 244.653 341.099 244.653 340.48V334.656C244.653 334.229 244.695 333.835 244.781 333.472C244.866 333.109 245.069 332.821 245.389 332.608C245.73 332.373 246.295 332.256 247.085 332.256C247.874 332.256 248.429 332.373 248.749 332.608C249.09 332.843 249.293 333.152 249.357 333.536C249.442 333.899 249.485 334.283 249.485 334.688V345.952C249.485 346.357 249.442 346.741 249.357 347.104C249.293 347.445 249.09 347.723 248.749 347.936C248.407 348.149 247.853 348.256 247.085 348.256C246.509 348.256 246.061 348.192 245.741 348.064C245.421 347.936 245.186 347.776 245.037 347.584C244.887 347.392 244.791 347.189 244.749 346.976C244.727 346.763 244.717 346.571 244.717 346.4L245.133 346.048C245.069 346.133 244.93 346.293 244.717 346.528C244.503 346.763 244.215 347.019 243.853 347.296C243.511 347.552 243.106 347.776 242.637 347.968C242.167 348.16 241.623 348.256 241.005 348.256ZM260.255 348.288C259.167 348.288 258.228 348.171 257.439 347.936C256.671 347.701 256.031 347.339 255.519 346.848C255.007 346.357 254.623 345.739 254.367 344.992C254.132 344.224 254.015 343.317 254.015 342.272V329.28C254.015 328.853 254.047 328.469 254.111 328.128C254.196 327.787 254.409 327.509 254.751 327.296C255.092 327.061 255.647 326.944 256.415 326.944C257.183 326.944 257.737 327.061 258.079 327.296C258.42 327.531 258.623 327.829 258.687 328.192C258.772 328.555 258.815 328.949 258.815 329.376V342.08C258.815 342.421 258.836 342.709 258.879 342.944C258.943 343.157 259.028 343.317 259.135 343.424C259.241 343.531 259.391 343.605 259.583 343.648C259.775 343.691 260.009 343.712 260.287 343.712C260.756 343.712 261.172 343.755 261.535 343.84C261.897 343.925 262.175 344.117 262.367 344.416C262.58 344.715 262.687 345.216 262.687 345.92C262.687 346.688 262.569 347.243 262.335 347.584C262.1 347.925 261.791 348.128 261.407 348.192C261.044 348.256 260.66 348.288 260.255 348.288ZM253.023 332.544H256.543L260.959 332.416C261.364 332.416 261.748 332.459 262.111 332.544C262.473 332.608 262.772 332.811 263.007 333.152C263.241 333.493 263.359 334.059 263.359 334.848C263.359 335.573 263.241 336.107 263.007 336.448C262.793 336.789 262.505 337.013 262.143 337.12C261.78 337.205 261.385 337.248 260.959 337.248L256.767 337.152H252.895C252.276 337.131 251.839 336.949 251.583 336.608C251.348 336.245 251.231 335.648 251.231 334.816C251.231 334.048 251.38 333.483 251.679 333.12C251.977 332.736 252.425 332.544 253.023 332.544ZM267.747 348.288C266.958 348.288 266.392 348.181 266.051 347.968C265.731 347.733 265.528 347.435 265.443 347.072C265.379 346.688 265.347 346.293 265.347 345.888V334.72C265.347 334.293 265.379 333.899 265.443 333.536C265.528 333.173 265.742 332.885 266.083 332.672C266.424 332.437 266.99 332.32 267.779 332.32C268.547 332.32 269.091 332.437 269.411 332.672C269.752 332.907 269.955 333.205 270.019 333.568C270.104 333.931 270.147 334.336 270.147 334.784V345.92C270.147 346.325 270.104 346.72 270.019 347.104C269.955 347.467 269.752 347.755 269.411 347.968C269.091 348.181 268.536 348.288 267.747 348.288ZM267.747 329.984C266.936 329.984 266.36 329.867 266.019 329.632C265.678 329.397 265.464 329.088 265.379 328.704C265.315 328.32 265.283 327.915 265.283 327.488C265.283 327.04 265.326 326.635 265.411 326.272C265.496 325.888 265.71 325.589 266.051 325.376C266.392 325.141 266.968 325.024 267.779 325.024C268.568 325.024 269.134 325.141 269.475 325.376C269.816 325.611 270.019 325.92 270.083 326.304C270.168 326.688 270.211 327.093 270.211 327.52C270.211 327.947 270.168 328.352 270.083 328.736C270.019 329.12 269.816 329.429 269.475 329.664C269.134 329.877 268.558 329.984 267.747 329.984ZM280.555 348.544C279.552 348.544 278.549 348.352 277.547 347.968C276.565 347.563 275.669 346.997 274.859 346.272C274.048 345.547 273.408 344.683 272.939 343.68C272.469 342.656 272.235 341.525 272.235 340.288C272.235 339.136 272.448 338.069 272.875 337.088C273.301 336.085 273.899 335.2 274.667 334.432C275.435 333.664 276.309 333.067 277.291 332.64C278.293 332.192 279.36 331.968 280.491 331.968C282.027 331.968 283.413 332.341 284.651 333.088C285.909 333.813 286.912 334.805 287.659 336.064C288.405 337.323 288.779 338.72 288.779 340.256C288.779 341.557 288.533 342.72 288.043 343.744C287.573 344.747 286.933 345.611 286.123 346.336C285.333 347.061 284.448 347.616 283.467 348C282.507 348.363 281.536 348.544 280.555 348.544ZM280.491 343.712C281.003 343.712 281.525 343.584 282.059 343.328C282.592 343.072 283.04 342.688 283.403 342.176C283.765 341.664 283.947 341.013 283.947 340.224C283.947 339.541 283.797 338.944 283.499 338.432C283.2 337.92 282.784 337.525 282.251 337.248C281.739 336.949 281.141 336.8 280.459 336.8C279.819 336.8 279.243 336.949 278.731 337.248C278.24 337.547 277.835 337.963 277.515 338.496C277.216 339.008 277.067 339.595 277.067 340.256C277.067 341.024 277.237 341.675 277.579 342.208C277.941 342.72 278.389 343.104 278.923 343.36C279.456 343.595 279.979 343.712 280.491 343.712ZM293.15 348.256C292.36 348.256 291.795 348.149 291.454 347.936C291.134 347.701 290.931 347.403 290.846 347.04C290.782 346.656 290.75 346.261 290.75 345.856V334.592C290.75 334.187 290.792 333.813 290.878 333.472C290.963 333.109 291.166 332.821 291.486 332.608C291.827 332.395 292.392 332.288 293.182 332.288C293.864 332.288 294.366 332.384 294.686 332.576C295.006 332.747 295.208 332.96 295.294 333.216C295.4 333.472 295.454 333.717 295.454 333.952C295.454 334.165 295.475 334.315 295.518 334.4L295.326 335.008C295.368 334.688 295.528 334.368 295.806 334.048C296.104 333.707 296.467 333.408 296.894 333.152C297.342 332.875 297.811 332.661 298.302 332.512C298.814 332.363 299.315 332.288 299.806 332.288C300.83 332.288 301.736 332.48 302.526 332.864C303.336 333.227 304.019 333.76 304.574 334.464C305.128 335.168 305.544 336 305.822 336.96C306.12 337.899 306.27 338.933 306.27 340.064V345.888C306.27 346.293 306.227 346.688 306.142 347.072C306.078 347.435 305.875 347.723 305.534 347.936C305.214 348.149 304.659 348.256 303.87 348.256C303.059 348.256 302.483 348.149 302.142 347.936C301.822 347.701 301.619 347.403 301.534 347.04C301.448 346.656 301.406 346.261 301.406 345.856V340.064C301.406 339.424 301.299 338.88 301.086 338.432C300.872 337.984 300.552 337.643 300.126 337.408C299.699 337.152 299.176 337.024 298.558 337.024C297.939 337.024 297.406 337.152 296.958 337.408C296.51 337.664 296.158 338.016 295.902 338.464C295.667 338.912 295.55 339.445 295.55 340.064V345.888C295.55 346.293 295.507 346.688 295.422 347.072C295.358 347.435 295.155 347.723 294.814 347.936C294.494 348.149 293.939 348.256 293.15 348.256ZM314.541 348.544C313.965 348.544 313.335 348.48 312.653 348.352C311.991 348.224 311.341 348.043 310.701 347.808C310.061 347.552 309.527 347.264 309.101 346.944C308.674 346.603 308.429 346.219 308.365 345.792C308.322 345.579 308.322 345.355 308.365 345.12C308.429 344.864 308.535 344.608 308.685 344.352C308.834 344.075 309.015 343.787 309.229 343.488C309.399 343.253 309.591 343.104 309.805 343.04C310.018 342.976 310.263 342.987 310.541 343.072C310.882 343.136 311.223 343.253 311.565 343.424C311.927 343.573 312.279 343.744 312.621 343.936C312.983 344.107 313.357 344.267 313.741 344.416C314.125 344.544 314.519 344.608 314.925 344.608C315.522 344.608 315.981 344.523 316.301 344.352C316.642 344.16 316.813 343.904 316.813 343.584C316.813 343.349 316.738 343.157 316.589 343.008C316.461 342.859 316.269 342.731 316.013 342.624C315.778 342.496 315.501 342.389 315.181 342.304C314.861 342.219 314.509 342.133 314.125 342.048C313.762 341.941 313.389 341.835 313.005 341.728C312.471 341.579 311.959 341.387 311.469 341.152C310.978 340.917 310.53 340.619 310.125 340.256C309.719 339.872 309.399 339.413 309.165 338.88C308.93 338.325 308.813 337.653 308.813 336.864C308.813 335.819 309.058 334.944 309.549 334.24C310.039 333.536 310.754 333.003 311.693 332.64C312.631 332.256 313.773 332.064 315.117 332.064C315.501 332.064 315.885 332.085 316.269 332.128C316.653 332.171 317.026 332.245 317.389 332.352C317.773 332.459 318.146 332.587 318.509 332.736C318.871 332.885 319.234 333.067 319.597 333.28C320.237 333.579 320.567 333.984 320.589 334.496C320.61 335.008 320.429 335.531 320.045 336.064C319.81 336.427 319.565 336.693 319.309 336.864C319.053 337.013 318.786 337.056 318.509 336.992C318.167 336.907 317.794 336.768 317.389 336.576C317.005 336.384 316.589 336.203 316.141 336.032C315.714 335.861 315.287 335.776 314.861 335.776C314.498 335.776 314.189 335.829 313.933 335.936C313.677 336.021 313.485 336.149 313.357 336.32C313.229 336.469 313.165 336.651 313.165 336.864C313.165 337.141 313.239 337.365 313.389 337.536C313.559 337.685 313.783 337.813 314.061 337.92C314.338 338.027 314.658 338.123 315.021 338.208C315.383 338.293 315.778 338.379 316.205 338.464C316.781 338.571 317.367 338.72 317.965 338.912C318.583 339.083 319.138 339.339 319.629 339.68C320.141 340.021 320.546 340.48 320.845 341.056C321.165 341.632 321.325 342.389 321.325 343.328C321.325 345.013 320.738 346.304 319.565 347.2C318.391 348.096 316.717 348.544 314.541 348.544Z" fill="#202020"/>
</svg>
