<svg width="410" height="296" viewBox="0 0 410 296" fill="none" xmlns="http://www.w3.org/2000/svg">
<path d="M121 12.5L142.5 0.5L164 12.5L142.5 25V97.5L181.5 119.5V49L203 35.5L225 49L203 61.5V159L121 110.5V12.5Z" fill="#005478"/>
<path d="M225 120.5V94L242.5 84.5V13L266 0L288 13L266 25.5V94L225 120.5Z" fill="white"/>
<path d="M26.016 274.824C22.624 274.824 19.648 274.408 17.088 273.576C14.592 272.744 12.448 271.752 10.656 270.6C8.928 269.384 7.552 268.2 6.528 267.048C5.504 265.896 4.8 265.032 4.416 264.456C3.328 263.048 2.656 261.832 2.4 260.808C2.144 259.72 2.272 258.632 2.784 257.544C3.36 256.456 4.32 255.272 5.664 253.992C7.008 252.84 8.256 252.232 9.408 252.168C10.624 252.04 11.808 252.328 12.96 253.032C14.112 253.736 15.232 254.728 16.32 256.008C17.856 257.864 19.36 259.176 20.832 259.944C22.368 260.648 23.968 261 25.632 261C27.744 261 29.536 260.744 31.008 260.232C32.48 259.72 33.6 258.92 34.368 257.832C35.136 256.68 35.52 255.24 35.52 253.512C35.52 252.104 34.976 250.984 33.888 250.152C32.864 249.256 31.456 248.488 29.664 247.848C27.936 247.208 25.984 246.6 23.808 246.024C21.696 245.384 19.584 244.648 17.472 243.816C16 243.304 14.592 242.664 13.248 241.896C11.904 241.128 10.624 240.264 9.408 239.304C8.192 238.344 7.136 237.192 6.24 235.848C5.408 234.504 4.736 232.968 4.224 231.24C3.776 229.512 3.552 227.528 3.552 225.288C3.552 221.512 4.48 218.152 6.336 215.208C8.192 212.264 10.752 209.96 14.016 208.296C17.344 206.568 21.152 205.704 25.44 205.704C28.32 205.704 30.816 205.96 32.928 206.472C35.104 206.984 36.928 207.592 38.4 208.296C39.872 209 41.024 209.704 41.856 210.408C42.752 211.048 43.36 211.56 43.68 211.944C45.472 213.608 46.464 215.048 46.656 216.264C46.848 217.416 46.176 219.048 44.64 221.16C43.04 223.4 41.44 224.648 39.84 224.904C38.304 225.16 36.544 224.616 34.56 223.272C33.792 222.568 33.024 221.928 32.256 221.352C31.488 220.776 30.56 220.328 29.472 220.008C28.448 219.624 27.072 219.432 25.344 219.432C24.32 219.432 23.36 219.592 22.464 219.912C21.568 220.168 20.8 220.552 20.16 221.064C19.52 221.576 19.008 222.216 18.624 222.984C18.24 223.688 18.048 224.488 18.048 225.384C18.048 226.856 18.528 228.04 19.488 228.936C20.512 229.832 21.824 230.568 23.424 231.144C25.088 231.656 26.912 232.168 28.896 232.68C30.944 233.128 33.024 233.672 35.136 234.312C37.056 234.952 38.912 235.752 40.704 236.712C42.496 237.608 44.096 238.76 45.504 240.168C46.912 241.576 48.032 243.336 48.864 245.448C49.76 247.56 50.208 250.152 50.208 253.224C50.208 257.064 49.472 260.36 48 263.112C46.528 265.864 44.576 268.104 42.144 269.832C39.712 271.56 37.088 272.808 34.272 273.576C31.456 274.408 28.704 274.824 26.016 274.824ZM79.3823 274.632C76.3743 274.632 73.3663 274.056 70.3583 272.904C67.4143 271.688 64.7263 269.992 62.2943 267.816C59.8623 265.64 57.9423 263.048 56.5343 260.04C55.1263 256.968 54.4223 253.576 54.4223 249.864C54.4223 246.408 55.0623 243.208 56.3423 240.264C57.6223 237.256 59.4143 234.6 61.7183 232.296C64.0223 229.992 66.6463 228.2 69.5903 226.92C72.5983 225.576 75.7983 224.904 79.1903 224.904C83.7983 224.904 87.9583 226.024 91.6703 228.264C95.4463 230.44 98.4543 233.416 100.694 237.192C102.934 240.968 104.054 245.16 104.054 249.768C104.054 253.672 103.318 257.16 101.846 260.232C100.438 263.24 98.5183 265.832 96.0863 268.008C93.7183 270.184 91.0623 271.848 88.1183 273C85.2383 274.088 82.3263 274.632 79.3823 274.632ZM79.1903 260.136C80.7263 260.136 82.2943 259.752 83.8943 258.984C85.4943 258.216 86.8383 257.064 87.9263 255.528C89.0143 253.992 89.5583 252.04 89.5583 249.672C89.5583 247.624 89.1103 245.832 88.2143 244.296C87.3183 242.76 86.0703 241.576 84.4703 240.744C82.9343 239.848 81.1423 239.4 79.0943 239.4C77.1743 239.4 75.4463 239.848 73.9103 240.744C72.4383 241.64 71.2223 242.888 70.2623 244.488C69.3663 246.024 68.9183 247.784 68.9183 249.768C68.9183 252.072 69.4303 254.024 70.4543 255.624C71.5423 257.16 72.8863 258.312 74.4863 259.08C76.0863 259.784 77.6543 260.136 79.1903 260.136ZM151.823 273.768C149.455 273.768 147.279 273.512 145.295 273C143.375 272.552 141.679 271.848 140.207 270.888C138.799 269.864 137.583 268.616 136.559 267.144C135.599 265.672 134.863 263.976 134.351 262.056C133.903 260.136 133.679 257.96 133.679 255.528L133.583 211.08C133.583 209.8 133.679 208.616 133.871 207.528C134.127 206.44 134.767 205.544 135.791 204.84C136.815 204.136 138.511 203.784 140.879 203.784C143.183 203.784 144.815 204.136 145.775 204.84C146.799 205.544 147.439 206.44 147.695 207.528C147.951 208.616 148.079 209.8 148.079 211.08V255.816C148.079 256.456 148.143 257 148.271 257.448C148.399 257.896 148.591 258.28 148.847 258.6C149.167 258.856 149.583 259.048 150.095 259.176C150.607 259.304 151.247 259.368 152.015 259.368C153.743 259.368 155.151 259.592 156.239 260.04C157.327 260.488 158.095 261.256 158.543 262.344C159.055 263.432 159.311 264.84 159.311 266.568C159.311 268.232 159.023 269.608 158.447 270.696C157.935 271.72 157.135 272.488 156.047 273C154.959 273.512 153.551 273.768 151.823 273.768ZM125.903 273.768C123.599 273.768 121.551 273.544 119.759 273.096C118.031 272.648 116.527 271.976 115.247 271.08C113.967 270.12 112.911 268.936 112.079 267.528C111.247 266.056 110.607 264.328 110.159 262.344C109.775 260.36 109.583 258.088 109.583 255.528V211.08C109.583 209.8 109.711 208.616 109.967 207.528C110.223 206.44 110.831 205.544 111.791 204.84C112.815 204.136 114.511 203.784 116.879 203.784C119.183 203.784 120.815 204.136 121.775 204.84C122.799 205.544 123.439 206.44 123.695 207.528C123.951 208.616 124.079 209.8 124.079 211.08V255.816C124.079 256.648 124.175 257.32 124.367 257.832C124.559 258.344 124.815 258.728 125.135 258.984C125.455 259.24 125.711 259.368 125.903 259.368C127.375 259.368 128.527 259.592 129.359 260.04C130.191 260.488 130.799 261.256 131.183 262.344C131.567 263.432 131.759 264.84 131.759 266.568C131.759 268.232 131.535 269.608 131.087 270.696C130.703 271.72 130.063 272.488 129.167 273C128.335 273.512 127.247 273.768 125.903 273.768ZM172.772 273.864C170.404 273.864 168.708 273.544 167.684 272.904C166.724 272.2 166.116 271.304 165.86 270.216C165.668 269.064 165.572 267.88 165.572 266.664V233.16C165.572 231.88 165.668 230.696 165.86 229.608C166.116 228.52 166.756 227.656 167.78 227.016C168.804 226.312 170.5 225.96 172.868 225.96C175.172 225.96 176.804 226.312 177.764 227.016C178.788 227.72 179.396 228.616 179.588 229.704C179.844 230.792 179.972 232.008 179.972 233.352V266.76C179.972 267.976 179.844 269.16 179.588 270.312C179.396 271.4 178.788 272.264 177.764 272.904C176.804 273.544 175.14 273.864 172.772 273.864ZM172.772 218.952C170.34 218.952 168.612 218.6 167.588 217.896C166.564 217.192 165.924 216.264 165.668 215.112C165.476 213.96 165.38 212.744 165.38 211.464C165.38 210.12 165.508 208.904 165.764 207.816C166.02 206.664 166.66 205.768 167.684 205.128C168.708 204.424 170.436 204.072 172.868 204.072C175.236 204.072 176.932 204.424 177.956 205.128C178.98 205.832 179.588 206.76 179.78 207.912C180.036 209.064 180.164 210.28 180.164 211.56C180.164 212.84 180.036 214.056 179.78 215.208C179.588 216.36 178.98 217.288 177.956 217.992C176.932 218.632 175.204 218.952 172.772 218.952ZM210.554 274.248C207.738 274.248 204.858 273.736 201.914 272.712C199.034 271.624 196.346 270.056 193.85 268.008C191.418 265.896 189.466 263.336 187.994 260.328C186.522 257.256 185.786 253.736 185.786 249.768C185.786 245.8 186.522 242.312 187.994 239.304C189.466 236.296 191.418 233.768 193.85 231.72C196.282 229.672 198.938 228.136 201.818 227.112C204.762 226.024 207.61 225.48 210.362 225.48C212.73 225.48 214.842 225.768 216.698 226.344C218.618 226.856 220.218 227.496 221.498 228.264C222.842 229.032 223.802 229.704 224.378 230.28C225.466 231.112 226.426 231.944 227.258 232.776C228.09 233.608 228.474 234.696 228.41 236.04C228.346 236.744 228.122 237.48 227.738 238.248C227.354 238.952 226.874 239.688 226.298 240.456C224.378 243.144 222.458 244.36 220.538 244.104C219.578 243.912 218.682 243.592 217.85 243.144C217.082 242.696 216.314 242.248 215.546 241.8C214.842 241.288 214.074 240.872 213.242 240.552C212.41 240.232 211.45 240.072 210.362 240.072C208.506 240.072 206.842 240.488 205.37 241.32C203.898 242.152 202.714 243.304 201.818 244.776C200.986 246.248 200.57 247.944 200.57 249.864C200.57 251.72 200.986 253.384 201.818 254.856C202.714 256.328 203.866 257.512 205.274 258.408C206.746 259.24 208.378 259.656 210.17 259.656C211.258 259.656 212.186 259.528 212.954 259.272C213.786 259.016 214.49 258.728 215.066 258.408C215.642 258.024 216.09 257.736 216.41 257.544C217.178 257.032 217.914 256.584 218.618 256.2C219.322 255.752 220.058 255.528 220.826 255.528C221.722 255.528 222.65 255.88 223.61 256.584C224.57 257.224 225.626 258.28 226.778 259.752C227.802 261.096 228.378 262.344 228.506 263.496C228.698 264.648 228.442 265.736 227.738 266.76C227.034 267.784 225.946 268.776 224.474 269.736C223.962 270.184 223.034 270.76 221.69 271.464C220.41 272.168 218.81 272.808 216.89 273.384C215.034 273.96 212.922 274.248 210.554 274.248ZM242.991 273.864C240.623 273.864 238.927 273.544 237.903 272.904C236.943 272.2 236.335 271.304 236.079 270.216C235.887 269.064 235.791 267.88 235.791 266.664V233.16C235.791 231.88 235.887 230.696 236.079 229.608C236.335 228.52 236.975 227.656 237.999 227.016C239.023 226.312 240.719 225.96 243.087 225.96C245.391 225.96 247.023 226.312 247.983 227.016C249.007 227.72 249.615 228.616 249.807 229.704C250.063 230.792 250.191 232.008 250.191 233.352V266.76C250.191 267.976 250.063 269.16 249.807 270.312C249.615 271.4 249.007 272.264 247.983 272.904C247.023 273.544 245.359 273.864 242.991 273.864ZM242.991 218.952C240.559 218.952 238.831 218.6 237.807 217.896C236.783 217.192 236.143 216.264 235.887 215.112C235.695 213.96 235.599 212.744 235.599 211.464C235.599 210.12 235.727 208.904 235.983 207.816C236.239 206.664 236.879 205.768 237.903 205.128C238.927 204.424 240.655 204.072 243.087 204.072C245.455 204.072 247.151 204.424 248.175 205.128C249.199 205.832 249.807 206.76 249.999 207.912C250.255 209.064 250.383 210.28 250.383 211.56C250.383 212.84 250.255 214.056 249.999 215.208C249.807 216.36 249.199 217.288 248.175 217.992C247.151 218.632 245.423 218.952 242.991 218.952ZM282.577 273.864C279.313 273.864 276.497 273.512 274.129 272.808C271.825 272.104 269.905 271.016 268.369 269.544C266.833 268.072 265.681 266.216 264.913 263.976C264.209 261.672 263.857 258.952 263.857 255.816V216.84C263.857 215.56 263.953 214.408 264.145 213.384C264.401 212.36 265.041 211.528 266.065 210.888C267.089 210.184 268.753 209.832 271.057 209.832C273.361 209.832 275.025 210.184 276.049 210.888C277.073 211.592 277.681 212.488 277.873 213.576C278.129 214.664 278.257 215.848 278.257 217.128V255.24C278.257 256.264 278.321 257.128 278.449 257.832C278.641 258.472 278.897 258.952 279.217 259.272C279.537 259.592 279.985 259.816 280.561 259.944C281.137 260.072 281.841 260.136 282.673 260.136C284.081 260.136 285.329 260.264 286.417 260.52C287.505 260.776 288.337 261.352 288.913 262.248C289.553 263.144 289.873 264.648 289.873 266.76C289.873 269.064 289.521 270.728 288.817 271.752C288.113 272.776 287.185 273.384 286.033 273.576C284.945 273.768 283.793 273.864 282.577 273.864ZM260.881 226.632H271.441L284.689 226.248C285.905 226.248 287.057 226.376 288.145 226.632C289.233 226.824 290.129 227.432 290.833 228.456C291.537 229.48 291.889 231.176 291.889 233.544C291.889 235.72 291.537 237.32 290.833 238.344C290.193 239.368 289.329 240.04 288.241 240.36C287.153 240.616 285.969 240.744 284.689 240.744L272.113 240.456H260.497C258.641 240.392 257.329 239.848 256.561 238.824C255.857 237.736 255.505 235.944 255.505 233.448C255.505 231.144 255.953 229.448 256.849 228.36C257.745 227.208 259.089 226.632 260.881 226.632ZM326.27 274.728C321.598 274.728 317.47 273.832 313.886 272.04C310.366 270.184 307.358 267.752 304.862 264.744C302.43 261.672 300.606 258.248 299.39 254.472C298.174 250.632 297.566 246.728 297.566 242.76V214.056C297.566 212.776 297.662 211.592 297.854 210.504C298.11 209.352 298.75 208.424 299.773 207.72C300.798 207.016 302.494 206.664 304.862 206.664C307.294 206.664 309.022 207.016 310.046 207.72C311.07 208.424 311.678 209.352 311.87 210.504C312.126 211.592 312.254 212.808 312.254 214.152V242.76C312.254 245.576 312.702 248.296 313.598 250.92C314.558 253.544 316.094 255.72 318.206 257.448C320.318 259.176 323.102 260.04 326.558 260.04C329.502 260.04 332.03 259.336 334.142 257.928C336.254 256.456 337.886 254.44 339.038 251.88C340.19 249.256 340.766 246.184 340.766 242.664V213.48C340.766 212.328 340.894 211.24 341.15 210.216C341.406 209.192 342.046 208.36 343.07 207.72C344.094 207.016 345.79 206.664 348.158 206.664C350.526 206.664 352.19 207.048 353.15 207.816C354.174 208.52 354.782 209.416 354.974 210.504C355.23 211.592 355.358 212.808 355.358 214.152V242.952C355.358 246.984 354.718 250.888 353.438 254.664C352.222 258.44 350.366 261.832 347.87 264.84C345.438 267.848 342.398 270.248 338.75 272.04C335.166 273.832 331.006 274.728 326.27 274.728ZM382.641 274.824C379.249 274.824 376.273 274.408 373.713 273.576C371.217 272.744 369.073 271.752 367.281 270.6C365.553 269.384 364.177 268.2 363.153 267.048C362.129 265.896 361.425 265.032 361.041 264.456C359.953 263.048 359.281 261.832 359.025 260.808C358.769 259.72 358.897 258.632 359.409 257.544C359.985 256.456 360.945 255.272 362.289 253.992C363.633 252.84 364.881 252.232 366.033 252.168C367.249 252.04 368.433 252.328 369.585 253.032C370.737 253.736 371.857 254.728 372.945 256.008C374.481 257.864 375.985 259.176 377.457 259.944C378.993 260.648 380.593 261 382.257 261C384.369 261 386.161 260.744 387.633 260.232C389.105 259.72 390.225 258.92 390.993 257.832C391.761 256.68 392.145 255.24 392.145 253.512C392.145 252.104 391.601 250.984 390.513 250.152C389.489 249.256 388.081 248.488 386.289 247.848C384.561 247.208 382.609 246.6 380.433 246.024C378.321 245.384 376.209 244.648 374.097 243.816C372.625 243.304 371.217 242.664 369.873 241.896C368.529 241.128 367.249 240.264 366.033 239.304C364.817 238.344 363.761 237.192 362.865 235.848C362.033 234.504 361.361 232.968 360.849 231.24C360.401 229.512 360.177 227.528 360.177 225.288C360.177 221.512 361.105 218.152 362.961 215.208C364.817 212.264 367.377 209.96 370.641 208.296C373.969 206.568 377.777 205.704 382.065 205.704C384.945 205.704 387.441 205.96 389.553 206.472C391.729 206.984 393.553 207.592 395.025 208.296C396.497 209 397.649 209.704 398.481 210.408C399.377 211.048 399.985 211.56 400.305 211.944C402.097 213.608 403.089 215.048 403.281 216.264C403.473 217.416 402.801 219.048 401.265 221.16C399.665 223.4 398.065 224.648 396.465 224.904C394.929 225.16 393.169 224.616 391.185 223.272C390.417 222.568 389.649 221.928 388.881 221.352C388.113 220.776 387.185 220.328 386.097 220.008C385.073 219.624 383.697 219.432 381.969 219.432C380.945 219.432 379.985 219.592 379.089 219.912C378.193 220.168 377.425 220.552 376.785 221.064C376.145 221.576 375.633 222.216 375.249 222.984C374.865 223.688 374.673 224.488 374.673 225.384C374.673 226.856 375.153 228.04 376.113 228.936C377.137 229.832 378.449 230.568 380.049 231.144C381.713 231.656 383.537 232.168 385.521 232.68C387.569 233.128 389.649 233.672 391.761 234.312C393.681 234.952 395.537 235.752 397.329 236.712C399.121 237.608 400.721 238.76 402.129 240.168C403.537 241.576 404.657 243.336 405.489 245.448C406.385 247.56 406.833 250.152 406.833 253.224C406.833 257.064 406.097 260.36 404.625 263.112C403.153 265.864 401.201 268.104 398.769 269.832C396.337 271.56 393.713 272.808 390.897 273.576C388.081 274.408 385.329 274.824 382.641 274.824Z" fill="white"/>
</svg>
