<svg width="448" height="388" viewBox="0 0 448 388" fill="none" xmlns="http://www.w3.org/2000/svg">
<path d="M21.3127 0.820679H341.553V245.06H21.3127L21.3127 0.820679Z" fill="#9464F9"/>
<path opacity="0.47" d="M341.553 245.054V0.820679H313.425C313.609 6.69901 315.598 12.5237 322.767 12.5237C337.26 12.5237 318.665 195.365 325.947 219.045C333.229 242.725 82.2907 238.294 21.3127 232.571V245.078L341.553 245.054Z" fill="#1E5AF4"/>
<path fill-rule="evenodd" clip-rule="evenodd" d="M21.3127 0.820679H341.553V245.06H21.3127L21.3127 0.820679Z" stroke="#141414" stroke-width="1.31" stroke-linecap="round"/>
<path d="M21.3127 255.512H106.65V282.403H21.3127V255.512Z" fill="#FFD347" stroke="#141414" stroke-width="1.31" stroke-linecap="round"/>
<path d="M314.937 30.3672H442.836V150.143H314.937V30.3672Z" fill="#141414"/>
<path d="M21.3127 0.820679H341.553V12.5237H21.3127L21.3127 0.820679Z" fill="white" stroke="#141414" stroke-width="1.31" stroke-linecap="round"/>
<path d="M306.875 21.0047H434.773V140.781H306.875L306.875 21.0047Z" fill="#F41E84"/>
<path opacity="0.38" d="M434.773 21.0047H392.986C392.986 21.0047 395.594 33.9823 411.873 32.2253C428.152 30.4684 427.95 49.8603 419.465 75.7976C410.98 101.735 432.046 132.431 391.218 133.991C350.389 135.552 308.346 131.454 306.875 140.781H434.773V21.0047Z" fill="#890952"/>
<path fill-rule="evenodd" clip-rule="evenodd" d="M306.875 21.0047H434.773V140.781H306.875L306.875 21.0047Z" stroke="#141414" stroke-width="1.31" stroke-linecap="round"/>
<path d="M306.875 21.0047H434.773V32.2253H306.875L306.875 21.0047Z" fill="white" stroke="#141414" stroke-width="1.31" stroke-linecap="round"/>
<path opacity="0.47" d="M44.2011 43.0588H243.474V217.485H44.2011L44.2011 43.0588Z" fill="#F41E84"/>
<path opacity="0.39" d="M415.529 32.2253H434.773V21.0047H392.986C392.986 21.0047 394.969 30.8436 406.234 32.2253H411.873C413.088 32.0885 414.314 32.0885 415.529 32.2253Z" fill="#81D9FC"/>
<path fill-rule="evenodd" clip-rule="evenodd" d="M306.875 21.0047H434.773V32.2253H306.875L306.875 21.0047Z" stroke="#141414"/>
<path d="M38.1575 35.7095H237.43V210.136H38.1575V35.7095Z" fill="white" stroke="#141414"/>
<path d="M258.395 242.982C258.395 242.982 259.181 233.667 261.932 242.618C264.594 251.284 266.559 272.754 265.832 275.828C265.106 278.901 252.375 266.953 252.375 267.096C252.375 267.239 258.395 242.982 258.395 242.982Z" fill="#141414" stroke="#141414"/>
<path d="M80.7307 64.9224H242.313" stroke="#141414"/>
<path d="M45.3622 77.626H242.313" stroke="#141414"/>
<path d="M45.3622 90.3356H242.313" stroke="#141414"/>
<path d="M45.3622 103.039H242.313" stroke="#141414"/>
<path d="M45.3622 115.749H242.313" stroke="#141414"/>
<path d="M45.3622 128.452H242.313" stroke="#141414"/>
<path d="M45.3622 141.156H121.101" stroke="#141414"/>
<path d="M130.824 141.156H143.828" stroke="#141414"/>
<path d="M311.049 28.6459C312.17 28.6459 313.079 27.7367 313.079 26.615C313.079 25.4934 312.17 24.5841 311.049 24.5841C309.928 24.5841 309.019 25.4934 309.019 26.615C309.019 27.7367 309.928 28.6459 311.049 28.6459Z" fill="#5CC9FF" stroke="#141414"/>
<path d="M322.767 28.6459C323.888 28.6459 324.797 27.7367 324.797 26.615C324.797 25.4934 323.888 24.5841 322.767 24.5841C321.646 24.5841 320.737 25.4934 320.737 26.615C320.737 27.7367 321.646 28.6459 322.767 28.6459Z" fill="#5CC9FF" stroke="#141414"/>
<path d="M334.491 28.6459C335.612 28.6459 336.522 27.7367 336.522 26.615C336.522 25.4934 335.612 24.5841 334.491 24.5841C333.37 24.5841 332.461 25.4934 332.461 26.615C332.461 27.7367 333.37 28.6459 334.491 28.6459Z" fill="#5CC9FF" stroke="#141414"/>
<path d="M62.0104 225.287H325.947" stroke="white"/>
<path d="M66.4523 25.5013H198.417" stroke="white"/>
<path d="M37.2465 231.01H325.947" stroke="white"/>
<path opacity="0.53" d="M45.3622 158.44H116.873V197.313H45.3622V158.44Z" fill="#FFD347"/>
<path opacity="0.53" d="M45.3622 47.7579H63.9753V56.3104H45.3622V47.7579Z" fill="#81D9FC"/>
<path fill-rule="evenodd" clip-rule="evenodd" d="M42.6053 154.384H114.117V193.257H42.6053V154.384Z" stroke="#141414" stroke-width="1.31" stroke-linecap="round"/>
<path fill-rule="evenodd" clip-rule="evenodd" d="M122.78 154.384H194.291V193.257H122.78V154.384Z" stroke="#141414" stroke-width="1.31" stroke-linecap="round"/>
<path opacity="0.53" d="M125.769 158.44H197.28V197.313H125.769V158.44Z" fill="#FFD347"/>
<path d="M37.2465 236.734H325.947" stroke="white" stroke-width="1.31" stroke-linecap="round"/>
<path d="M258.294 259.229C257.27 249.414 259.05 241.248 259.372 238.813C239.99 243.577 225.2 239.206 214.304 231.981C221.413 208.319 245.998 170.572 244.033 165.461C241.437 158.702 199.829 139.143 182.406 150.745C182.406 150.745 150.164 189.13 149.384 232.827C148.961 256.376 162.972 273.195 188.504 280.163C207.647 285.386 233.256 285.077 264.123 277.906C260.889 272.159 258.903 265.795 258.294 259.229Z" fill="#C10865"/>
<path opacity="0.56" d="M259.372 238.812C239.99 243.577 225.2 239.206 214.304 231.981C215.539 228.009 216.988 224.106 218.644 220.29C210.719 220.105 204.163 220.153 201.24 220.082C190.427 219.826 220.764 166.373 215.28 153.866C214.302 151.713 212.623 149.955 210.517 148.881C199.972 146.445 189.301 146.159 182.412 150.745C182.412 150.745 182.001 151.227 181.281 152.15C181.614 155.938 194.928 161.68 186.443 170.923C177.601 180.547 155.886 229.188 172.528 248.824C189.17 268.46 240.139 246.877 244.039 261.331C247.939 275.786 264.141 277.924 264.141 277.924C260.903 272.178 258.913 265.814 258.3 259.247C257.27 249.414 259.05 241.248 259.372 238.812Z" fill="#7C034B"/>
<path fill-rule="evenodd" clip-rule="evenodd" d="M258.294 259.229C257.27 249.414 259.05 241.248 259.372 238.813C239.99 243.577 225.2 239.206 214.304 231.981C221.413 208.319 245.998 170.572 244.033 165.461C241.437 158.702 199.829 139.143 182.406 150.745C182.406 150.745 150.164 189.13 149.384 232.827C148.961 256.376 162.972 273.195 188.504 280.163C207.647 285.386 233.256 285.077 264.123 277.906C260.889 272.159 258.903 265.795 258.294 259.229V259.229Z" stroke="#141414" stroke-width="1.31" stroke-linecap="round"/>
<path d="M162.465 44.5895C162.465 44.5895 164.966 41.6712 168.586 46.7455C171.957 51.4684 175.702 51.5101 175.041 53.4636C174.38 55.417 163.073 55.0001 161.465 51.391C159.857 47.7818 162.465 44.5895 162.465 44.5895Z" fill="#141414" stroke="#141414" stroke-width="1.31" stroke-linecap="round"/>
<path d="M182.924 79.0435C176.97 80.6099 172.802 79.1686 171.224 75.7202C169.646 72.2718 170.629 66.9176 174.987 60.5271C175.44 59.9315 175.869 59.4074 176.291 58.9012C168.515 56.9953 165.413 53.2373 163.787 49.372C163.189 47.8639 162.697 46.3156 162.317 44.7384C143.495 62.0696 139.762 76.1967 139.762 76.1967C136.421 86.5954 137.975 97.8697 147.056 105.16C148.699 103.426 161.62 103.545 166.044 99.7219C172.748 93.9329 172.51 83.4746 182.924 79.0435Z" fill="#FFD347"/>
<path opacity="0.52" d="M165.365 58.0733C168.872 64.9999 147.639 101.181 160.119 98.6916C163.724 94.6746 167.618 90.9282 171.772 87.4829C174.324 85.2566 176.468 82.6023 178.107 79.6391C174.719 79.5498 172.326 78.1204 171.23 75.6964C169.676 72.2778 170.635 66.8938 174.993 60.5033C175.446 59.9077 175.875 59.3836 176.297 58.8774C168.521 56.9715 165.419 53.2135 163.793 49.3482C163.195 47.8401 162.703 46.2918 162.323 44.7146C162.21 49.3514 163.256 53.943 165.365 58.0733Z" fill="#F9B121"/>
<path d="M182.924 79.0435C176.97 80.6099 172.802 79.1686 171.224 75.7202C169.646 72.2718 170.629 66.9176 174.987 60.5271C175.44 59.9315 175.869 59.4074 176.291 58.9012C168.515 56.9953 165.413 53.2373 163.787 49.372C163.189 47.8639 162.697 46.3156 162.317 44.7384C143.495 62.0696 139.762 76.1967 139.762 76.1967C136.421 86.5954 137.975 97.8697 147.056 105.16" stroke="#141414" stroke-width="1.31" stroke-linecap="round"/>
<path d="M310.775 26.21C311.913 29.4986 311.696 33.1047 310.172 36.2331C308.649 39.3615 305.944 41.7551 302.653 42.8861L127.002 103.426L118.838 92.4201L118.463 78.6445L294.115 18.1043C297.399 16.9691 300.999 17.1854 304.124 18.7056C307.248 20.2258 309.641 22.9252 310.775 26.21Z" fill="#F73737"/>
<path opacity="0.74" d="M302.653 42.8743C307.58 41.1713 311.029 36.7083 311.435 31.51C311.841 26.3116 309.126 21.3674 304.523 18.9202C306.821 23.3037 309.614 30.3434 306.345 34.1431C301.373 39.9321 285.815 28.3124 286.577 36.2217C287.339 44.1309 217.686 51.0039 192.046 68.4363C166.407 85.8688 149.175 79.8893 126.341 93.0872C124.709 94.1133 122.947 94.9146 121.101 95.4695L126.99 103.409L302.653 42.8743Z" fill="#CC2323"/>
<path fill-rule="evenodd" clip-rule="evenodd" d="M310.775 26.21C311.913 29.4986 311.696 33.1047 310.172 36.2331C308.649 39.3615 305.944 41.7551 302.653 42.8861L127.002 103.426L118.838 92.4201L118.463 78.6445L294.115 18.1043C297.399 16.9691 300.999 17.1854 304.124 18.7056C307.248 20.2258 309.641 22.9252 310.775 26.21Z" stroke="#141414" stroke-width="1.31"/>
<path d="M286.154 34.697C287.292 37.9855 287.075 41.5916 285.551 44.72C284.028 47.8484 281.323 50.2421 278.032 51.3731L126.99 103.414L118.826 92.4082L118.451 78.6326L269.5 26.5793C272.785 25.4466 276.385 25.6655 279.508 27.1879C282.631 28.7103 285.022 31.4114 286.154 34.697Z" fill="#F9B121"/>
<path opacity="0.74" d="M278.032 51.3552C284.284 49.1966 287.946 42.7158 286.571 36.2455C287.166 44.1428 218.805 51.5518 193.196 68.9664C167.586 86.381 145.353 78.311 126.341 93.0872C124.763 94.2106 122.984 95.0195 121.101 95.4695L126.99 103.409L278.032 51.3552Z" fill="#F47119"/>
<path opacity="0.47" d="M257.353 156.468H303.684V217.485H257.353V156.468Z" fill="#F41E84"/>
<path fill-rule="evenodd" clip-rule="evenodd" d="M286.154 34.697C287.292 37.9855 287.075 41.5916 285.551 44.72C284.028 47.8484 281.323 50.2421 278.032 51.3731L126.99 103.414L118.826 92.4082L118.451 78.6326L269.5 26.5793C272.785 25.4466 276.385 25.6655 279.508 27.1879C282.631 28.7103 285.022 31.4114 286.154 34.697V34.697Z" stroke="#141414" stroke-width="1.31"/>
<path d="M127.15 96.4581L286.869 40.4205L127.15 96.4581Z" fill="white"/>
<path d="M127.15 96.4581L286.869 40.4205" stroke="#141414" stroke-width="1.31" stroke-linecap="round"/>
<path d="M176.297 58.8833C184.383 49.1218 187.146 53.2432 187.378 56.0245C187.622 58.9488 190.951 58.4068 189.165 52.2188C191.29 56.6082 192.07 58.514 192.85 56.0245C193.392 54.3033 192.6 52.4868 192.058 51.5339C191.796 51.123 191.636 50.855 191.636 50.855C191.788 51.074 191.929 51.3006 192.058 51.5339C193.077 53.1062 195.577 56.7928 195.923 55.4409C196.328 53.7316 194.541 49.634 194.541 49.634C194.541 49.634 197.566 54.756 198.15 54.0711C198.733 53.3861 196.685 48.3654 196.685 48.3654C196.685 48.3654 202.341 49.1993 202.044 47.1743C201.806 45.5007 186.187 35.8584 163.775 49.366C165.419 53.2194 168.521 57.0072 176.297 58.8833Z" fill="#FC8181" stroke="#141414" stroke-width="1.31"/>
<path d="M252.881 150.745H299.212V211.761H252.881V150.745Z" fill="#81D9FC" stroke="#141414" stroke-width="1.31" stroke-linecap="round"/>
<path opacity="0.34" d="M312.818 124.647H387.383V132.258H312.818V124.647Z" fill="white"/>
<path opacity="0.34" d="M396.761 124.647H426.973V132.258H396.761V124.647Z" fill="white"/>
<path opacity="0.34" d="M252.881 56.3759H299.212V141.781H252.881V56.3759Z" fill="white"/>
<path d="M147.038 105.16C157.261 113.384 177.036 116.535 210.058 107.589C237.013 89.9009 231.035 60.5092 231.035 60.5092C231.035 60.5092 206.069 59.3896 170.67 88.3583C170.641 92.1164 166.413 95.5588 166.413 95.5588L147.038 105.16Z" fill="#FFD347"/>
<path opacity="0.52" d="M147.038 105.159C147.399 104.867 147.823 104.663 148.276 104.564L147.038 105.159C157.261 113.384 177.036 116.535 210.058 107.589C222.562 99.3764 227.993 88.6323 230.202 79.4842C226.516 74.4099 219.913 72.3373 218.162 73.9037C218.162 73.9037 212.398 68.1623 193.196 93.9329C180.197 111.383 159.935 114.885 147.216 105.302" fill="#F9B121"/>
<path d="M121.28 90.3356L285.422 32.9877L121.28 90.3356Z" fill="white"/>
<path d="M121.28 90.3356L285.422 32.9877" stroke="#141414" stroke-width="1.31" stroke-linecap="round"/>
<path d="M217.763 253.118C221.407 228.926 259.366 190.714 259.366 190.714C259.366 169.922 213.732 148.565 213.732 148.565C213.732 148.565 175.767 190.809 168.021 235.68C168.017 235.703 168.017 235.728 168.021 235.751C162.983 261.754 168.884 292.39 185.014 334.789C192.468 334.044 199.74 332.03 206.515 328.834C214.941 324.856 222.353 319.018 228.195 311.759C225.676 305.507 223.538 299.109 221.794 292.599C217.828 277.787 216.227 263.392 217.763 253.118Z" fill="#F41E84"/>
<path opacity="0.49" d="M217.763 253.118C221.407 228.926 259.366 190.714 259.366 190.714C259.366 190.392 259.354 190.071 259.33 189.749C259.33 189.636 259.33 189.523 259.3 189.41C259.3 189.201 259.264 188.993 259.235 188.784C259.205 188.576 259.193 188.528 259.175 188.397C259.157 188.266 259.116 188.01 259.08 187.801C259.044 187.593 259.014 187.522 258.985 187.385C258.955 187.248 258.907 187.021 258.86 186.837C258.812 186.652 258.782 186.551 258.741 186.408C258.699 186.265 258.639 186.05 258.586 185.878C258.532 185.705 258.484 185.58 258.437 185.431C258.389 185.282 258.324 185.086 258.258 184.913L258.08 184.46C258.014 184.294 257.949 184.127 257.877 183.96C257.806 183.793 257.74 183.65 257.669 183.495L257.442 183.001C257.365 182.846 257.288 182.691 257.204 182.537C257.121 182.382 257.044 182.209 256.96 182.048L256.698 181.572C256.609 181.417 256.526 181.262 256.43 181.101C256.335 180.94 256.24 180.78 256.138 180.619L255.859 180.16C255.757 179.999 255.644 179.833 255.537 179.672L255.239 179.219C255.132 179.058 255.013 178.892 254.9 178.731C254.787 178.57 254.692 178.433 254.584 178.29L254.215 177.79L253.888 177.361L253.495 176.855L253.155 176.438L252.733 175.932L252.393 175.527C252.244 175.354 252.096 175.181 251.941 175.014L251.595 174.621L251.113 174.097L250.768 173.722L250.256 173.192L249.91 172.835L249.374 172.293L249.035 171.959L248.44 171.405L248.1 171.09L247.505 170.53L247.177 170.226L246.552 169.66L246.236 169.38L245.57 168.785L245.278 168.541L244.575 167.945L244.301 167.719L243.569 167.123L243.313 166.921L242.545 166.325L242.319 166.146L241.509 165.509C241.443 165.463 241.379 165.413 241.318 165.36L240.461 164.711L240.312 164.598L239.407 163.925L239.306 163.847C238.99 163.615 238.675 163.383 238.353 163.157L238.293 163.115L237.293 162.394C226.694 156.296 216.179 152.115 210.022 152.925C209.766 153.228 209.504 153.556 209.231 153.895L209.153 153.991L208.266 155.092C214.357 158.958 236.799 174.193 240.502 191.107C244.79 210.713 213.059 214.811 203.961 239.783C197.346 257.93 202.77 294.737 219.347 320.674C221.163 319.186 222.892 317.595 224.527 315.91C224.878 315.546 225.206 315.195 225.527 314.85L225.587 314.778C225.891 314.456 226.182 314.135 226.444 313.825L226.546 313.712C226.802 313.42 227.034 313.116 227.266 312.872C227.308 312.813 227.361 312.759 227.403 312.705C227.665 312.39 227.915 312.11 228.147 311.788C225.628 305.537 223.491 299.139 221.746 292.629C217.829 277.787 216.227 263.392 217.763 253.118Z" fill="#C10865"/>
<path fill-rule="evenodd" clip-rule="evenodd" d="M217.763 253.118C221.407 228.926 259.366 190.714 259.366 190.714C259.366 169.922 213.732 148.565 213.732 148.565C213.732 148.565 175.767 190.809 168.021 235.68C168.017 235.703 168.017 235.728 168.021 235.751C162.983 261.754 168.884 292.39 185.014 334.789C192.468 334.044 199.74 332.03 206.515 328.834C214.941 324.856 222.353 319.018 228.195 311.759C225.676 305.507 223.538 299.109 221.794 292.599C217.828 277.787 216.227 263.392 217.763 253.118V253.118Z" stroke="#141414" stroke-width="1.31" stroke-linecap="round"/>
<path d="M147.038 105.16C157.261 113.384 177.036 116.535 210.058 107.589C237.013 89.9009 231.035 60.5092 231.035 60.5092C231.035 60.5092 206.069 59.3896 170.67 88.3583C170.67 88.3583 161.382 95.9043 160.096 98.6916" stroke="#141414" stroke-width="1.31" stroke-linecap="round"/>
<path d="M211.273 75.7977C211.273 75.7977 211.398 103.819 187.218 139.453C198.138 140.882 243.122 157.79 265.219 184.716C273.668 179.255 290.441 127.494 273.555 83.9273C265.624 65.7205 240.776 58.7821 231.041 60.5152" fill="#FFD347"/>
<path opacity="0.52" d="M279.991 110.698C279.439 110.317 278.754 110.181 278.098 110.323C282.522 122.675 274.978 173.657 264.838 164.395C247.779 143.64 198.959 139.28 187.819 138.542C187.616 138.845 187.426 139.137 187.223 139.453C198.144 140.882 243.128 157.79 265.225 184.716C271.983 180.345 284.052 146.397 279.991 110.698Z" fill="#F9B121"/>
<path d="M211.273 75.7976C211.273 75.7976 211.398 103.819 187.218 139.453C198.138 140.882 243.122 157.79 265.219 184.716C273.668 179.255 290.441 127.494 273.555 83.9273C265.624 65.7205 240.776 58.7821 231.041 60.5152" stroke="#141414" stroke-width="1.31" stroke-linecap="round"/>
<path d="M184.86 151.704C184.86 151.704 175.243 153.27 175.886 145.2C176.553 136.743 192.029 130.632 235.971 153.264C279.914 175.896 273.811 192.149 261.456 191.238C249.101 190.327 232.464 150.119 184.86 151.704Z" fill="#FFD347"/>
<path opacity="0.52" d="M269.059 179.279C269.059 179.279 262.51 190.041 249.106 174.044C235.703 158.047 197.566 141.126 180.495 151.543C181.932 151.832 183.407 151.879 184.86 151.68C232.464 150.119 249.106 190.303 261.456 191.214C268.154 191.708 273.013 187.152 269.059 179.279Z" fill="#F9B121"/>
<path fill-rule="evenodd" clip-rule="evenodd" d="M184.86 151.704C184.86 151.704 175.243 153.27 175.886 145.2C176.553 136.743 192.029 130.632 235.971 153.264C279.914 175.896 273.811 192.149 261.456 191.238C249.1 190.327 232.464 150.119 184.86 151.704Z" stroke="#141414" stroke-width="1.31"/>
<path d="M206.753 138.643C206.753 138.643 208.051 149.274 213.613 148.881C219.174 148.488 224.211 136.785 216.62 133.277C209.028 129.769 206.753 138.643 206.753 138.643Z" fill="#141414" stroke="#141414" stroke-width="1.31" stroke-linecap="round"/>
<path d="M211.898 124.391C198.495 127.66 193.017 132.729 192.207 133.175C191.016 133.86 192.939 135.558 196.494 135.034C193.184 138.154 190.647 144.247 191.522 145.42C192.398 146.594 195.958 141.519 195.958 141.519C195.958 141.519 191.963 148.881 193.13 149.857C194.297 150.834 198.4 142.836 198.4 142.836C198.4 142.836 195.083 150.441 197.328 150.733C199.573 151.025 200.74 143.663 200.74 143.663C200.74 143.663 200.74 150.745 202.496 150.745C206.295 150.745 199.519 139.649 215.625 143.55L216.221 143.657C217.828 136.814 214.363 128.893 211.898 124.391Z" fill="#FC8181" stroke="#141414" stroke-width="1.31" stroke-linecap="round"/>
<path d="M252.357 96.9108C258.985 102.759 265.1 120.966 234.673 121.615C230.856 121.699 227.343 121.931 224.122 122.276C220.006 122.704 215.922 123.404 211.898 124.373C214.363 128.875 217.852 136.82 216.197 143.64C215.754 145.558 214.869 147.347 213.613 148.863C218.972 150.941 268.988 148.041 279.706 142.949C296.27 137.463 306.053 125.939 299.95 105.511C279.176 48.0379 237.114 58.0733 237.114 58.0733" fill="#FFD347"/>
<path opacity="0.52" d="M299.98 105.523C286.041 66.9951 262.545 58.794 248.57 57.6028C243.676 65.0594 239.705 83.0756 242.313 81.7892C242.313 81.7892 250.928 81.9857 252.357 69.7645C253.786 57.5433 279.402 77.1734 291.102 96.5654C302.802 115.957 282.26 127.648 268.476 127.91C254.692 128.173 268.083 138.994 247.409 141.186C226.736 143.378 218.084 129.596 214.024 128.816C215.881 133.205 217.382 138.744 216.197 143.705C215.754 145.624 214.869 147.412 213.613 148.928C218.972 151.007 268.988 148.106 279.706 143.014C296.288 137.475 306.071 125.951 299.98 105.523Z" fill="#F9B121"/>
<path d="M252.357 96.9108C258.985 102.759 265.1 120.966 234.673 121.615C230.856 121.699 227.343 121.931 224.122 122.276C220.006 122.704 215.922 123.404 211.898 124.373C214.363 128.875 217.852 136.82 216.197 143.64C215.754 145.558 214.869 147.347 213.613 148.863C218.972 150.941 268.988 148.041 279.706 142.949C296.27 137.463 306.053 125.939 299.95 105.511C279.176 48.0379 237.114 58.0733 237.114 58.0733" stroke="#141414" stroke-width="1.31" stroke-linecap="round"/>
<path d="M124.912 81.6343L279.694 27.2821L124.912 81.6343Z" fill="white"/>
<path d="M124.912 81.6343L279.694 27.2821" stroke="#141414" stroke-width="1.31" stroke-linecap="round"/>
<path d="M232.428 82.0691C232.428 82.0691 215.363 69.7764 232.869 52.7549C244.974 40.9863 263.778 52.8561 259.663 59.9018C254.9 58.8774 249.184 60.1936 249.089 66.0481C248.993 71.9026 247.773 81.0209 241.092 82.0929" fill="#FFD347"/>
<path d="M133.361 76.691C133.361 76.691 130.693 77.0364 130.824 80.2645C130.955 83.4925 140.274 77.0543 141.441 80.0203C142.608 82.9862 151.974 80.2764 150.027 74.404C148.08 68.5316 133.361 76.691 133.361 76.691Z" fill="white"/>
<path d="M156.892 71.7596C156.892 71.7596 152.2 72.2123 152.724 75.744C153.248 79.2758 164.561 71.7835 156.892 71.7596Z" fill="white"/>
<path opacity="0.52" d="M229.731 57.7636C229.731 57.7636 251.452 45.8521 260.098 58.8714C262.039 51.8019 244.42 41.5342 232.875 52.7548C231.052 54.4947 229.435 56.4392 228.058 58.5498C228.63 58.3198 229.189 58.0574 229.731 57.7636Z" fill="#F9B121"/>
<path d="M232.428 82.0691C232.428 82.0691 215.363 69.7764 232.869 52.7549C244.974 40.9863 263.778 52.8561 259.663 59.9018C254.9 58.8774 249.184 60.1936 249.089 66.0481C248.993 71.9026 247.773 81.0209 241.092 82.0929" stroke="#141414" stroke-width="1.31" stroke-linecap="round"/>
<path d="M223.235 38.9256C223.235 38.9256 217.513 64.4103 231.035 60.5092C231.422 71.6941 231.422 77.5486 239.484 75.3391C247.546 73.1295 239.222 43.8629 233.53 37.2223C227.838 30.5816 223.122 36.3229 223.235 38.9256Z" fill="#FC8181" stroke="#141414" stroke-width="1.31"/>
<path d="M235.257 43.3448C235.257 43.3448 233.846 43.4401 234.286 47.883C234.727 52.326 232.042 44.1905 232.774 40.7361C233.506 37.2818 218.68 45.9534 213.077 40.7361C207.474 35.5189 210.195 25.1797 216.977 25.8468C223.759 26.5138 226.534 31.1176 228.481 27.4548C230.428 23.792 241.795 25.2154 242.283 32.3862C242.771 39.5569 237.99 41.5997 240.913 43.1601C243.837 44.7205 240.389 49.8604 238.133 48.0736C235.876 46.2869 236.626 43.2495 235.257 43.3448Z" fill="#234BDB" stroke="#141414" stroke-width="1.31"/>
<path d="M246.606 29.1046C248.977 29.1046 250.899 27.182 250.899 24.8105C250.899 22.4389 248.977 20.5164 246.606 20.5164C244.235 20.5164 242.313 22.4389 242.313 24.8105C242.313 27.182 244.235 29.1046 246.606 29.1046Z" fill="#234BDB" stroke="#141414" stroke-width="1.31"/>
<path d="M192.046 51.5339C191.917 51.3007 191.776 51.0741 191.624 50.855C191.624 50.855 191.784 51.123 192.046 51.5339Z" fill="white" stroke="#141414" stroke-width="1.31"/>
<path d="M242.771 338.607C237.132 330.99 232.196 321.657 228.195 311.771C222.353 319.03 214.941 324.868 206.515 328.846C217.322 338.375 227.355 344.658 232.232 349.024C236.969 347.06 240.751 343.322 242.771 338.607Z" fill="#81D9FC"/>
<path fill-rule="evenodd" clip-rule="evenodd" d="M242.771 338.607C237.132 330.99 232.196 321.657 228.195 311.771C222.353 319.03 214.941 324.868 206.515 328.846C217.322 338.375 227.355 344.658 232.232 349.024C236.969 347.06 240.752 343.322 242.771 338.607V338.607Z" stroke="#141414" stroke-width="1.31" stroke-linecap="round"/>
<path d="M233.893 350.656C242.735 360.542 232.333 383.948 233.113 386.033C233.893 388.117 250.274 356.117 248.976 345.974C246.744 343.661 244.671 341.2 242.771 338.607C240.752 343.322 236.969 347.06 232.232 349.024C232.814 349.538 233.369 350.083 233.893 350.656Z" fill="#141414" stroke="#141414" stroke-width="1.31" stroke-linecap="round"/>
<path d="M276.044 259.503C271.602 259.55 265.266 259.533 258.294 259.223C258.907 265.79 260.897 272.154 264.135 277.9C268.512 276.882 272.995 275.738 277.58 274.44C279.336 268.704 277.342 262.57 276.044 259.503Z" fill="#81D9FC" stroke="#141414" stroke-width="1.31" stroke-linecap="round"/>
<path d="M299.426 295.517C299.909 290.508 284.017 259.229 284.017 259.229C284.017 259.229 280.051 259.461 276.044 259.509C277.342 262.57 279.336 268.704 277.58 274.446C290.322 283.808 299.027 299.609 299.426 295.517Z" fill="#141414" stroke="#141414" stroke-width="1.31" stroke-linecap="round"/>
<path d="M123.751 92.4082C116.975 91.4315 126.382 84.898 124.727 80.8481C123.072 76.7982 118.523 78.8351 118.118 78.7517L97.4087 95.2849C99.1652 96.7142 101.94 99.6326 101.011 103.295L126.662 103.551C134.153 99.6266 130.527 93.379 123.751 92.4082Z" fill="#B5C7F4"/>
<path opacity="0.51" d="M99.7488 97.7386C100.989 99.3043 101.453 101.347 101.011 103.295L126.662 103.551C133.123 100.169 131.313 95.0585 126.341 93.0872C117.201 98.757 110.776 94.8262 99.7488 97.7386H99.7488Z" fill="#1CA4E8"/>
<path fill-rule="evenodd" clip-rule="evenodd" d="M123.751 92.4082C116.975 91.4315 126.382 84.898 124.727 80.8481C123.072 76.7982 118.523 78.8351 118.118 78.7517L97.4087 95.2849C99.1652 96.7142 101.94 99.6326 101.011 103.295L126.662 103.551C134.153 99.6266 130.527 93.379 123.751 92.4082V92.4082Z" stroke="#141414"/>
<path d="M97.4087 95.2849L87.5365 103.164L101.011 103.295C101.94 99.6326 99.1652 96.7142 97.4087 95.2849Z" fill="#141414" stroke="#141414"/>
<path d="M285.154 286.143C285.154 286.143 280.563 289.859 282.593 292.176C284.624 294.493 285.154 286.143 285.154 286.143Z" fill="white" stroke="white"/>
<path d="M282.975 283.993C282.975 283.993 277.211 282.73 276.669 285.78C276.127 288.829 282.975 283.993 282.975 283.993Z" fill="white" stroke="white"/>
<path d="M231.875 361.894C231.875 361.894 225.998 362.49 226.427 365.545C226.855 368.6 231.875 361.894 231.875 361.894Z" fill="white" stroke="white"/>
<path d="M231.226 358.904C231.226 358.904 227.093 354.688 224.98 356.933C222.866 359.178 231.226 358.904 231.226 358.904Z" fill="white" stroke="white"/>
<path d="M231.035 60.5092C231.035 60.5092 235.358 59.4074 236.138 57.978C236.918 56.5487 237.043 62.7903 231.166 64.1839C231.113 62.6235 231.035 60.5092 231.035 60.5092H231.035Z" fill="#141414" stroke="#141414"/>
<path d="M34.8052 9.8615C36.1535 9.8615 37.2465 8.76824 37.2465 7.41964C37.2465 6.07104 36.1535 4.97778 34.8052 4.97778C33.4569 4.97778 32.364 6.07104 32.364 7.41964C32.364 8.76824 33.4569 9.8615 34.8052 9.8615Z" fill="#5CC9FF" stroke="#141414" stroke-linecap="round"/>
<path d="M48.905 9.8615C50.2533 9.8615 51.3463 8.76824 51.3463 7.41964C51.3463 6.07104 50.2533 4.97778 48.905 4.97778C47.5567 4.97778 46.4637 6.07104 46.4637 7.41964C46.4637 8.76824 47.5567 9.8615 48.905 9.8615Z" fill="#5CC9FF" stroke="#141414" stroke-linecap="round"/>
<path d="M63.0048 9.8615C64.3531 9.8615 65.4461 8.76824 65.4461 7.41964C65.4461 6.07104 64.3531 4.97778 63.0048 4.97778C61.6565 4.97778 60.5635 6.07104 60.5635 7.41964C60.5635 8.76824 61.6565 9.8615 63.0048 9.8615Z" fill="#5CC9FF" stroke="#141414" stroke-linecap="round"/>
<path d="M381.334 106.964C397.812 106.964 411.171 93.6023 411.171 77.1198C411.171 60.6372 397.812 47.2755 381.334 47.2755C364.855 47.2755 351.497 60.6372 351.497 77.1198C351.497 93.6023 364.855 106.964 381.334 106.964Z" fill="#FFD347" stroke="#141414"/>
<path d="M372.611 79.389C372.611 79.389 368.121 77.4891 368.121 73.0997C368.121 68.7103 373.391 65.1011 375.683 64.9046C377.975 64.7081 372.611 79.389 372.611 79.389Z" fill="#141414" stroke="#141414" stroke-linecap="round"/>
<path d="M381.334 106.964C386.1 106.968 390.797 105.824 395.029 103.629C393.808 90.5262 390.36 65.6073 383.662 65.6788C374.986 65.7801 374.01 70.0682 374.01 70.0682C374.01 70.0682 362.881 94.457 377.338 95.124C376.689 98.9476 376.082 102.95 375.552 106.392C377.456 106.771 379.392 106.963 381.334 106.964Z" fill="#FC8181" stroke="#141414" stroke-linecap="round"/>
<path d="M384.751 60.7534C384.751 60.7534 375.582 60.9976 371.878 65.6788C368.175 70.36 374.314 80.8005 384.847 80.8958C386.698 81.8725 385.043 88.6978 386.038 88.6978C387.032 88.6978 387.598 79.6272 389.158 79.919C390.718 80.2109 392.135 82.8612 392.135 82.8612C392.135 82.8612 396.743 60.7534 384.751 60.7534V60.7534Z" fill="#234BDB" stroke="#141414" stroke-linecap="round"/>
<path d="M396.761 64.8986C399.112 64.8986 401.019 62.9921 401.019 60.6403C401.019 58.2884 399.112 56.3819 396.761 56.3819C394.41 56.3819 392.504 58.2884 392.504 60.6403C392.504 62.9921 394.41 64.8986 396.761 64.8986Z" fill="#234BDB" stroke="#141414" stroke-linecap="round"/>
<path d="M377.338 95.124C377.338 95.124 382.959 95.6601 386.27 93.516C386.27 95.9519 381.745 99.6921 376.529 100.109C376.975 97.28 377.338 95.124 377.338 95.124Z" fill="#141414" stroke="#141414" stroke-linecap="round"/>
<path d="M381.036 140.674V191.25H279.336" stroke="#141414"/>
<path d="M21.3128 126.058H7.65955V268.567H21.3128" stroke="#141414" stroke-linecap="round"/>
<path d="M279.628 196.676C282.7 196.676 285.19 194.185 285.19 191.113C285.19 188.041 282.7 185.55 279.628 185.55C276.557 185.55 274.067 188.041 274.067 191.113C274.067 194.185 276.557 196.676 279.628 196.676Z" fill="white" stroke="#141414"/>
<path d="M323.869 51.2778H342.202" stroke="white"/>
<path d="M413.517 62.5937H425.413" stroke="white"/>
<path d="M312.818 62.5937H342.202" stroke="white"/>
<path d="M312.818 73.9097H342.202" stroke="white"/>
<path d="M312.818 85.2197H342.202" stroke="white"/>
<path d="M312.818 96.5356H342.202" stroke="white"/>
<path d="M312.818 107.851H342.202" stroke="white"/>
<path fill-rule="evenodd" clip-rule="evenodd" d="M419.465 54.8513C422.75 54.8513 425.413 52.1874 425.413 48.9015C425.413 45.6155 422.75 42.9517 419.465 42.9517C416.18 42.9517 413.517 45.6155 413.517 48.9015C413.517 52.1874 416.18 54.8513 419.465 54.8513Z" stroke="white"/>
<path d="M419.465 26.615H427.914H419.465Z" fill="#5CC9FF"/>
<path d="M419.465 26.615H427.914" stroke="#141414" stroke-linecap="round"/>
<path d="M324.797 6.66925H333.247H324.797Z" fill="#5CC9FF"/>
<path d="M324.797 6.66925H333.247" stroke="#141414" stroke-linecap="round"/>
<path fill-rule="evenodd" clip-rule="evenodd" d="M37.2465 23.0594H57.5864V29.5929H37.2465V23.0594Z" stroke="white"/>
<path d="M34.3646 34.1431H40.6405V40.4205H34.3646V34.1431Z" fill="#141414" stroke="#141414" stroke-linecap="round"/>
<path d="M34.0252 208.623H40.301V214.9H34.0252V208.623Z" fill="#141414" stroke="#141414" stroke-linecap="round"/>
<path d="M36.3653 278.424C41.5906 278.424 45.8266 274.187 45.8266 268.961C45.8266 263.734 41.5906 259.497 36.3653 259.497C31.1399 259.497 26.9039 263.734 26.9039 268.961C26.9039 274.187 31.1399 278.424 36.3653 278.424Z" fill="white" stroke="#141414" stroke-linecap="round"/>
<path d="M51.1498 263.195H77.2832" stroke="#141414" stroke-linecap="round"/>
<path d="M51.1498 268.567H101.166" stroke="#141414" stroke-linecap="round"/>
<path d="M51.1498 273.94H101.166" stroke="#141414" stroke-linecap="round"/>
<path d="M214.97 39.6403C214.97 39.6403 211.255 37.2997 211.898 33.494C212.541 29.6882 213.905 38.1752 215.471 36.5671C217.037 34.9591 217.894 41.2007 214.97 39.6403Z" fill="white"/>
<path d="M165.365 97.8697C165.365 97.8697 172.874 87.9176 177.554 88.2095C182.234 88.5013 170.141 94.4571 173.165 96.4582C176.19 98.4593 160.387 105.404 165.365 97.8697Z" fill="white"/>
<path d="M179.59 86.7443C179.59 86.7443 180.942 83.0458 182.406 83.9213C183.871 84.7968 180.09 88.8825 179.59 86.7443Z" fill="white"/>
<path d="M155.1 55.9293C155.1 55.9293 159.595 48.3655 160.53 49.8783C161.465 51.391 158.548 54.5059 160.53 54.9704C162.513 55.435 153.349 60.9024 155.1 55.9293Z" fill="white"/>
<path d="M218.68 126.154C218.68 126.154 228.04 122.056 229.118 126.154C230.196 130.251 230.38 124.962 232.428 127.619C234.477 130.275 210.1 131.716 218.68 126.154Z" fill="white"/>
<path d="M234.012 126.737C234.012 126.737 232.821 123.718 235.942 123.914C239.062 124.111 238.913 127.327 234.012 126.737Z" fill="white"/>
<path d="M242.313 125.355C242.313 125.355 257.49 123.813 261.491 112.497C265.493 101.181 256.847 94.9454 256.847 94.9454" stroke="white" stroke-width="1.31" stroke-linecap="round"/>
<path d="M185.61 83.0458C185.61 83.0458 194.875 75.3033 204.431 71.7299" stroke="white" stroke-width="1.31" stroke-linecap="round"/>
<path d="M166.508 50.575C166.508 50.575 178.506 43.3447 187.944 44.7086" stroke="white" stroke-width="1.31" stroke-linecap="round"/>
<path d="M226.188 31.1295C226.88 31.1105 227.542 30.8418 228.052 30.3731" stroke="white" stroke-width="1.31" stroke-linecap="round"/>
<path d="M213 30.3731C213 30.3731 214.077 26.079 218.46 28.229C219.996 28.9735 221.371 29.6882 222.628 30.2183" stroke="white" stroke-width="1.31" stroke-linecap="round"/>
<path d="M208.832 105.159C206.646 112.14 203.294 119.775 198.185 125.957" stroke="white" stroke-width="1.31" stroke-linecap="round"/>
<path d="M211.118 96.4581C210.82 97.8696 210.469 99.3764 210.058 100.943" stroke="white" stroke-width="1.31" stroke-linecap="round"/>
<path d="M178.619 148.333C177.732 146.958 177.542 145.246 178.107 143.711C179.09 141.174 182.502 140.102 182.115 142.055C181.728 144.009 180.162 146.868 181.823 147.142C183.484 147.416 181.376 150.513 178.619 148.333Z" fill="white"/>
<path d="M183.871 143.026C183.871 143.026 183.573 140.531 186.211 141.049C188.849 141.567 184.55 144.688 183.871 143.026Z" fill="white"/>
<path d="M172.51 265.083C172.51 265.083 167.312 250.79 172.51 244.012C177.708 237.234 178.786 276.006 172.51 265.083Z" fill="white"/>
<path d="M173.523 238.729C173.523 238.729 171.659 234.387 173.523 230.987C175.386 227.586 180.007 235.596 173.523 238.729Z" fill="white"/>
<path d="M176.166 288.906C177.422 295.509 179.022 302.041 180.959 308.477" stroke="white" stroke-width="1.31" stroke-linecap="round"/>
<path d="M174.785 280.479C174.936 281.555 175.097 282.639 175.267 283.731" stroke="white" stroke-width="1.31" stroke-linecap="round"/>
<path d="M173.862 272.385C173.951 273.368 174.047 274.356 174.154 275.363" stroke="white" stroke-width="1.31" stroke-linecap="round"/>
<path d="M178.167 220.731C177.77 222.232 177.373 223.764 176.976 225.329" stroke="white" stroke-width="1.31" stroke-linecap="round"/>
<path d="M180.977 211.696C180.549 212.887 180.132 214.168 179.727 215.436" stroke="white" stroke-width="1.31" stroke-linecap="round"/>
<path d="M202.389 173.335C197.477 179.166 189.105 190.607 182.591 207.336" stroke="white" stroke-width="1.31" stroke-linecap="round"/>
<path d="M206.509 168.844C206.509 168.844 205.914 169.38 204.943 170.446" stroke="white" stroke-width="1.31" stroke-linecap="round"/>
<path d="M152.956 239.593C152.956 239.593 150.908 228.473 153.933 221.058C156.958 213.643 152.956 228.378 156.469 227.985C159.983 227.592 154.421 247.198 152.956 239.593Z" fill="white"/>
<path d="M155.785 215.43C155.785 215.43 156.023 211.106 157.613 209.058C159.202 207.009 156.66 218.694 155.785 215.43Z" fill="white"/>
<path d="M162.174 194.317C164.859 187.897 169.152 178.427 172.695 174.24" stroke="white" stroke-width="1.31" stroke-linecap="round"/>
<path d="M159.589 200.773C159.589 200.773 159.959 199.796 160.59 198.2" stroke="white" stroke-width="1.31" stroke-linecap="round"/>
<path d="M372.188 51.2778C372.188 51.2778 357.54 58.794 357.933 68.4363C358.326 78.0787 365.93 55.5362 374.605 54.8513C383.281 54.1664 377.838 47.615 372.188 51.2778Z" fill="white"/>
<path d="M357.153 73.1652C355.21 73.8468 353.997 75.7821 354.23 77.8285C354.521 81.4794 362.03 74.3146 357.153 73.1652V73.1652Z" fill="white"/>
<path d="M179.066 65.8337L217.9 52.7072" stroke="white" stroke-width="1.31" stroke-linecap="round"/>
<path d="M171.081 68.5316L174.469 67.3881" stroke="white" stroke-width="1.31" stroke-linecap="round"/>
<path d="M252.792 40.4086L272.12 33.8751" stroke="white" stroke-width="1.31" stroke-linecap="round"/>
<path d="M244.813 43.1065L248.195 41.963" stroke="white" stroke-width="1.31" stroke-linecap="round"/>
<path d="M161.525 71.7596L165.663 70.36" stroke="white" stroke-width="1.31" stroke-linecap="round"/>
<path d="M112.062 88.2035C112.062 88.2035 102.535 91.64 103.875 94.195C105.215 96.75 116.421 89.353 112.062 88.2035Z" fill="white"/>
<path d="M114.801 86.7027C114.801 86.7027 116.558 82.7242 117.886 84.6598C119.213 86.5955 116.492 87.9772 114.801 86.7027Z" fill="white"/>
<path d="M284.308 27.2821C284.308 27.2821 291.817 23.256 294.258 25.4954C296.699 27.7348 287.333 27.8241 289.28 30.3612C291.227 32.8984 281.17 28.6877 284.308 27.2821Z" fill="white"/>
<path d="M296.497 23.7384C296.497 23.7384 298.938 21.7909 300.79 22.6664C302.642 23.5419 294.573 26.6627 296.497 23.7384Z" fill="white"/>
<path d="M228.052 64.1839C228.052 64.1839 225.337 72.3433 233.774 79.8892" stroke="white"/>
<path d="M225.575 46.9837C225.575 47.3768 225.51 50.7596 224.795 52.3439C224.081 53.9281 226.516 53.0288 227.558 52.7012" stroke="#141414"/>
<path d="M280.605 280.169C280.605 280.169 285.321 279.574 285.154 274.607" stroke="white"/>
<path d="M283.618 282.51C283.618 282.51 288.333 281.914 288.167 276.953" stroke="white"/>
<path d="M286.63 284.856C286.63 284.856 291.34 284.261 291.18 279.294" stroke="white"/>
<path d="M234.191 358.291C234.191 358.291 237.103 362.049 241.295 359.369" stroke="white"/>
<path d="M233.715 362.079C233.715 362.079 236.626 365.831 240.818 363.151" stroke="white"/>
<path d="M233.244 365.867C233.244 365.867 236.156 369.619 240.348 366.939" stroke="white"/>
<path d="M226.849 55.554C226.648 55.6056 226.483 55.7505 226.407 55.9437C226.33 56.137 226.351 56.3552 226.462 56.5308C227.132 57.6082 228.424 58.1253 229.652 57.8074C230.88 57.4894 231.758 56.4102 231.821 55.1431C231.831 54.937 231.743 54.7383 231.583 54.6078C231.423 54.4773 231.211 54.4306 231.011 54.482L226.849 55.554Z" fill="white" stroke="#141414"/>
<path d="M229.43 46.6417C230.823 46.4622 231.897 45.891 231.829 45.3657C231.762 44.8405 230.578 44.5602 229.185 44.7396C227.793 44.9191 226.719 45.4903 226.786 46.0155C226.854 46.5408 228.038 46.8211 229.43 46.6417Z" fill="white" stroke="#141414"/>
<path d="M228.296 44.9052C227.367 45.1612 226.736 45.5901 226.79 45.9951C226.843 46.4 227.558 46.6561 228.522 46.674C229.029 46.4656 229.362 46.0784 229.308 45.6734C229.255 45.2685 228.838 44.9707 228.296 44.9052V44.9052Z" fill="#141414"/>
<path d="M221.21 47.9498C222.603 47.7703 223.677 47.1991 223.609 46.6738C223.541 46.1486 222.358 45.8683 220.965 46.0477C219.572 46.2272 218.498 46.7984 218.566 47.3236C218.633 47.8489 219.817 48.1292 221.21 47.9498Z" fill="white" stroke="#141414" stroke-width="1.31"/>
<path d="M220.073 46.2214C219.144 46.4775 218.513 46.9063 218.567 47.3113C218.62 47.7163 219.335 47.9724 220.3 47.9843C220.806 47.7818 221.139 47.3887 221.086 46.9837C220.956 46.5324 220.543 46.2216 220.073 46.2214Z" fill="#141414"/>
</svg>
