<svg width="492" height="428" viewBox="0 0 492 428" fill="none" xmlns="http://www.w3.org/2000/svg">
<path d="M335.849 337.328C318.793 338.822 302.243 342.205 286.168 352.902C272.271 362.156 263.005 374.95 251.813 386.642C240.242 398.739 223.388 407.284 208.111 413.769C175.467 427.602 138.44 431.941 103.889 423.27C43.3009 408.069 -8.71802 349.799 1.22595 285.258C7.89536 241.973 44.688 238.034 75.6725 218.159C90.8735 208.405 96.4155 194.61 92.8433 176.774C87.3646 149.381 81.9556 120.942 83.5454 92.8965C84.7361 71.9382 90.7088 50.6696 104.073 34.4806C129.459 3.68601 186.538 -9.74782 222.805 7.79026C250.534 21.2178 257.875 50.5366 271.226 75.5611C284.527 100.453 304.212 116.148 332.746 119.809C376.613 125.433 426.529 138.683 457.799 172.157C489.157 205.725 486.174 258.061 457.07 292.295C438.779 313.829 408.611 330.798 380.432 334.268C365.206 336.156 350.341 336.061 335.849 337.328Z" fill="#2293FC" fill-opacity="0.5"/>
<path d="M320.99 368.471C376.898 379.434 353.754 385.876 353.754 385.876H291.994C291.994 385.876 293.717 377.946 297.694 334.921C309.526 334.667 329.477 333.819 345.381 330.981C338.626 344.32 330.448 356.89 320.99 368.471Z" fill="#F7BE08"/>
<path opacity="0.62" d="M297.676 334.921C309.419 334.674 329.161 333.825 345.001 331.038C340.65 334.528 329.167 341.565 308.994 339.836C299.297 343.186 311.027 368.8 303.49 373.829C296.092 378.757 334.525 388.637 358.131 380.885C360.031 384.121 353.755 385.876 353.755 385.876H291.994C291.994 385.876 293.698 377.946 297.676 334.921Z" fill="#F97F06"/>
<path fill-rule="evenodd" clip-rule="evenodd" d="M320.99 368.471C376.898 379.434 353.754 385.876 353.754 385.876H291.994C291.994 385.876 293.717 377.946 297.694 334.921C309.526 334.667 329.477 333.819 345.381 330.981C338.626 344.32 330.448 356.89 320.99 368.471Z" stroke="#232323" stroke-width="1.51" stroke-linecap="round"/>
<path fill-rule="evenodd" clip-rule="evenodd" d="M308.994 68.1L428.309 122.399L469.136 96.8488L464.829 58.3587L431.317 35.76L316.873 21.9841L308.994 68.1Z" stroke="#232323" stroke-width="1.51" stroke-linecap="round"/>
<path d="M312.407 71.0832C298.737 71.0832 287.655 60.0013 287.655 46.3311C287.655 32.6608 298.737 21.5789 312.407 21.5789C326.077 21.5789 337.159 32.6608 337.159 46.3311C337.159 60.0013 326.077 71.0832 312.407 71.0832Z" fill="#5DA9E8"/>
<path d="M312.407 21.5789C318.543 21.5736 324.46 23.8517 329.008 27.9696C322.674 26.0695 310.678 23.574 301.836 28.0773C289.283 34.468 305.485 40.2 298.34 49.6499C291.196 59.0999 298.765 71.1276 326.481 66.694C317.719 72.7548 306.062 72.5292 297.541 66.1337C289.02 59.7383 285.548 48.6081 288.92 38.5021C292.293 28.3962 301.754 21.5819 312.407 21.5852V21.5789Z" fill="#3E8FC6"/>
<path fill-rule="evenodd" clip-rule="evenodd" d="M312.407 71.0832C298.737 71.0832 287.655 60.0013 287.655 46.3311C287.655 32.6608 298.737 21.5789 312.407 21.5789C326.077 21.5789 337.159 32.6608 337.159 46.3311C337.159 60.0013 326.077 71.0832 312.407 71.0832Z" stroke="#231F20"/>
<path d="M312.407 56.902C306.569 56.902 301.836 52.1693 301.836 46.3311C301.836 40.4929 306.569 35.7601 312.407 35.7601C318.245 35.7601 322.978 40.4929 322.978 46.3311C322.978 52.1693 318.245 56.902 312.407 56.902Z" fill="#232323" stroke="#232323"/>
<path fill-rule="evenodd" clip-rule="evenodd" d="M312.407 63.2231C303.078 63.2231 295.515 55.6603 295.515 46.3311C295.515 37.0019 303.078 29.439 312.407 29.439C321.736 29.439 329.299 37.0019 329.299 46.3311C329.299 55.6603 321.736 63.2231 312.407 63.2231Z" stroke="white"/>
<path d="M198.521 239.7C199.515 218.634 242.027 217.038 242.027 217.038C242.027 217.038 330.244 193.571 355.648 229.312L355.819 229.528C373.364 253.197 380.35 305.444 378.431 321.088C377.759 326.592 367.384 330.076 354.236 332.286C338.338 334.959 309.507 335.757 297.676 335.998V335.96C292.298 336.169 282.291 336.074 283.697 332.286C284.52 330.082 286.515 315.185 290.341 298.35C269.775 282.94 219.593 312.442 219.593 312.442C219.593 312.442 197.52 260.759 198.521 239.7Z" fill="#6448EF"/>
<path d="M290.341 298.35C290.341 298.35 282.899 338.886 359.499 320.689C367.733 317.896 375.118 316.889 378.5 320.265C378.5 320.537 378.449 320.828 378.418 321.088C377.746 326.592 367.372 330.075 354.223 332.286C338.325 334.959 309.494 335.757 297.663 335.998V335.96C292.285 336.169 282.278 336.074 283.684 332.286C284.52 330.082 286.515 315.172 290.341 298.35V298.35Z" fill="#493FC9"/>
<path d="M290.341 298.35C289.806 297.953 289.25 297.586 288.675 297.248C289.898 296.659 290.531 296.969 290.341 298.35Z" fill="#493FC9"/>
<path d="M276.299 278.557C300.215 243.126 316.873 246.401 316.873 246.401C303.749 250.201 295.421 275.979 290.341 298.337C279.118 289.932 259.071 294.904 243.174 301.162C241.407 298.99 240.305 296.038 240.26 292.193C240.058 274.719 240.957 238.357 235.738 226.563C262.555 272.331 261.085 289.331 276.299 278.557Z" fill="#493FC9"/>
<path fill-rule="evenodd" clip-rule="evenodd" d="M198.521 239.7C199.515 218.634 242.027 217.038 242.027 217.038C242.027 217.038 330.244 193.571 355.648 229.312L355.819 229.528C373.364 253.197 380.35 305.444 378.431 321.088C377.759 326.592 367.384 330.076 354.236 332.286C338.338 334.959 309.507 335.757 297.676 335.998V335.96C292.298 336.169 282.291 336.074 283.697 332.286C284.52 330.082 286.515 315.185 290.341 298.35C269.775 282.94 219.593 312.442 219.593 312.442C219.593 312.442 197.52 260.759 198.521 239.7V239.7Z" stroke="#232323" stroke-width="1.51" stroke-linecap="round"/>
<path d="M210.213 288.324C210.415 287.614 210.65 286.905 210.928 286.202C220.822 261.399 230.506 214.776 230.506 214.776C230.506 214.776 254.2 262.514 250.35 298.553C239.691 302.225 229.395 306.875 219.593 312.442C219.593 312.442 215.064 301.871 210.213 288.324Z" fill="#232323" stroke="#232323" stroke-width="1.51" stroke-linecap="round"/>
<path d="M90.0109 320.138C90.0109 320.138 89.4092 283.054 93.0004 286.417C96.5916 289.78 101.975 323.501 100.424 324.996C98.8717 326.491 90.0109 320.138 90.0109 320.138Z" fill="#232323" stroke="#232323" stroke-width="1.51" stroke-linecap="round"/>
<path d="M47.354 321.626C62.669 320.36 77.8256 317.725 98.5052 318.415C99.2462 333.477 99.1005 351.94 95.541 365.354C86.0043 359.084 76.9397 352.124 68.42 344.529C68.42 344.529 57.4056 381.36 52.5857 382.855C47.7657 384.349 46.8727 360.452 47.354 321.626Z" fill="#F7BE08"/>
<path d="M47.354 321.626C62.669 320.36 77.8256 317.725 98.5052 318.415C99.2462 333.477 99.1005 351.94 95.541 365.354C86.0043 359.084 76.9397 352.124 68.42 344.529C68.42 344.529 57.4056 381.36 52.5857 382.855C47.7657 384.349 46.8727 360.452 47.354 321.626Z" fill="#F7BE08"/>
<path opacity="0.62" d="M47.3539 321.626C62.6689 320.36 77.8255 317.725 98.5051 318.415C98.8091 324.603 98.9611 331.361 98.7901 338.113C97.2257 337.188 72.0048 322.393 59.483 328.264C47.6643 333.812 55.9868 373.018 52.9846 382.664C52.8697 382.741 52.7464 382.805 52.6173 382.855C47.829 384.349 46.8726 360.452 47.3539 321.626Z" fill="#F97F06"/>
<path fill-rule="evenodd" clip-rule="evenodd" d="M47.354 321.626C62.669 320.36 77.8256 317.725 98.5052 318.415C99.2462 333.477 99.1005 351.94 95.541 365.354C86.0043 359.084 76.9397 352.124 68.42 344.529C68.42 344.529 57.4056 381.36 52.5857 382.855C47.7657 384.349 46.8727 360.452 47.354 321.626Z" stroke="#232323" stroke-width="1.51" stroke-linecap="round"/>
<path d="M143.019 258.91C143.019 258.91 141.809 309.016 122.035 305.203C102.261 301.39 94.5086 288.526 94.5086 288.526C96.5596 298.38 97.8953 308.369 98.5052 318.415C99.2462 333.477 99.1006 351.94 95.541 365.354C102.596 370.046 109.963 374.253 117.589 377.946C139.541 388.447 172.654 386.547 191.358 371.542C233.008 338.189 240.944 264.173 232.958 229.667C224.971 195.161 150.182 165.329 150.182 165.329C150.093 167.812 145.261 166.526 143.019 258.91Z" fill="#6448EF"/>
<path d="M94.5085 288.526C94.5085 288.526 102.324 301.396 122.054 305.203C141.783 309.01 143.038 258.91 143.038 258.91C143.95 221.224 145.299 199.126 146.578 186.002L154.451 169.566L232.261 227.159C232.261 227.159 198.774 239.155 176.138 222.668C153.501 206.182 183.814 303.848 154.451 320.125C125.088 336.403 116.151 304.81 110.748 322.025C106.422 335.751 101.248 360.091 95.826 365.494L95.5789 365.335C99.1385 351.921 99.2842 333.458 98.5431 318.396C97.9198 308.355 96.5714 298.373 94.5085 288.526Z" fill="#493FC9"/>
<path fill-rule="evenodd" clip-rule="evenodd" d="M143.019 258.91C143.019 258.91 141.809 309.016 122.035 305.203C102.261 301.39 94.5086 288.526 94.5086 288.526C96.5596 298.38 97.8953 308.369 98.5052 318.415C99.2462 333.477 99.1006 351.94 95.541 365.354C102.596 370.046 109.963 374.253 117.589 377.946C139.541 388.447 172.654 386.547 191.358 371.542C233.008 338.189 240.944 264.173 232.958 229.667C224.971 195.161 150.182 165.329 150.182 165.329C150.093 167.812 145.261 166.526 143.019 258.91V258.91Z" stroke="#232323" stroke-width="1.51" stroke-linecap="round"/>
<path d="M300.076 148.526C300.525 147.323 300.837 146.074 301.007 144.801C302.533 135.111 299.538 109.428 300.931 91.5221C300.951 90.8521 301.01 90.1838 301.108 89.5207C301.108 89.5207 301.108 89.4637 301.108 89.4383C301.159 88.9126 301.216 88.3996 301.279 87.8866C302.141 77.4106 295.706 72.8123 299.595 72.8123C301.45 72.8123 303.217 74.6111 304.503 76.3719C306.106 73.7434 308.303 72.4133 311.331 72.92C328.818 75.8715 315.72 81.1538 322.307 101.232C328.894 121.31 353.602 185.002 310.875 195.452L310.653 195.497C318.241 179.08 300.076 148.526 300.076 148.526Z" fill="#F75C5C"/>
<path fill-rule="evenodd" clip-rule="evenodd" d="M300.076 148.526C300.525 147.323 300.837 146.074 301.007 144.801C302.533 135.111 299.538 109.428 300.931 91.5221C300.951 90.8521 301.01 90.1837 301.108 89.5207C301.108 89.5207 301.108 89.4637 301.108 89.4383C301.159 88.9126 301.216 88.3996 301.279 87.8866C302.141 77.4106 295.706 72.8123 299.595 72.8123C301.45 72.8123 303.217 74.6111 304.503 76.3719C306.106 73.7434 308.303 72.4133 311.331 72.92C328.818 75.8715 315.72 81.1538 322.307 101.232C328.894 121.31 353.602 185.002 310.875 195.452L310.653 195.497C318.241 179.08 300.076 148.526 300.076 148.526V148.526Z" stroke="#232323" stroke-width="1.51"/>
<path d="M247.633 159.23C250.369 141.4 254.315 114.564 261.143 103.905C267.223 106.59 279.112 112.075 283.628 123.539C289.448 138.341 296.821 156.519 300.095 148.494C303.37 140.469 318.26 179.048 310.679 195.452C282.64 202.236 259.35 182.411 247.633 159.23Z" fill="white"/>
<path opacity="0.59" d="M272.702 110.992C272.702 110.992 285.135 140.912 278.909 168.04C275.216 184.153 295.453 191.886 312.478 184.007C312.706 188.168 312.243 192.127 310.692 195.484C292.374 199.879 276.084 192.95 263.721 181.138L272.702 110.992Z" fill="#DBD9D9"/>
<path fill-rule="evenodd" clip-rule="evenodd" d="M247.633 159.23C250.369 141.4 254.315 114.564 261.143 103.905C267.223 106.59 279.112 112.075 283.628 123.539C289.448 138.341 296.821 156.519 300.095 148.494C303.37 140.469 318.26 179.048 310.679 195.452C282.64 202.236 259.35 182.411 247.633 159.23V159.23Z" stroke="#232323" stroke-width="1.51"/>
<path d="M272.392 109.826C272.392 109.826 273.354 116.249 273.924 126.066C275.324 150.134 274.381 194.578 251.123 214.776C232.122 215.441 175.004 200.12 154.413 156.55C176.436 127.669 162.394 54.8941 258.888 103.094C272.955 108.04 272.392 109.826 272.392 109.826Z" fill="white"/>
<path opacity="0.59" d="M243.199 95.9051L243.326 96.0697C243.326 96.0697 239.88 94.803 243.756 114.824C247.633 134.845 243.497 174.07 223.381 185.819C203.265 197.568 191.117 186.148 188.976 192.013C188.78 192.551 188.127 192.881 187.12 193.007C173.819 184.096 161.785 172.106 154.432 156.55C175.175 129.347 163.939 63.2167 243.199 95.9051Z" fill="#DBD9D9"/>
<path fill-rule="evenodd" clip-rule="evenodd" d="M272.391 109.826C272.391 109.826 273.353 116.249 273.924 126.066C275.323 150.134 274.38 194.578 251.122 214.776C232.121 215.441 175.003 200.12 154.412 156.55C176.435 127.669 162.393 54.8941 258.887 103.094C272.954 108.04 272.391 109.826 272.391 109.826Z" stroke="#232323" stroke-width="1.51"/>
<path d="M271.289 69.1005C271.289 69.1005 275.482 78.6771 268.54 81.7679C261.599 84.8588 262.435 62.2601 271.289 69.1005Z" fill="#232323" stroke="#232323" stroke-width="1.51"/>
<path d="M266.38 67.4222C266.38 67.4222 277.876 97.8241 258.964 98.7805C258.723 110.511 259.679 126.313 249.387 121.525C239.095 116.737 238.379 89.4445 249.387 70.7727C260.395 52.1009 266.38 67.4222 266.38 67.4222Z" fill="#F75C5C" stroke="#232323" stroke-width="1.51"/>
<path d="M258.963 98.7805C254.675 98.7235 252.129 96.7853 250.729 93.9288C249.558 97.6657 251.559 106.843 258.818 107.559C258.925 101.415 258.963 98.7805 258.963 98.7805Z" fill="#232323" stroke="#232323" stroke-width="1.51"/>
<path d="M273.487 63.6347C273.487 56.2495 266.589 50.2705 258.083 50.2705C249.577 50.2705 242.686 57.567 242.686 64.9521C243.661 66.0161 273.487 63.6347 273.487 63.6347Z" fill="#F7BE08"/>
<path opacity="0.62" d="M258.083 50.2706C258.882 50.2747 259.68 50.3339 260.471 50.4479C257.697 51.873 252.054 55.3375 250.743 60.4045C248.988 67.1816 271.479 56.6043 273.411 62.3743C273.411 62.6213 273.411 62.8683 273.455 63.1217C273.424 63.3059 273.362 63.4836 273.272 63.6474C270.738 63.8501 243.63 65.9655 242.686 64.9521C242.686 57.567 249.577 50.2706 258.083 50.2706V50.2706Z" fill="#F97F06"/>
<path fill-rule="evenodd" clip-rule="evenodd" d="M273.487 63.6347C273.487 56.2495 266.589 50.2705 258.083 50.2705C249.577 50.2705 242.686 57.567 242.686 64.9521C243.661 66.0161 273.487 63.6347 273.487 63.6347Z" stroke="#232323" stroke-width="1.51"/>
<path d="M303.262 44.9059C303.336 43.9271 303.921 43.06 304.801 42.6258L307.924 41.0803C308.176 40.9544 308.477 40.9737 308.712 41.1308C308.946 41.288 309.078 41.5589 309.057 41.8404L308.614 48.7061L311.148 50.1692C311.628 50.4276 312.201 50.4486 312.699 50.2262L315.385 49.0988L315.828 42.2331C315.838 41.9464 316.002 41.6873 316.257 41.5558C316.512 41.4244 316.818 41.4412 317.057 41.5997L319.951 43.4998C320.775 44.0491 321.243 44.9951 321.18 45.9826L320.718 53.1271C320.657 54.1165 320.069 54.9969 319.179 55.4325L316.05 56.978L315.296 86.6451C315.182 91.1611 312.332 94.7713 309.051 94.5623C305.77 94.3533 303.414 90.401 303.876 85.9104L306.948 56.3953L304.041 54.4571C303.218 53.9079 302.75 52.9618 302.812 51.9743L303.262 44.9059Z" fill="#9B9B9B"/>
<path opacity="0.79" d="M303.832 85.9863L306.904 56.4712L303.997 54.533C303.174 53.9838 302.706 53.0377 302.768 52.0502L303.23 44.9058C303.31 43.9201 303.909 43.0514 304.801 42.6256L306.233 41.9163C305.903 44.6334 305.213 52.5316 308.329 53.317C312.129 54.2797 313.542 59.296 311.148 64.5277C308.962 69.297 307.449 85.7266 310.343 94.5368C309.916 94.6404 309.477 94.681 309.038 94.6572C305.732 94.4228 303.401 90.4769 303.832 85.9863Z" fill="#767777"/>
<path fill-rule="evenodd" clip-rule="evenodd" d="M303.262 44.9059C303.336 43.9271 303.921 43.06 304.801 42.6258L307.924 41.0803C308.176 40.9544 308.477 40.9737 308.712 41.1308C308.946 41.288 309.078 41.5589 309.057 41.8404L308.614 48.7061L311.148 50.1692C311.628 50.4276 312.201 50.4486 312.699 50.2262L315.385 49.0988L315.828 42.2331C315.838 41.9464 316.002 41.6873 316.257 41.5558C316.512 41.4244 316.818 41.4412 317.057 41.5997L319.951 43.4998C320.775 44.0491 321.243 44.9951 321.18 45.9826L320.718 53.1271C320.657 54.1165 320.069 54.9969 319.179 55.4325L316.05 56.978L315.296 86.6451C315.182 91.1611 312.332 94.7713 309.051 94.5623C305.77 94.3533 303.414 90.401 303.876 85.9104L306.948 56.3953L304.041 54.4571C303.218 53.9079 302.75 52.9618 302.812 51.9743L303.262 44.9059Z" stroke="#232323"/>
<path d="M244.042 67.4223C244.042 67.4223 241.249 71.1845 237.075 70.5891C232.901 69.9938 233.002 83.4276 240.242 84.8654C247.481 86.3031 247.709 70.6208 251.3 74.2944C254.074 77.1382 253.295 83.928 253.295 83.928C253.295 83.928 260.129 77.4612 259.92 69.4174C259.711 61.3736 244.042 67.4223 244.042 67.4223Z" fill="#232323" stroke="#232323"/>
<path d="M252.263 69.1007C252.263 69.1007 242.028 98.5399 258.964 98.7805" stroke="white"/>
<path d="M254.733 69.4174C253.1 71.3263 252.098 73.6936 251.864 76.1945C251.42 80.4634 248.348 79.507 248.589 74.9278C248.83 70.3485 250.223 68.081 250.223 68.081L254.733 69.4174Z" fill="#F7BE08"/>
<path opacity="0.62" d="M248.589 74.9278C248.83 70.3548 250.223 68.081 250.223 68.081L254.733 69.3984C254.44 69.7206 254.173 70.0659 253.935 70.4308C252.446 71.0008 250.686 72.0396 250.027 73.87C249.279 75.9411 250.407 77.6259 250.8 78.7343C249.773 79.4564 248.431 78.0313 248.589 74.9278Z" fill="#F97F06"/>
<path fill-rule="evenodd" clip-rule="evenodd" d="M254.733 69.4174C253.1 71.3263 252.098 73.6936 251.864 76.1945C251.42 80.4634 248.348 79.507 248.589 74.9278C248.83 70.3485 250.223 68.081 250.223 68.081L254.733 69.4174Z" stroke="#232323" stroke-width="1.51"/>
<path d="M270.263 63.6347C270.263 56.2496 262.599 50.2706 253.263 51.0623" stroke="#232323" stroke-width="1.51"/>
<path d="M243.028 64.5531C244.599 65.3005 263.733 64.9078 272.467 62.7543C281.67 62.5326 282.525 65.8705 281.803 66.8269C265.646 74.2437 243.028 68.499 243.028 68.499C241.394 67.7833 242.027 64.0654 243.028 64.5531Z" fill="#F7BE08"/>
<path opacity="0.62" d="M243.028 64.5532C243.693 64.8699 247.563 64.9839 252.453 64.8382C252.82 65.7123 255.512 70.7666 267.654 68.1001C274.919 66.504 279.086 65.2309 281.366 64.7876C282.133 65.5919 282.12 66.4217 281.816 66.827C265.659 74.2438 243.041 68.4991 243.041 68.4991C241.394 67.7834 242.028 64.0655 243.028 64.5532Z" fill="#F97F06"/>
<path fill-rule="evenodd" clip-rule="evenodd" d="M243.028 64.5531C244.599 65.3005 263.733 64.9078 272.467 62.7543C281.67 62.5326 282.525 65.8705 281.803 66.8269C265.646 74.2437 243.028 68.499 243.028 68.499C241.394 67.7833 242.027 64.0654 243.028 64.5531Z" stroke="#232323" stroke-width="1.51"/>
<path d="M317.183 90.9584C316.734 86.6325 309.735 89.9957 309.209 88.2666C308.683 86.5375 312.851 85.2264 312.851 85.2264C312.851 85.2264 306.878 86.4931 307.258 84.289C307.638 82.0849 312.699 81.4071 312.699 81.4071C312.699 81.4071 304.972 82.1672 305.802 78.7787C306.631 75.3901 313.003 76.8279 313.003 76.8279C313.003 76.8279 304.769 74.5857 308.202 73.129C322.409 70.0381 320.933 79.8047 320.933 79.8047C319.843 78.4176 317.544 77.9869 317.544 77.9869L317.183 90.9584Z" fill="#F75C5C"/>
<path d="M270.77 66.1493C269.535 66.1493 268.534 64.7201 268.534 62.9571C268.534 61.1941 269.535 59.7649 270.77 59.7649C272.005 59.7649 273.006 61.1941 273.006 62.9571C273.006 64.7201 272.005 66.1493 270.77 66.1493Z" fill="#F7BE08" stroke="#232323" stroke-width="1.51"/>
<path d="M320.933 79.8046C320.933 79.8046 322.396 70.038 308.19 73.0972C304.763 74.554 312.991 76.7961 312.991 76.7961C312.991 76.7961 306.625 75.39 305.789 78.7786C304.953 82.1671 312.699 81.4071 312.699 81.4071C312.699 81.4071 307.632 82.0404 307.259 84.2889C306.885 86.5374 312.851 85.2263 312.851 85.2263C312.851 85.2263 308.677 86.5374 309.209 88.2665C309.741 89.9956 316.734 86.6324 317.184 90.9583" stroke="#232323" stroke-width="1.51" stroke-linecap="round"/>
<path d="M235.308 93.2512C230.969 83.1173 217.453 87.4432 217.453 87.4432C220.993 91.0281 223.381 97.6088 223.381 105.178C223.381 116.547 217.985 125.762 211.347 125.762C204.709 125.762 199.313 116.547 199.313 105.178C199.313 101.726 196.19 93.8403 197.071 90.9838C179.615 104.494 162.869 136.118 155.902 146.664C155.022 148 155.109 149.753 156.117 150.996C162.926 159.413 189.413 190.265 207.775 185.306C228.999 179.561 246.487 117.427 235.346 93.2766" fill="#F7BE08"/>
<path d="M225.541 166.697C195.81 159.73 175.732 145.454 165.649 130.658C167.625 127.447 169.772 124.033 172.059 120.569C191.389 139.823 224.483 150.223 231.691 152.32C229.999 157.258 227.944 162.064 225.541 166.697Z" fill="white"/>
<path opacity="0.62" d="M226.706 93.9289C224.014 98.1852 228.03 114.634 217.643 125.921C217.985 124.477 218.276 123.045 218.504 121.626C221.443 117.877 223.356 111.904 223.356 105.159C223.356 97.6152 220.968 91.0344 217.427 87.4242C213.887 83.814 230.943 83.0729 235.282 93.2322C235.599 93.9163 235.915 94.6383 236.162 95.3794C233.832 93.7389 228.746 90.7114 226.706 93.9289Z" fill="#F97F06"/>
<path opacity="0.62" d="M208.776 184.944L208.693 184.976C203.512 185.179 203.81 186.173 200.137 185.508C180.445 180.53 161.501 157.64 156.079 150.97C155.071 149.727 154.984 147.975 155.864 146.638C160.557 139.5 169.754 122.703 180.622 108.401L199.687 110.523C201.068 119.283 205.742 125.724 211.303 125.724C212.443 125.714 213.565 125.443 214.584 124.932C214.837 126.833 214.761 128.441 214.077 129.366C214.077 129.366 203.943 135.187 198.521 126.909C198.521 126.909 193.214 120.575 190.737 124.951C188.261 129.328 197.071 155.436 184.518 152.725C171.964 150.014 165.852 170.915 208.776 184.944Z" fill="#F97F06"/>
<path d="M235.308 93.2512C230.969 83.1173 217.453 87.4432 217.453 87.4432C220.993 91.0281 223.381 97.6088 223.381 105.178C223.381 116.547 217.985 125.762 211.347 125.762C204.709 125.762 199.313 116.547 199.313 105.178C199.313 101.726 196.19 93.8403 197.071 90.9838C179.615 104.494 162.869 136.118 155.902 146.664C155.022 148 155.109 149.753 156.117 150.996C162.926 159.413 189.413 190.265 207.775 185.306C228.999 179.561 246.487 117.427 235.346 93.2766" stroke="#232323" stroke-width="1.51"/>
<path d="M262.378 104.367C262.378 104.367 267.578 158.419 243.452 195.269C234.515 205.966 256.221 211.736 262.378 207.132C268.534 202.527 283.279 149.026 272.391 109.814C269.839 100.218 262.378 104.367 262.378 104.367Z" fill="#F7BE08"/>
<path opacity="0.62" d="M262.378 104.367L262.732 104.196C263.955 114.469 268.559 160.743 255.62 183.684C251.281 196.941 264.043 195.262 266.856 198.936C265.202 203.3 263.619 206.213 262.378 207.138C256.221 211.768 234.509 205.979 243.452 195.281C267.578 158.419 262.378 104.367 262.378 104.367Z" fill="#F97F06"/>
<path d="M271.587 182.652C265.287 180.863 259.128 178.608 253.162 175.906C255.015 170.984 256.569 165.954 257.817 160.845C261.618 162.295 267.464 164.392 274.526 166.406C273.734 172.214 272.714 177.692 271.587 182.652Z" fill="white"/>
<path fill-rule="evenodd" clip-rule="evenodd" d="M262.378 104.367C262.378 104.367 267.578 158.419 243.453 195.269C234.516 205.966 256.221 211.736 262.378 207.132C268.534 202.527 283.279 149.026 272.391 109.814C269.839 100.218 262.378 104.367 262.378 104.367Z" stroke="#232323" stroke-width="1.51"/>
<path d="M214.077 129.398C214.077 129.398 203.943 135.218 198.521 126.94" stroke="#232323" stroke-width="1.51" stroke-linecap="round"/>
<path d="M251.142 214.776C251.142 214.776 191.605 212.648 154.432 156.55C140.707 156.113 153.799 192.368 195.722 214.776C237.644 237.185 262.954 225.202 251.142 214.776Z" fill="#F7BE08"/>
<path opacity="0.62" d="M153.419 156.633C155.002 163.454 159.265 178.256 167.625 184.533C175.542 190.474 192.092 195.934 200.497 199.17C202.212 200.116 203.915 201.005 205.608 201.837C204.709 203.483 205.97 228.869 254.042 220.109C254.024 220.67 253.9 221.223 253.675 221.737C252.894 222.724 252.047 223.657 251.142 224.53C243.877 229.401 223.419 229.597 195.709 214.802C154.932 192.957 141.429 158.02 153.419 156.633Z" fill="#F97F06"/>
<path fill-rule="evenodd" clip-rule="evenodd" d="M251.142 214.776C251.142 214.776 191.605 212.648 154.432 156.55C140.707 156.113 153.799 192.368 195.722 214.776C237.644 237.185 262.954 225.202 251.142 214.776Z" stroke="#232323" stroke-width="1.51" stroke-linecap="round"/>
<path d="M143.31 91.0535C145.099 88.2851 147.438 85.9137 150.182 84.0864C154.729 94.7334 174.706 112.658 182.705 119.555C182.237 120.822 182.357 122.76 183.256 125.452C190.084 145.866 217.059 156.829 217.788 156.715C220.423 158.869 210.605 159.103 210.605 159.103C210.605 159.103 219.169 166.767 218.928 168.92C218.687 171.074 211.961 166.387 211.961 166.387C211.961 166.387 216.749 176.622 215.489 176.863C214.228 177.104 208.427 168.186 208.427 168.186C208.427 168.186 211.777 181.17 210.282 181.537C208.788 181.904 205.317 171.238 205.317 171.238C205.317 171.238 205.95 180.454 205.076 181.467C204.202 182.481 201.966 172.011 201.966 172.011C201.966 172.011 175.194 157.235 156.642 139.937C141.093 125.433 133.587 106.02 143.31 91.0535Z" fill="#F75C5C"/>
<path opacity="0.61" d="M156.667 139.956C141.093 125.433 133.587 106.02 143.31 91.0535C145.099 88.2851 147.438 85.9137 150.182 84.0864C152.43 89.3498 158.454 96.3992 164.939 103.012C171.425 109.624 146.932 87.3926 145.374 98.7617C143.816 110.131 144.298 135.39 202.587 165.31C203.784 169.699 205.557 178.744 204.873 181.505C203.879 180.954 201.992 172.005 201.992 172.005C201.992 172.005 175.219 157.266 156.667 139.956Z" fill="#D33939"/>
<path fill-rule="evenodd" clip-rule="evenodd" d="M143.31 91.0535C145.099 88.2851 147.438 85.9137 150.182 84.0864C154.729 94.7334 174.706 112.658 182.705 119.555C182.237 120.822 182.357 122.76 183.256 125.452C190.084 145.866 217.059 156.829 217.788 156.715C220.423 158.869 210.605 159.103 210.605 159.103C210.605 159.103 219.169 166.767 218.928 168.92C218.687 171.074 211.961 166.387 211.961 166.387C211.961 166.387 216.749 176.622 215.489 176.863C214.228 177.104 208.427 168.186 208.427 168.186C208.427 168.186 211.777 181.17 210.282 181.537C208.788 181.904 205.317 171.238 205.317 171.238C205.317 171.238 205.95 180.454 205.076 181.467C204.202 182.481 201.966 172.011 201.966 172.011C201.966 172.011 175.194 157.235 156.642 139.937C141.093 125.433 133.587 106.02 143.31 91.0535V91.0535Z" stroke="#232323" stroke-width="1.51"/>
<path d="M223.355 105.152C222.931 124.692 214.076 129.366 214.076 129.366C214.076 129.366 185.746 111.106 182.705 119.574C174.706 112.677 154.729 94.7524 150.182 84.1054C166.352 73.2811 195.36 81.1349 217.446 87.4433C224.134 94.3534 223.355 105.152 223.355 105.152Z" fill="white"/>
<path opacity="0.59" d="M216.47 100.51C210.536 85.4988 184.992 83.1047 183.199 90.5215C181.407 97.9383 163.926 83.3454 163.331 91.2435C162.735 99.1417 172.546 109.314 172.546 109.314C172.546 109.314 171.704 108.959 170.298 108.319C162.064 100.408 153.045 90.8128 150.182 84.1054C166.352 73.2811 195.36 81.1349 217.446 87.4433C224.134 94.3534 223.355 105.178 223.355 105.178C222.931 124.717 214.076 129.392 214.076 129.392C214.076 129.392 222.412 115.527 216.47 100.51Z" fill="#DBD9D9"/>
<path fill-rule="evenodd" clip-rule="evenodd" d="M223.355 105.152C222.931 124.692 214.076 129.366 214.076 129.366C214.076 129.366 185.746 111.106 182.705 119.574C174.706 112.677 154.729 94.7524 150.182 84.1054C166.352 73.2811 195.36 81.1349 217.446 87.4433C224.134 94.3534 223.355 105.152 223.355 105.152V105.152Z" stroke="#232323" stroke-width="1.51"/>
<path d="M316.873 246.401C293.876 253.102 285.616 327.149 283.697 332.286" stroke="#232323" stroke-width="1.51" stroke-linecap="round"/>
<path d="M154.432 156.55C154.432 156.55 137.711 155.284 129.249 177.452C120.787 199.62 154.166 198.353 167.625 173.385C164.49 165.329 154.432 156.55 154.432 156.55Z" fill="#F7BE08"/>
<path opacity="0.62" d="M129.249 177.477C137.711 155.309 154.432 156.576 154.432 156.576C154.432 156.576 163.794 164.753 167.271 172.587C167.211 172.946 167.133 173.301 167.036 173.652C167.036 173.652 154.578 175.33 151.436 181.157C148.295 186.984 139.035 173.892 135.247 181.157C131.536 188.257 136.514 192.779 139.77 193.191C131.048 193.622 125.094 188.384 129.249 177.477Z" fill="#F97F06"/>
<path fill-rule="evenodd" clip-rule="evenodd" d="M154.432 156.55C154.432 156.55 137.711 155.284 129.249 177.452C120.787 199.62 154.166 198.353 167.625 173.385C164.49 165.329 154.432 156.55 154.432 156.55Z" stroke="#232323" stroke-width="1.51"/>
<path d="M154.432 156.551C154.432 156.551 139.908 155.284 136.064 159.717C132.219 164.151 142.283 181.581 151.385 176.635C160.487 171.688 167.606 173.386 167.606 173.386C167.606 173.386 164.806 161.181 154.432 156.551Z" fill="#F7BE08"/>
<path opacity="0.62" d="M150.682 159.027C141.91 158.786 136.716 164.265 137.476 169.541C135.31 165.741 134.48 161.611 136.083 159.743C139.883 155.277 154.451 156.576 154.451 156.576C164.825 161.206 167.644 173.436 167.644 173.436C167.644 173.436 159.461 159.268 150.682 159.027Z" fill="#F97F06"/>
<path fill-rule="evenodd" clip-rule="evenodd" d="M154.432 156.551C154.432 156.551 139.908 155.284 136.064 159.717C132.219 164.151 142.283 181.581 151.385 176.635C160.487 171.688 167.606 173.386 167.606 173.386C167.606 173.386 164.806 161.181 154.432 156.551V156.551Z" stroke="#232323" stroke-width="1.51"/>
<path d="M134.652 177.288C133.831 176.486 135.294 173.658 137.92 170.971C140.546 168.284 143.34 166.756 144.16 167.558C144.981 168.36 143.517 171.188 140.892 173.875C138.266 176.562 135.472 178.09 134.652 177.288Z" fill="#F7BE08" stroke="#232323" stroke-width="1.51"/>
<path d="M175.181 177.534C175.181 177.534 163.546 182.272 160.031 194.889C156.516 207.505 169.595 204.136 169.595 204.136C169.595 204.136 176.416 189.201 183.529 188.048C190.642 186.895 180.445 176.02 175.181 177.534Z" fill="#F7BE08"/>
<path opacity="0.62" d="M175.181 177.534C176.016 177.329 176.891 177.35 177.715 177.597C179.495 178.405 181.192 179.385 182.782 180.524C185.239 182.747 186.81 185.591 185.524 187.085C182.136 188.415 174.472 190.917 170.247 188.352C164.585 185.92 158.847 201.077 165.13 204.471C161.728 204.205 157.979 202.356 160.063 194.876C163.546 182.278 175.181 177.534 175.181 177.534Z" fill="#F97F06"/>
<path fill-rule="evenodd" clip-rule="evenodd" d="M175.181 177.534C175.181 177.534 163.546 182.272 160.031 194.889C156.516 207.505 169.595 204.136 169.595 204.136C169.595 204.136 176.416 189.201 183.529 188.048C190.642 186.895 180.445 176.02 175.181 177.534V177.534Z" stroke="#232323" stroke-width="1.51"/>
<path d="M171.033 182.962C171.033 182.962 166.086 187.833 167.201 189.505C168.315 191.177 173.661 184.881 173.661 184.881L171.033 182.962Z" fill="#F7BE08" stroke="#232323" stroke-width="1.51"/>
<path d="M182.484 179.573C182.484 179.573 176.973 173.949 169.816 179.092C162.659 184.235 181.527 188.935 185.055 187.491C188.583 186.047 182.484 179.573 182.484 179.573Z" fill="#F7BE08"/>
<path opacity="0.62" d="M169.791 179.092C176.974 173.949 182.459 179.574 182.459 179.574L182.687 179.827C179.919 178.668 176.309 177.895 173.636 179.992C168.689 183.88 174.016 185.819 174.016 185.819C174.016 185.819 173.718 185.787 173.237 185.705C169.069 184.07 166.244 181.638 169.791 179.092Z" fill="#F97F06"/>
<path fill-rule="evenodd" clip-rule="evenodd" d="M182.484 179.573C182.484 179.573 176.973 173.949 169.816 179.092C162.659 184.235 181.527 188.935 185.055 187.491C188.583 186.047 182.484 179.573 182.484 179.573Z" stroke="#232323" stroke-width="1.51"/>
<path d="M184.264 184.311C184.264 184.311 172.623 189.055 169.114 201.672C165.605 214.289 178.678 210.888 178.678 210.888C178.678 210.888 185.499 195.953 192.612 194.8C199.725 193.647 189.528 182.798 184.264 184.311Z" fill="#F7BE08"/>
<path opacity="0.62" d="M184.263 184.311C185.099 184.108 185.974 184.132 186.797 184.381C188.566 185.19 190.253 186.17 191.832 187.307C194.283 189.53 195.86 192.374 194.575 193.869C191.186 195.193 183.522 197.669 179.298 195.136C173.635 192.703 167.897 207.86 174.18 211.249C170.779 210.983 167.023 209.133 169.113 201.653C172.622 189.055 184.263 184.311 184.263 184.311Z" fill="#F97F06"/>
<path fill-rule="evenodd" clip-rule="evenodd" d="M184.264 184.311C184.264 184.311 172.623 189.055 169.114 201.672C165.605 214.289 178.678 210.888 178.678 210.888C178.678 210.888 185.499 195.953 192.612 194.8C199.725 193.647 189.528 182.798 184.264 184.311V184.311Z" stroke="#232323" stroke-width="1.51"/>
<path d="M180.109 189.739C180.109 189.739 175.162 194.61 176.308 196.282C177.455 197.954 182.769 191.658 182.769 191.658L180.109 189.739Z" fill="#F7BE08" stroke="#232323" stroke-width="1.51"/>
<path d="M191.56 186.351C191.56 186.351 186.056 180.726 178.893 185.869C171.729 191.012 190.629 195.718 194.157 194.268C197.685 192.817 191.56 186.351 191.56 186.351Z" fill="#F7BE08"/>
<path opacity="0.62" d="M178.874 185.869C186.056 180.726 191.541 186.351 191.541 186.351C191.541 186.351 191.63 186.439 191.776 186.604C189.008 185.445 185.391 184.672 182.725 186.769C177.778 190.658 183.105 192.596 183.105 192.596C183.105 192.596 182.801 192.596 182.326 192.482C178.152 190.835 175.327 188.415 178.874 185.869Z" fill="#F97F06"/>
<path fill-rule="evenodd" clip-rule="evenodd" d="M191.56 186.351C191.56 186.351 186.056 180.726 178.893 185.869C171.729 191.012 190.629 195.718 194.157 194.268C197.685 192.817 191.56 186.351 191.56 186.351Z" stroke="#232323" stroke-width="1.51"/>
<path d="M194.404 192.627C194.404 192.627 182.769 197.365 179.254 209.982C175.739 222.599 188.818 219.197 188.818 219.197C188.818 219.197 195.639 204.262 202.752 203.116C209.865 201.97 199.667 191.107 194.404 192.627Z" fill="#F7BE08"/>
<path opacity="0.62" d="M194.404 192.627C195.239 192.422 196.114 192.444 196.938 192.691C198.707 193.5 200.394 194.48 201.973 195.617C204.43 197.84 206.001 200.684 204.715 202.179C201.327 203.509 193.663 206.017 189.438 203.445C183.776 201.013 178.038 216.17 184.321 219.565C180.92 219.299 177.164 217.449 179.254 209.969C182.769 197.365 194.404 192.627 194.404 192.627Z" fill="#F97F06"/>
<path fill-rule="evenodd" clip-rule="evenodd" d="M194.404 192.627C194.404 192.627 182.769 197.365 179.254 209.982C175.739 222.599 188.818 219.197 188.818 219.197C188.818 219.197 195.639 204.262 202.752 203.116C209.865 201.97 199.667 191.107 194.404 192.627V192.627Z" stroke="#232323" stroke-width="1.51"/>
<path d="M190.256 198.049C190.256 198.049 185.309 202.92 186.424 204.592C187.538 206.264 192.884 199.968 192.884 199.968L190.256 198.049Z" fill="#F7BE08" stroke="#232323" stroke-width="1.51"/>
<path d="M201.701 194.635C201.701 194.635 196.197 189.011 189.033 194.154C181.87 199.297 200.77 204.003 204.298 202.552C207.826 201.102 201.701 194.635 201.701 194.635Z" fill="#F7BE08"/>
<path opacity="0.62" d="M189.014 194.179C196.197 189.036 201.682 194.66 201.682 194.66L201.916 194.914C199.148 193.755 195.532 192.982 192.865 195.078C187.919 198.967 193.245 200.905 193.245 200.905C193.245 200.905 192.948 200.905 192.466 200.798C188.292 199.157 185.468 196.725 189.014 194.179Z" fill="#F97F06"/>
<path fill-rule="evenodd" clip-rule="evenodd" d="M201.701 194.635C201.701 194.635 196.197 189.011 189.033 194.154C181.87 199.297 200.77 204.003 204.298 202.552C207.826 201.102 201.701 194.635 201.701 194.635Z" stroke="#232323" stroke-width="1.51"/>
<path d="M227.359 215.169L226.282 222.668L227.359 215.169Z" fill="#F7BE08"/>
<path d="M227.359 215.169L226.282 222.668" stroke="#232323" stroke-width="1.51" stroke-linecap="round"/>
<path d="M234.345 216.164L233.268 223.669L234.345 216.164Z" fill="#F7BE08"/>
<path d="M234.345 216.164L233.268 223.669" stroke="#232323" stroke-width="1.51" stroke-linecap="round"/>
<path d="M241.325 217.164L240.254 224.67L241.325 217.164Z" fill="#F7BE08"/>
<path d="M241.325 217.164L240.254 224.67" stroke="#232323" stroke-width="1.51" stroke-linecap="round"/>
<path d="M260.431 99.6457C260.632 98.9919 260.264 98.2994 259.61 98.0989L256.407 97.1165C255.753 96.9159 255.061 97.2834 254.86 97.9372C254.66 98.591 255.027 99.2836 255.681 99.4841L258.884 100.466C259.538 100.667 260.231 100.3 260.431 99.6457Z" fill="#F7BE08" stroke="#232323" stroke-width="1.51" stroke-linecap="round"/>
<path opacity="0.61" d="M334.063 143.649C337.679 166.254 335.228 189.486 310.881 195.44L310.66 195.484C312.211 192.127 312.674 188.168 312.446 184.007C324.062 178.617 334.158 165.937 334.063 143.649Z" fill="#D33939"/>
<path d="M409.194 79.8302C408.402 73.0697 411.242 66.3943 416.661 62.2753C422.079 58.1562 429.271 57.2064 435.573 59.7776C435.314 59.7776 435.06 59.7776 434.801 59.8283C426.074 60.8458 419.145 67.6453 417.962 76.3513C416.78 85.0574 421.645 93.4586 429.784 96.7666C419.486 97.5681 410.394 90.0899 409.194 79.8302Z" fill="#3E8FC6"/>
<path d="M466.089 117.472L472.854 121.506C470.72 122.615 468.166 122.546 466.096 121.322L459.344 117.301C461.472 116.192 464.02 116.257 466.089 117.472Z" fill="#3E8FC6"/>
<path d="M424.438 121.487C424.926 121.633 425.413 121.766 425.901 121.892C428.359 122.506 430.296 124.396 430.968 126.839L433.59 136.625C433.939 137.93 434.664 139.104 435.674 140.001L432.4 140.381C428.992 140.769 425.807 138.62 424.894 135.314L422.272 125.503C421.864 123.993 420.955 122.666 419.694 121.74C421.199 121.114 422.875 121.024 424.438 121.487Z" fill="#3E8FC6"/>
<path d="M478.579 60.8607L483.646 61.0063C484.959 61.0447 486.234 61.4578 487.32 62.1971L482.208 62.0451C480.911 62.0013 479.652 61.5906 478.579 60.8607V60.8607Z" fill="#3E8FC6"/>
<path d="M397.761 99.6294C398.185 100.434 398.635 101.225 399.103 102.005C400.427 104.141 400.497 106.826 399.287 109.029L394.321 117.896C392.665 120.898 393.438 124.659 396.146 126.763L400.174 129.86C397.754 131.224 394.755 131.02 392.542 129.341L387.475 125.427C384.768 123.322 383.994 119.561 385.651 116.559L390.616 107.692C391.827 105.489 391.756 102.805 390.433 100.668C389.955 99.8912 389.506 99.0995 389.083 98.293C388.531 97.246 387.728 96.3518 386.746 95.6898L391.813 95.8355C394.334 95.9394 396.604 97.3878 397.761 99.6294Z" fill="#3E8FC6"/>
<path d="M456.443 34.7467C454.614 36.4943 451.985 37.1212 449.564 36.3871C449.074 36.2478 448.587 36.1148 448.101 35.9881C447.2 35.7593 446.353 35.357 445.606 34.8037C446.402 34.4798 447.128 34.0069 447.747 33.4103L455.018 26.3672C457.495 23.9829 461.341 23.7623 464.075 25.8478L465.139 26.6649C464.62 26.946 464.14 27.2954 463.714 27.7036L456.443 34.7467Z" fill="#3E8FC6"/>
<path d="M420.372 23.6247L420.074 33.7586C419.991 36.295 418.535 38.5855 416.274 39.7377C415.824 39.972 415.381 40.219 414.944 40.4661C412.758 41.7417 410.055 41.7417 407.869 40.4661L405.924 39.307C406.032 39.2563 406.14 39.212 406.247 39.1486C406.684 38.9016 407.128 38.6546 407.578 38.4203C409.834 37.2629 411.288 34.9755 411.378 32.4412L411.675 22.3073C411.766 18.8401 414.393 15.9674 417.838 15.5682L424.21 14.8271C426.178 14.5948 428.15 15.2201 429.625 16.5436L426.528 16.9046C423.092 17.3057 420.471 20.1669 420.372 23.6247Z" fill="#3E8FC6"/>
<path d="M370.627 74.1868L380.412 71.571C382.855 70.8987 384.745 68.9621 385.359 66.504C385.587 65.6236 385.84 64.7496 386.125 63.8882C386.923 61.5009 386.371 58.869 384.681 57.0034L377.809 49.5106C375.498 46.9684 375.385 43.1205 377.543 40.4471L381.59 35.4688C383.769 32.8103 387.561 32.138 390.521 33.8853L392.459 35.0254C391.62 35.4579 390.881 36.0596 390.287 36.7925L386.233 41.7708C384.06 44.4403 384.176 48.3002 386.505 50.8344L393.377 58.3272C395.065 60.194 395.614 62.8258 394.815 65.2119C394.536 66.0733 394.283 66.9474 394.055 67.8278C393.44 70.2852 391.55 72.2213 389.108 72.8948L379.316 75.5106C376.01 76.424 373.861 79.608 374.25 83.016L374.991 89.3941C375.227 91.4018 376.328 93.2063 378.005 94.3344L372.983 94.1887C369.548 94.0727 366.711 91.4697 366.301 88.0577L365.553 81.6796C365.172 78.2743 367.323 75.097 370.627 74.1868Z" fill="#3E8FC6"/>
<path d="M431.703 106.704C445.441 105.107 456.19 94.1186 457.485 80.3489C458.78 66.5792 450.267 53.7801 437.068 49.6498C448.594 49.6743 459.034 56.4553 463.743 66.9753C468.452 77.4953 466.554 89.7989 458.894 98.4112C451.235 107.023 439.236 110.344 428.239 106.894C429.396 106.897 430.553 106.833 431.703 106.704Z" fill="#5DA9E8"/>
<path d="M417.889 81.1665C416.66 70.6113 424.22 61.0581 434.775 59.8282C435.035 59.8282 435.288 59.8282 435.548 59.7775C443.688 63.0891 448.551 71.4955 447.362 80.2033C446.174 88.9111 439.237 95.707 430.506 96.7158C430.246 96.7158 429.987 96.7158 429.727 96.7665C423.231 94.1145 418.695 88.1363 417.889 81.1665Z" fill="#5DA9E8"/>
<path fill-rule="evenodd" clip-rule="evenodd" d="M374.225 83.0286L374.966 89.4066C375.199 91.4088 376.293 93.21 377.962 94.3406L383.067 94.4863C384.369 94.5316 385.631 94.9444 386.709 95.677L391.776 95.8227C394.309 95.9167 396.594 97.3693 397.755 99.6229C398.179 100.427 398.629 101.219 399.097 101.998C400.421 104.135 400.491 106.819 399.281 109.022L394.315 117.889C392.659 120.891 393.432 124.652 396.14 126.757L400.168 129.854C400.684 129.567 401.162 129.219 401.593 128.815L408.864 121.772C410.69 120.02 413.321 119.39 415.742 120.125C416.224 120.271 416.711 120.404 417.206 120.531C418.11 120.775 418.958 121.195 419.701 121.766C421.204 121.14 422.877 121.051 424.439 121.512C424.926 121.658 425.414 121.791 425.902 121.918C428.36 122.531 430.296 124.422 430.969 126.864L433.559 136.625C433.908 137.93 434.632 139.104 435.643 140L438.74 139.639C442.155 139.242 444.77 136.412 444.897 132.976L445.194 122.842C445.284 120.308 446.738 118.021 448.994 116.863C449.444 116.623 449.888 116.382 450.325 116.135C452.506 114.851 455.212 114.851 457.393 116.135L459.344 117.3C461.472 116.192 464.02 116.257 466.089 117.471L472.854 121.506C473.691 121.072 474.431 120.47 475.026 119.739L479.073 114.761C481.235 112.086 481.122 108.234 478.807 105.691L471.961 98.2042C470.273 96.3373 469.724 93.7056 470.523 91.3194C470.808 90.458 471.061 89.584 471.289 88.6973C471.903 86.2392 473.793 84.3026 476.236 83.6303L486.021 81.0081C489.325 80.0951 491.474 76.9148 491.088 73.509L490.341 67.1309C490.107 65.124 489.008 63.3194 487.333 62.1906L482.221 62.0386C480.919 61.9972 479.656 61.5864 478.579 60.8542L473.512 60.7022C470.979 60.6096 468.693 59.1565 467.533 56.902C467.107 56.0955 466.657 55.3037 466.184 54.5268C464.858 52.3885 464.788 49.7011 466.001 47.4964L470.966 38.6292C472.64 35.6298 471.864 31.8571 469.142 29.7619L465.139 26.6648C464.62 26.9459 464.141 27.2952 463.714 27.7035L456.411 34.7466C454.582 36.4942 451.954 37.1211 449.533 36.387C449.047 36.2477 448.56 36.1147 448.07 35.988C447.169 35.7591 446.321 35.3568 445.574 34.8036C444.07 35.4267 442.397 35.5139 440.837 35.0506C440.355 34.9113 439.868 34.7783 439.374 34.6516C436.916 34.0382 434.979 32.1475 434.307 29.7049L431.691 19.951C431.34 18.6453 430.613 17.4715 429.601 16.5751L426.503 16.9362C423.089 17.347 420.485 20.1875 420.372 23.6246L420.119 33.6825C420.036 36.2189 418.58 38.5094 416.319 39.6616C415.869 39.8959 415.426 40.1429 414.989 40.3899C412.803 41.6656 410.1 41.6656 407.914 40.3899L405.969 39.2309C403.84 40.3372 401.292 40.2702 399.224 39.0535L392.46 35.0253C391.619 35.4651 390.879 36.0756 390.287 36.8177L386.234 41.796C384.061 44.4655 384.177 48.3254 386.506 50.8596L393.353 58.3397C395.04 60.2066 395.59 62.8383 394.79 65.2245C394.512 66.0859 394.258 66.9599 394.03 67.8403C393.416 70.2977 391.526 72.2338 389.084 72.9073L379.292 75.5231C375.986 76.4365 373.836 79.6205 374.225 83.0286ZM428.239 106.894C413.399 106.862 400.928 95.7357 399.211 80.9955C398.059 71.1372 401.977 61.3659 409.622 55.0358C417.267 48.7057 427.598 46.6784 437.068 49.6498C448.594 49.6743 459.034 56.4553 463.743 66.9753C468.452 77.4953 466.554 89.7989 458.894 98.4112C451.235 107.023 439.236 110.344 428.239 106.894Z" fill="#5DA9E8"/>
<path fill-rule="evenodd" clip-rule="evenodd" d="M428.308 96.8424C417.681 96.8424 409.066 88.2275 409.066 77.6005C409.066 66.9735 417.681 58.3586 428.308 58.3586C438.935 58.3586 447.55 66.9735 447.55 77.6005C447.55 88.2275 438.935 96.8424 428.308 96.8424Z" stroke="#231F20" stroke-width="1.51"/>
<path d="M434.307 29.705L433.579 29.9053L433.577 29.8978L434.307 29.705ZM439.374 34.6516L439.556 33.9191L439.561 33.9203L439.374 34.6516ZM440.837 35.0506L441.047 34.3254L441.056 34.3281L440.837 35.0506ZM447.715 33.4102L448.239 33.9537L448.237 33.9561L447.715 33.4102ZM455.018 26.3671L454.494 25.8237L454.494 25.8231L455.018 26.3671ZM464.075 25.8477L464.533 25.2475L464.537 25.2503L464.075 25.8477ZM469.142 29.762L468.682 30.3603L468.68 30.3595L469.142 29.762ZM470.966 38.6292L471.625 38.9971L471.625 38.9981L470.966 38.6292ZM466.001 47.4964L465.339 47.1325L465.342 47.1275L466.001 47.4964ZM466.184 54.5269L466.826 54.1289L466.829 54.1343L466.184 54.5269ZM467.533 56.902L468.201 56.549L468.205 56.5567L467.533 56.902ZM473.512 60.7022L473.49 61.4569L473.485 61.4567L473.512 60.7022ZM483.646 60.9999L483.668 60.2452L483.672 60.2453L483.646 60.9999ZM490.328 67.131L491.078 67.0408L491.078 67.0431L490.328 67.131ZM491.076 73.509L491.826 73.4212L491.826 73.4241L491.076 73.509ZM486.009 81.0082L486.21 81.7359L486.204 81.7374L486.009 81.0082ZM476.223 83.6303L476.023 82.9024L476.028 82.901L476.223 83.6303ZM471.277 88.6973L472.009 88.8801L472.008 88.8853L471.277 88.6973ZM470.51 91.3195L471.227 91.5566L471.226 91.5593L470.51 91.3195ZM471.948 98.2042L471.391 98.7143L471.388 98.7105L471.948 98.2042ZM478.807 105.691L479.364 105.181L479.366 105.182L478.807 105.691ZM479.073 114.761L479.66 115.235L479.659 115.237L479.073 114.761ZM475.026 119.739L475.612 120.215L475.61 120.217L475.026 119.739ZM466.096 121.322L465.712 121.972L465.709 121.971L466.096 121.322ZM457.393 116.135L457.776 115.484L457.78 115.486L457.393 116.135ZM450.325 116.135L450.708 116.786L450.696 116.792L450.325 116.135ZM448.994 116.863L449.351 117.529L449.339 117.535L448.994 116.863ZM445.194 122.842L444.44 122.82L444.44 122.816L445.194 122.842ZM444.897 132.976L445.651 132.999L445.651 133.004L444.897 132.976ZM438.74 139.639L438.652 138.89L438.653 138.89L438.74 139.639ZM432.406 140.381L432.494 141.13L432.492 141.131L432.406 140.381ZM424.901 135.314L424.173 135.515L424.172 135.509L424.901 135.314ZM422.272 125.503L423 125.302L423.002 125.307L422.272 125.503ZM417.205 120.556L417.023 121.288L417.018 121.287L417.205 120.556ZM415.742 120.151L415.524 120.873L415.523 120.873L415.742 120.151ZM408.864 121.797L408.339 121.255L408.341 121.253L408.864 121.797ZM401.593 128.84L402.118 129.383L402.116 129.384L401.593 128.84ZM392.536 129.36L392.078 129.96L392.074 129.957L392.536 129.36ZM387.469 125.446L387.007 126.043L387.005 126.042L387.469 125.446ZM385.645 116.578L384.984 116.214L384.986 116.209L385.645 116.578ZM390.61 107.711L391.272 108.075L391.269 108.08L390.61 107.711ZM390.426 100.687L389.785 101.085L389.783 101.082L390.426 100.687ZM389.077 98.3119L388.409 98.6621L388.406 98.6568L389.077 98.3119ZM383.098 94.5117L383.12 93.757L383.126 93.7571L383.098 94.5117ZM372.964 94.2203L372.943 94.975L372.939 94.9749L372.964 94.2203ZM366.282 88.0893L365.533 88.1794L365.532 88.1771L366.282 88.0893ZM365.535 81.7112L364.785 81.7991L364.785 81.7959L365.535 81.7112ZM370.634 74.2057L370.436 73.4771L370.439 73.4763L370.634 74.2057ZM380.419 71.5899L380.62 72.3179L380.614 72.3193L380.419 71.5899ZM385.366 66.5229L384.633 66.3401L384.635 66.3336L385.366 66.5229ZM386.132 63.9071L385.415 63.6699L385.416 63.6679L386.132 63.9071ZM384.688 57.0223L385.245 56.512L385.248 56.5155L384.688 57.0223ZM377.816 49.5295L377.26 50.0399L377.257 50.0375L377.816 49.5295ZM377.55 40.466L376.963 39.9917L376.964 39.9897L377.55 40.466ZM381.597 35.4877L381.011 35.0114L381.013 35.0091L381.597 35.4877ZM390.528 33.9042L390.912 33.2541L390.914 33.2555L390.528 33.9042ZM399.23 39.0852L398.849 39.7371L398.844 39.734L399.23 39.0852ZM406.299 39.0852L405.918 38.4333L405.927 38.428L406.299 39.0852ZM407.629 38.3569L407.28 37.6873L407.284 37.6851L407.629 38.3569ZM411.429 32.3778L412.184 32.4L412.184 32.4046L411.429 32.3778ZM411.727 22.2439L410.972 22.2217L410.972 22.2179L411.727 22.2439ZM417.839 15.5681L417.747 14.8187L417.752 14.8182L417.839 15.5681ZM424.211 14.8271L424.123 14.0771L424.125 14.0769L424.211 14.8271ZM431.722 19.9194L432.451 19.7211L432.452 19.7266L431.722 19.9194ZM424.914 48.5035L425.001 49.2534L424.914 48.5035ZM432.452 19.7266L435.037 29.5122L433.577 29.8978L430.992 20.1121L432.452 19.7266ZM435.034 29.5046C435.634 31.6844 437.363 33.3717 439.556 33.9191L439.191 35.3842C436.468 34.7048 434.323 32.6107 433.579 29.9053L435.034 29.5046ZM439.561 33.9203C440.062 34.0488 440.558 34.1839 441.047 34.3254L440.627 35.7759C440.153 35.6387 439.673 35.5077 439.186 35.383L439.561 33.9203ZM441.056 34.3281C443.216 34.9832 445.561 34.4238 447.193 32.8643L448.237 33.9561C446.211 35.8919 443.299 36.5863 440.618 35.7732L441.056 34.3281ZM447.191 32.8668L454.494 25.8237L455.542 26.9105L448.239 33.9537L447.191 32.8668ZM454.494 25.8231C457.24 23.1804 461.503 22.936 464.533 25.2475L463.617 26.448C461.18 24.5885 457.75 24.7852 455.541 26.9111L454.494 25.8231ZM464.537 25.2503L469.604 29.1645L468.68 30.3595L463.614 26.4452L464.537 25.2503ZM469.603 29.1637C472.621 31.4871 473.482 35.671 471.625 38.9971L470.307 38.2613C471.798 35.5888 471.107 32.2271 468.682 30.3603L469.603 29.1637ZM471.625 38.9981L466.659 47.8653L465.342 47.1275L470.307 38.2603L471.625 38.9981ZM466.662 47.8603C465.581 49.8261 465.643 52.2223 466.826 54.1289L465.543 54.9248C464.073 52.5547 463.995 49.5761 465.339 47.1325L466.662 47.8603ZM466.829 54.1343C467.31 54.9242 467.767 55.7292 468.201 56.5491L466.866 57.2549C466.446 56.4618 466.004 55.6833 465.539 54.9194L466.829 54.1343ZM468.205 56.5567C469.239 58.5685 471.279 59.8651 473.54 59.9477L473.485 61.4567C470.678 61.3541 468.146 59.7446 466.862 57.2473L468.205 56.5567ZM473.534 59.9476L483.668 60.2452L483.624 61.7546L473.49 61.4569L473.534 59.9476ZM483.672 60.2453C487.479 60.3739 490.623 63.2591 491.078 67.0408L489.579 67.2211C489.213 64.1789 486.683 61.8579 483.621 61.7545L483.672 60.2453ZM491.078 67.0431L491.826 73.4212L490.326 73.5969L489.578 67.2188L491.078 67.0431ZM491.826 73.4241C492.253 77.1989 489.872 80.7239 486.21 81.7359L485.808 80.2804C488.753 79.4663 490.669 76.6307 490.326 73.594L491.826 73.4241ZM486.204 81.7374L476.419 84.3596L476.028 82.901L485.813 80.2789L486.204 81.7374ZM476.424 84.3582C474.244 84.9582 472.556 86.6865 472.009 88.8801L470.544 88.5145C471.223 85.792 473.317 83.647 476.023 82.9024L476.424 84.3582ZM472.008 88.8853C471.776 89.7868 471.518 90.6773 471.227 91.5566L469.793 91.0823C470.072 90.2388 470.321 89.3813 470.545 88.5093L472.008 88.8853ZM471.226 91.5593C470.513 93.6868 471.003 96.0334 472.508 97.6979L471.388 98.7105C469.517 96.6413 468.908 93.7244 469.794 91.0797L471.226 91.5593ZM472.505 97.6942L479.364 105.181L478.251 106.201L471.391 98.7143L472.505 97.6942ZM479.366 105.182C481.932 108.001 482.057 112.271 479.66 115.235L478.486 114.286C480.414 111.901 480.313 108.467 478.249 106.199L479.366 105.182ZM479.659 115.237L475.612 120.215L474.44 119.263L478.487 114.284L479.659 115.237ZM475.61 120.217C473.195 123.164 468.992 123.909 465.712 121.972L466.479 120.672C469.118 122.23 472.5 121.631 474.442 119.26L475.61 120.217ZM465.709 121.971L457.006 116.784L457.78 115.486L466.482 120.674L465.709 121.971ZM457.01 116.786C455.065 115.641 452.652 115.641 450.708 116.786L449.942 115.484C452.359 114.061 455.358 114.061 457.776 115.484L457.01 116.786ZM450.696 116.792C450.252 117.043 449.803 117.287 449.351 117.529L448.638 116.198C449.086 115.958 449.523 115.721 449.953 115.478L450.696 116.792ZM449.339 117.535C447.326 118.568 446.029 120.608 445.949 122.869L444.44 122.816C444.539 120.008 446.15 117.474 448.65 116.192L449.339 117.535ZM445.949 122.865L445.651 132.999L444.142 132.954L444.44 122.82L445.949 122.865ZM445.651 133.004C445.51 136.812 442.613 139.949 438.827 140.389L438.653 138.89C441.698 138.535 444.029 136.012 444.142 132.948L445.651 133.004ZM438.828 140.389L432.494 141.13L432.319 139.631L438.652 138.89L438.828 140.389ZM432.492 141.131C428.715 141.562 425.186 139.179 424.173 135.515L425.629 135.112C426.443 138.06 429.282 139.977 432.321 139.63L432.492 141.131ZM424.172 135.509L421.543 125.698L423.002 125.307L425.63 135.118L424.172 135.509ZM421.545 125.703C420.945 123.523 419.216 121.836 417.023 121.288L417.388 119.823C420.111 120.503 422.256 122.597 423 125.302L421.545 125.703ZM417.018 121.287C416.517 121.159 416.018 121.023 415.524 120.873L415.961 119.428C416.429 119.57 416.906 119.7 417.393 119.825L417.018 121.287ZM415.523 120.873C413.362 120.217 411.016 120.779 409.387 122.342L408.341 121.253C410.365 119.311 413.279 118.614 415.962 119.428L415.523 120.873ZM409.389 122.34L402.118 129.383L401.068 128.298L408.339 121.255L409.389 122.34ZM402.116 129.384C399.371 132.027 395.108 132.272 392.078 129.96L392.994 128.76C395.431 130.619 398.86 130.422 401.069 128.296L402.116 129.384ZM392.074 129.957L387.007 126.043L387.93 124.848L392.997 128.762L392.074 129.957ZM387.005 126.042C384.005 123.709 383.147 119.541 384.984 116.214L386.306 116.943C384.828 119.62 385.518 122.973 387.932 124.849L387.005 126.042ZM384.986 116.209L389.951 107.342L391.269 108.08L386.303 116.947L384.986 116.209ZM389.948 107.348C391.028 105.383 390.965 102.99 389.785 101.085L391.068 100.289C392.536 102.658 392.613 105.633 391.272 108.075L389.948 107.348ZM389.783 101.082C389.297 100.291 388.839 99.4839 388.409 98.6621L389.746 97.9617C390.161 98.7529 390.602 99.5296 391.07 100.292L389.783 101.082ZM388.406 98.6568C387.372 96.6444 385.332 95.3476 383.071 95.2662L383.126 93.7571C385.933 93.8583 388.466 95.4684 389.749 97.967L388.406 98.6568ZM383.077 95.2663L372.943 94.975L372.986 93.4656L383.12 93.757L383.077 95.2663ZM372.939 94.9749C369.132 94.8463 365.988 91.9612 365.533 88.1794L367.032 87.9991C367.398 91.0413 369.927 93.3623 372.99 93.4657L372.939 94.9749ZM365.532 88.1771L364.785 81.7991L366.285 81.6233L367.032 88.0014L365.532 88.1771ZM364.785 81.7959C364.357 78.0083 366.757 74.4753 370.436 73.4771L370.831 74.9344C367.872 75.7374 365.941 78.5795 366.285 81.6265L364.785 81.7959ZM370.439 73.4763L380.224 70.8605L380.614 72.3193L370.829 74.9351L370.439 73.4763ZM380.219 70.862C382.399 70.262 384.086 68.5337 384.633 66.3401L386.098 66.7057C385.419 69.4282 383.325 71.5732 380.62 72.3178L380.219 70.862ZM384.635 66.3336C384.867 65.4394 385.125 64.5492 385.415 63.6699L386.849 64.1443C386.57 64.9878 386.321 65.8457 386.097 66.7122L384.635 66.3336ZM385.416 63.6679C386.127 61.5393 385.635 59.1926 384.129 57.5292L385.248 56.5155C387.121 58.5833 387.732 61.5004 386.848 64.1464L385.416 63.6679ZM384.132 57.5327L377.26 50.0399L378.372 49.0192L385.245 56.512L384.132 57.5327ZM377.257 50.0375C374.695 47.2197 374.57 42.9549 376.963 39.9917L378.137 40.9403C376.213 43.324 376.314 46.7549 378.375 49.0216L377.257 50.0375ZM376.964 39.9897L381.011 35.0114L382.183 35.9639L378.136 40.9422L376.964 39.9897ZM381.013 35.0091C383.428 32.0625 387.631 31.3174 390.912 33.2541L390.144 34.5544C387.505 32.9964 384.124 33.5959 382.181 35.9662L381.013 35.0091ZM390.914 33.2555L399.617 38.4365L398.844 39.734L390.142 34.553L390.914 33.2555ZM399.611 38.4334C401.559 39.5717 403.97 39.5717 405.918 38.4334L406.68 39.7371C404.261 41.1505 401.268 41.1505 398.849 39.7371L399.611 38.4334ZM405.927 38.428C406.366 38.1798 406.819 37.9277 407.28 37.6873L407.978 39.0264C407.54 39.2547 407.105 39.4966 406.67 39.7425L405.927 38.428ZM407.284 37.6851C409.297 36.6526 410.594 34.6119 410.675 32.351L412.184 32.4046C412.084 35.2123 410.473 37.7464 407.973 39.0286L407.284 37.6851ZM410.674 32.3556L410.972 22.2217L412.481 22.266L412.184 32.4L410.674 32.3556ZM410.972 22.2179C411.103 18.4209 413.976 15.2828 417.747 14.8188L417.931 16.3175C414.898 16.6908 412.586 19.2152 412.481 22.2698L410.972 22.2179ZM417.752 14.8182L424.123 14.0771L424.298 15.577L417.926 16.3181L417.752 14.8182ZM424.125 14.0769C427.913 13.645 431.449 16.0423 432.451 19.7211L430.994 20.1177C430.188 17.1583 427.343 15.2297 424.296 15.5772L424.125 14.0769ZM399.961 80.908C401.788 96.5628 415.96 107.773 431.615 105.946L431.79 107.446C415.307 109.369 400.385 97.5662 398.461 81.083L399.961 80.908ZM431.615 105.946C447.27 104.119 458.48 89.9477 456.654 74.2928L458.153 74.1178C460.076 90.6011 448.273 105.522 431.79 107.446L431.615 105.946ZM456.654 74.2928C454.827 58.6378 440.656 47.4274 425.001 49.2534L424.826 47.7536C441.309 45.831 456.23 57.6346 458.153 74.1178L456.654 74.2928ZM425.001 49.2534C417.483 50.1303 410.621 53.9581 405.925 59.8945L404.741 58.9577C409.685 52.7072 416.91 48.6769 424.826 47.7536L425.001 49.2534ZM405.925 59.8945C401.229 65.831 399.084 73.3898 399.961 80.908L398.461 81.083C397.538 73.167 399.796 65.2083 404.741 58.9577L405.925 59.8945Z" fill="#231F20"/>
<path d="M474.247 64.4709C474.247 64.4709 486.535 62.3998 487.333 67.5047C488.131 72.6097 477.915 65.6046 476.477 68.6195C475.039 71.6343 469.446 64.8826 474.247 64.4709Z" fill="white"/>
<path d="M485.572 72.9264C485.572 72.9264 484.008 71.495 482.956 74.0475C481.905 76.6 487.143 74.3642 485.572 72.9264Z" fill="white"/>
<path d="M467.698 31.5989C467.698 31.5989 470.485 35.3991 466.298 39.7377C462.112 44.0763 465.943 30.9592 467.698 31.5989Z" fill="white"/>
<path d="M469.143 101.814C469.143 101.814 479.194 107.863 477.117 111.866C475.039 115.869 474.248 105.805 471.372 107.559C468.497 109.314 463.873 100.06 469.143 101.814Z" fill="white"/>
<path d="M465.146 99.7371C465.146 99.7371 464.772 97.2036 461.479 98.1853C458.185 99.167 463.873 101.333 465.146 99.7371Z" fill="white"/>
<path d="M439.615 69.4302C439.615 69.4302 446.474 75.0039 442.148 83.1427C437.822 91.2815 434.687 83.4594 436.98 80.1088C439.273 76.7583 433.547 66.0606 439.615 69.4302Z" fill="white"/>
<path d="M433.712 86.0182C433.712 86.0182 438.437 89.5208 435.675 90.9586C432.914 92.3963 429.082 87.931 433.712 86.0182Z" fill="white"/>
<path d="M442.325 125.116C442.699 125.414 444.561 134.078 442.325 134.142C440.09 134.205 440.729 123.837 442.325 125.116Z" fill="white"/>
<path d="M429.632 25.3728C429.632 25.3728 431.773 28.6917 430.677 30.5475C429.582 32.4032 426.51 26.9372 429.632 25.3728Z" fill="white"/>
<path d="M397.964 42.4485C397.964 42.4485 401.315 43.2465 400.992 45.6153C400.669 47.9842 397.964 42.4485 397.964 42.4485Z" fill="white"/>
<path d="M389.825 77.5944C389.825 77.5944 386.374 75.3839 384.758 78.9434C383.143 82.503 391.339 82.066 389.825 77.5944Z" fill="white"/>
<path d="M409.067 108.997C409.067 108.997 412.005 111.885 411.049 113.234C410.093 114.583 405.646 108.674 409.067 108.997Z" fill="white"/>
<path d="M460.794 70.7855C462.175 77.2143 462.618 85.6951 458.444 92.6622" stroke="white" stroke-width="1.51" stroke-linecap="round"/>
<path d="M457.608 60.8605C458.208 62.191 458.737 63.5526 459.192 64.9395" stroke="white" stroke-width="1.51" stroke-linecap="round"/>
<path d="M440.254 108.984C437.946 110.298 435.305 110.912 432.654 110.751" stroke="white" stroke-width="1.51" stroke-linecap="round"/>
<path d="M473.449 116.515C473.449 116.515 472.277 121.018 468.61 118.972" stroke="white" stroke-width="1.51" stroke-linecap="round"/>
<path d="M438.5 136.764C438.5 136.764 428.847 139.183 427.688 134.142" stroke="white" stroke-width="1.51" stroke-linecap="round"/>
<path d="M404.506 119.505L400.174 125.002" stroke="white" stroke-width="1.51" stroke-linecap="round"/>
<path d="M475.362 79.9504C475.362 79.9504 469.142 82.0278 469.142 85.22" stroke="white" stroke-width="1.51" stroke-linecap="round"/>
<path d="M464.411 29.8443C464.411 29.8443 459.977 26.3101 457.608 28.0772" stroke="white" stroke-width="1.51" stroke-linecap="round"/>
<path d="M392.238 185.932C388.458 179.578 390.531 171.363 396.874 167.565C398.807 166.4 401.004 165.746 403.259 165.665C403.1 165.747 402.936 165.823 402.784 165.918C397.52 169.055 395.053 175.361 396.79 181.237C398.527 187.113 404.027 191.064 410.15 190.835C403.831 194.272 395.925 192.109 392.238 185.932Z" fill="#3E8FC6"/>
<path d="M439.164 193.603L444.617 194.236C443.582 195.557 441.933 196.244 440.266 196.048L434.825 195.414C435.867 194.108 437.503 193.425 439.164 193.603Z" fill="#3E8FC6"/>
<path d="M413.836 208.063C414.184 208.012 414.532 207.961 414.881 207.898C416.617 207.587 418.386 208.236 419.511 209.595L423.976 215.068C424.571 215.799 425.368 216.339 426.269 216.619L424.293 217.798C422.233 219.031 419.581 218.565 418.067 216.702L413.601 211.229C412.913 210.385 411.956 209.802 410.89 209.576C411.669 208.749 412.709 208.214 413.836 208.063Z" fill="#3E8FC6"/>
<path d="M430.93 154.042L434.198 152.68C435.045 152.331 435.975 152.23 436.877 152.389L433.584 153.751C432.745 154.101 431.824 154.202 430.93 154.042Z" fill="#3E8FC6"/>
<path d="M390.603 201.786C391.104 202.172 391.617 202.552 392.136 202.907C393.597 203.889 394.41 205.587 394.258 207.341L393.624 214.396C393.417 216.786 394.99 218.968 397.323 219.527L400.769 220.344C399.626 221.909 397.658 222.637 395.771 222.193L391.414 221.161C389.081 220.602 387.508 218.42 387.715 216.031L388.348 208.975C388.495 207.22 387.681 205.524 386.22 204.541C385.701 204.186 385.188 203.806 384.687 203.42C384.037 202.912 383.271 202.573 382.458 202.432L385.707 201.083C387.346 200.415 389.218 200.684 390.603 201.786Z" fill="#3E8FC6"/>
<path d="M409.389 143.763C408.728 145.398 407.237 146.55 405.488 146.777C405.139 146.822 404.791 146.879 404.443 146.936C403.812 147.043 403.168 147.03 402.542 146.898C402.955 146.463 403.282 145.953 403.505 145.397L406.115 138.841C407.002 136.611 409.392 135.371 411.726 135.928L412.632 136.143C412.378 136.47 412.165 136.828 411.999 137.207L409.389 143.763Z" fill="#3E8FC6"/>
<path d="M383.288 146.967L385.992 153.466C386.662 155.101 386.393 156.97 385.289 158.349C385.074 158.628 384.858 158.913 384.656 159.198C383.626 160.629 381.905 161.396 380.152 161.206L378.569 161.066C378.627 161.006 378.682 160.943 378.734 160.876C378.936 160.591 379.152 160.306 379.367 160.028C380.471 158.648 380.74 156.779 380.07 155.144L377.365 148.621C376.448 146.405 377.295 143.851 379.354 142.623L383.193 140.323C384.381 139.618 385.815 139.454 387.132 139.874L385.264 140.988C383.219 142.22 382.379 144.76 383.288 146.967Z" fill="#3E8FC6"/>
<path d="M366.098 193.368L371.602 188.935C372.962 187.811 373.61 186.041 373.299 184.305C373.192 183.671 373.103 183.038 373.033 182.405C372.86 180.659 371.758 179.143 370.152 178.44L363.615 175.634C361.404 174.686 360.227 172.256 360.854 169.934L362.006 165.608C362.625 163.29 364.848 161.775 367.232 162.048L368.79 162.232C368.38 162.745 368.082 163.338 367.916 163.973L366.763 168.299C366.131 170.623 367.309 173.056 369.524 174L376.036 176.787C377.642 177.49 378.744 179.006 378.917 180.752C378.987 181.385 379.076 182.018 379.183 182.652C379.494 184.388 378.846 186.157 377.486 187.282L372.007 191.747C370.15 193.264 369.683 195.913 370.912 197.973L373.211 201.811C373.929 203.025 375.145 203.861 376.536 204.098L373.299 205.434C371.085 206.355 368.53 205.511 367.301 203.452L365.002 199.607C363.767 197.544 364.233 194.887 366.098 193.368Z" fill="#3E8FC6"/>
<path d="M414.222 196.586C422.503 191.646 426.201 181.587 423.089 172.46C419.978 163.333 410.907 157.627 401.333 158.774C408.665 155.502 417.233 156.831 423.23 162.169C429.227 167.508 431.539 175.865 429.139 183.527C426.738 191.188 420.071 196.732 412.1 197.694C412.828 197.367 413.537 196.997 414.222 196.586Z" fill="#5DA9E8"/>
<path d="M398.147 184.298C394.366 177.944 396.44 169.729 402.783 165.931C402.935 165.836 403.1 165.76 403.258 165.677C409.377 165.457 414.868 169.407 416.605 175.277C418.342 181.148 415.884 187.45 410.631 190.594C410.472 190.689 410.308 190.759 410.149 190.847C405.252 191.024 400.648 188.513 398.147 184.298Z" fill="#5DA9E8"/>
<path fill-rule="evenodd" clip-rule="evenodd" d="M370.912 197.96L373.211 201.799C373.93 203.02 375.151 203.862 376.549 204.098L379.836 202.73C380.678 202.385 381.6 202.286 382.496 202.445L385.745 201.095C387.383 200.43 389.252 200.699 390.635 201.799C391.135 202.185 391.648 202.565 392.168 202.92C393.629 203.901 394.441 205.599 394.29 207.353L393.656 214.409C393.449 216.799 395.022 218.981 397.355 219.539L400.801 220.356C401.057 220.031 401.27 219.673 401.434 219.292L404.044 212.731C404.709 211.097 406.202 209.948 407.952 209.722C408.3 209.671 408.648 209.621 408.997 209.557C409.627 209.451 410.272 209.466 410.897 209.602C411.676 208.774 412.716 208.24 413.842 208.088C414.19 208.037 414.539 207.987 414.887 207.923C416.623 207.612 418.393 208.261 419.517 209.621L423.982 215.093C424.577 215.824 425.375 216.364 426.275 216.645L428.137 215.53C430.2 214.301 431.047 211.743 430.126 209.526L427.421 203.002C426.756 201.367 427.025 199.5 428.124 198.119C428.2 198.018 428.277 197.916 428.354 197.815C428.489 197.637 428.625 197.458 428.758 197.276C429.784 195.844 431.503 195.076 433.255 195.268L434.826 195.446C435.865 194.137 437.502 193.452 439.164 193.628L444.617 194.261C445.026 193.746 445.325 193.154 445.498 192.52L446.644 188.194C447.271 185.871 446.094 183.441 443.883 182.493L437.372 179.694C435.764 178.991 434.662 177.475 434.49 175.729C434.426 175.096 434.338 174.462 434.23 173.829C433.917 172.09 434.566 170.318 435.928 169.192L441.4 164.759C443.26 163.243 443.727 160.592 442.496 158.533L440.178 154.663C439.454 153.455 438.24 152.623 436.852 152.383L433.559 153.745C432.72 154.094 431.799 154.196 430.905 154.036L427.649 155.385C426.014 156.051 424.147 155.782 422.766 154.682C422.266 154.289 421.753 153.916 421.227 153.555C419.77 152.569 418.959 150.874 419.105 149.121L419.739 142.065C419.926 139.682 418.343 137.52 416.014 136.979L412.569 136.162C412.314 136.489 412.102 136.847 411.935 137.226L409.326 143.782C408.664 145.417 407.173 146.569 405.424 146.796C405.076 146.841 404.728 146.898 404.379 146.955L404.379 146.955C403.749 147.062 403.104 147.049 402.479 146.917C401.702 147.743 400.664 148.277 399.54 148.431C399.192 148.475 398.844 148.532 398.495 148.589C396.756 148.906 394.982 148.257 393.859 146.891L389.425 141.419C388.829 140.691 388.032 140.154 387.133 139.874L385.264 140.988C383.205 142.217 382.358 144.771 383.275 146.986L385.98 153.51C386.65 155.145 386.38 157.014 385.277 158.393C385.061 158.672 384.846 158.957 384.643 159.242C383.613 160.674 381.893 161.441 380.14 161.25L378.569 161.066C377.525 162.358 375.894 163.027 374.243 162.84L368.79 162.206C368.38 162.72 368.083 163.313 367.916 163.948L366.763 168.274C366.131 170.597 367.31 173.031 369.525 173.974L376.036 176.774C377.643 177.478 378.744 178.993 378.918 180.739C378.987 181.372 379.076 182.006 379.184 182.639C379.495 184.376 378.846 186.145 377.486 187.269L372.008 191.734C370.15 193.251 369.684 195.9 370.912 197.96ZM412.081 197.694C402.638 201.919 391.527 198.411 386.221 189.53H386.202C382.653 183.59 382.354 176.258 385.405 170.048C388.456 163.838 394.444 159.595 401.314 158.774C408.646 155.502 417.215 156.831 423.212 162.169C429.208 167.508 431.52 175.865 429.12 183.527C426.719 191.188 420.052 196.732 412.081 197.694Z" fill="#5DA9E8"/>
<path fill-rule="evenodd" clip-rule="evenodd" d="M403.752 192.469C396.344 192.469 390.338 186.463 390.338 179.054C390.338 171.645 396.344 165.639 403.752 165.639C411.161 165.639 417.167 171.645 417.167 179.054C417.167 186.463 411.161 192.469 403.752 192.469Z" stroke="#231F20" stroke-width="1.51"/>
<path d="M393.872 146.904L393.289 147.384L393.285 147.379L393.872 146.904ZM398.508 148.602L398.372 147.859L398.386 147.857L398.508 148.602ZM399.553 148.443L399.65 149.192L399.648 149.192L399.553 148.443ZM403.455 145.428L404.156 145.708L404.155 145.711L403.455 145.428ZM406.064 138.873L406.766 139.152L406.766 139.152L406.064 138.873ZM411.676 135.96L411.501 136.694L411.501 136.694L411.676 135.96ZM416.027 136.992L415.854 137.727L415.853 137.727L416.027 136.992ZM419.739 142.065L420.491 142.123L420.491 142.133L419.739 142.065ZM419.105 149.121L418.353 149.058L418.353 149.054L419.105 149.121ZM421.227 153.555L421.65 152.929L421.654 152.932L421.227 153.555ZM422.766 154.682L423.232 154.088L423.236 154.091L422.766 154.682ZM427.649 155.385L427.939 156.082L427.934 156.084L427.649 155.385ZM434.173 152.674L433.883 151.977L433.885 151.976L434.173 152.674ZM440.178 154.663L440.825 154.275L440.825 154.275L440.178 154.663ZM442.496 158.533L443.143 158.145L443.144 158.146L442.496 158.533ZM441.4 164.759L441.877 165.344L441.875 165.346L441.4 164.759ZM435.928 169.193L435.447 168.611L435.452 168.606L435.928 169.193ZM434.23 173.829L434.973 173.695L434.974 173.702L434.23 173.829ZM434.49 175.729L435.241 175.654L435.241 175.655L434.49 175.729ZM437.372 179.694L437.073 180.388L437.069 180.386L437.372 179.694ZM443.883 182.493L443.585 183.187L443.585 183.187L443.883 182.493ZM446.644 188.194L445.914 188L445.915 187.997L446.644 188.194ZM445.498 192.52L446.228 192.713L446.227 192.714L445.498 192.52ZM440.266 196.073L440.352 195.323L440.354 195.323L440.266 196.073ZM433.255 195.269L433.337 194.518L433.341 194.518L433.255 195.269ZM428.758 197.276L429.372 197.716L429.367 197.723L428.758 197.276ZM428.124 198.119L428.728 198.572L428.722 198.58L428.715 198.589L428.124 198.119ZM427.421 203.002L426.724 203.291L426.722 203.287L427.421 203.002ZM430.126 209.526L429.429 209.815L429.428 209.815L430.126 209.526ZM428.137 215.53L427.75 214.882L427.751 214.882L428.137 215.53ZM424.299 217.823L423.911 217.175L423.912 217.175L424.299 217.823ZM418.073 216.727L418.658 216.25L418.659 216.251L418.073 216.727ZM413.608 211.255L414.189 210.774L414.192 210.778L413.608 211.255ZM408.978 209.557L408.843 208.815L408.845 208.814L408.978 209.557ZM407.933 209.722L408.041 210.469L408.029 210.471L407.933 209.722ZM404.025 212.731L403.323 212.452L403.325 212.446L404.025 212.731ZM401.415 219.292L400.713 219.014L400.714 219.013L401.415 219.292ZM395.81 222.206L395.984 221.471L395.985 221.471L395.81 222.206ZM391.452 221.173L391.278 221.908L391.276 221.908L391.452 221.173ZM387.753 216.043L387.001 215.978L387.001 215.976L387.753 216.043ZM388.387 208.987L389.139 209.05L389.139 209.055L388.387 208.987ZM386.258 204.554L385.837 205.18L385.833 205.177L386.258 204.554ZM384.726 203.433L384.26 204.027L384.256 204.024L384.726 203.433ZM379.836 202.73L379.547 202.032L379.552 202.03L379.836 202.73ZM373.312 205.434L373.022 204.737L373.023 204.737L373.312 205.434ZM367.314 203.452L367.962 203.064L367.963 203.065L367.314 203.452ZM365.015 199.607L364.367 199.995L364.367 199.994L365.015 199.607ZM366.111 193.381L365.633 192.796L365.636 192.794L366.111 193.381ZM371.602 188.935L372.083 189.517L372.077 189.522L371.602 188.935ZM373.3 184.305L372.556 184.438L372.555 184.431L373.3 184.305ZM373.034 182.405L372.283 182.487L372.282 182.479L373.034 182.405ZM370.152 178.44L370.45 177.746L370.455 177.748L370.152 178.44ZM363.615 175.634L363.913 174.94L363.913 174.94L363.615 175.634ZM360.854 169.934L361.583 170.128L361.583 170.13L360.854 169.934ZM362.007 165.608L361.277 165.413L361.277 165.413L362.007 165.608ZM367.232 162.048L367.318 161.298L367.319 161.298L367.232 162.048ZM374.243 162.859L374.162 163.609L374.157 163.609L374.243 162.859ZM378.747 160.851L379.362 161.289L379.36 161.292L378.747 160.851ZM379.38 160.002L378.783 159.541L378.791 159.531L379.38 160.002ZM380.083 155.119L380.781 154.83L380.782 154.833L380.083 155.119ZM377.379 148.595L376.681 148.884L376.681 148.884L377.379 148.595ZM379.367 142.597L379.755 143.245L379.754 143.246L379.367 142.597ZM383.206 140.298L382.818 139.65L382.823 139.647L383.206 140.298ZM386.221 189.568L385.572 189.955L385.466 189.777V189.568H386.221ZM393.276 161.56L392.888 160.913L392.889 160.912L393.276 161.56ZM386.221 189.53L386.869 189.144L386.976 189.322V189.53H386.221ZM390.025 140.957L394.458 146.429L393.285 147.379L388.851 141.907L390.025 140.957ZM394.455 146.425C395.404 147.578 396.903 148.127 398.372 147.859L398.644 149.344C396.635 149.711 394.586 148.961 393.289 147.384L394.455 146.425ZM398.386 147.857C398.732 147.8 399.094 147.741 399.458 147.694L399.648 149.192C399.316 149.235 398.98 149.289 398.63 149.347L398.386 147.857ZM399.456 147.695C400.935 147.503 402.196 146.529 402.754 145.146L404.155 145.711C403.392 147.6 401.67 148.931 399.65 149.192L399.456 147.695ZM402.753 145.149L405.363 138.594L406.766 139.152L404.156 145.708L402.753 145.149ZM405.363 138.594C406.389 136.016 409.152 134.581 411.851 135.225L411.501 136.694C409.531 136.224 407.514 137.271 406.766 139.152L405.363 138.594ZM411.85 135.225L416.201 136.257L415.853 137.727L411.501 136.694L411.85 135.225ZM416.2 136.257C418.88 136.888 420.702 139.377 420.491 142.123L418.986 142.008C419.139 140.004 417.81 138.187 415.854 137.727L416.2 136.257ZM420.491 142.133L419.857 149.189L418.353 149.054L418.987 141.998L420.491 142.133ZM419.858 149.184C419.734 150.665 420.419 152.097 421.65 152.929L420.804 154.18C419.121 153.041 418.184 151.083 418.353 149.058L419.858 149.184ZM421.654 152.932C422.192 153.301 422.718 153.684 423.232 154.088L422.3 155.276C421.814 154.894 421.314 154.53 420.8 154.177L421.654 152.932ZM423.236 154.091C424.404 155.021 425.982 155.248 427.365 154.686L427.934 156.084C426.046 156.853 423.89 156.543 422.296 155.273L423.236 154.091ZM427.36 154.688L433.883 151.977L434.463 153.371L427.939 156.082L427.36 154.688ZM433.885 151.976C436.449 150.919 439.4 151.896 440.825 154.275L439.53 155.051C438.489 153.314 436.333 152.6 434.461 153.372L433.885 151.976ZM440.825 154.275L443.143 158.145L441.848 158.921L439.53 155.051L440.825 154.275ZM443.144 158.146C444.567 160.527 444.028 163.592 441.877 165.344L440.923 164.174C442.493 162.895 442.886 160.658 441.848 158.92L443.144 158.146ZM441.875 165.346L436.403 169.779L435.452 168.606L440.925 164.172L441.875 165.346ZM436.409 169.775C435.257 170.726 434.708 172.225 434.973 173.695L433.487 173.963C433.125 171.956 433.875 169.91 435.447 168.611L436.409 169.775ZM434.974 173.702C435.085 174.35 435.176 175.001 435.241 175.654L433.739 175.804C433.677 175.19 433.591 174.574 433.486 173.955L434.974 173.702ZM435.241 175.655C435.386 177.129 436.317 178.409 437.674 179.002L437.069 180.386C435.211 179.574 433.937 177.821 433.738 175.803L435.241 175.655ZM437.67 179L444.181 181.8L443.585 183.187L437.073 180.388L437.67 179ZM444.18 181.8C446.737 182.896 448.098 185.705 447.373 188.39L445.915 187.997C446.444 186.037 445.451 183.987 443.585 183.187L444.18 181.8ZM447.374 188.387L446.228 192.713L444.768 192.326L445.914 188L447.374 188.387ZM446.227 192.714C445.511 195.396 442.935 197.146 440.178 196.823L440.354 195.323C442.366 195.559 444.246 194.282 444.768 192.325L446.227 192.714ZM440.18 196.823L433.169 196.019L433.341 194.518L440.352 195.323L440.18 196.823ZM433.172 196.019C431.692 195.856 430.239 196.505 429.372 197.716L428.144 196.837C429.329 195.182 431.314 194.296 433.337 194.518L433.172 196.019ZM429.367 197.723C429.156 198.011 428.928 198.306 428.728 198.572L427.52 197.666C427.739 197.374 427.942 197.112 428.149 196.83L429.367 197.723ZM428.715 198.589C427.785 199.757 427.558 201.335 428.121 202.717L426.722 203.287C425.954 201.399 426.264 199.243 427.534 197.648L428.715 198.589ZM428.119 202.713L430.823 209.237L429.428 209.815L426.724 203.291L428.119 202.713ZM430.823 209.236C431.888 211.8 430.908 214.757 428.524 216.179L427.751 214.882C429.491 213.844 430.206 211.686 429.429 209.815L430.823 209.236ZM428.524 216.178L424.686 218.471L423.912 217.175L427.75 214.882L428.524 216.178ZM424.687 218.471C422.306 219.897 419.238 219.358 417.487 217.203L418.659 216.251C419.936 217.822 422.174 218.216 423.911 217.175L424.687 218.471ZM417.488 217.205L413.023 211.732L414.192 210.778L418.658 216.25L417.488 217.205ZM413.026 211.736C412.075 210.586 410.579 210.038 409.111 210.301L408.845 208.814C410.849 208.455 412.892 209.204 414.189 210.774L413.026 211.736ZM409.113 210.3C408.749 210.366 408.387 210.419 408.041 210.469L407.824 208.975C408.174 208.924 408.509 208.875 408.843 208.815L409.113 210.3ZM408.029 210.471C406.549 210.662 405.287 211.634 404.724 213.015L403.325 212.446C404.094 210.56 405.817 209.234 407.836 208.973L408.029 210.471ZM404.726 213.01L402.117 219.571L400.714 219.013L403.323 212.452L404.726 213.01ZM402.117 219.571C401.093 222.149 398.332 223.584 395.635 222.94L395.985 221.471C397.953 221.941 399.967 220.894 400.713 219.014L402.117 219.571ZM395.636 222.941L391.278 221.908L391.626 220.439L395.984 221.471L395.636 222.941ZM391.276 221.908C388.58 221.262 386.762 218.74 387.001 215.978L388.505 216.108C388.331 218.126 389.659 219.968 391.628 220.439L391.276 221.908ZM387.001 215.976L387.635 208.92L389.139 209.055L388.505 216.111L387.001 215.976ZM387.634 208.925C387.758 207.443 387.07 206.01 385.837 205.18L386.68 203.927C388.367 205.063 389.308 207.023 389.139 209.05L387.634 208.925ZM385.833 205.177C385.301 204.814 384.774 204.43 384.26 204.027L385.192 202.839C385.678 203.22 386.178 203.584 386.684 203.93L385.833 205.177ZM384.256 204.024C383.086 203.094 381.505 202.866 380.12 203.429L379.552 202.03C381.442 201.262 383.599 201.572 385.196 202.842L384.256 204.024ZM380.125 203.427L373.602 206.132L373.023 204.737L379.547 202.032L380.125 203.427ZM373.602 206.131C371.042 207.197 368.087 206.22 366.666 203.839L367.963 203.065C368.999 204.802 371.155 205.514 373.022 204.737L373.602 206.131ZM366.666 203.839L364.367 199.995L365.663 199.22L367.962 203.064L366.666 203.839ZM364.367 199.994C362.947 197.612 363.486 194.55 365.633 192.796L366.588 193.966C365.021 195.246 364.627 197.482 365.664 199.221L364.367 199.994ZM365.636 192.794L371.127 188.348L372.077 189.522L366.586 193.968L365.636 192.794ZM371.121 188.353C372.271 187.402 372.819 185.906 372.557 184.438L374.043 184.172C374.402 186.176 373.653 188.219 372.083 189.517L371.121 188.353ZM372.555 184.431C372.445 183.784 372.355 183.136 372.283 182.487L373.784 182.322C373.852 182.941 373.939 183.559 374.044 184.178L372.555 184.431ZM372.282 182.479C372.136 181.006 371.206 179.725 369.849 179.131L370.455 177.748C372.311 178.561 373.585 180.313 373.785 182.33L372.282 182.479ZM369.854 179.134L363.318 176.328L363.913 174.94L370.45 177.746L369.854 179.134ZM363.318 176.328C360.762 175.232 359.401 172.422 360.125 169.737L361.583 170.13C361.054 172.09 362.047 174.14 363.913 174.94L363.318 176.328ZM360.124 169.739L361.277 165.413L362.736 165.802L361.583 170.128L360.124 169.739ZM361.277 165.413C361.992 162.734 364.563 160.983 367.318 161.298L367.146 162.798C365.135 162.568 363.258 163.846 362.736 165.802L361.277 165.413ZM367.319 161.298L374.33 162.109L374.157 163.609L367.145 162.798L367.319 161.298ZM374.325 162.108C375.808 162.269 377.263 161.621 378.134 160.41L379.36 161.292C378.171 162.944 376.185 163.829 374.162 163.609L374.325 162.108ZM378.131 160.414C378.342 160.117 378.564 159.823 378.783 159.541L379.977 160.464C379.765 160.739 379.557 161.015 379.362 161.289L378.131 160.414ZM378.791 159.531C379.723 158.365 379.95 156.786 379.384 155.405L380.782 154.833C381.555 156.721 381.245 158.881 379.97 160.474L378.791 159.531ZM379.386 155.408L376.681 148.884L378.076 148.306L380.781 154.83L379.386 155.408ZM376.681 148.884C375.621 146.322 376.599 143.37 378.981 141.949L379.754 143.246C378.017 144.283 377.302 146.437 378.076 148.307L376.681 148.884ZM378.979 141.95L382.818 139.65L383.594 140.946L379.755 143.245L378.979 141.95ZM382.823 139.647C385.217 138.24 388.28 138.797 390.025 140.957L388.851 141.906C387.576 140.328 385.337 139.921 383.588 140.949L382.823 139.647ZM386.869 189.181C390.949 196.012 398.743 199.712 406.615 198.556L406.835 200.05C398.358 201.295 389.966 197.311 385.572 189.955L386.869 189.181ZM406.615 198.556C414.487 197.399 420.888 191.614 422.832 183.899L424.296 184.268C422.203 192.576 415.311 198.805 406.835 200.05L406.615 198.556ZM422.832 183.899C424.775 176.183 421.88 168.056 415.495 163.308L416.396 162.096C423.271 167.209 426.389 175.96 424.296 184.268L422.832 183.899ZM415.495 163.308C409.11 158.56 400.493 158.126 393.664 162.209L392.889 160.912C400.243 156.517 409.521 156.984 416.396 162.096L415.495 163.308ZM393.664 162.208C384.36 167.778 381.32 179.828 386.869 189.144L385.572 189.917C379.597 179.885 382.87 166.91 392.888 160.913L393.664 162.208ZM386.976 189.53V189.568H385.466V189.53H386.976Z" fill="#231F20"/>
<path d="M429.202 157.577C429.202 157.577 436.428 152.744 438.392 155.765C440.355 158.786 431.856 157.235 431.811 159.565C431.767 161.896 426.269 159.211 429.202 157.577Z" fill="white"/>
<path d="M438.829 159.717C438.829 159.717 437.416 159.249 437.48 161.174C437.543 163.1 440.235 160.18 438.829 159.717Z" fill="white"/>
<path d="M415.648 138.544C415.648 138.544 418.517 140.184 417.086 144.117C415.654 148.051 414.35 138.639 415.648 138.544Z" fill="white"/>
<path d="M436.631 182.778C436.631 182.778 444.757 183.76 444.574 186.889C444.39 190.018 441.014 183.855 439.69 185.793C438.367 187.731 432.78 183.165 436.631 182.778Z" fill="white"/>
<path d="M433.502 182.601C433.502 182.601 432.533 181.081 430.722 182.658C428.91 184.235 433.148 183.982 433.502 182.601Z" fill="white"/>
<path d="M408.604 170.624C408.604 170.624 414.558 172.207 414.146 178.617C413.734 185.027 409.497 180.948 409.998 178.161C410.498 175.374 403.79 170.231 408.604 170.624Z" fill="white"/>
<path d="M409.605 182.861C409.605 182.861 413.614 183.735 412.271 185.439C410.929 187.142 407.192 185.401 409.605 182.861Z" fill="white"/>
<path d="M426.244 205.257C426.567 205.339 430.222 210.324 428.822 210.995C427.422 211.667 424.863 204.902 426.244 205.257Z" fill="white"/>
<path d="M389.666 145.466C389.666 145.466 391.991 146.961 391.807 148.456C391.624 149.951 388.127 147.354 389.666 145.466Z" fill="white"/>
<path d="M374.409 165.373C374.409 165.373 376.771 164.924 377.252 166.539C377.734 168.154 374.409 165.373 374.409 165.373Z" fill="white"/>
<path d="M379.279 190.043C379.279 190.043 376.454 189.625 376.435 192.355C376.416 195.085 381.521 192.456 379.279 190.043Z" fill="white"/>
<path d="M400.491 204.509C400.491 204.509 403.183 205.51 402.961 206.638C402.739 207.765 398.204 205.289 400.491 204.509Z" fill="white"/>
<path d="M443.572 190.892C443.572 190.892 444.111 194.09 441.197 193.843" stroke="white" stroke-width="1.51" stroke-linecap="round"/>
<path d="M413.057 138.366C413.057 138.366 409.219 137.391 408.224 139.19" stroke="white" stroke-width="1.51" stroke-linecap="round"/>
<path d="M314.321 56.8957C314.321 56.8957 314.675 64.1034 313.782 64.4961C312.889 64.8888 313.18 55.1095 314.321 56.8957Z" fill="white"/>
<path d="M313.82 66.2252C313.301 66.5689 313.071 67.2142 313.256 67.8087C313.478 68.9804 314.644 67.0043 313.82 66.2252Z" fill="white"/>
<path d="M318.033 44.3865C318.033 44.3865 319.768 45.1022 319.705 46.3309C319.641 47.5597 319.344 52.405 319.344 52.405" stroke="white" stroke-width="1.51" stroke-linecap="round"/>
<path d="M318.804 95.6834C318.804 95.6834 320.603 106.083 322.396 109.675C324.188 113.266 320.603 115.54 318.804 110.511C317.006 105.482 318.69 100.674 316.056 100.744C313.421 100.814 317.614 89.7107 318.804 95.6834Z" fill="white"/>
<path d="M323.834 116.376C322.744 117.673 322.436 119.456 323.029 121.044C324.1 123.697 327.305 117.693 323.834 116.376Z" fill="white"/>
<path d="M305.732 129.062C305.732 129.062 307.79 143.668 304.56 148.063" stroke="white" stroke-width="1.51" stroke-linecap="round"/>
<path d="M269.838 108.401C269.838 108.401 274.158 124.869 272.543 126.909C270.928 128.948 271.466 117.699 269.838 117.655C268.21 117.611 267.311 103.347 269.838 108.401Z" fill="white"/>
<path d="M272.543 131.355C271.391 132.542 270.754 134.135 270.769 135.788C270.934 138.36 274.158 135.997 272.543 131.355Z" fill="white"/>
<path d="M234.325 115.216C234.325 115.216 236.143 125.35 233.109 129.151C230.075 132.951 233.907 124.02 230.715 122.418C227.523 120.816 233.793 108.351 234.325 115.216Z" fill="white"/>
<path d="M234.325 110.112C234.325 110.112 231.387 111.068 231.691 107.578C231.995 104.088 238.734 109.472 234.325 110.112Z" fill="white"/>
<path d="M266.856 188.149C266.856 188.149 263.112 205.985 258.805 204.49" stroke="white" stroke-width="1.51" stroke-linecap="round"/>
<path d="M344.899 227.475C344.899 227.475 360.442 234.987 360.689 254.856C360.936 274.725 354.951 237.863 344.899 239.776C334.848 241.688 336.045 223.555 344.899 227.475Z" fill="white"/>
<path d="M360.696 267.543C360.696 267.543 355.908 276.163 360.696 282.623C365.484 289.084 368.594 263.464 360.696 267.543Z" fill="white"/>
<path d="M221.379 301.168C221.379 301.168 218.51 337.682 203.904 345.58C189.299 353.479 218.029 311.727 217.547 297.653C217.066 283.58 223.178 289.875 221.379 301.168Z" fill="white"/>
<path d="M194.17 353.244C194.17 353.244 186.43 354.916 185.936 360.661C185.442 366.406 201.194 356.354 194.17 353.244Z" fill="white"/>
<path d="M289.524 222.668C289.524 222.668 268.679 221.345 253.162 229.471" stroke="#232323" stroke-width="1.51" stroke-linecap="round"/>
<path d="M145.488 293.935C143.246 302.119 138.844 309.947 130.199 310.403" stroke="#232323" stroke-width="1.51" stroke-linecap="round"/>
<path d="M147.762 274.94C147.785 277.673 147.658 280.405 147.382 283.124" stroke="#232323" stroke-width="1.51" stroke-linecap="round"/>
<path d="M206.78 154.555C206.78 154.555 198.622 147.588 197.014 149.412C195.405 151.236 204.152 154.916 201.935 157.07C199.718 159.223 211.847 158.324 206.78 154.555Z" fill="white"/>
<path d="M195.075 147.816C195.075 147.816 193.593 150.147 191.953 147.816C190.312 145.485 196.558 145.479 195.075 147.816Z" fill="white"/>
<path d="M178.943 120.797C178.943 120.797 176.625 130.728 186.784 140.552" stroke="white" stroke-width="1.51" stroke-linecap="round"/>
<path d="M249.748 216.17C249.748 216.17 253.219 221.452 248.906 223.675" stroke="white" stroke-width="1.51" stroke-linecap="round"/>
<path d="M195.05 203.75C195.05 203.75 190.768 207.752 187.405 216.164" stroke="white" stroke-width="1.51" stroke-linecap="round"/>
<path d="M199.75 195.49C201.193 196.666 202.146 198.337 202.423 200.177" stroke="white" stroke-width="1.51" stroke-linecap="round"/>
<path d="M190.921 188.149C191.647 188.966 192.197 189.923 192.536 190.962" stroke="white" stroke-width="1.51" stroke-linecap="round"/>
<path d="M181.782 181.011C182.168 181.529 182.491 182.09 182.744 182.683" stroke="white" stroke-width="1.51" stroke-linecap="round"/>
<path d="M163.375 170.757C163.375 170.757 153.957 170.915 150.524 173.924" stroke="white" stroke-width="1.51" stroke-linecap="round"/>
<path d="M142.956 189.277C140.815 189.784 138.908 189.714 137.547 188.707" stroke="white" stroke-width="1.51" stroke-linecap="round"/>
<path d="M161.538 178.098C161.538 178.098 154.407 184.229 147.604 187.535" stroke="white" stroke-width="1.51" stroke-linecap="round"/>
<path d="M225.984 247.674C225.984 247.674 227.251 259.708 225.984 263.869" stroke="white" stroke-width="1.51" stroke-linecap="round"/>
<path d="M371.229 295.791C371.229 295.791 375.302 313.982 371.229 313.982" stroke="white" stroke-width="1.51" stroke-linecap="round"/>
<path d="M267.178 59.7648C267.178 59.7648 263.91 54.0644 261.034 55.3755C258.159 56.6866 264.467 56.8892 262.713 58.726C260.958 60.5628 268.059 62.5579 267.178 59.7648Z" fill="white"/>
<path d="M258.564 54.0961C258.564 54.0961 256.581 53.0637 255.619 54.0961C254.656 55.1284 259.438 56.1228 258.564 54.0961Z" fill="white"/>
<path d="M65.8604 342.072C65.8604 342.072 67.0574 344.542 63.3902 352.206C59.723 359.869 65.987 338.303 65.8604 342.072Z" fill="white"/>
<path d="M61.4783 357.95C61.4783 357.95 63.068 355.417 61.4783 354.999C59.8885 354.581 60.5155 358.431 61.4783 357.95Z" fill="white"/>
<path d="M91.3987 356.481L77.3568 346.936" stroke="white" stroke-width="1.51" stroke-linecap="round"/>
<path d="M329.021 343.744C329.021 344.225 326.627 357.152 322.636 356.038C318.646 354.923 326.943 338.164 329.021 342.946" fill="white"/>
<path d="M320.724 358.457C320.724 358.457 317.051 361.941 317.557 363.853C318.064 365.766 322.32 360.243 320.724 358.457Z" fill="white"/>
<path d="M350.562 380.131C344.587 377.589 338.313 375.82 331.89 374.868" stroke="white" stroke-linecap="round"/>
<path d="M265.481 76.3781C265.481 76.3781 267.413 82.4902 268.23 83.9406C269.047 85.391 263.91 84.992 263.91 84.992" stroke="#232323" stroke-linecap="round"/>
<path d="M257.057 76.3154C257.041 75.658 258.442 75.0897 260.187 75.0462C261.932 75.0026 263.36 75.5002 263.376 76.1577C263.392 76.8151 261.991 77.3833 260.246 77.4269C258.501 77.4705 257.073 76.9728 257.057 76.3154Z" fill="white" stroke="#232323"/>
<path d="M261.326 75.1051C262.517 75.2444 263.372 75.6561 263.385 76.1628C263.397 76.6695 262.561 77.1129 261.383 77.3156C260.718 77.1636 260.237 76.7455 260.224 76.2388C260.211 75.7321 260.674 75.2888 261.326 75.1051Z" fill="#232323"/>
<path d="M267.671 76.6368C267.655 75.9794 269.056 75.4111 270.801 75.3676C272.546 75.324 273.974 75.8216 273.99 76.4791C274.006 77.1365 272.605 77.7047 270.86 77.7483C269.115 77.7919 267.687 77.2942 267.671 76.6368Z" fill="white" stroke="#232323" stroke-width="1.51"/>
<path d="M271.935 75.4219C273.126 75.5612 273.981 75.9729 273.993 76.4733C274.006 76.9736 273.17 77.4297 271.992 77.6323C271.327 77.4803 270.845 77.0623 270.833 76.5556C270.82 76.0489 271.282 75.6056 271.935 75.4219V75.4219Z" fill="#232323"/>
<path d="M266.602 89.0139C266.499 90.4496 265.638 91.7214 264.343 92.3501C263.048 92.9788 261.516 92.869 260.324 92.0619C259.132 91.2549 258.461 89.8733 258.564 88.4375L266.602 89.0139Z" fill="#232323"/>
<path d="M258.976 90.4707C259.505 89.8516 260.278 89.4951 261.092 89.4953C262.649 89.4953 263.91 90.7572 263.91 92.3138V92.5355C263.398 92.7108 262.855 92.7819 262.314 92.7445C260.873 92.6432 259.598 91.7746 258.976 90.4707Z" fill="#C62626"/>
<path fill-rule="evenodd" clip-rule="evenodd" d="M266.602 89.014C266.499 90.4498 265.638 91.7215 264.343 92.3502C263.048 92.979 261.516 92.8691 260.324 92.0621C259.132 91.255 258.461 89.8734 258.564 88.4376L266.602 89.014Z" stroke="#232323" stroke-width="1.51" stroke-linecap="round"/>
<path d="M165.123 68.7904C165.123 68.7904 126.83 71.5202 130.18 106.216" stroke="#232323" stroke-width="1.51"/>
<path d="M390.008 305.71C390.008 305.71 399.294 336.821 371.229 336.023" stroke="#232323" stroke-width="1.51"/>
<path d="M47.2396 310.39C47.2396 310.39 42.084 305.577 41.6089 325.224" stroke="#232323" stroke-width="1.51"/>
</svg>
