<svg width="539" height="420" viewBox="0 0 539 420" fill="none" xmlns="http://www.w3.org/2000/svg">
<path opacity="0.47" d="M504.715 323.114C504.715 323.114 342.109 486.36 86.8223 386.863C-78.0382 306.691 27.1017 156.024 122.64 175.64C218.177 195.255 170.402 44.5885 255.686 14.4526C340.969 -15.6833 430.237 39.4708 410.925 116.793C391.614 194.115 506.881 171.998 529.049 219.703C561.035 274.851 504.715 323.114 504.715 323.114Z" fill="#2293FC"/>
<path d="M48.7883 22.2494H300.649V209.772H48.7883L48.7883 22.2494Z" fill="#FC5480" stroke="#1E1E1E" stroke-width="1.24"/>
<path opacity="0.52" d="M300.649 209.772V35.8226C298.882 30.5972 297.172 26.0243 295.531 22.2494H285.397C287.677 48.6547 292.998 119.44 288.564 160.325C283.789 188.959 256.655 153.991 254.14 178.528C256.332 210.95 48.7883 202.083 48.7883 202.083V209.766L300.649 209.772Z" fill="#D11E5E"/>
<path d="M48.7883 22.2494H300.649V35.9809H48.7883L48.7883 22.2494Z" fill="white" stroke="#1E1E1E" stroke-width="1.24"/>
<path d="M90.4769 50.1685H248.617V157.335H90.4769V50.1685Z" fill="#E53068"/>
<path opacity="0.52" d="M248.617 53.4113C248.432 52.2586 248.235 51.1776 248.028 50.1685H233.461V90.3053C233.461 90.3053 233.328 96.2653 239.541 96.4617C245.748 96.9177 235.431 150.621 200.703 149.266C165.975 147.911 143.554 146.872 143.389 150.533C143.275 153.155 109.909 151.343 90.5023 153.066V157.297H248.617V53.4113Z" fill="#B21857"/>
<path fill-rule="evenodd" clip-rule="evenodd" d="M90.4769 50.1685H248.617V157.335H90.4769V50.1685Z" stroke="#1E1E1E"/>
<path d="M163.536 57.4269H234.348" stroke="white"/>
<path d="M163.536 71.9375H234.348" stroke="white"/>
<path d="M234.348 86.4544H163.536" stroke="white"/>
<path d="M163.536 100.971H234.348" stroke="white"/>
<path d="M163.536 115.488H234.348" stroke="white"/>
<path d="M163.536 129.999H234.348" stroke="white"/>
<path d="M163.536 144.516H234.348" stroke="white"/>
<path opacity="0.51" d="M98.1787 57.4269H157.089V120.327H98.1787L98.1787 57.4269Z" fill="white"/>
<path fill-rule="evenodd" clip-rule="evenodd" d="M95.4426 55.4951H154.353V118.395H95.4426L95.4426 55.4951Z" stroke="white" stroke-width="1.24" stroke-linecap="round"/>
<path opacity="0.51" d="M98.1787 125.882H157.089V144.452H98.1787L98.1787 125.882Z" fill="white"/>
<path fill-rule="evenodd" clip-rule="evenodd" d="M95.4426 123.526H154.353V142.096H95.4426L95.4426 123.526Z" stroke="white" stroke-width="1.24" stroke-linecap="round"/>
<path d="M158.666 103.524L158.533 90.7677L158.393 78.0052L75.4214 75.6554C62.7983 75.2944 52.2779 82.7112 52.373 91.9014C52.4743 101.085 63.1403 108.28 75.7634 107.647L158.666 103.524Z" fill="#F9DD12"/>
<path opacity="0.57" d="M97.5387 99.3371C73.5276 107.862 53.3483 96.4743 53.3293 96.4616C56.2302 103.34 65.3634 108.166 75.7571 107.647L85.188 107.178C97.0257 103.315 105.165 98.0957 97.5387 99.3371Z" fill="#F78B14"/>
<path opacity="0.57" d="M129.309 99.6285C122.836 99.8058 129.189 78.5942 131.665 77.2324L126.712 77.1058C120.29 83.1671 110.7 96.5186 111.955 105.848L161.598 103.403C152.554 94.0422 135.446 99.4765 129.309 99.6285V99.6285Z" fill="#F78B14"/>
<path fill-rule="evenodd" clip-rule="evenodd" d="M158.666 103.524L158.533 90.7677L158.393 78.0052L75.4214 75.6554C62.7983 75.2944 52.2779 82.7112 52.373 91.9014C52.4743 101.085 63.1403 108.28 75.7634 107.647L158.666 103.524Z" stroke="#1E1E1E" stroke-width="1.24"/>
<path d="M154.358 85.1496L153.345 86.9484Z" fill="white"/>
<path d="M154.358 85.1496L153.345 86.9484" stroke="#1E1E1E" stroke-width="1.24" stroke-linecap="round"/>
<path d="M156.227 99.4195L163.625 111.929C165.034 114.312 167.609 115.761 170.377 115.729L190.398 115.514C193.167 115.487 195.711 113.982 197.067 111.568L201.849 103.087C202.236 102.399 202.226 101.556 201.824 100.877C201.422 100.198 200.688 99.7847 199.898 99.7932L180.663 100.002L176.951 92.7438C176.251 91.3819 176.233 89.7703 176.901 88.3925L180.46 81.0581L199.702 80.8554C200.494 80.8536 201.225 80.4281 201.617 79.74C202.01 79.052 202.004 78.2065 201.602 77.5238L196.643 69.1443C195.228 66.7641 192.654 65.3164 189.885 65.3441L169.864 65.5594C167.096 65.5909 164.554 67.0945 163.194 69.5053L155.778 82.6795" fill="#F9DD12"/>
<path opacity="0.57" d="M190.398 115.514C193.167 115.487 195.711 113.982 197.067 111.568L201.849 103.087C202.236 102.399 202.226 101.556 201.824 100.877C201.422 100.198 200.688 99.7847 199.898 99.7932L190.562 99.8946C190.571 99.9447 190.586 99.9936 190.607 100.04C190.607 100.04 196.035 100.775 195.18 105.221C194.325 109.667 194.268 111.365 182.303 111.498C161.402 112.182 157.602 96.81 156.234 99.4639L163.625 111.954C165.034 114.337 167.609 115.786 170.377 115.754L190.398 115.514Z" fill="#F78B14"/>
<path opacity="0.57" d="M176.901 88.3925L180.46 81.0581L199.696 80.8554C200.488 80.8536 201.219 80.4281 201.611 79.74C202.004 79.052 201.998 78.2065 201.596 77.5238L196.637 69.1443C195.222 66.7641 192.648 65.3164 189.879 65.3441L182.082 65.4264C183.938 65.8951 192.672 68.3843 192.849 74.167C192.989 78.7526 181.404 72.9889 177.61 78.8096C173.816 84.6303 172.189 88.0315 173.43 90.8437C174.671 93.6558 178.909 100.61 180.682 100.009L176.971 92.7501C176.263 91.3896 176.237 89.775 176.901 88.3925V88.3925Z" fill="#F78B14"/>
<path d="M156.227 99.4195L163.625 111.929C165.034 114.312 167.609 115.761 170.377 115.729L190.398 115.514C193.167 115.487 195.711 113.982 197.067 111.568L201.849 103.087C202.236 102.399 202.226 101.556 201.824 100.877C201.422 100.198 200.688 99.7847 199.898 99.7932L180.663 100.002L176.951 92.7438C176.251 91.3819 176.233 89.7703 176.901 88.3925L180.46 81.0581L199.702 80.8554C200.494 80.8536 201.225 80.4281 201.617 79.74C202.01 79.052 202.004 78.2065 201.602 77.5238L196.643 69.1443C195.228 66.7641 192.654 65.3164 189.885 65.3441L169.864 65.5594C167.096 65.5909 164.554 67.0945 163.194 69.5053L155.778 82.6795" stroke="#1E1E1E" stroke-width="1.24" stroke-linecap="round"/>
<path d="M102.663 192.43C125.05 192.43 143.199 190.817 143.199 188.826C143.199 186.836 125.05 185.222 102.663 185.222C80.2757 185.222 62.1272 186.836 62.1272 188.826C62.1272 190.817 80.2757 192.43 102.663 192.43Z" fill="#1E1E1E" stroke="#1E1E1E" stroke-width="1.24" stroke-linecap="round"/>
<path d="M123.324 105.418C123.324 105.418 144.117 96.848 147.841 102.111C151.566 107.375 124.109 116.793 131.374 188.389C121.955 189.371 74.2942 188.389 74.2942 188.389C77.233 185.222 87.6964 138.233 80.1782 120.517C70.2723 97.1774 73.4455 70.24 87.8294 73.0522C93.9097 66.7755 100.775 64.4193 103.322 70.3034C107.641 67.3645 115.615 64.8754 117.383 70.5694C122.481 67.4025 129.151 67.8205 130.525 72.7228C131.899 77.6252 120.974 78.7399 123.324 105.418Z" fill="#72CEFC"/>
<path opacity="0.52" d="M91.7627 69.6193C92.1859 69.6908 92.6206 69.6052 92.9851 69.3786C95.7339 67.8142 99.1542 68.2766 97.6974 70.8544C94.4419 76.6054 94.7332 87.1257 97.8747 86.733C98.4638 86.391 98.2674 84.8329 98.2674 84.8329C97.6618 79.4753 99.5265 74.1332 103.334 70.316C103.258 70.1324 103.17 69.9613 103.081 69.7903C100.934 65.7177 96.437 66.2878 91.7627 69.6193H91.7627Z" fill="#35A5F9"/>
<path opacity="0.52" d="M118.554 99.7932C118.877 114.703 127.84 114.715 126.592 113.132C124.91 110.854 123.79 108.211 123.324 105.418C120.974 78.7399 131.893 77.6251 130.519 72.7228C129.423 68.8276 124.989 67.7889 120.651 69.0999C123.229 69.3153 126.985 70.2463 126.269 73.9009C125.224 79.3922 118.225 84.9089 118.554 99.7932V99.7932Z" fill="#35A5F9"/>
<path opacity="0.52" d="M81.755 73.8755C82.6861 74.5089 84.0605 75.1423 83.5031 76.0923C82.477 77.8594 83.0344 85.9983 84.3962 85.8019C84.5424 85.2584 84.6211 84.6989 84.6305 84.1362C83.8515 76.58 87.7974 73.0521 87.7974 73.0521C85.7497 72.5929 83.6051 72.8851 81.755 73.8755H81.755Z" fill="#35A5F9"/>
<path opacity="0.52" d="M112.93 84.8203C112.352 79.6592 113.959 74.4915 117.364 70.5694C116.097 66.4525 111.568 66.6108 107.527 68.1309C109.339 68.853 111.328 69.8094 110.561 71.6778C108.895 75.8961 108.933 84.7253 112.784 86.049C113.126 86.1757 112.93 84.8203 112.93 84.8203V84.8203Z" fill="#35A5F9"/>
<path opacity="0.52" d="M130.975 127.871C121.557 152.496 127.384 169.755 112.797 170.94C98.2104 172.124 113.126 182.708 99.7875 183.493C88.3868 184.158 77.8981 182.157 75.048 188.408C81.179 188.529 122.652 189.301 131.367 188.408C124.4 119.947 149.229 108.344 148.158 102.852C144.573 104.771 137.581 110.592 130.975 127.871Z" fill="#35A5F9"/>
<path fill-rule="evenodd" clip-rule="evenodd" d="M123.324 105.418C123.324 105.418 144.117 96.848 147.841 102.111C151.566 107.375 124.109 116.793 131.374 188.389C121.955 189.371 74.2942 188.389 74.2942 188.389C77.233 185.222 87.6964 138.233 80.1782 120.517C70.2723 97.1774 73.4455 70.24 87.8294 73.0522C93.9097 66.7755 100.775 64.4193 103.322 70.3034C107.641 67.3645 115.615 64.8754 117.383 70.5694C122.481 67.4025 129.151 67.8205 130.525 72.7228C131.899 77.6252 120.974 78.7399 123.324 105.418Z" stroke="#1E1E1E" stroke-width="1.24"/>
<path d="M87.8235 73.0522C87.8235 73.0522 83.8522 76.5801 84.6566 84.1363" stroke="#1E1E1E" stroke-width="1.24" stroke-linecap="round"/>
<path d="M103.315 70.3034C99.5074 74.1205 97.6427 79.4627 98.2483 84.8203" stroke="#1E1E1E" stroke-width="1.24" stroke-linecap="round"/>
<path d="M117.377 70.5694C113.972 74.4915 112.365 79.6591 112.943 84.8203" stroke="#1E1E1E" stroke-width="1.24" stroke-linecap="round"/>
<path d="M181.385 185.9V233.371" stroke="#1E1E1E" stroke-width="1.24" stroke-linecap="round"/>
<path d="M149.412 169.559H196.098V190.353H149.412V169.559Z" fill="white" stroke="#1E1E1E" stroke-width="1.24"/>
<path d="M58.789 31.275C59.9818 31.275 60.9488 30.308 60.9488 29.1152C60.9488 27.9224 59.9818 26.9554 58.789 26.9554C57.5961 26.9554 56.6292 27.9224 56.6292 29.1152C56.6292 30.308 57.5961 31.275 58.789 31.275Z" fill="#35A5F9" stroke="#1E1E1E" stroke-width="1.24" stroke-linecap="round"/>
<path d="M69.2391 31.275C70.432 31.275 71.3989 30.308 71.3989 29.1152C71.3989 27.9224 70.432 26.9554 69.2391 26.9554C68.0463 26.9554 67.0793 27.9224 67.0793 29.1152C67.0793 30.308 68.0463 31.275 69.2391 31.275Z" fill="#35A5F9" stroke="#1E1E1E" stroke-width="1.24" stroke-linecap="round"/>
<path d="M79.6902 31.275C80.883 31.275 81.85 30.308 81.85 29.1152C81.85 27.9224 80.883 26.9554 79.6902 26.9554C78.4974 26.9554 77.5304 27.9224 77.5304 29.1152C77.5304 30.308 78.4974 31.275 79.6902 31.275Z" fill="#35A5F9" stroke="#1E1E1E" stroke-width="1.24" stroke-linecap="round"/>
<path opacity="0.65" d="M69.24 69.5623C75.0117 69.5623 79.6906 64.8834 79.6906 59.1117C79.6906 53.3399 75.0117 48.661 69.24 48.661C63.4682 48.661 58.7893 53.3399 58.7893 59.1117C58.7893 64.8834 63.4682 69.5623 69.24 69.5623Z" fill="white"/>
<path fill-rule="evenodd" clip-rule="evenodd" d="M67.0865 66.1105C72.8582 66.1105 77.5372 61.4315 77.5372 55.6598C77.5372 49.8881 72.8582 45.2092 67.0865 45.2092C61.3148 45.2092 56.6359 49.8881 56.6359 55.6598C56.6359 61.4315 61.3148 66.1105 67.0865 66.1105Z" stroke="#1E1E1E" stroke-width="1.24" stroke-linecap="round"/>
<path d="M279.729 29.1151H290.705Z" fill="white"/>
<path d="M279.729 29.1151H290.705" stroke="#1E1E1E" stroke-width="1.24" stroke-linecap="round"/>
<path d="M116.686 238.869H193.185V282.413H116.686L116.686 238.869Z" fill="#1E1E1E" stroke="#1E1E1E" stroke-width="1.24"/>
<path d="M112.569 233.371H189.067V276.916H112.569L112.569 233.371Z" fill="#F97AA1"/>
<path opacity="0.52" d="M113.069 276.922H189.074V233.371H165.956C165.43 236.665 165.785 240.63 170.535 240.63C178.642 240.63 184 250.833 179.035 253.057C174.069 255.28 184 270.842 171.314 272.279C158.627 273.717 114.627 269.664 112.569 274.503V276.238C112.695 276.493 112.864 276.724 113.069 276.922V276.922Z" fill="#D11E5E"/>
<path fill-rule="evenodd" clip-rule="evenodd" d="M112.569 233.371H189.067V276.916H112.569L112.569 233.371Z" stroke="#1E1E1E" stroke-width="1.24"/>
<path d="M112.569 233.371H189.067V240.63H112.569L112.569 233.371Z" fill="white" stroke="#1E1E1E" stroke-width="1.24"/>
<path opacity="0.27" d="M189.068 233.371H165.956C165.43 236.665 165.785 240.63 170.535 240.63H189.068V233.371Z" fill="#35A5F9"/>
<path opacity="0.52" d="M130.031 268.91C135.425 268.91 139.798 264.537 139.798 259.143C139.798 253.749 135.425 249.377 130.031 249.377C124.638 249.377 120.265 253.749 120.265 259.143C120.265 264.537 124.638 268.91 130.031 268.91Z" fill="#D11E5E"/>
<path d="M127.681 267.339C133.075 267.339 137.448 262.967 137.448 257.573C137.448 252.179 133.075 247.806 127.681 247.806C122.287 247.806 117.914 252.179 117.914 257.573C117.914 262.967 122.287 267.339 127.681 267.339Z" fill="white" stroke="#1E1E1E" stroke-width="1.24"/>
<path d="M143.364 250.13H161.674Z" fill="white"/>
<path d="M143.364 250.13H161.674" stroke="#1E1E1E" stroke-width="1.24" stroke-linecap="round"/>
<path d="M143.364 257.573H182.734Z" fill="white"/>
<path d="M143.364 257.573H182.734" stroke="#1E1E1E" stroke-width="1.24" stroke-linecap="round"/>
<path d="M143.364 265.021H182.734Z" fill="white"/>
<path d="M143.364 265.021H182.734" stroke="#1E1E1E" stroke-width="1.24" stroke-linecap="round"/>
<path d="M152.877 174.55H174.716" stroke="#1E1E1E" stroke-width="1.24" stroke-linecap="round"/>
<path d="M152.877 179.015H192.108" stroke="#1E1E1E" stroke-width="1.24" stroke-linecap="round"/>
<path d="M152.877 183.487H192.108" stroke="#1E1E1E" stroke-width="1.24" stroke-linecap="round"/>
<path d="M252.93 44.0881L250.58 43.8094C249.973 43.7352 249.357 43.8386 248.807 44.1071L251.169 44.3858C251.773 44.4576 252.384 44.3542 252.93 44.0881V44.0881Z" fill="#3E8FC6"/>
<path d="M248.807 17.6891H370.687V100.971H248.807V17.6891Z" fill="#1E1E1E" stroke="#1E1E1E" stroke-width="1.24"/>
<path d="M233.436 11.9128H361.326V90.3053H233.436V11.9128Z" fill="#93DDF9"/>
<path opacity="0.5" d="M361.326 11.9128H334.484C335.58 14.2183 335.39 16.8974 332.293 19.7349C323.14 28.1335 350.527 23.4148 352.263 41.599C353.998 59.7831 333.338 55.0074 336.739 68.2449C340.14 81.4824 236.837 79.6456 233.436 90.3053H361.326V11.9128Z" fill="#35A5F9"/>
<path fill-rule="evenodd" clip-rule="evenodd" d="M233.436 11.9128H361.326V90.3053H233.436V11.9128Z" stroke="#1E1E1E" stroke-width="1.24"/>
<path d="M233.436 7.02313H361.326V19.7349H233.436V7.02313Z" fill="white"/>
<path opacity="0.27" d="M332.292 19.7349H361.326V7.00409H329.923C333.856 9.81626 337.999 14.5032 332.292 19.7349Z" fill="#35A5F9"/>
<path fill-rule="evenodd" clip-rule="evenodd" d="M233.436 7.02313H361.326V19.7349H233.436V7.02313Z" stroke="#1E1E1E" stroke-width="1.24"/>
<path d="M243.095 15.5357C244.288 15.5357 245.255 14.5687 245.255 13.3759C245.255 12.183 244.288 11.2161 243.095 11.2161C241.902 11.2161 240.935 12.183 240.935 13.3759C240.935 14.5687 241.902 15.5357 243.095 15.5357Z" fill="#F9DD12" stroke="#1E1E1E" stroke-width="1.24" stroke-linecap="round"/>
<path d="M253.545 15.5357C254.738 15.5357 255.705 14.5687 255.705 13.3759C255.705 12.183 254.738 11.2161 253.545 11.2161C252.352 11.2161 251.385 12.183 251.385 13.3759C251.385 14.5687 252.352 15.5357 253.545 15.5357Z" fill="#F9DD12" stroke="#1E1E1E" stroke-width="1.24" stroke-linecap="round"/>
<path d="M263.996 15.5357C265.189 15.5357 266.156 14.5687 266.156 13.3759C266.156 12.183 265.189 11.2161 263.996 11.2161C262.803 11.2161 261.836 12.183 261.836 13.3759C261.836 14.5687 262.803 15.5357 263.996 15.5357Z" fill="#F9DD12" stroke="#1E1E1E" stroke-width="1.24" stroke-linecap="round"/>
<path d="M254.806 70.9747L251.417 72.3681C252.322 73.0287 253.505 73.1703 254.54 72.7418L257.922 71.3547C257.017 70.7014 255.841 70.5579 254.806 70.9747V70.9747Z" fill="#E5396E"/>
<path d="M283.561 57.5598C284.177 55.2652 283.856 52.8193 282.668 50.7615C281.48 48.7037 279.523 47.2029 277.227 46.5898C275.778 46.1929 274.252 46.1733 272.793 46.5328C272.907 46.5328 273.028 46.5772 273.142 46.6088C277.092 47.6695 279.82 51.2734 279.77 55.3633C279.719 59.4533 276.902 62.9883 272.926 63.9506C277.612 65.0217 282.307 62.2002 283.561 57.5598V57.5598Z" fill="#E5396E"/>
<path d="M273.699 75.6869L272.996 75.7756C271.83 75.8821 270.811 76.6081 270.329 77.6757L268.429 82.0017C268.177 82.5774 267.763 83.0679 267.239 83.4141L268.721 83.8131C270.266 84.2313 271.884 83.4518 272.521 81.9827L274.421 77.6567C274.708 76.99 275.216 76.4421 275.859 76.105C275.209 75.7207 274.446 75.573 273.699 75.6869V75.6869Z" fill="#E5396E"/>
<path d="M287.469 67.4468C287.215 67.7952 286.956 68.1245 286.69 68.4475C285.933 69.3409 285.715 70.5726 286.12 71.6714L287.798 76.105C288.369 77.6019 287.754 79.2906 286.354 80.0699L284.289 81.2163C285.305 82.0192 286.705 82.1317 287.836 81.5013L290.446 80.0509C291.845 79.2716 292.46 77.5829 291.89 76.086L290.211 71.6524C289.805 70.5537 290.023 69.3213 290.781 68.4285C291.047 68.1055 291.307 67.7952 291.56 67.4278C291.891 66.9824 292.326 66.6256 292.827 66.3891L290.49 66.1167C289.316 65.9788 288.16 66.4879 287.469 67.4468V67.4468Z" fill="#E5396E"/>
<path d="M264.901 33.6057C265.623 34.5363 266.789 35.0059 267.954 34.8345L268.651 34.7458C269.081 34.7037 269.499 34.5767 269.88 34.3721C269.537 34.1684 269.236 33.902 268.993 33.5867L266.13 29.8055C265.153 28.5363 263.394 28.1728 261.994 28.9505L261.449 29.2545C261.672 29.4184 261.87 29.6124 262.038 29.8308L264.901 33.6057Z" fill="#E5396E"/>
<path d="M282.243 30.9139L281.718 35.5945C281.585 36.7655 282.096 37.9168 283.054 38.603C283.244 38.7424 283.428 38.888 283.612 39.0337C284.531 39.7691 285.776 39.9507 286.867 39.5087L287.842 39.1034C287.798 39.1034 287.747 39.0464 287.703 39.0084C287.519 38.869 287.336 38.7234 287.139 38.584C286.185 37.8954 285.676 36.7451 285.809 35.5755L286.36 30.8949C286.551 29.3044 285.545 27.8153 283.998 27.3987L281.084 26.6386C280.194 26.3988 279.243 26.5534 278.475 27.063L279.875 27.443C281.415 27.8534 282.423 29.3299 282.243 30.9139V30.9139Z" fill="#E5396E"/>
<path d="M301.694 57.6042L297.368 55.704C296.302 55.2183 295.577 54.1985 295.468 53.0312C295.422 52.609 295.365 52.1867 295.297 51.7645C295.091 50.6108 295.525 49.4358 296.431 48.6926L300.105 45.7158C301.346 44.7081 301.662 42.9424 300.846 41.5672L299.326 38.9957C298.507 37.6197 296.804 37.0511 295.323 37.6593L294.354 38.0583C294.711 38.3117 295.011 38.6375 295.234 39.0147L296.754 41.5862C297.571 42.9634 297.256 44.7313 296.013 45.7411L292.339 48.718C291.434 49.4591 291.001 50.6317 291.206 51.7835C291.275 52.2015 291.332 52.6195 291.377 53.0502C291.467 54.2362 292.195 55.2793 293.277 55.7737L297.603 57.6738C299.072 58.3103 299.851 59.9285 299.433 61.4741L298.654 64.3559C298.408 65.2638 297.779 66.0198 296.931 66.427L299.25 66.6994C300.84 66.8899 302.329 65.8836 302.746 64.3369L303.525 61.4551C303.972 59.8936 303.187 58.2434 301.694 57.6042V57.6042Z" fill="#E5396E"/>
<path d="M271.368 68.3906C265.182 66.6966 261.014 60.9195 261.358 54.5153C261.701 48.1111 266.462 42.8123 272.793 41.7889C267.493 41.0216 262.235 43.4307 259.355 47.946C256.475 52.4613 256.507 58.245 259.438 62.7275C262.369 67.21 267.654 69.5597 272.945 68.7326C272.413 68.6491 271.887 68.5349 271.368 68.3906Z" fill="#FC5480"/>
<path d="M279.469 57.5852C280.086 55.2897 279.765 52.8431 278.577 50.7843C277.389 48.7255 275.432 47.2234 273.135 46.6089C273.021 46.6089 272.901 46.5582 272.787 46.5329C268.811 47.4937 265.993 51.0277 265.94 55.1177C265.888 59.2076 268.615 62.8125 272.565 63.8746L272.92 63.9506C276.101 63.1825 278.611 60.7429 279.469 57.5852Z" fill="#FC5480"/>
<path fill-rule="evenodd" clip-rule="evenodd" d="M299.452 61.4235L298.654 64.3053C298.421 65.2095 297.809 65.9691 296.975 66.3891L294.613 66.1041C294.012 66.0381 293.404 66.1412 292.858 66.4018L290.521 66.1294C289.352 65.9963 288.201 66.5049 287.513 67.4595C287.277 67.8006 287.037 68.0925 286.791 68.3911C286.772 68.4141 286.753 68.4371 286.734 68.4602C285.977 69.3536 285.759 70.5853 286.164 71.6841L287.842 76.1177C288.413 77.6146 287.798 79.3033 286.398 80.0826L284.333 81.229C284.116 81.0638 283.92 80.8724 283.75 80.659L280.888 76.9221C280.166 75.9916 279 75.522 277.835 75.6933C277.771 75.702 277.707 75.712 277.643 75.7221C277.473 75.7489 277.302 75.7757 277.132 75.7757C276.702 75.8229 276.285 75.9519 275.903 76.1557C275.256 75.7627 274.493 75.606 273.743 75.7124L273.04 75.801C271.874 75.9075 270.855 76.6335 270.374 77.7011L268.474 82.0271C268.221 82.6028 267.808 83.0933 267.283 83.4395L265.877 83.0595C264.332 82.6405 263.327 81.1531 263.514 79.5633L264.072 74.8826C264.205 73.7116 263.693 72.5604 262.735 71.8741C262.545 71.7348 262.355 71.5954 262.171 71.4498C261.252 70.7144 260.007 70.5327 258.916 70.9747L257.896 71.3801C256.992 70.7267 255.815 70.5832 254.78 71.0001L251.391 72.3935C251.039 72.1342 250.742 71.8069 250.517 71.4308L248.991 68.8973C248.173 67.5191 248.491 65.7489 249.738 64.7423L253.412 61.7655C254.315 61.0199 254.748 59.847 254.546 58.6936C254.47 58.2693 254.413 57.8449 254.368 57.4269C254.262 56.2606 253.536 55.2418 252.468 54.7604L248.142 52.8603C246.673 52.2238 245.894 50.6056 246.312 49.06L247.059 46.1719C247.304 45.2647 247.933 44.5102 248.782 44.1071L251.17 44.3921C251.773 44.4638 252.384 44.3605 252.931 44.0944L255.261 44.3731C256.428 44.5077 257.577 44.0045 258.27 43.0557C258.523 42.6883 258.783 42.378 259.055 42.0549C259.811 41.1609 260.027 39.9287 259.619 38.8311L257.941 34.3975C257.374 32.9024 257.988 31.2177 259.385 30.4389L261.449 29.2925C261.672 29.4564 261.87 29.6504 262.038 29.8688L264.901 33.6057C265.621 34.5184 266.772 34.9793 267.923 34.8155L268.619 34.7268C269.049 34.6847 269.467 34.5577 269.848 34.3531C270.498 34.7439 271.263 34.8983 272.014 34.7902L272.711 34.7078C273.886 34.5962 274.909 33.857 275.384 32.776L277.284 28.4564C277.543 27.8751 277.968 27.3836 278.506 27.044L279.906 27.424C281.452 27.838 282.458 29.325 282.268 30.9139L281.717 35.5945C281.595 36.7536 282.102 37.8895 283.047 38.5714C283.237 38.7107 283.421 38.8563 283.605 39.0019L283.605 39.0021C284.524 39.7374 285.769 39.9191 286.86 39.4771L287.836 39.0718C288.739 39.7286 289.917 39.8723 290.952 39.4518L294.34 38.0647C294.698 38.3181 294.998 38.6439 295.221 39.0211L296.741 41.5926C297.558 42.9698 297.243 44.7376 296 45.7475L292.326 48.7243C291.421 49.4655 290.988 50.6381 291.193 51.7899C291.262 52.2142 291.319 52.6323 291.364 53.0566C291.48 54.2286 292.218 55.2473 293.295 55.7231L297.621 57.6232C299.091 58.2597 299.87 59.8779 299.452 61.4235ZM272.92 68.7136C279.751 69.7129 286.25 65.447 288.051 58.7823C289.253 54.3239 288.116 49.5599 285.03 46.1248C281.944 42.6897 277.329 41.0506 272.768 41.7699C267.467 41.0026 262.209 43.4117 259.329 47.927C256.449 52.4423 256.482 58.226 259.413 62.7085C262.343 67.191 267.628 69.5407 272.92 68.7136Z" fill="#FC5480"/>
<path fill-rule="evenodd" clip-rule="evenodd" d="M274.915 64.1786C279.857 64.1786 283.864 60.1718 283.864 55.2291C283.864 50.2864 279.857 46.2795 274.915 46.2795C269.972 46.2795 265.965 50.2864 265.965 55.2291C265.965 60.1718 269.972 64.1786 274.915 64.1786Z" stroke="#231F20"/>
<path d="M275.383 32.7761L274.925 32.5747L274.925 32.575L275.383 32.7761ZM272.71 34.7079L272.663 34.21L272.651 34.2113L272.71 34.7079ZM272.013 34.7902L271.955 34.2936L271.947 34.2945L271.94 34.2956L272.013 34.7902ZM268.961 33.5678L268.561 33.8685L268.566 33.875L268.961 33.5678ZM266.129 29.8055L266.529 29.5049L266.526 29.5005L266.129 29.8055ZM261.994 28.9505L261.751 28.5134L261.746 28.5162L261.994 28.9505ZM259.384 30.4389L259.628 30.8756L259.632 30.8732L259.384 30.4389ZM257.94 34.3975L258.408 34.2205L258.407 34.2202L257.94 34.3975ZM259.618 38.8311L260.087 38.6569L260.086 38.6541L259.618 38.8311ZM259.055 42.055L258.673 41.7321L258.672 41.7327L259.055 42.055ZM258.269 43.0557L258.673 43.3506L258.681 43.3396L258.269 43.0557ZM255.261 44.3731L255.202 44.8696L255.203 44.8698L255.261 44.3731ZM250.58 43.8157L250.521 44.3122L250.521 44.3122L250.58 43.8157ZM247.084 46.1782L247.567 46.3084L247.567 46.3083L247.084 46.1782ZM246.305 49.0664L245.822 48.9362L245.822 48.9378L246.305 49.0664ZM248.142 52.8666L248.343 52.4089L248.341 52.4081L248.142 52.8666ZM252.468 54.7668L252.673 54.3109L252.669 54.309L252.468 54.7668ZM254.368 57.4333L253.87 57.4787L253.87 57.486L254.368 57.4333ZM254.545 58.7L255.038 58.6137L255.037 58.6119L254.545 58.7ZM253.411 61.7719L253.726 62.1603L253.73 62.1574L253.411 61.7719ZM249.738 64.7487L250.052 65.1378L250.053 65.1372L249.738 64.7487ZM248.99 68.9036L248.56 69.1589L248.562 69.1617L248.99 68.9036ZM250.517 71.4371L250.948 71.1833L250.945 71.1791L250.517 71.4371ZM254.513 72.7735L254.324 72.3107L254.322 72.3117L254.513 72.7735ZM258.915 70.9748L258.728 70.5113L258.726 70.5119L258.915 70.9748ZM262.171 71.4498L261.859 71.8403L261.86 71.8415L262.171 71.4498ZM262.735 71.8741L262.439 72.2774L262.443 72.2806L262.735 71.8741ZM264.071 74.8827L264.567 74.9418L264.568 74.9391L264.071 74.8827ZM263.514 79.5633L263.017 79.5042L263.017 79.5047L263.514 79.5633ZM265.876 83.0595L265.745 83.5421L265.746 83.5423L265.876 83.0595ZM268.764 83.8386L268.895 83.3559L268.894 83.3558L268.764 83.8386ZM272.564 82.0081L272.107 81.807L272.106 81.8094L272.564 82.0081ZM274.465 77.6822L274.009 77.4751L274.007 77.4811L274.465 77.6822ZM277.131 75.7821V75.2821H277.107L277.084 75.2843L277.131 75.7821ZM277.834 75.6997L277.901 76.1953L277.907 76.1944L277.834 75.6997ZM280.887 76.9285L281.284 76.6244L281.282 76.6221L280.887 76.9285ZM283.75 80.6654L284.147 80.3613L284.147 80.3613L283.75 80.6654ZM287.879 81.5204L287.637 81.0834L287.636 81.0837L287.879 81.5204ZM290.489 80.07L290.732 80.507L290.732 80.5068L290.489 80.07ZM291.933 76.1051L291.465 76.2821L291.466 76.2832L291.933 76.1051ZM290.255 71.6715L289.786 71.8449L289.787 71.8485L290.255 71.6715ZM290.825 68.4476L291.206 68.7713L291.211 68.7655L290.825 68.4476ZM291.604 67.4469L291.198 67.1547L291.192 67.163L291.604 67.4469ZM294.612 66.1105L294.671 65.614L294.668 65.6135L294.612 66.1105ZM299.293 66.6678L299.352 66.1714L299.352 66.1713L299.293 66.6678ZM302.789 64.3053L302.306 64.1749L302.306 64.1753L302.789 64.3053ZM303.568 61.4235L303.085 61.2929L303.085 61.293L303.568 61.4235ZM301.738 57.6233L301.537 58.0811L301.539 58.0821L301.738 57.6233ZM297.412 55.7232L297.205 56.1783L297.211 56.1809L297.412 55.7232ZM295.512 53.0503L296.01 53.0042L296.009 52.9956L295.512 53.0503ZM295.341 51.7836L295.834 51.7046L295.833 51.6956L295.341 51.7836ZM296.474 48.7117L296.16 48.3232L296.157 48.3251L296.474 48.7117ZM300.148 45.7349L300.463 46.1233L300.463 46.1231L300.148 45.7349ZM300.889 41.5863L300.458 41.8407L300.459 41.8414L300.889 41.5863ZM299.369 39.0148L299.799 38.7603L299.799 38.7591L299.369 39.0148ZM295.366 37.6784L295.556 38.141L295.556 38.1409L295.366 37.6784ZM291.008 39.4645L291.196 39.9279L291.198 39.9271L291.008 39.4645ZM287.753 38.9894L288.065 38.5988L288.055 38.5911L287.753 38.9894ZM287.189 38.5651L286.897 38.9706L286.9 38.9728L287.189 38.5651ZM285.859 35.5566L285.362 35.4981L285.362 35.5L285.859 35.5566ZM286.41 30.8759L285.914 30.8165L285.913 30.8175L286.41 30.8759ZM284.048 27.3797L284.178 26.8969L284.169 26.8947L284.048 27.3797ZM281.083 26.6387L280.953 27.1214L280.962 27.1238L281.083 26.6387ZM278.442 42.074L278.573 41.5913L278.572 41.5912L278.442 42.074ZM276.825 28.2551L274.925 32.5747L275.841 32.9774L277.741 28.6578L276.825 28.2551ZM274.925 32.575C274.523 33.4899 273.658 34.1156 272.663 34.2101L272.757 35.2056C274.113 35.0768 275.293 34.2241 275.841 32.9771L274.925 32.575ZM272.651 34.2113L271.955 34.2936L272.072 35.2867L272.769 35.2044L272.651 34.2113ZM271.94 34.2956C270.955 34.442 269.967 34.0465 269.355 33.2606L268.566 33.875C269.4 34.9454 270.745 35.4841 272.087 35.2848L271.94 34.2956ZM269.36 33.2671L266.529 29.5049L265.73 30.1062L268.561 33.8684L269.36 33.2671ZM266.526 29.5005C265.398 28.0353 263.367 27.6156 261.751 28.5134L262.236 29.3876C263.42 28.7301 264.907 29.0375 265.733 30.1106L266.526 29.5005ZM261.746 28.5162L259.136 30.0046L259.632 30.8732L262.241 29.3848L261.746 28.5162ZM259.14 30.0022C257.527 30.9019 256.818 32.8478 257.472 34.5748L258.407 34.2202C257.928 32.957 258.448 31.5336 259.628 30.8756L259.14 30.0022ZM257.472 34.5745L259.151 39.0081L260.086 38.6541L258.408 34.2205L257.472 34.5745ZM259.15 39.0053C259.495 39.9336 259.312 40.9759 258.673 41.7321L259.436 42.3779C260.309 41.346 260.558 39.9237 260.087 38.6569L259.15 39.0053ZM258.672 41.7327C258.401 42.0551 258.126 42.3822 257.858 42.7718L258.681 43.3396C258.919 42.9945 259.164 42.7009 259.437 42.3773L258.672 41.7327ZM257.865 42.7609C257.279 43.5643 256.306 43.9904 255.318 43.8764L255.203 44.8698C256.549 45.025 257.875 44.4447 258.673 43.3505L257.865 42.7609ZM255.32 43.8766L250.639 43.3193L250.521 44.3122L255.202 44.8696L255.32 43.8766ZM250.64 43.3193C248.802 43.0993 247.082 44.2616 246.601 46.0482L247.567 46.3083C247.919 45.0014 249.177 44.1513 250.521 44.3122L250.64 43.3193ZM246.601 46.048L245.822 48.9362L246.788 49.1966L247.567 46.3084L246.601 46.048ZM245.822 48.9378C245.347 50.7234 246.248 52.5882 247.942 53.3251L248.341 52.4081C247.1 51.8684 246.44 50.5027 246.788 49.195L245.822 48.9378ZM247.941 53.3244L252.267 55.2245L252.669 54.309L248.343 52.4089L247.941 53.3244ZM252.262 55.2226C253.165 55.6299 253.78 56.4919 253.87 57.4787L254.866 57.3878C254.743 56.042 253.905 54.8665 252.673 54.311L252.262 55.2226ZM253.87 57.486C253.916 57.9133 253.974 58.3497 254.053 58.7882L255.037 58.6119C254.964 58.2016 254.908 57.7893 254.865 57.3805L253.87 57.486ZM254.053 58.7863C254.224 59.7625 253.857 60.7553 253.093 61.3863L253.73 62.1574C254.771 61.2973 255.271 59.9442 255.038 58.6137L254.053 58.7863ZM253.097 61.3834L249.423 64.3602L250.053 65.1372L253.726 62.1603L253.097 61.3834ZM249.424 64.3596C247.983 65.5223 247.615 67.567 248.56 69.1589L249.42 68.6483C248.729 67.4839 248.998 65.9883 250.052 65.1378L249.424 64.3596ZM248.562 69.1617L250.089 71.6952L250.945 71.1791L249.419 68.6456L248.562 69.1617ZM250.086 71.6909C251.025 73.2853 252.995 73.9441 254.705 73.2354L254.322 72.3117C253.073 72.8294 251.634 72.3481 250.948 71.1833L250.086 71.6909ZM254.703 73.2364L259.104 71.4376L258.726 70.5119L254.324 72.3107L254.703 73.2364ZM259.103 71.4382C260.027 71.0641 261.08 71.2178 261.859 71.8403L262.483 71.0593C261.422 70.211 259.986 70.0015 258.728 70.5113L259.103 71.4382ZM261.86 71.8415C262.052 71.9941 262.25 72.139 262.439 72.2774L263.03 71.4709C262.839 71.3307 262.657 71.1969 262.482 71.058L261.86 71.8415ZM262.443 72.2806C263.254 72.8613 263.687 73.8354 263.574 74.8262L264.568 74.9391C264.721 73.588 264.131 72.2595 263.026 71.4677L262.443 72.2806ZM263.574 74.8235L263.017 79.5042L264.01 79.6224L264.567 74.9418L263.574 74.8235ZM263.017 79.5047C262.8 81.3406 263.961 83.0582 265.745 83.5421L266.007 82.5769C264.701 82.2228 263.852 80.9656 264.01 79.6219L263.017 79.5047ZM265.746 83.5423L268.634 84.3213L268.894 83.3558L266.006 82.5768L265.746 83.5423ZM268.634 84.3212C270.419 84.8042 272.288 83.9039 273.023 82.2069L272.106 81.8094C271.568 83.0507 270.201 83.7092 268.895 83.3559L268.634 84.3212ZM273.022 82.2092L274.922 77.8833L274.007 77.4811L272.107 81.807L273.022 82.2092ZM274.92 77.8893C275.33 76.9871 276.192 76.3733 277.178 76.2798L277.084 75.2843C275.741 75.4115 274.568 76.2471 274.01 77.4751L274.92 77.8893ZM277.131 76.2821C277.41 76.2821 277.72 76.2197 277.901 76.1952L277.767 75.2042C277.479 75.2431 277.321 75.2821 277.131 75.2821V76.2821ZM277.907 76.1944C278.893 76.0493 279.881 76.4469 280.492 77.2348L281.282 76.6221C280.45 75.549 279.105 75.0074 277.761 75.205L277.907 76.1944ZM280.49 77.2325L283.353 80.9694L284.147 80.3613L281.284 76.6244L280.49 77.2325ZM283.353 80.9694C284.477 82.4372 286.508 82.8577 288.123 81.9571L287.636 81.0837C286.455 81.7425 284.969 81.4349 284.147 80.3613L283.353 80.9694ZM288.122 81.9574L290.732 80.507L290.246 79.633L287.637 81.0834L288.122 81.9574ZM290.732 80.5068C292.349 79.6067 293.059 77.656 292.4 75.927L291.466 76.2832C291.948 77.5479 291.428 78.9747 290.246 79.6331L290.732 80.5068ZM292.401 75.9281L290.722 71.4944L289.787 71.8485L291.465 76.2821L292.401 75.9281ZM290.724 71.4981C290.38 70.5688 290.564 69.5264 291.206 68.7713L290.444 68.1239C289.568 69.1544 289.317 70.5767 289.786 71.8449L290.724 71.4981ZM291.211 68.7655C291.473 68.4471 291.747 68.1192 292.015 67.7307L291.192 67.163C290.953 67.5093 290.708 67.8021 290.439 68.1298L291.211 68.7655ZM292.009 67.7389C292.592 66.9295 293.566 66.497 294.557 66.6074L294.668 65.6135C293.318 65.4632 291.991 66.0523 291.198 67.1548L292.009 67.7389ZM294.553 66.6069L299.234 67.1643L299.352 66.1713L294.671 65.614L294.553 66.6069ZM299.233 67.1643C301.071 67.3843 302.791 66.222 303.272 64.4354L302.306 64.1753C301.954 65.4821 300.696 66.3323 299.352 66.1714L299.233 67.1643ZM303.272 64.4358L304.051 61.554L303.085 61.293L302.306 64.1749L303.272 64.4358ZM304.051 61.5541C304.534 59.7689 303.633 57.8996 301.936 57.1645L301.539 58.0821C302.78 58.6198 303.439 59.9871 303.085 61.2929L304.051 61.5541ZM301.939 57.1655L297.613 55.2654L297.211 56.1809L301.537 58.0811L301.939 57.1655ZM297.619 55.2681C296.715 54.8567 296.101 53.9928 296.009 53.0042L295.014 53.0965C295.138 54.4423 295.974 55.6182 297.205 56.1782L297.619 55.2681ZM296.009 52.9956C295.961 52.5652 295.903 52.1349 295.834 51.7046L294.847 51.8626C294.913 52.2768 294.969 52.6909 295.015 53.105L296.009 52.9956ZM295.833 51.6956C295.658 50.7202 296.025 49.7267 296.791 49.0983L296.157 48.3251C295.111 49.1831 294.61 50.5396 294.848 51.8715L295.833 51.6956ZM296.789 49.1002L300.463 46.1233L299.833 45.3464L296.16 48.3232L296.789 49.1002ZM300.463 46.1231C301.897 44.9592 302.262 42.9197 301.319 41.3311L300.459 41.8414C301.148 43.0034 300.882 44.4952 299.833 45.3466L300.463 46.1231ZM301.319 41.3318L299.799 38.7603L298.938 39.2692L300.458 41.8407L301.319 41.3318ZM299.799 38.7591C298.853 37.1702 296.886 36.5136 295.176 37.2158L295.556 38.1409C296.808 37.6269 298.247 38.1075 298.939 39.2704L299.799 38.7591ZM295.176 37.2157L290.819 39.0018L291.198 39.9271L295.556 38.141L295.176 37.2157ZM290.821 39.001C289.897 39.3751 288.843 39.2214 288.065 38.599L287.44 39.3799C288.501 40.2282 289.937 40.4378 291.196 39.9279L290.821 39.001ZM288.055 38.5911C287.883 38.4603 287.683 38.3027 287.478 38.1573L286.9 38.9728C287.087 39.1061 287.256 39.2399 287.451 39.3878L288.055 38.5911ZM287.482 38.1596C286.674 37.5767 286.243 36.6031 286.356 35.6131L285.362 35.5C285.209 36.8492 285.795 38.1762 286.897 38.9706L287.482 38.1596ZM286.356 35.615L286.907 30.9344L285.913 30.8175L285.362 35.4981L286.356 35.615ZM286.906 30.9354C287.126 29.0982 285.964 27.3782 284.178 26.8969L283.917 27.8625C285.224 28.2145 286.074 29.4727 285.914 30.8165L286.906 30.9354ZM284.169 26.8947L281.205 26.1536L280.962 27.1238L283.926 27.8648L284.169 26.8947ZM281.214 26.156C279.433 25.6744 277.568 26.5666 276.825 28.2552L277.741 28.6577C278.284 27.4219 279.65 26.7689 280.953 27.1213L281.214 26.156ZM287.568 58.6521C286.185 63.7799 281.849 67.5695 276.583 68.2539L276.711 69.2456C282.379 68.5091 287.045 64.4308 288.533 58.9125L287.568 58.6521ZM276.583 68.2539C271.316 68.9384 266.156 66.3827 263.508 61.7788L262.641 62.2773C265.49 67.2318 271.044 69.9821 276.711 69.2456L276.583 68.2539ZM263.508 61.7788C260.861 57.1748 261.247 51.4293 264.488 47.2217L263.695 46.6115C260.208 51.1396 259.792 57.3227 262.641 62.2773L263.508 61.7788ZM264.488 47.2217C267.728 43.014 273.184 41.1728 278.312 42.5567L278.572 41.5912C273.055 40.1019 267.183 42.0834 263.695 46.6115L264.488 47.2217ZM278.312 42.5566C285.31 44.4489 289.452 51.6523 287.568 58.6524L288.533 58.9123C290.561 51.3793 286.103 43.6276 278.573 41.5913L278.312 42.5566Z" fill="#231F20"/>
<path d="M309.934 33.1308H332.292" stroke="#1E1E1E" stroke-linecap="round"/>
<path d="M348.119 13.3949H354.13" stroke="#1E1E1E" stroke-linecap="round"/>
<path d="M309.934 43.7904H351.128" stroke="#1E1E1E" stroke-linecap="round"/>
<path d="M309.934 54.4501H351.128" stroke="#1E1E1E" stroke-linecap="round"/>
<path d="M309.934 65.1097H351.128" stroke="#1E1E1E" stroke-linecap="round"/>
<path d="M309.934 75.7694H351.128" stroke="#1E1E1E" stroke-linecap="round"/>
<path d="M123.222 104.119C123.297 106.447 123.869 108.732 124.9 110.82" stroke="#1E1E1E" stroke-linecap="round"/>
<path d="M334.122 122.873C334.122 122.873 325.889 128.827 330.658 140.918C334.084 149.608 320.264 152.509 320.657 167.52C321.05 182.531 336.542 192.823 351.255 178.11C365.968 163.397 343.211 137.359 345.96 127.44C348.709 117.521 337.194 117.103 334.122 122.873V122.873Z" fill="#1E1E1E" stroke="#1E1E1E" stroke-linecap="round"/>
<path d="M209.829 214.345C209.829 214.345 200.088 216.15 200.708 220.045C201.329 223.941 217.607 226.873 217.936 220.045C218.265 213.218 209.829 214.345 209.829 214.345Z" fill="#1E1E1E" stroke="#1E1E1E"/>
<path d="M446.096 181.916C445.311 166.912 434.328 161.42 422.851 159.064C411.375 156.708 416.473 130.721 409.272 125.166L409.171 125.09C403.933 129.91 393.856 140.633 389.84 154.947L415.004 194.178C430.598 201.45 446.882 196.921 446.096 181.916Z" fill="#F7500F"/>
<path d="M410.001 175.101C410.001 175.101 410.311 157.018 405.82 157.272C400.462 157.569 405.789 174.462 399.379 175.64C392.969 176.818 410.001 175.101 410.001 175.101Z" fill="#1E1E1E"/>
<path opacity="0.61" d="M422.852 159.064C411.375 156.708 416.474 130.721 409.272 125.166L409.171 125.09C402.001 119.662 394.179 125.128 387.054 124.735C376.426 124.229 376.92 99.5525 358.786 94.5806C358.824 94.5806 374.025 102.966 375.127 126.604C376.229 150.241 404.345 120.587 408.012 130.917C411.679 141.247 405.915 157.221 422.788 165.974C439.661 174.728 417.424 174.462 421.218 183.354C422.845 187.154 425.512 193.114 429.04 197.567C438.984 197.675 446.641 192.316 446.097 181.916C445.311 166.912 434.36 161.42 422.852 159.064V159.064Z" fill="#E0290B"/>
<path d="M238.211 216.752C226.715 202.938 234.411 178.198 246.806 170.934C255.432 166.323 251.803 162.7 250.606 163.377C249.409 164.055 245.501 164.556 237.362 164.461C229.388 164.366 199.36 173.328 206.194 221.375C217.081 223.549 228.384 221.916 238.211 216.752V216.752Z" fill="#F9DD12"/>
<path opacity="0.57" d="M206.219 221.375C216.48 223.414 227.124 222.081 236.564 217.575C236.729 216.764 236.868 215.941 236.976 215.105C231.554 207.213 231.561 196.471 234.715 187.319C234.715 187.059 234.715 186.819 234.715 186.622C234.753 185.799 235.291 184.817 236.172 183.734C238.737 178.141 242.505 173.473 246.825 170.934C255.451 166.323 251.822 162.7 250.625 163.377C251.081 166.291 247.94 169.363 236.153 173.036C206.435 178.889 223.618 212.388 216.037 214.282C211.464 215.422 208.126 218.779 206.2 221.249C206.202 221.292 206.208 221.334 206.219 221.375V221.375Z" fill="#F78B14"/>
<path fill-rule="evenodd" clip-rule="evenodd" d="M238.211 216.752C226.715 202.938 234.411 178.198 246.806 170.934C255.432 166.323 251.803 162.7 250.606 163.377C249.409 164.055 245.501 164.556 237.362 164.461C229.388 164.366 199.36 173.328 206.194 221.375C217.081 223.549 228.384 221.916 238.211 216.752V216.752Z" stroke="#1E1E1E" stroke-width="1.24"/>
<path d="M362.434 166.734C362.434 166.734 328.112 159.166 305.748 191.721C293.118 210.127 271.774 225.334 254.786 224.732C250.401 224.65 246.14 223.265 242.543 220.755C240.931 219.615 239.474 218.269 238.211 216.752C228.391 221.91 217.098 223.543 206.219 221.375C204.362 221.033 202.523 220.597 200.709 220.071C202.47 236.538 219.425 277.29 245.229 285.118C249.135 287.877 253.309 290.236 257.687 292.161C257.687 292.161 344.586 249.009 343.015 223.51C341.444 198.01 362.434 166.734 362.434 166.734V166.734Z" fill="#35A5F9"/>
<path opacity="0.66" d="M287.519 275.725C314.019 247.812 339.525 194.482 330.987 198.321C330.987 198.321 321.05 190.771 304.956 202.723C289.274 214.364 273.319 264.571 253.437 270.582C233.556 276.593 218.513 262.982 218.513 262.982C225.664 273.236 234.709 281.9 245.229 285.093C249.071 287.797 253.162 290.13 257.447 292.06L257.833 292.091C259.252 291.388 272.154 284.877 287.519 275.725Z" fill="#1788C1"/>
<path fill-rule="evenodd" clip-rule="evenodd" d="M362.434 166.734C362.434 166.734 328.112 159.166 305.748 191.721C293.118 210.127 271.774 225.334 254.786 224.732C250.401 224.65 246.14 223.265 242.543 220.755C240.931 219.615 239.474 218.269 238.211 216.752C228.391 221.91 217.098 223.543 206.219 221.375C204.362 221.033 202.523 220.597 200.709 220.071C202.47 236.538 219.425 277.29 245.229 285.118C249.135 287.877 253.309 290.236 257.687 292.161C257.687 292.161 344.586 249.009 343.015 223.51C341.444 198.01 362.434 166.734 362.434 166.734V166.734Z" stroke="#1E1E1E" stroke-width="1.24"/>
<path d="M379.111 386.698C376.881 387.57 374.603 388.314 372.289 388.928C400.265 403.229 421.496 409.025 426.164 402.229C429.876 396.813 422.364 384.494 407.353 369.122C399.133 376.711 389.55 382.675 379.111 386.698V386.698Z" fill="#1E1E1E" stroke="#1E1E1E" stroke-width="1.24"/>
<path d="M327.13 196.63C293.979 204.863 309.275 227.031 305.943 239.978C301.079 263.868 284.409 274.18 269.841 279.247C258.618 283.148 248.617 283.959 246.159 285.479C250.245 300.363 281.375 330.664 323.431 359.52C339.081 370.343 355.399 380.165 372.289 388.928C374.607 388.323 376.889 387.587 379.123 386.724C389.561 382.687 399.139 376.711 407.353 369.11C454.406 325.926 457.579 236.101 439.275 201.297C417.829 160.496 364.606 167.165 364.606 167.165" fill="#35A5F9"/>
<path opacity="0.66" d="M323.45 359.501C339.093 370.33 355.405 380.158 372.289 388.928C374.607 388.323 376.889 387.587 379.123 386.724C389.561 382.687 399.139 376.711 407.353 369.11C454.406 325.926 457.579 236.101 439.275 201.297C417.829 160.496 364.606 167.165 364.606 167.165L353.32 176.032C350.504 184.962 348.376 194.095 346.954 203.35C346.954 203.35 359.311 210.684 371.865 191.721C379.725 179.845 393.438 197.719 403.445 185.9C413.452 174.081 441.872 196.414 443.284 239.566C444.696 282.718 427.45 335.579 372.289 325.831C317.129 316.084 310.466 312.252 310.466 327.731C310.466 342.755 253.393 284.117 246.628 285.257C246.472 285.324 246.32 285.401 246.172 285.485C250.245 300.344 281.375 330.657 323.45 359.501V359.501Z" fill="#1788C1"/>
<path d="M337.821 126.11C337.821 126.11 325.072 162.497 346.955 164.359C345.283 174.854 337.929 199.961 348.519 203.394C359.109 206.827 376.084 165.145 375.121 162.788C374.158 160.432 373.854 123.171 363.644 119.149C353.434 115.127 341.153 116.793 337.821 126.11Z" fill="#F9DD12"/>
<path d="M327.13 196.63C293.979 204.863 309.275 227.031 305.943 239.978C301.079 263.868 284.409 274.18 269.841 279.247C258.618 283.148 248.617 283.959 246.159 285.479C250.245 300.363 281.375 330.664 323.431 359.52C339.081 370.343 355.399 380.165 372.289 388.928C374.607 388.323 376.889 387.587 379.123 386.724C389.561 382.687 399.139 376.711 407.353 369.11C454.406 325.926 457.579 236.101 439.275 201.297C417.829 160.496 364.606 167.165 364.606 167.165" stroke="#1E1E1E" stroke-width="1.24" stroke-linecap="round"/>
<path d="M337.821 126.11C337.821 126.11 325.072 162.497 346.955 164.359C345.283 174.854 337.929 199.961 348.519 203.394C359.109 206.827 376.084 165.145 375.121 162.788C374.158 160.432 373.854 123.171 363.644 119.149C353.434 115.127 341.153 116.793 337.821 126.11Z" fill="#F9DD12" stroke="#1E1E1E" stroke-width="1.24"/>
<path d="M361.345 127.478C361.345 127.478 355.221 140.722 361.345 146.606C367.47 152.49 367.47 157.721 366.032 164.264C364.595 170.807 367.996 179.041 380.676 181.916C393.356 184.792 411.8 178.116 405.916 157.595C406.442 153.408 367.73 114.829 365.64 116.008C363.55 117.186 361.345 127.478 361.345 127.478V127.478Z" fill="#F7500F"/>
<path opacity="0.61" d="M405.915 157.595C405.928 157.432 405.907 157.268 405.852 157.113C404.731 156.296 403.318 156.113 402.457 159.014C400.816 164.505 392.184 179.674 377.933 173.005C363.682 166.335 376.033 152.56 359.641 144.186C360.055 145.086 360.632 145.9 361.345 146.587C367.469 152.477 367.469 157.703 366.032 164.245C364.594 170.788 367.995 179.022 380.675 181.897C393.355 184.773 411.799 178.122 405.915 157.595V157.595Z" fill="#E0290B"/>
<path d="M409.171 125.09C402.001 119.662 394.179 125.128 387.054 124.735C374.823 124.178 377.357 91.3883 349.001 93.8458C320.645 96.3033 324.932 131.702 347.183 130.619C369.433 129.536 366.589 118.655 366.589 118.655L389.872 154.947C393.856 140.646 403.958 129.91 409.171 125.09Z" fill="#F7500F"/>
<path opacity="0.61" d="M386.04 124.609C385.774 124.551 385.512 124.477 385.255 124.387L385.109 124.336C384.855 124.242 384.608 124.132 384.368 124.007L384.26 123.95C384.026 123.823 383.798 123.678 383.57 123.526L383.519 123.488C383.291 123.323 383.063 123.146 382.848 122.956L382.721 122.848C382.512 122.658 382.31 122.462 382.088 122.215L381.949 122.069C381.752 121.854 381.556 121.632 381.366 121.398L381.265 121.265C381.096 121.045 380.925 120.817 380.752 120.58L380.644 120.428C380.473 120.175 380.295 119.915 380.124 119.649C380.074 119.561 380.017 119.478 379.96 119.39C379.801 119.136 379.643 118.877 379.491 118.604C379.421 118.497 379.358 118.383 379.295 118.269C379.168 118.053 379.048 117.838 378.927 117.635C378.807 117.433 378.712 117.243 378.604 117.04L378.383 116.628C374.278 108.812 370.276 97.7284 358.748 94.5679C358.786 94.5679 373.987 102.954 375.089 126.591C376.052 147.214 397.53 127.326 405.453 128.707C406.815 127.275 408.075 126.053 409.133 125.077C401.963 119.649 394.141 125.115 387.016 124.723C386.72 124.71 386.425 124.674 386.135 124.615L386.04 124.609Z" fill="#E0290B"/>
<path d="M361.345 127.478C361.345 127.478 355.22 140.722 361.345 146.606C367.469 152.49 367.469 157.721 366.031 164.264C364.594 170.807 367.995 179.041 380.675 181.916C393.355 184.792 411.799 178.116 405.915 157.595" stroke="#1E1E1E" stroke-width="1.24" stroke-linecap="round"/>
<path d="M209.367 185.9C208.328 188.437 207.45 191.037 206.738 193.684C205.434 198.454 235.424 275.877 299.47 290.913C301.063 289.365 302.14 287.363 302.555 285.181L232.884 224.283L209.367 185.9Z" fill="#1E1E1E" stroke="#1E1E1E" stroke-width="1.24" stroke-linecap="round"/>
<path d="M366.588 118.655C366.588 118.655 369.477 129.543 347.214 130.619C324.951 131.696 320.688 96.2969 349.031 93.8458C377.375 91.3946 374.822 124.178 387.053 124.735C394.21 125.128 402.07 119.605 409.271 125.166C416.473 130.727 411.374 156.708 422.851 159.064C434.328 161.42 445.31 166.912 446.096 181.916C446.495 189.517 442.511 194.425 436.462 196.484" stroke="#1E1E1E" stroke-width="1.24" stroke-linecap="round"/>
<path d="M209.366 185.9C209.366 185.9 262.741 164.898 264.704 165.588C266.668 166.278 289.988 217.847 313.803 232.295C309.471 257.927 302.219 286.53 302.219 286.53C302.219 286.53 238.014 266.687 209.366 185.9Z" fill="#CDEAFC" stroke="#1E1E1E" stroke-width="1.24" stroke-linecap="round"/>
<path fill-rule="evenodd" clip-rule="evenodd" d="M209.366 185.9C209.366 185.9 262.741 164.898 264.704 165.588C266.668 166.278 289.988 217.847 313.803 232.295C309.471 257.927 302.219 286.53 302.219 286.53C302.219 286.53 238.014 266.687 209.366 185.9Z" stroke="#1E1E1E" stroke-width="1.24" stroke-linecap="round"/>
<path d="M211.128 190.682L267.251 169.591C265.902 167.184 265.022 165.727 264.718 165.62C262.754 164.929 209.38 185.932 209.38 185.932C209.937 187.515 210.526 189.086 211.128 190.682Z" fill="#67BDE8"/>
<path d="M242.79 173.036C227.323 178.832 209.367 185.9 209.367 185.9C234.848 257.737 288.393 281.375 299.971 285.739C300.947 285.746 301.895 285.412 302.65 284.795C302.796 284.212 302.967 283.528 303.176 282.667C258.84 268.099 229.249 220.951 220.616 199.575C216.068 188.307 229.281 179.161 242.79 173.036V173.036Z" fill="white"/>
<path d="M253.665 195.8L264.585 189.979" stroke="#67BDE8"/>
<path d="M256.332 199.575L272.838 190.771" stroke="#67BDE8"/>
<path d="M258.998 203.35L275.504 194.546" stroke="#67BDE8"/>
<path d="M261.664 207.125L278.17 198.321" stroke="#67BDE8"/>
<path d="M273.629 205.94L280.837 202.089" stroke="#67BDE8"/>
<path fill-rule="evenodd" clip-rule="evenodd" d="M209.367 185.9C209.367 185.9 262.742 164.898 264.705 165.588C266.669 166.278 289.989 217.848 313.804 232.295C309.472 257.927 302.22 286.53 302.22 286.53C302.22 286.53 238.015 266.687 209.367 185.9Z" stroke="#1E1E1E"/>
<path d="M241.409 217.778C243.189 221.489 246.476 223.757 248.744 222.845C251.011 221.933 251.455 218.19 249.7 214.484C247.946 210.779 244.633 208.505 242.334 209.417C240.035 210.329 239.617 214.073 241.409 217.778Z" fill="#67BDE8"/>
<path fill-rule="evenodd" clip-rule="evenodd" d="M235.171 200.759L233.796 197.136C233.328 195.901 233.543 194.774 234.227 194.476L235.646 193.925C236.425 193.634 237.495 194.261 238.179 195.407L240.181 198.783C240.573 199.536 241.262 200.092 242.081 200.316L242.48 200.398C242.786 200.481 243.113 200.432 243.38 200.262C243.648 200.092 243.831 199.817 243.886 199.505L244.627 196.668C244.88 195.705 245.774 195.445 246.711 196.079L248.465 197.244C249.457 197.97 250.067 199.107 250.125 200.335L250.169 203.717C250.221 204.64 250.578 205.52 251.183 206.219L251.221 206.266C251.418 206.504 251.62 206.749 251.816 207.004C252.235 207.669 252.962 208.077 253.748 208.087L256.174 207.739C257.003 207.638 258.029 208.442 258.587 209.639L259.625 211.881C260.183 213.085 260.081 214.32 259.448 214.782L257.51 216.156C257.048 216.498 256.864 217.277 257.048 218.183C257.117 218.519 257.174 218.829 257.231 219.152C257.382 220.065 257.827 220.903 258.498 221.54L261.114 223.903C262.01 224.727 262.486 225.911 262.412 227.126L262.146 229.084C262.157 229.525 261.915 229.934 261.524 230.138C261.133 230.343 260.659 230.307 260.303 230.046L257.586 228.583C257.331 228.398 257.011 228.326 256.702 228.384C256.392 228.443 256.121 228.628 255.952 228.894C255.889 228.999 255.819 229.107 255.743 229.217C255.375 229.935 255.359 230.783 255.698 231.516L257.029 235.139C257.478 236.367 257.276 237.501 256.547 237.799L255.198 238.343C254.47 238.641 253.437 238.008 252.772 236.868L250.803 233.492C250.422 232.745 249.751 232.188 248.947 231.953L248.554 231.877C248.255 231.793 247.934 231.844 247.676 232.015C247.417 232.187 247.245 232.462 247.205 232.77L246.54 235.607C246.312 236.57 245.463 236.83 244.538 236.196L242.822 235.025C241.836 234.292 241.219 233.165 241.131 231.94L241.004 228.558C240.934 227.633 240.568 226.756 239.959 226.056C239.874 225.949 239.786 225.841 239.697 225.731C239.575 225.581 239.45 225.428 239.326 225.271C238.912 224.616 238.2 224.209 237.426 224.188L235.044 224.536C234.234 224.637 233.201 223.833 232.612 222.636L231.516 220.394C230.921 219.19 230.972 217.955 231.605 217.493L233.505 216.118C233.98 215.776 234.132 214.997 233.923 214.092C233.905 214.005 233.887 213.919 233.869 213.835C233.818 213.594 233.769 213.362 233.727 213.123C233.551 212.205 233.084 211.368 232.397 210.735L229.705 208.372C228.781 207.562 228.273 206.376 228.324 205.148L228.552 203.191C228.698 202.14 229.496 201.735 230.452 202.229L233.252 203.692C233.512 203.877 233.836 203.948 234.151 203.89C234.465 203.831 234.741 203.648 234.918 203.381L234.918 203.381C234.987 203.274 235.057 203.166 235.133 203.058C235.513 202.342 235.527 201.487 235.171 200.759ZM250.41 226.335C253.868 224.948 254.533 219.247 251.88 213.604V213.623C249.213 207.973 244.165 204.509 240.65 205.889C237.135 207.27 236.527 212.971 239.25 218.62C241.974 224.27 246.952 227.722 250.41 226.335Z" fill="#67BDE8"/>
<path d="M299.712 252.024L288.812 270.582" stroke="#67BDE8" stroke-width="1.24" stroke-linecap="round"/>
<path d="M278.38 230.547L260.988 243.22" stroke="#67BDE8" stroke-width="1.24" stroke-linecap="round"/>
<path d="M302.739 254.412L291.845 272.97" stroke="#67BDE8" stroke-width="1.24" stroke-linecap="round"/>
<path d="M289.078 226.664L259.657 250.371C259.657 250.371 273.421 267.846 284.289 269.22C287.507 265.091 299.864 243.664 299.864 243.664L289.078 226.664Z" fill="#67BDE8"/>
<path d="M242.543 167.729C242.543 167.729 252.557 172.536 254.128 178.547C254.913 182.67 248.617 176.767 248.617 176.767C248.617 176.767 251.423 179.047 250.518 181.302C249.612 183.557 244.431 178.768 244.431 178.768C244.431 178.768 247.705 182.22 246.914 183.158C245.647 184.678 241.289 182.334 239.459 179.991C241.277 181.777 241.359 183.911 240.346 184.203C239.332 184.494 228.375 173.651 224.847 177.837" fill="#F9DD12"/>
<path opacity="0.57" d="M254.128 178.547C252.557 172.536 242.543 167.729 242.543 167.729L241.992 168.039C243.652 169.534 250.486 176.096 248.244 181.163C248.841 181.459 249.483 181.656 250.144 181.745C250.313 181.642 250.444 181.486 250.518 181.302C251.24 179.528 249.662 177.749 248.953 177.065C250.22 178.205 254.805 182.1 254.128 178.547V178.547Z" fill="#F78B14"/>
<path d="M242.543 167.729C242.543 167.729 252.557 172.536 254.128 178.547C254.913 182.67 248.617 176.767 248.617 176.767C248.617 176.767 251.423 179.047 250.518 181.302C249.612 183.557 244.431 178.768 244.431 178.768C244.431 178.768 247.705 182.22 246.914 183.158C245.647 184.678 241.289 182.334 239.459 179.991C241.277 181.777 241.359 183.911 240.346 184.203C239.332 184.494 228.375 173.651 224.847 177.837" stroke="#1E1E1E" stroke-width="1.24" stroke-linecap="round"/>
<path d="M243.784 172.327L248.617 176.767Z" fill="#F9DD12"/>
<path d="M243.784 172.327L248.617 176.767" stroke="#1E1E1E" stroke-width="1.24" stroke-linecap="round"/>
<path d="M239.18 173.48L244.684 179.015Z" fill="#F9DD12"/>
<path d="M239.18 173.48L244.684 179.015" stroke="#1E1E1E" stroke-width="1.24" stroke-linecap="round"/>
<path d="M232.878 174.55C232.878 174.55 237.312 177.198 239.446 179.985Z" fill="#F9DD12"/>
<path d="M232.878 174.55C232.878 174.55 237.312 177.198 239.446 179.985" stroke="#1E1E1E" stroke-width="1.24" stroke-linecap="round"/>
<path d="M377.933 212.597C382.443 214.978 398.334 246.704 374.006 252.195C362.112 254.881 336.739 243.93 313.665 232.282C313.209 239.547 311.391 260.017 304.956 271.159L297.356 277.34C297.356 277.34 356.158 335.091 393.426 326.984C393.825 326.895 394.192 326.807 394.553 326.712C401.048 325.957 407.249 323.58 412.585 319.802C465.681 282.927 435.387 204.73 435.387 204.73" fill="#35A5F9"/>
<path opacity="0.66" d="M435.539 205.085C430.966 213.845 432.568 264.293 421.674 267.156C409.317 270.392 419.318 305.703 377.933 304.132C351.205 303.118 325.781 281.406 308.579 262.665C307.67 265.619 306.456 268.469 304.956 271.171L297.356 277.353C297.356 277.353 356.158 335.091 393.426 326.984C393.825 326.895 394.192 326.807 394.553 326.712C401.048 325.957 407.249 323.58 412.585 319.801C463.629 284.352 437.622 210.716 435.539 205.085V205.085Z" fill="#1788C1"/>
<path fill-rule="evenodd" clip-rule="evenodd" d="M418.133 315.539C396.934 304.829 385.711 321.239 382.322 327.617C386.034 327.953 389.776 327.74 393.425 326.984C393.824 326.895 394.192 326.807 394.553 326.712C401.048 325.957 407.249 323.58 412.585 319.801C414.555 318.44 416.391 317.008 418.133 315.539V315.539Z" stroke="white"/>
<path d="M377.933 212.54C382.443 214.921 398.334 246.647 374.006 252.138C362.112 254.824 336.739 243.904 313.665 232.225C313.209 239.49 311.391 259.96 304.956 271.101L297.356 277.283C297.356 277.283 356.133 335.021 393.4 326.927C393.799 326.838 394.167 326.75 394.528 326.655C401.023 325.9 407.224 323.523 412.56 319.744C465.655 282.87 435.361 204.673 435.361 204.673" stroke="#1E1E1E" stroke-linecap="round"/>
<path d="M300.155 276.757C302.136 275.232 303.772 273.304 304.956 271.101C302.587 268.517 300.326 265.996 298.179 263.571C295.842 273.109 295.55 280.045 300.155 276.757Z" fill="#1E1E1E" stroke="#1E1E1E"/>
<path d="M310.764 230.749C287.874 219.045 267.967 207.194 266.909 208.201C264.749 210.26 272.793 218.304 272.793 218.304C272.793 218.304 249.358 216.536 249.65 219.482C249.941 222.427 263.869 222.522 263.869 222.522C263.869 222.522 244.868 223.402 245.235 225.689C245.602 227.975 265.047 228.856 265.047 228.856C265.047 228.856 250.923 230.623 250.923 231.699C250.923 232.776 267.302 234.543 267.302 234.543C267.302 234.543 257.016 235.272 257.396 236.918C257.776 238.565 266.896 238.913 275.016 239.173C277.442 239.256 285.98 249.795 298.179 263.552C300.326 265.977 302.612 268.498 304.956 271.082C311.391 259.941 313.19 239.471 313.665 232.206L310.764 230.749Z" fill="#F9DD12"/>
<path fill-rule="evenodd" clip-rule="evenodd" d="M310.764 230.749C287.874 219.045 267.967 207.194 266.909 208.201C264.749 210.26 272.793 218.303 272.793 218.303C272.793 218.303 249.358 216.536 249.65 219.482C249.941 222.427 263.869 222.522 263.869 222.522C263.869 222.522 244.868 223.402 245.235 225.689C245.602 227.975 265.047 228.855 265.047 228.855C265.047 228.855 250.923 230.623 250.923 231.699C250.923 232.776 267.302 234.543 267.302 234.543C267.302 234.543 257.016 235.272 257.396 236.918C257.776 238.565 266.896 238.913 275.016 239.173C277.442 239.255 285.98 249.795 298.179 263.552C300.326 265.977 302.612 268.498 304.956 271.082C311.391 259.941 313.19 239.471 313.665 232.206L310.764 230.749Z" stroke="#1E1E1E" stroke-width="1.24"/>
<path d="M270.525 338.616C272.768 335.987 264.779 325.486 252.681 315.16C240.583 304.835 228.957 298.595 226.713 301.224C224.469 303.853 232.458 314.354 244.556 324.68C256.655 335.005 268.281 341.245 270.525 338.616Z" fill="#1E1E1E" stroke="#1E1E1E" stroke-width="1.24"/>
<path d="M248.092 123.526H260.278V185.26" stroke="#1E1E1E" stroke-width="1.24" stroke-linecap="round"/>
<path d="M346.955 164.359C346.955 164.359 356.861 165.36 359.312 161.332" stroke="#1E1E1E" stroke-width="1.24" stroke-linecap="round"/>
<path d="M346.955 164.359C346.955 164.359 356.861 165.36 359.312 161.332C359.635 163.232 358.983 170.668 345.188 173.48C346.321 167.646 346.955 164.359 346.955 164.359Z" fill="#1E1E1E" stroke="#1E1E1E" stroke-width="1.24" stroke-linecap="round"/>
<path d="M260.277 187.534C261.558 187.534 262.596 186.496 262.596 185.216C262.596 183.936 261.558 182.898 260.277 182.898C258.997 182.898 257.959 183.936 257.959 185.216C257.959 186.496 258.997 187.534 260.277 187.534Z" fill="#1E1E1E" stroke="#1E1E1E" stroke-width="1.24"/>
<path opacity="0.57" d="M304.956 271.12C306.447 268.431 307.657 265.596 308.566 262.659C301.537 254.954 294.942 246.863 288.811 238.426C279.311 225.473 250.923 231.661 250.923 231.661L252.139 232.244C255.939 233.276 267.302 234.505 267.302 234.505C267.302 234.505 257.016 235.272 257.396 236.918C257.776 238.565 266.897 238.913 275.017 239.173C277.442 239.255 285.98 249.795 298.179 263.552C300.326 265.996 302.619 268.517 304.956 271.12V271.12Z" fill="#F78B14"/>
<path d="M225.911 187.997C225.911 187.997 221.857 190.448 222.953 196.528C224.048 202.609 231.009 185.888 225.911 187.997Z" fill="white"/>
<path d="M339.487 126.604C339.487 126.604 333.211 122.759 332.425 117.103C331.64 111.447 337.543 109.737 338.449 113.138C339.354 116.54 338.309 121.638 343.516 121.898C348.722 122.158 344.846 129.739 339.487 126.604V126.604Z" fill="white"/>
<path d="M335.167 108.033C335.167 108.033 332.552 108.426 334.122 104.373C335.693 100.319 341.577 108.426 335.167 108.033Z" fill="white"/>
<path d="M363.942 131.437C363.942 131.437 360.674 139.417 363.942 143.078C367.21 146.739 363.549 138.011 364.727 136.022C365.905 134.033 366.165 128.434 363.942 131.437V131.437Z" fill="white"/>
<path d="M366.292 146.074C366.292 146.074 368.452 144.908 369.136 146.872C369.82 148.835 365.64 149.203 366.292 146.074Z" fill="white"/>
<path d="M315.457 252.024C315.457 252.024 315.552 238.996 320.36 241.447C325.167 243.898 335.846 245.963 332.666 248.313C329.486 250.663 319.574 245.013 320.36 247.939C321.145 250.865 316.553 255.73 315.457 252.024H315.457Z" fill="white"/>
<path d="M337.233 251.062C337.233 251.062 336.84 247.527 339.766 248.705C342.692 249.883 341.799 253.804 337.233 251.062Z" fill="white"/>
<path d="M320.353 181.916C320.353 181.916 330.227 171.586 335.782 172.498C341.337 173.41 330.082 176.229 331.925 178.775C333.768 181.321 316.337 186.692 320.353 181.916Z" fill="white"/>
<path d="M315.552 185.26C315.552 185.26 319.137 183.607 319.732 185.894C320.328 188.18 312.753 188.009 315.552 185.26Z" fill="white"/>
<path d="M204.142 226.05C204.142 226.05 203.357 223.174 208.576 224.15C213.795 225.125 209.139 228.798 204.142 226.05Z" fill="white"/>
<path d="M238.015 165.981C238.015 165.981 231.219 165.905 229.648 168.324C228.078 170.744 236.052 166.753 237.559 167.735C239.067 168.717 240.979 165.791 238.015 165.981V165.981Z" fill="white"/>
<path d="M227.754 168.837C227.754 168.837 225.715 168.97 225.652 169.889C225.588 170.807 228.229 170.737 227.754 168.837Z" fill="white"/>
<path d="M279.761 219.228C279.761 219.228 272.623 213.224 272.838 212.54C273.053 211.856 292.061 223.111 291.839 224.675C291.617 226.24 280.768 222.927 279.761 219.228Z" fill="white"/>
<path d="M78.4049 80.8997C78.4049 80.8997 74.6047 93.7065 78.7976 104.119C82.9905 114.532 79.906 94.1372 81.7555 93.6495C83.6049 93.1618 80.8687 75.4084 78.4049 80.8997V80.8997Z" fill="white"/>
<path d="M80.4633 111.694C80.4633 111.694 80.1973 108.527 81.7301 109.243C83.2628 109.959 83.5479 116.698 82.3635 115.716C81.1791 114.734 80.4633 111.694 80.4633 111.694Z" fill="white"/>
<path d="M92.9217 70.3034C92.9217 70.3034 89.3875 72.1655 89.2925 76.0037C89.1975 79.842 91.7437 73.0649 92.9217 73.1599C94.0998 73.2549 94.3848 69.2077 92.9217 70.3034Z" fill="white"/>
<path d="M106.159 70.1134C106.159 70.1134 102.359 72.7545 102.726 74.8193C103.094 76.8841 109.694 68.7516 106.159 70.1134V70.1134Z" fill="white"/>
<path d="M119.745 70.5694C119.745 70.5694 116.756 72.3682 118.029 73.6413C119.302 74.9143 120.676 70.6327 119.745 70.5694Z" fill="white"/>
<path d="M89.8812 79.8419C89.8812 79.8419 87.2337 80.8997 88.3104 82.8568C89.3871 84.8139 91.0719 80.1649 89.8812 79.8419V79.8419Z" fill="white"/>
<path d="M136.72 103.752C136.72 103.752 141.958 100.99 142.94 102.073C143.921 103.156 137.347 104.714 137.936 105.874C138.525 107.033 132.508 105.481 136.72 103.752Z" fill="white"/>
<path d="M71.3993 78.5753C70.3352 78.4423 59.7706 79.9053 57.5474 85.783C55.3243 91.6607 63.8242 82.7112 65.9143 84.1173C68.0044 85.5234 75.5732 79.101 71.3993 78.5753Z" fill="white"/>
<path d="M56.6295 89.0449C56.6295 89.0449 53.887 89.1715 54.4064 91.3187C54.9258 93.4658 57.6809 90.1153 56.6295 89.0449Z" fill="white"/>
<path d="M159.42 81.5901C159.42 81.5901 165.563 68.758 166.868 69.556C168.173 70.3541 163.34 75.8454 165.038 77.1565C166.735 78.4676 157.222 85.954 159.42 81.5901V81.5901Z" fill="white"/>
<path d="M168.261 99.0648C168.261 99.0648 170.01 104.968 172.974 105.126C175.938 105.285 179.656 105.684 178.554 104.049C177.452 102.415 173.949 103.498 173.005 100.94C172.062 98.3808 167.248 96.5313 168.261 99.0648Z" fill="white"/>
<path d="M181.107 103.784C181.107 103.784 184.78 102.631 185.091 104.189C185.401 105.747 178.548 105.177 181.107 103.784Z" fill="white"/>
<path d="M156.424 86.049C156.424 86.049 158.071 84.2819 159.084 85.4156C160.098 86.5493 155.202 88.5001 156.424 86.049Z" fill="white"/>
<path d="M359.622 258.054C357.722 257.661 355.949 257.186 354.346 256.692" stroke="white"/>
<path d="M370.681 258.96C368.81 259.054 366.935 259.018 365.069 258.852" stroke="white"/>
<path d="M390.74 220.704C393.906 230.667 396.814 247.059 385.388 254.412C382.773 256.088 379.899 257.319 376.881 258.054" stroke="white"/>
<path d="M387.611 212.514C387.611 212.514 388.244 213.857 389.112 216.08" stroke="white"/>
<path d="M296.526 226.664L309.472 233.371" stroke="white"/>
<path d="M322.506 202.083C324.46 201.427 326.476 200.977 328.523 200.74" stroke="white"/>
<path d="M310.65 216.131C311.052 211.492 313.523 207.281 317.376 204.667" stroke="white"/>
<path d="M210.836 240.89C213.908 248.629 219.279 259.061 227.754 266.186" stroke="white"/>
<path d="M207.467 230.547C207.467 230.547 207.923 232.535 208.949 235.664" stroke="white"/>
<path d="M344.674 97.7727C349.228 96.1043 354.269 96.3861 358.609 98.5518" stroke="white"/>
<path d="M339.177 100.971C339.796 100.425 340.462 99.9331 341.166 99.5018" stroke="white"/>
<path d="M272.85 283.395C272.85 283.395 260.816 288.969 250.942 287.1" stroke="white"/>
<path d="M372.245 157.747C372.76 159.429 373.056 161.17 373.126 162.928" stroke="white"/>
<path d="M369.212 150.431C369.212 150.431 369.845 151.584 370.63 153.339" stroke="white"/>
<path d="M83.9469 169.642C83.6872 170.535 83.4149 171.434 83.1235 172.327" stroke="white"/>
<path d="M86.6384 132.754C87.5442 141.26 87.8418 153.218 84.979 165.613" stroke="white"/>
<path d="M85.6886 125.882C85.8343 126.75 85.9927 127.712 86.1447 128.757" stroke="white"/>
<path d="M84.5297 120.327C84.5297 120.327 84.8147 121.379 85.201 123.279" stroke="white"/>
<path d="M139.126 79.842H152.75" stroke="white"/>
<path d="M131.659 79.842H135.212" stroke="white"/>
<path d="M177.553 67.9156L180.536 67.7699C181.708 67.7192 182.892 67.6875 184.032 67.6685C188.219 67.5989 191.848 67.7889 192.665 68.5616" stroke="white"/>
<path d="M168.832 68.5616C168.832 68.5616 170.732 68.3842 173.436 68.1879" stroke="white"/>
<path d="M187.44 103.752H194.135" stroke="white"/>
<path d="M340.273 137.821C340.146 138.454 338.961 144.06 337.27 146.473C335.579 148.886 339.912 148.158 341.742 147.948" stroke="#141414"/>
<path d="M348.497 138.285C351.114 138.098 353.179 137.148 353.108 136.164C353.038 135.18 350.859 134.535 348.243 134.722C345.626 134.909 343.561 135.858 343.632 136.842C343.702 137.826 345.881 138.472 348.497 138.285Z" fill="white" stroke="#141414"/>
<path d="M346.562 134.945C344.807 135.325 343.585 136.06 343.636 136.845C343.686 137.631 345.004 138.163 346.802 138.29C347.771 137.96 348.43 137.27 348.38 136.51C348.329 135.75 347.588 135.123 346.562 134.945Z" fill="#141414"/>
<path d="M333.012 139.86C335.629 139.673 337.693 138.724 337.623 137.74C337.552 136.756 335.374 136.11 332.757 136.297C330.14 136.484 328.076 137.434 328.146 138.417C328.217 139.401 330.395 140.047 333.012 139.86Z" fill="white" stroke="#141414" stroke-width="1.24"/>
<path d="M331.076 136.516C329.316 136.903 328.1 137.637 328.15 138.416C328.201 139.195 329.518 139.727 331.317 139.86C332.286 139.531 332.945 138.834 332.894 138.074C332.843 137.314 332.083 136.706 331.076 136.516Z" fill="#141414"/>
<path d="M343.706 157.886C345.276 157.886 346.549 156.613 346.549 155.042C346.549 153.472 345.276 152.198 343.706 152.198C342.135 152.198 340.862 153.472 340.862 155.042C340.862 156.613 342.135 157.886 343.706 157.886Z" fill="#1E1E1E" stroke="#1E1E1E" stroke-width="1.24" stroke-linecap="round"/>
<path d="M267.505 118.395H282.338Z" fill="#1E1E1E"/>
<path d="M267.505 118.395H282.338" stroke="#1E1E1E" stroke-width="1.24" stroke-linecap="round"/>
<path d="M267.505 129.429H282.338Z" fill="#1E1E1E"/>
<path d="M267.505 129.429H282.338" stroke="#1E1E1E" stroke-width="1.24" stroke-linecap="round"/>
<path d="M267.505 140.456H282.338Z" fill="#1E1E1E"/>
<path d="M267.505 140.456H282.338" stroke="#1E1E1E" stroke-width="1.24" stroke-linecap="round"/>
<path d="M448.927 307.976C448.218 310.225 447.445 312.473 446.59 314.715" stroke="#1E1E1E" stroke-width="1.24" stroke-linecap="round"/>
<path d="M452.379 294.682C452.101 296.008 451.801 297.34 451.48 298.679" stroke="#1E1E1E" stroke-width="1.24" stroke-linecap="round"/>
<path d="M455.609 248.465C456.503 262.382 455.716 276.355 453.266 290.084" stroke="#1E1E1E" stroke-width="1.24" stroke-linecap="round"/>
<path d="M398.531 117.578C398.531 117.578 411.375 114.633 414.416 122.481" stroke="#1E1E1E" stroke-width="1.24" stroke-linecap="round"/>
<path d="M395.091 336.085C403.958 334.749 414.726 330.727 422.25 319.909" stroke="#1E1E1E" stroke-width="1.24" stroke-linecap="round"/>
<path d="M379.504 336.092C382.184 336.526 384.897 336.719 387.611 336.668" stroke="#1E1E1E" stroke-width="1.24" stroke-linecap="round"/>
<path d="M206.206 257.573C206.206 257.573 215.124 277.758 234.347 285.739" stroke="#1E1E1E" stroke-width="1.24" stroke-linecap="round"/>
<path d="M72.6351 219.228H76.8154" stroke="#1E1E1E" stroke-width="1.24" stroke-linecap="round"/>
<path d="M37.6283 200.816V210.317C37.6266 212.686 38.5668 214.959 40.2418 216.636C41.9167 218.312 44.1892 219.254 46.5589 219.254H67.0865" stroke="#1E1E1E" stroke-width="1.24" stroke-linecap="round"/>
<path d="M330.519 1.06309H352.262" stroke="#1E1E1E" stroke-width="1.24" stroke-linecap="round"/>
<path d="M313.664 1.06309H320.644" stroke="#1E1E1E" stroke-width="1.24" stroke-linecap="round"/>
<path d="M450.91 178.11C450.91 178.11 453.362 191.569 444 199.549" stroke="#1E1E1E" stroke-width="1.24" stroke-linecap="round"/>
</svg>
