<svg width="529" height="451" viewBox="0 0 529 451" fill="none" xmlns="http://www.w3.org/2000/svg">
<path d="M119.961 111.643C119.961 111.643 176.233 107.996 176.233 59.9482C176.233 11.9007 290.716 -28.8392 397.05 28.3273C503.384 85.4938 358.895 189.081 464.602 230.942C570.308 272.804 568.432 475.326 285.71 447.963C2.9874 420.6 -16.4099 249.088 7.37259 174.287C31.1551 99.4866 119.961 111.643 119.961 111.643Z" fill="#2293FC" fill-opacity="0.5"/>
<path d="M214.696 34.8815H465.512V199.829H214.696L214.696 34.8815Z" fill="#7387F9"/>
<path d="M237.77 192.219H449.139" stroke="white" stroke-width="1.36" stroke-linecap="round"/>
<path d="M419.858 69.4353H455.517V123.159H419.858V69.4353Z" fill="#9BADF9" stroke="#1C1C1C" stroke-width="1.36" stroke-linecap="round"/>
<path d="M237.77 175.579H449.139V186.251H237.77V175.579Z" fill="white"/>
<path opacity="0.39" d="M465.512 34.8816H396.474C403.904 38.4209 409.566 44.0742 400.331 52.1555C382.787 67.5147 446.055 54.6137 446.77 62.0245C447.486 69.4354 423.912 84.5168 436.56 106.453C449.209 128.39 464.46 158.674 442.318 166.024C420.175 173.375 380.551 168.754 381.672 182.712C382.635 194.792 251.831 182.108 214.722 186.197V199.829H465.537L465.512 34.8816Z" fill="#2E45CC"/>
<path fill-rule="evenodd" clip-rule="evenodd" d="M214.696 34.8815H465.512V199.829H214.696L214.696 34.8815Z" stroke="#1C1C1C" stroke-width="1.36" stroke-linecap="round"/>
<path d="M214.696 34.8815H465.512V52.1554H214.696L214.696 34.8815Z" fill="white"/>
<path opacity="0.71" d="M400.306 52.1555H465.511V34.8816H396.474C403.878 38.4209 409.54 44.0742 400.306 52.1555Z" fill="#AFC0F9"/>
<path fill-rule="evenodd" clip-rule="evenodd" d="M214.696 34.8815H465.512V52.1554H214.696L214.696 34.8815Z" stroke="#1C1C1C" stroke-width="1.36" stroke-linecap="round"/>
<path fill-rule="evenodd" clip-rule="evenodd" d="M214.696 34.8815H465.512V52.1554H214.696L214.696 34.8815Z" stroke="#1C1C1C" stroke-width="1.36" stroke-linecap="round"/>
<path d="M363.925 223.221H465.512V282.309H363.925V223.221Z" fill="#F97ACC"/>
<path opacity="0.64" d="M364.153 282.309H465.493V223.221H426.819C429.307 226.689 433.297 228.906 437.688 229.261C449.551 230.469 454.941 250.835 440.493 254.326C426.046 257.817 445.883 276.335 427.338 276.746C408.793 277.157 367.168 271.811 363.925 280.654V281.801C363.983 281.977 364.059 282.147 364.153 282.309Z" fill="#E224B1"/>
<path fill-rule="evenodd" clip-rule="evenodd" d="M363.925 223.221H465.512V282.309H363.925V223.221Z" stroke="#1C1C1C" stroke-width="1.36"/>
<path d="M278.749 78.1266H408.16V166.024H278.749V78.1266Z" fill="#1C1C1C" stroke="#1C1C1C" stroke-width="1.36" stroke-linecap="round"/>
<path d="M270.896 69.4353H400.306V157.333H270.896L270.896 69.4353Z" fill="white"/>
<path opacity="0.71" d="M400.306 69.4353H350.219C350.32 71.1506 351.625 72.7632 355.083 73.9591C367.593 78.2776 391.965 76.3751 386.353 98.7224C380.741 121.07 382.04 132.292 388.082 142.209C393.7 151.426 288.06 146.944 270.908 152.386V157.333H400.306V69.4353Z" fill="#AFC0F9"/>
<path fill-rule="evenodd" clip-rule="evenodd" d="M270.896 69.4353H400.306V157.333H270.896L270.896 69.4353Z" stroke="#1C1C1C" stroke-width="1.36" stroke-linecap="round"/>
<path d="M270.896 62.0244H400.306V73.9591H270.896L270.896 62.0244Z" fill="#FCE1A7"/>
<path opacity="0.64" d="M400.306 62.0245H355.077C351.277 65.2014 346.33 70.9392 355.077 73.9592H400.3L400.306 62.0245Z" fill="#F9BF30"/>
<path fill-rule="evenodd" clip-rule="evenodd" d="M270.896 62.0245H400.306V73.9592H270.896L270.896 62.0245Z" stroke="#1C1C1C" stroke-width="1.36"/>
<path d="M225.172 69.4353H262.262V83.2182H225.172V69.4353Z" fill="#C8D5FC" stroke="#1C1C1C" stroke-width="1.36" stroke-linecap="round"/>
<path d="M225.172 89.409H262.262V137.721H225.172V89.409Z" fill="#9BADF9" stroke="#1C1C1C" stroke-width="1.36" stroke-linecap="round"/>
<path d="M419.858 133.222H455.516H419.858Z" fill="white"/>
<path d="M419.858 133.222H455.516" stroke="#1C1C1C" stroke-width="1.36" stroke-linecap="round"/>
<path d="M186.359 332.24C186.359 332.24 196.126 328.012 194.973 343.939C193.821 359.866 191.236 380.685 200.009 398.787C200.009 382.334 199.749 312.351 199.749 312.351L186.359 332.24Z" fill="#9BADF9"/>
<path d="M90.2447 307.603L55.7892 307.948C55.7892 307.948 96.6228 307.742 98.0605 320.082C99.4983 332.421 150.402 313.776 155.577 327.758C160.752 341.74 200.439 339.276 200.008 307.603" fill="#9BADF9"/>
<path d="M419.858 143.828H455.517H419.858Z" fill="white"/>
<path d="M419.858 143.828H455.517" stroke="#1C1C1C" stroke-width="1.36" stroke-linecap="round"/>
<path d="M419.858 154.428H455.517H419.858Z" fill="white"/>
<path d="M419.858 154.428H455.517" stroke="#1C1C1C" stroke-width="1.36" stroke-linecap="round"/>
<path d="M377.586 142.209V223.221V142.209Z" fill="white"/>
<path d="M377.586 142.209V223.221" stroke="#1C1C1C" stroke-width="1.36" stroke-linecap="round"/>
<path d="M377.39 148.321C380.461 148.321 382.951 145.947 382.951 143.018C382.951 140.09 380.461 137.715 377.39 137.715C374.319 137.715 371.829 140.09 371.829 143.018C371.829 145.947 374.319 148.321 377.39 148.321Z" fill="#F9BF30" stroke="#1C1C1C" stroke-width="1.36" stroke-linecap="round"/>
<path d="M226.039 45.8076C227.365 45.8076 228.44 44.7827 228.44 43.5185C228.44 42.2542 227.365 41.2294 226.039 41.2294C224.714 41.2294 223.639 42.2542 223.639 43.5185C223.639 44.7827 224.714 45.8076 226.039 45.8076Z" fill="#F9BF30" stroke="#1C1C1C" stroke-width="1.36" stroke-linecap="round"/>
<path d="M235.116 45.8076C236.441 45.8076 237.516 44.7827 237.516 43.5185C237.516 42.2542 236.441 41.2294 235.116 41.2294C233.79 41.2294 232.715 42.2542 232.715 43.5185C232.715 44.7827 233.79 45.8076 235.116 45.8076Z" fill="#F9BF30" stroke="#1C1C1C" stroke-width="1.36" stroke-linecap="round"/>
<path d="M244.198 45.8076C245.524 45.8076 246.599 44.7827 246.599 43.5185C246.599 42.2542 245.524 41.2294 244.198 41.2294C242.873 41.2294 241.798 42.2542 241.798 43.5185C241.798 44.7827 242.873 45.8076 244.198 45.8076Z" fill="#F9BF30" stroke="#1C1C1C" stroke-width="1.36" stroke-linecap="round"/>
<path d="M452.356 43.5184H441.139H452.356Z" fill="white"/>
<path d="M452.356 43.5184H441.139" stroke="#1C1C1C" stroke-width="1.36" stroke-linecap="round"/>
<path d="M69.1973 307.603H200.008V394.559" stroke="#1C1C1C" stroke-width="1.36" stroke-linecap="round"/>
<path d="M234.729 145.404H262.262H234.729Z" fill="white"/>
<path d="M234.729 145.404H262.262" stroke="#1C1C1C" stroke-width="1.36" stroke-linecap="round"/>
<path d="M234.729 152.984H262.262H234.729Z" fill="white"/>
<path d="M234.729 152.984H262.262" stroke="#1C1C1C" stroke-width="1.36" stroke-linecap="round"/>
<path fill-rule="evenodd" clip-rule="evenodd" d="M378.885 242.953C378.892 247.834 383.039 251.789 388.157 251.795C393.277 251.792 397.426 247.835 397.43 242.953V238.121C397.43 233.238 393.278 229.279 388.157 229.279C383.036 229.279 378.885 233.238 378.885 238.121V242.953ZM381.647 238.109C381.65 234.682 384.563 231.904 388.158 231.9C391.753 231.904 394.668 234.681 394.675 238.109V242.941C394.749 245.207 393.524 247.331 391.478 248.485C389.432 249.638 386.89 249.638 384.844 248.485C382.798 247.331 381.573 245.207 381.647 242.941V238.109Z" fill="#7387F9"/>
<path d="M388.157 251.795L388.156 252.475H388.158L388.157 251.795ZM378.885 242.953H378.205L378.205 242.954L378.885 242.953ZM397.43 242.953L398.11 242.954V242.953H397.43ZM388.158 231.9L388.158 231.22L388.157 231.22L388.158 231.9ZM381.647 238.109L380.967 238.109V238.109H381.647ZM394.675 238.109H395.355L395.355 238.108L394.675 238.109ZM394.675 242.941H393.995V242.952L393.996 242.963L394.675 242.941ZM391.478 248.485L391.812 249.077H391.812L391.478 248.485ZM381.647 242.941L382.326 242.963L382.327 242.952V242.941H381.647ZM388.158 251.115C383.384 251.109 379.571 247.428 379.565 242.952L378.205 242.954C378.212 248.24 382.694 252.468 388.156 252.475L388.158 251.115ZM396.75 242.953C396.747 247.43 392.932 251.112 388.157 251.115L388.158 252.475C393.622 252.472 398.106 248.241 398.11 242.954L396.75 242.953ZM396.75 238.121V242.953H398.11V238.121H396.75ZM388.157 229.959C392.934 229.959 396.75 233.644 396.75 238.121H398.11C398.11 232.832 393.623 228.599 388.157 228.599V229.959ZM379.565 238.121C379.565 233.644 383.381 229.959 388.157 229.959V228.599C382.691 228.599 378.205 232.832 378.205 238.121H379.565ZM379.565 242.953V238.121H378.205V242.953H379.565ZM388.157 231.22C384.218 231.224 380.971 234.276 380.967 238.109L382.327 238.11C382.33 235.087 384.908 232.583 388.158 232.58L388.157 231.22ZM395.355 238.108C395.347 234.275 392.098 231.224 388.158 231.22L388.157 232.58C391.409 232.583 393.989 235.087 393.995 238.111L395.355 238.108ZM395.355 242.941V238.109H393.995V242.941H395.355ZM391.812 249.077C394.069 247.805 395.438 245.449 395.355 242.919L393.996 242.963C394.061 244.964 392.979 246.857 391.144 247.892L391.812 249.077ZM384.51 249.077C386.763 250.348 389.559 250.348 391.812 249.077L391.144 247.892C389.305 248.929 387.016 248.929 385.178 247.892L384.51 249.077ZM380.967 242.919C380.884 245.449 382.253 247.805 384.51 249.077L385.178 247.892C383.342 246.857 382.261 244.964 382.326 242.963L380.967 242.919ZM380.967 238.109V242.941H382.327V238.109H380.967Z" fill="#1C1C1C"/>
<rect x="375.205" y="243.189" width="26.456" height="28.0247" rx="7.06" fill="#F9BF30" stroke="#1C1C1C" stroke-width="1.36"/>
<path d="M391.736 254.501C391.735 252.994 390.615 251.698 389.063 251.409C387.512 251.12 385.963 251.919 385.367 253.315C384.771 254.712 385.296 256.315 386.618 257.141L385.586 263.066H391.286L390.254 257.141C391.181 256.554 391.738 255.563 391.736 254.501Z" fill="#1C1C1C" stroke="#1C1C1C" stroke-width="1.36" stroke-linecap="round"/>
<path d="M387.797 278.051C394.751 278.051 400.388 277.469 400.388 276.752C400.388 276.035 394.751 275.453 387.797 275.453C380.842 275.453 375.205 276.035 375.205 276.752C375.205 277.469 380.842 278.051 387.797 278.051Z" fill="#1C1C1C"/>
<path d="M356.591 90.4116H374.496H356.591Z" fill="#F9BF30"/>
<path d="M356.591 90.4116H374.496" stroke="#1C1C1C" stroke-linecap="round"/>
<path d="M356.591 100.637H394.84H356.591Z" fill="#F9BF30"/>
<path d="M356.591 100.637H394.84" stroke="#1C1C1C" stroke-linecap="round"/>
<path d="M356.591 110.868H394.84H356.591Z" fill="#F9BF30"/>
<path d="M356.591 110.868H394.84" stroke="#1C1C1C" stroke-linecap="round"/>
<path d="M356.591 121.094H394.84H356.591Z" fill="#F9BF30"/>
<path d="M356.591 121.094H394.84" stroke="#1C1C1C" stroke-linecap="round"/>
<path d="M356.591 131.319H394.84H356.591Z" fill="#F9BF30"/>
<path d="M356.591 131.319H394.84" stroke="#1C1C1C" stroke-linecap="round"/>
<path d="M312.489 141.635C328.748 141.635 341.928 129.067 341.928 113.562C341.928 98.0579 328.748 85.4892 312.489 85.4892C296.23 85.4892 283.05 98.0579 283.05 113.562C283.05 129.067 296.23 141.635 312.489 141.635Z" fill="#F9BF30" stroke="#1C1C1C"/>
<path d="M303.882 115.694C303.882 115.694 299.448 113.882 299.448 109.781C299.448 105.68 304.642 102.256 306.903 102.075C309.164 101.893 303.882 115.694 303.882 115.694Z" fill="#141414" stroke="#141414" stroke-linecap="round"/>
<path d="M312.521 141.635C317.227 141.638 321.865 140.56 326.043 138.495C324.833 126.155 321.439 102.733 314.826 102.805C306.269 102.896 305.326 106.931 305.326 106.931C305.326 106.931 294.33 129.882 308.581 130.486C307.948 134.08 307.314 137.842 306.852 141.08C308.718 141.439 310.617 141.625 312.521 141.635Z" fill="#F97ACC" stroke="#141414" stroke-linecap="round"/>
<path d="M308.53 130.51C308.53 130.51 314.079 131.011 317.347 128.994C317.347 131.289 312.882 134.798 307.732 135.197L308.53 130.51Z" fill="#141414" stroke="#141414" stroke-linecap="round"/>
<path d="M411.593 236.134H431.436" stroke="white"/>
<path d="M411.593 246.311H451.273" stroke="white"/>
<path d="M411.593 256.494H451.273" stroke="white"/>
<path d="M411.593 266.678H451.273" stroke="white"/>
<path d="M307.732 89.8982C307.732 89.8982 292.424 90.7197 287.249 107.486C285.742 114.269 290.486 115.338 293.184 108.489C295.882 101.64 296.091 94.9717 302.564 94.3919C309.037 93.8121 312.47 89.5902 307.732 89.8982Z" fill="white"/>
<path d="M288.003 120.285C288.003 120.285 287.895 116.534 290.593 116.534C293.291 116.534 290.27 126.198 288.003 120.285Z" fill="white"/>
<path d="M130.451 331.189C130.451 331.189 143.784 321.453 148.819 332.288C153.854 343.124 122.008 333.381 130.451 331.189Z" fill="#9BADF9"/>
<path d="M172.975 155.472C172.975 155.472 193.389 145.38 198.424 147.893C203.46 150.405 189.943 157.599 184.693 158.215C179.442 158.831 168.371 158.553 172.975 155.472Z" fill="#1C1C1C" stroke="#1C1C1C" stroke-width="1.36"/>
<path d="M208.128 180.085C205.892 174.897 204.214 163.681 201.991 156.185C196.74 164.949 181.204 166.356 175.446 166.568C178.575 173.532 180.931 179.747 180.513 183.171C179.962 187.52 174.927 187.139 170.436 185.889C166.636 184.838 158.795 181.057 158.795 181.057C158.795 181.057 167.605 189.368 172.463 193.427C174.604 198.023 179.975 204.184 191.395 211.395C219.706 229.309 212.087 189.271 208.128 180.085Z" fill="#F98216"/>
<path fill-rule="evenodd" clip-rule="evenodd" d="M208.128 180.085C205.892 174.897 204.214 163.681 201.991 156.185C196.74 164.949 181.204 166.356 175.446 166.568C178.575 173.532 180.931 179.747 180.513 183.171C179.962 187.52 174.927 187.139 170.436 185.889C166.636 184.838 158.795 181.057 158.795 181.057C158.795 181.057 167.605 189.368 172.463 193.427C174.604 198.023 179.975 204.184 191.395 211.395C219.706 229.309 212.087 189.271 208.128 180.085V180.085Z" stroke="#1C1C1C" stroke-width="1.36"/>
<path opacity="0.55" d="M203.783 197.365C206.748 194.338 208.945 190.704 210.206 186.741C209.691 184.479 208.996 182.258 208.128 180.097C205.892 174.909 204.214 163.693 201.991 156.197C198.526 161.977 190.59 164.556 183.94 165.704C188.201 168.744 190.435 173.723 189.798 178.762C188.918 187.417 180.735 196.139 159.023 181.178L158.782 181.069C158.782 181.069 167.592 189.38 172.45 193.439C173.717 196.145 176.105 199.394 180.184 203.102C188.05 205.615 196.658 204.667 203.783 197.365Z" fill="#F44914"/>
<path d="M201.991 156.185C200.28 150.417 198.247 146.854 195.404 149.922C193.824 151.493 191.913 152.728 189.798 153.546C183.61 156.161 175.269 157.043 171.133 157.333C172.608 160.443 174.097 163.572 175.446 166.568C181.203 166.356 196.74 164.937 201.991 156.185Z" fill="white"/>
<path opacity="0.9" d="M195.404 149.922C193.824 151.493 191.913 152.728 189.798 153.546C189.165 153.799 188.531 154.035 187.898 154.265C189.165 155.358 190.742 157.284 189.798 159.586C188.43 162.871 177.498 163.022 175.617 166.562C181.507 166.326 196.791 164.864 201.991 156.185C200.28 150.441 198.247 146.854 195.404 149.922Z" fill="#AFC0F9"/>
<path fill-rule="evenodd" clip-rule="evenodd" d="M201.991 156.185C200.28 150.417 198.247 146.854 195.404 149.922C193.824 151.493 191.913 152.728 189.798 153.546C183.61 156.161 175.269 157.043 171.133 157.333C172.608 160.443 174.097 163.572 175.446 166.568C181.203 166.356 196.74 164.937 201.991 156.185V156.185Z" stroke="#1C1C1C" stroke-width="1.36"/>
<path d="M181.102 134.086C181.679 129.628 179.373 125.026 171.177 129.767C166.448 132.378 163.953 137.544 164.945 142.668L164.989 142.994C165.325 145.15 168.017 150.78 171.127 157.333C175.263 157.043 183.604 156.161 189.792 153.546C186.48 139.721 180.564 138.247 181.102 134.086Z" fill="#F97ACC"/>
<path opacity="0.45" d="M181.197 135.583C180.149 134.962 178.901 134.721 177.682 134.907C171.177 136.006 167.092 140.246 170.43 141.345C170.43 141.345 176.307 140.971 179.93 143.665C181.248 142.245 183.99 141.853 185.713 146.769C187.436 151.686 181.14 154.144 177.276 153.781C173.996 153.473 170.575 155.038 171.411 157.309C175.63 157.007 183.749 156.101 189.779 153.546C186.916 141.49 182.046 138.827 181.197 135.583Z" fill="#D3099F"/>
<path fill-rule="evenodd" clip-rule="evenodd" d="M181.102 134.086C181.679 129.628 179.373 125.026 171.177 129.767C166.448 132.378 163.953 137.544 164.945 142.668L164.989 142.994C165.325 145.15 168.017 150.78 171.127 157.333C175.263 157.043 183.604 156.161 189.792 153.546C186.48 139.721 180.564 138.247 181.102 134.086V134.086Z" stroke="#1C1C1C" stroke-width="1.36"/>
<path d="M145.367 146.183L258.817 124.283L246.016 94.3919L145.367 141.007L145.367 146.183Z" fill="#FCE1A7"/>
<path opacity="0.64" d="M245.383 108.767L240.563 96.9105L239.239 97.5144C238.239 99.7009 237.181 104.291 240.183 111.805C244.617 122.912 213.138 119.777 213.353 125.696C213.569 131.615 204.081 121.058 200.521 122.489C196.962 123.921 201.737 132.956 190.812 133.536C179.886 134.116 173.185 140.681 171.107 138.319C169.03 135.958 166.921 133.88 165.926 135.904C164.932 137.927 154.646 142.704 147.356 142.753C146.64 142.726 145.934 142.918 145.342 143.302V146.213L252.502 125.497L245.383 108.767Z" fill="#F9BF30"/>
<path fill-rule="evenodd" clip-rule="evenodd" d="M145.367 146.183L258.817 124.283L246.017 94.3919L145.367 141.007L145.367 146.183Z" stroke="#1C1C1C" stroke-width="1.36"/>
<path d="M176.788 125.714L181.767 139.117L176.788 125.714Z" fill="white"/>
<path d="M176.788 125.714L181.767 139.117" stroke="#1C1C1C" stroke-width="1.36" stroke-linecap="round"/>
<path d="M154.855 136.52L157.572 143.828L154.855 136.52Z" fill="white"/>
<path d="M154.855 136.52L157.572 143.828" stroke="#1C1C1C" stroke-width="1.36" stroke-linecap="round"/>
<path d="M142.777 135.149C142.777 135.149 163.589 158.704 141.371 163.016C143.853 171.345 151.619 180.495 143.961 181.939C136.304 183.383 121.635 182.452 122.825 163.016C124.016 143.58 131.097 121.45 142.777 135.149Z" fill="#F97ACC" stroke="#1C1C1C" stroke-width="1.36"/>
<path d="M192.813 155.322C192.813 155.322 225.621 143.2 224.038 149.922C222.455 156.644 194.789 158.8 192.813 155.322Z" fill="#1C1C1C" stroke="#1C1C1C" stroke-width="1.36"/>
<path d="M133.466 145.839C133.466 145.839 129.906 137.51 134.98 137.613C140.053 137.715 150.814 138.217 149.212 125.89C147.609 113.562 114.908 117.971 110.823 155.702C110.285 165.692 143.068 170.01 133.466 145.839Z" fill="#C9116D"/>
<path d="M149.212 125.89C148.61 121.269 143.644 118.998 137.463 119.946C139.654 121.758 143.087 125.684 141.339 131.549C138.862 139.878 128.88 132.859 130.096 140.174C131.313 147.488 130.236 160.051 119.019 156.65C114.674 155.334 112.166 154.995 110.867 155.303C110.867 155.442 110.836 155.569 110.823 155.702C110.285 165.692 143.068 170.01 133.466 145.839C133.466 145.839 129.906 137.51 134.98 137.613C140.053 137.715 150.833 138.235 149.212 125.89Z" fill="#A3085D"/>
<path fill-rule="evenodd" clip-rule="evenodd" d="M133.466 145.839C133.466 145.839 129.906 137.51 134.98 137.613C140.053 137.715 150.814 138.217 149.212 125.89C147.609 113.562 114.908 117.971 110.823 155.702C110.285 165.692 143.068 170.01 133.466 145.839Z" stroke="#1C1C1C" stroke-width="1.36"/>
<path d="M174.99 219.072C174.99 219.072 179.873 235.071 197.703 238.085C215.532 241.099 176.136 260.3 162.19 252.345C148.243 244.391 149.25 202.384 174.99 219.072Z" fill="#F98216" stroke="#1C1C1C" stroke-width="1.36"/>
<path d="M174.99 219.072C174.99 219.072 179.873 235.071 197.703 238.085C215.532 241.099 176.136 260.3 162.19 252.345C148.243 244.391 149.25 202.384 174.99 219.072Z" fill="#F98216" stroke="#1C1C1C" stroke-width="1.36"/>
<path d="M114.908 172.934C114.908 172.934 120.609 158.215 146.191 173.664C142.732 176.739 113.679 177.415 114.908 172.934Z" fill="#F98216" stroke="#1C1C1C" stroke-width="1.36"/>
<path d="M212.309 155.66C208.641 145.144 205 136.882 205.829 133.741C208.274 124.476 205.196 126.131 203.384 126.681C202.485 120.907 198.444 122.072 198.856 124.476C193.751 120.013 191.952 122.706 192.674 125.032C188.431 123.528 185.986 125.376 186.062 127.091C191.091 128.191 193.662 132.847 192.674 135.867C191.686 138.887 184.117 134.84 181.818 137.075C179.519 139.31 188.646 137.969 192.674 154.693C192.718 154.899 192.756 155.092 192.794 155.297C196.177 156.137 204.119 157.586 212.309 155.66Z" fill="#F97ACC"/>
<path opacity="0.45" d="M202.484 152.984C198.38 152.277 194.979 154.077 193.123 155.4C196.657 156.228 204.359 157.538 212.308 155.666C208.641 145.15 204.999 136.888 205.828 133.747C207.634 126.91 206.424 126.022 204.942 126.246C204.942 126.349 204.98 126.451 205.018 126.566C206.139 130.009 204.106 133.3 202.484 136.079C200.863 138.857 208.742 154.065 202.484 152.984Z" fill="#D3099F"/>
<path fill-rule="evenodd" clip-rule="evenodd" d="M212.309 155.66C208.641 145.144 205 136.882 205.829 133.741C208.274 124.476 205.196 126.131 203.384 126.681C202.485 120.907 198.444 122.072 198.856 124.476C193.751 120.013 191.952 122.706 192.674 125.032C188.431 123.528 185.986 125.376 186.062 127.091C191.091 128.191 193.662 132.847 192.674 135.867C191.686 138.887 184.117 134.84 181.818 137.075C179.519 139.31 188.646 137.969 192.674 154.693C192.718 154.899 192.756 155.092 192.794 155.297C196.177 156.137 204.119 157.586 212.309 155.66V155.66Z" stroke="#1C1C1C" stroke-width="1.36"/>
<path opacity="0.55" d="M172.697 223.777C172.697 223.777 176.878 237.753 184.408 237.463C191.939 237.173 195.714 236.007 196.645 239.583C197.576 243.159 186.676 254.23 173.559 245.049C160.442 235.869 163.298 218.546 172.697 223.777Z" fill="#F44914"/>
<path d="M285.203 228.748C242.564 200.221 183.185 243.847 183.185 243.847C183.185 243.847 165.065 245.768 168.662 255.498C172.26 265.228 237.535 246.438 237.535 246.438C241.969 242.15 265.885 233.06 285.64 229.037L285.203 228.748Z" fill="#2E45CC"/>
<path opacity="0.44" d="M282.119 226.833C281.555 226.507 280.985 226.187 280.415 225.885C280.149 225.74 279.889 225.601 279.623 225.468C278.99 225.148 278.356 224.864 277.723 224.544L277.178 224.284C276.368 223.922 275.557 223.577 274.74 223.251L274.106 223.022C273.473 222.78 272.84 222.551 272.206 222.339L271.377 222.061C270.787 221.868 270.192 221.687 269.597 221.512L268.843 221.294C268.013 221.071 267.184 220.854 266.354 220.69L266.132 220.642C265.366 220.467 264.599 220.316 263.833 220.171L263.016 220.032C262.427 219.929 261.838 219.839 261.243 219.754L260.4 219.64C259.729 219.555 259.057 219.476 258.386 219.416C258.209 219.416 258.031 219.374 257.854 219.362C257.018 219.283 256.176 219.229 255.321 219.187H254.624C253.99 219.156 253.357 219.138 252.724 219.132H251.869C251.235 219.132 250.653 219.132 250.038 219.132H249.303C248.461 219.162 247.625 219.199 246.77 219.253H246.434C245.7 219.301 244.971 219.362 244.237 219.434L243.445 219.513L241.652 219.718L240.867 219.821C240.158 219.917 239.455 220.02 238.752 220.129L238.378 220.189C237.548 220.322 236.718 220.473 235.895 220.624L235.262 220.751C234.628 220.872 233.995 220.998 233.406 221.137L232.652 221.3C232.019 221.439 231.385 221.584 230.784 221.735L230.207 221.874C229.397 222.08 228.586 222.291 227.782 222.508L227.547 222.575C226.825 222.774 226.109 222.98 225.394 223.179L224.76 223.366C224.127 223.547 223.551 223.735 222.949 223.928L222.372 224.109C220.802 224.62 219.258 225.154 217.743 225.71L217.363 225.855C216.729 226.09 216.096 226.326 215.462 226.567L214.987 226.754C214.322 227.014 213.664 227.274 213.011 227.54L212.821 227.618C211.331 228.226 209.885 228.848 208.483 229.484L208.191 229.611C207.558 229.895 206.925 230.185 206.323 230.469L206.145 230.553C204.752 231.206 203.409 231.858 202.117 232.51C202.2 232.51 246.295 215.967 273.454 231.949C277.508 230.831 281.586 229.835 285.488 229.037L285.051 228.735C284.266 228.21 283.48 227.721 282.689 227.244L282.119 226.833Z" fill="#0E1DAA"/>
<path d="M144.721 305.139C144.721 305.139 129.038 318.348 130.438 313.371C131.869 308.292 139.185 293.482 139.185 293.482L144.721 305.139Z" fill="#1C1C1C" stroke="#1C1C1C" stroke-width="1.36" stroke-linecap="round"/>
<path d="M285.64 229.049L285.203 228.748C242.564 200.221 183.185 243.847 183.185 243.847C183.185 243.847 165.065 245.768 168.662 255.498C172.26 265.228 237.535 246.438 237.535 246.438" stroke="#1C1C1C" stroke-width="1.36"/>
<path d="M273.771 261.942C252.635 231.713 172.184 249.398 172.184 249.398C148.255 247.586 121.28 267.088 132.282 305.961C200.869 321.797 225.672 297.734 230.632 285.184C230.632 285.184 222.22 310.895 200.008 322.63C200.508 329.939 209.635 339.131 220.909 346.053C230.125 351.718 240.766 355.862 249.265 356.2C255.35 346.848 260.8 337.134 265.581 327.118C277.134 302.687 283.974 276.541 273.771 261.942Z" fill="#2E45CC"/>
<path opacity="0.44" d="M182.318 300.229C159.46 301.304 162.474 284.851 155.001 291.839C147.527 298.828 144.107 288.934 154.196 278.425C146.171 281.385 134.144 289.744 130.451 297.656C130.896 300.457 131.507 303.232 132.282 305.967C200.87 321.803 225.672 297.74 230.632 285.19C234.685 276.021 236.243 264.829 236.243 264.829C236.148 265.421 228.763 298.598 182.318 300.229Z" fill="#0E1DAA"/>
<path opacity="0.44" d="M273.771 261.942C257.461 238.623 205.867 243.823 183.129 247.411C200.021 247.103 235.806 247.556 243.001 256.597C252.489 268.526 258.684 279.361 255.517 291.169C252.35 302.977 263.751 301.588 263.941 309.542C264.131 317.497 261.851 343.111 237.535 340.375C215.063 337.839 202.478 322.86 200.331 322.437L200.008 322.618C200.509 329.927 209.635 339.119 220.909 346.041C230.125 351.706 240.766 355.849 249.266 356.188C255.35 346.836 260.8 337.122 265.581 327.106C277.134 302.687 283.974 276.541 273.771 261.942Z" fill="#0E1DAA"/>
<path fill-rule="evenodd" clip-rule="evenodd" d="M273.771 261.942C252.635 231.713 172.184 249.398 172.184 249.398C148.255 247.586 121.28 267.088 132.282 305.961C200.87 321.797 225.672 297.734 230.632 285.184C230.632 285.184 222.221 310.895 200.008 322.63C200.509 329.939 209.635 339.131 220.909 346.053C230.125 351.718 240.766 355.862 249.266 356.2C255.35 346.848 260.8 337.134 265.581 327.118C277.134 302.687 283.974 276.541 273.771 261.942Z" stroke="#1C1C1C" stroke-width="1.36"/>
<path d="M163.558 209.088C163.558 209.088 169.385 235.416 183.192 243.847C175.066 248.51 167.447 258.035 167.447 258.035C167.447 258.035 136.411 236.322 139.838 223.221C143.264 210.121 157.515 200.034 163.558 209.088Z" fill="white" stroke="#1C1C1C" stroke-width="1.36"/>
<path d="M184.75 228.735H184.7C191.439 228.132 198.247 226.362 204.068 223.209C197.964 225.985 191.449 227.849 184.75 228.735Z" fill="white" stroke="#1C1C1C" stroke-width="1.36"/>
<path d="M184.699 228.748C183.686 228.838 182.672 228.899 181.665 228.935C182.681 228.991 183.7 228.928 184.699 228.748Z" fill="white" stroke="#1C1C1C" stroke-width="1.36"/>
<path d="M170.246 155.473C167.522 149.729 165.299 144.945 164.995 142.994C164.134 137.444 166.357 134.152 167.529 135.746C168.701 137.341 169.505 141.72 169.505 141.72C169.505 141.72 179.481 139.546 183.363 147.911" fill="#F97ACC"/>
<path d="M170.246 155.473C167.522 149.729 165.299 144.945 164.995 142.994C164.134 137.444 166.357 134.152 167.529 135.746C168.701 137.341 169.505 141.72 169.505 141.72C169.505 141.72 179.481 139.546 183.363 147.911" stroke="#1C1C1C" stroke-width="1.36" stroke-linecap="round"/>
<path d="M163.045 132.823C163.045 132.823 164.945 126.252 175.427 124.917C183.623 124.452 183.541 134.351 179.171 131.561C178.119 133.022 177.207 133.439 175.858 132.539C175.67 133.099 175.193 133.526 174.597 133.672C174 133.818 173.367 133.662 172.919 133.258C171.95 132.28 172.666 136.84 169.512 135.07C166.357 133.3 165.002 132.092 163.045 132.823H163.045Z" fill="#F97ACC"/>
<path opacity="0.45" d="M175.421 124.917L175.073 124.965C177.199 125.377 179.017 126.682 180.019 128.517C182.388 132.847 171.342 128.517 170.607 135.463C172.508 135.662 172.077 132.4 172.913 133.246C173.36 133.65 173.994 133.806 174.59 133.66C175.187 133.514 175.663 133.087 175.852 132.527C177.201 133.427 178.113 133.01 179.164 131.549C183.535 134.351 183.617 124.47 175.421 124.917Z" fill="#D3099F"/>
<path fill-rule="evenodd" clip-rule="evenodd" d="M163.045 132.823C163.045 132.823 164.945 126.252 175.427 124.917C183.623 124.452 183.541 134.351 179.171 131.561C178.119 133.022 177.207 133.439 175.858 132.539C175.67 133.099 175.193 133.526 174.597 133.672C174 133.818 173.367 133.662 172.919 133.258C171.95 132.28 172.666 136.84 169.512 135.07C166.357 133.3 165.002 132.092 163.045 132.823H163.045Z" stroke="#1C1C1C" stroke-width="1.36" stroke-linecap="round"/>
<path d="M179.164 131.549C179.164 131.549 178.651 127.381 176.2 126.56" stroke="#1C1C1C" stroke-width="1.36" stroke-linecap="round"/>
<path d="M175.852 132.527C175.519 130.519 174.181 128.79 172.267 127.895" stroke="#1C1C1C" stroke-width="1.36" stroke-linecap="round"/>
<path d="M172.546 133.149C172.546 133.149 170.538 129.344 167.605 129.695" stroke="#1C1C1C" stroke-width="1.36" stroke-linecap="round"/>
<path d="M192.674 125.032C195.606 127.4 197.382 130.819 197.582 134.478" stroke="#1C1C1C" stroke-width="1.36" stroke-linecap="round"/>
<path d="M198.855 124.47C198.855 124.47 201.573 127.635 201.028 133.53" stroke="#1C1C1C" stroke-width="1.36" stroke-linecap="round"/>
<path d="M203.384 126.681C203.488 128.131 203.488 129.585 203.384 131.035V126.681Z" fill="white"/>
<path d="M203.384 126.681C203.488 128.131 203.488 129.585 203.384 131.035" stroke="#1C1C1C" stroke-width="1.36" stroke-linecap="round"/>
<path d="M353.925 298.658C349.903 300.102 340.263 311.137 332.435 322.274C327.444 329.383 326.31 333.629 326.335 336.045C340.232 328.459 356.414 302.868 353.925 298.658Z" fill="#1C1C1C" stroke="#1C1C1C" stroke-width="1.36"/>
<path d="M313.154 304.306C313.154 304.306 273.043 333.001 276.603 322.425C280.162 311.849 303.021 285.353 309.196 289.961C315.371 294.569 313.154 304.306 313.154 304.306Z" fill="#1C1C1C" stroke="#1C1C1C" stroke-width="1.36" stroke-linecap="round"/>
<path d="M238.802 244.832C243.235 240.543 265.885 233.072 285.64 229.05C311.671 246.656 318.493 268.169 321.926 284.688C310.58 288.702 300.252 294.957 291.619 303.043C285.499 308.805 280.414 315.488 276.57 322.824C276.5 320.221 267.848 280.346 238.802 244.832Z" fill="#2E45CC"/>
<path opacity="0.44" d="M285.64 229.05C281.63 229.865 277.507 230.825 273.435 231.87C276.051 233.384 278.469 235.191 280.636 237.252C306.338 261.737 282.086 270.585 291.625 279.017C301.164 287.449 271.61 298.749 276.576 322.407C276.576 322.51 276.62 322.6 276.639 322.697C279.58 317.112 283.244 311.901 287.546 307.187L287.717 307.012C288.334 306.339 288.95 305.689 289.567 305.061C290.244 304.366 290.935 303.696 291.625 303.043C300.256 294.958 310.582 288.703 321.926 284.688C318.493 268.169 311.671 246.656 285.64 229.05V229.05Z" fill="#0E1DAA"/>
<path d="M285.437 228.905C311.469 246.517 318.493 268.163 321.926 284.688C310.58 288.702 300.252 294.957 291.619 303.043C285.499 308.805 280.415 315.488 276.57 322.824C276.494 320.221 268.387 280.938 239.341 245.423" stroke="#1C1C1C" stroke-width="1.36" stroke-linecap="round"/>
<path d="M239.347 245.424C239.347 245.424 233.868 239.426 229.846 236.134C230.549 236.738 232.665 243.382 229.397 244.499C232.836 244.729 238.682 245.103 239.347 245.424Z" fill="#1C1C1C" stroke="#1C1C1C" stroke-width="1.36" stroke-linecap="round"/>
<path d="M247.038 89.6214L261.288 127.283C255.313 129.339 248.721 126.386 246.565 120.688L240.116 103.644C237.972 97.9494 241.07 91.6749 247.038 89.6214V89.6214Z" fill="#FCE1A7"/>
<path opacity="0.85" d="M246.466 104.502C249.842 115.803 248.03 118.738 245.535 117.947L246.561 120.665C247.596 123.402 249.729 125.635 252.491 126.872C255.253 128.109 258.417 128.249 261.287 127.26L247.143 89.8982C245.782 92.1933 244.186 96.8561 246.466 104.502Z" fill="#F9BF30"/>
<path fill-rule="evenodd" clip-rule="evenodd" d="M247.038 89.6214L261.288 127.283C255.313 129.339 248.721 126.386 246.565 120.688L240.116 103.644C237.972 97.9494 241.07 91.6749 247.038 89.6214V89.6214Z" stroke="#1C1C1C" stroke-width="1.36"/>
<path d="M106.174 109.298C110.288 109.298 113.622 106.118 113.622 102.195C113.622 98.2725 110.288 95.0925 106.174 95.0925C102.06 95.0925 98.7255 98.2725 98.7255 102.195C98.7255 106.118 102.06 109.298 106.174 109.298Z" fill="#C9116D"/>
<path d="M106.174 95.0925C104.001 95.0929 101.937 95.9999 100.524 97.5748C102.842 96.6809 106.529 95.7629 108.72 97.8708C112.039 101.048 100.607 102.624 103.261 108.742C106.04 109.864 109.255 109.276 111.401 107.252C113.547 105.228 114.2 102.169 113.055 99.5061C111.91 96.8432 109.192 95.1025 106.174 95.0985V95.0925Z" fill="#A3085D"/>
<path fill-rule="evenodd" clip-rule="evenodd" d="M106.174 109.298C110.288 109.298 113.622 106.118 113.622 102.195C113.622 98.2725 110.288 95.0925 106.174 95.0925C102.06 95.0925 98.7255 98.2725 98.7255 102.195C98.7255 106.118 102.06 109.298 106.174 109.298Z" stroke="#1C1C1C" stroke-width="1.36" stroke-linecap="round"/>
<path d="M115.776 125.6C123.017 125.6 128.887 120.002 128.887 113.097C128.887 106.192 123.017 100.595 115.776 100.595C108.535 100.595 102.665 106.192 102.665 113.097C102.665 120.002 108.535 125.6 115.776 125.6Z" fill="#C9116D"/>
<path d="M115.776 100.595C114.211 100.597 112.66 100.867 111.196 101.392C115.864 101.132 122.439 102.153 124.839 109.298C128.722 120.852 114.978 113.961 114.895 119.312C114.813 124.663 106.028 119.681 106.471 121.909C110.657 125.927 117.152 126.759 122.302 123.939C127.452 121.118 129.97 115.349 128.44 109.877C126.91 104.404 121.714 100.596 115.776 100.595V100.595Z" fill="#A3085D"/>
<path fill-rule="evenodd" clip-rule="evenodd" d="M115.776 125.6C123.017 125.6 128.887 120.002 128.887 113.097C128.887 106.192 123.017 100.595 115.776 100.595C108.535 100.595 102.665 106.192 102.665 113.097C102.665 120.002 108.535 125.6 115.776 125.6Z" stroke="#1C1C1C" stroke-width="1.36" stroke-linecap="round"/>
<path d="M313.071 114.619C313.071 114.619 314.927 108.646 311.437 109.044C307.947 109.443 300.55 110.506 300.778 101.887C301.006 93.2684 325.099 92.8819 329.406 119.94C330.496 126.795 308.188 131.923 313.071 114.619Z" fill="#C9116D" stroke="#1C1C1C" stroke-width="1.36"/>
<path d="M328.013 88.7386C330.41 88.7386 332.352 86.8863 332.352 84.6013C332.352 82.3164 330.41 80.464 328.013 80.464C325.617 80.464 323.675 82.3164 323.675 84.6013C323.675 86.8863 325.617 88.7386 328.013 88.7386Z" fill="#C9116D" stroke="#1C1C1C" stroke-width="1.36" stroke-linecap="round"/>
<path d="M323.104 98.7345C327.323 98.7345 330.743 95.4733 330.743 91.4505C330.743 87.4276 327.323 84.1664 323.104 84.1664C318.886 84.1664 315.466 87.4276 315.466 91.4505C315.466 95.4733 318.886 98.7345 323.104 98.7345Z" fill="#C9116D" stroke="#1C1C1C" stroke-width="1.36" stroke-linecap="round"/>
<path d="M240.316 408.589C229.549 395.223 232.336 393.369 227.155 383.294C217.021 381.99 210.155 370.792 210.155 370.792C207.337 376.663 204.702 381.664 202.555 385.348C212.733 400.979 239.911 417.848 240.316 408.589Z" fill="#F9BF30"/>
<path opacity="0.43" d="M240.316 408.589C229.549 395.223 232.336 393.369 227.155 383.294C225.732 383.102 224.343 382.729 223.025 382.183C222.765 383.526 222.926 384.913 223.488 386.169C228.453 396.866 229.315 406.536 222.411 401.39C215.507 396.244 202.567 385.348 202.567 385.348C212.733 400.979 239.911 417.848 240.316 408.589Z" fill="#F98216"/>
<path fill-rule="evenodd" clip-rule="evenodd" d="M240.316 408.589C229.549 395.223 232.336 393.369 227.155 383.294C217.021 381.99 210.155 370.792 210.155 370.792C207.337 376.663 204.702 381.664 202.555 385.348C212.733 400.979 239.911 417.848 240.316 408.589V408.589Z" stroke="#1C1C1C" stroke-width="1.36"/>
<path d="M236.851 373.359C241.293 367.844 245.43 362.113 249.247 356.188C240.747 355.849 230.106 351.706 220.89 346.041C218.889 351.199 216.786 356.23 214.696 360.965C217.641 364.287 225.938 372.453 236.851 373.359Z" fill="#F97ACC"/>
<path opacity="0.72" d="M236.851 358.61C242.913 359.02 235.585 364.764 229.447 371.595C231.808 372.536 234.304 373.131 236.851 373.359C241.293 367.844 245.43 362.113 249.247 356.188C240.747 355.849 230.106 351.706 220.89 346.041C220.89 346.041 226.521 357.915 236.851 358.61Z" fill="#E224B1"/>
<path fill-rule="evenodd" clip-rule="evenodd" d="M236.851 373.359C241.293 367.844 245.43 362.113 249.247 356.188C240.747 355.849 230.106 351.706 220.89 346.041C218.889 351.199 216.786 356.23 214.696 360.965C217.641 364.287 225.938 372.453 236.851 373.359V373.359Z" stroke="#1C1C1C" stroke-width="1.36"/>
<path d="M210.18 370.792C210.18 370.792 217.045 381.99 227.179 383.295C229.656 381.519 233.019 378.052 236.851 373.359C225.938 372.453 217.641 364.299 214.683 360.965C213.157 364.42 211.636 367.73 210.167 370.792H210.18Z" fill="white"/>
<path opacity="0.71" d="M229.447 371.595C226.375 375.026 223.626 378.734 223.05 382.183C224.368 382.729 225.757 383.102 227.179 383.294C229.656 381.519 233.019 378.052 236.851 373.359C234.304 373.131 231.807 372.536 229.447 371.595Z" fill="#AFC0F9"/>
<path fill-rule="evenodd" clip-rule="evenodd" d="M210.18 370.792C210.18 370.792 217.045 381.99 227.179 383.295C229.656 381.519 233.019 378.052 236.851 373.359C225.938 372.453 217.641 364.299 214.683 360.965C213.157 364.42 211.636 367.73 210.167 370.792H210.18Z" stroke="#1C1C1C" stroke-width="1.36"/>
<path d="M326.075 336.196L326.334 336.045C326.334 333.629 327.443 329.401 332.434 322.274C340.262 311.137 349.902 300.102 353.924 298.658C353.86 298.544 353.776 298.44 353.677 298.35C350.016 295.264 332.776 310.587 328.874 308.322C328.677 308.118 328.491 307.905 328.317 307.682C325.384 310.472 317.993 318.282 316.162 327.523C320.754 331.926 324.288 335.036 326.075 336.196Z" fill="#F9BF30"/>
<path opacity="0.43" d="M353.69 298.35C350.029 295.264 332.788 310.587 328.887 308.322C328.689 308.118 328.503 307.905 328.329 307.682C326.472 309.461 324.753 311.367 323.186 313.384C323.186 313.384 333.954 315.147 336.544 309.76C338.444 305.779 344.366 303.635 346.59 304.698C349.649 301.491 352.29 299.262 353.937 298.658C353.872 298.544 353.789 298.44 353.69 298.35Z" fill="#F98216"/>
<path fill-rule="evenodd" clip-rule="evenodd" d="M326.075 336.196L326.334 336.045C326.334 333.629 327.443 329.401 332.434 322.274C340.262 311.137 349.902 300.102 353.924 298.658C353.86 298.544 353.776 298.44 353.677 298.35C350.016 295.264 332.776 310.587 328.874 308.322C328.677 308.118 328.491 307.905 328.317 307.682C325.384 310.472 317.993 318.282 316.162 327.523C320.754 331.926 324.288 335.036 326.075 336.196V336.196Z" stroke="#1C1C1C" stroke-width="1.36"/>
<path d="M324.618 298.356C323.731 294.461 322.99 289.816 321.926 284.688C310.58 288.702 300.252 294.957 291.619 303.043C296.927 308.479 302.057 313.673 306.693 318.288C311.824 308.685 320.862 301.195 324.618 298.356Z" fill="#F97ACC"/>
<path opacity="0.72" d="M317.505 295.161C318.911 296.973 319.317 299.703 319.576 302.53C321.603 300.718 323.376 299.281 324.643 298.356C323.756 294.461 323.015 289.816 321.951 284.688C310.597 288.699 300.26 294.954 291.619 303.043C291.619 303.043 313.268 289.683 317.505 295.161Z" fill="#E224B1"/>
<path fill-rule="evenodd" clip-rule="evenodd" d="M324.618 298.356C323.731 294.461 322.99 289.816 321.926 284.688C310.58 288.702 300.252 294.957 291.619 303.043C296.927 308.479 302.057 313.673 306.693 318.288C311.824 308.685 320.862 301.195 324.618 298.356V298.356Z" stroke="#1C1C1C" stroke-width="1.36"/>
<path d="M328.317 307.682C326.588 305.55 325.524 302.343 324.618 298.356C320.862 301.195 311.824 308.654 306.7 318.288C310.171 321.743 313.37 324.871 316.163 327.523C317.993 318.282 325.385 310.496 328.317 307.682Z" fill="white"/>
<path opacity="0.71" d="M324.618 298.356C323.389 299.281 321.603 300.706 319.551 302.53C319.963 307.072 320.001 311.837 323.148 313.402C324.715 311.385 326.434 309.479 328.291 307.7C326.588 305.55 325.524 302.343 324.618 298.356Z" fill="#AFC0F9"/>
<path fill-rule="evenodd" clip-rule="evenodd" d="M328.317 307.682C326.588 305.55 325.524 302.343 324.618 298.356C320.862 301.195 311.824 308.654 306.7 318.288C310.171 321.743 313.37 324.871 316.163 327.523C317.993 318.282 325.385 310.496 328.317 307.682V307.682Z" stroke="#1C1C1C" stroke-width="1.36"/>
<path d="M194.384 165.154C196.823 187.429 188.912 197.111 173.907 190.854C169.911 189.187 165.407 186.39 160.467 182.398C134.296 161.259 95.1852 161.585 90.587 223.831C85.9887 286.077 130.109 314.048 130.109 314.048C143.74 286.76 164.502 265.923 176.441 257.968C159.34 240.555 155.59 222.593 159.612 225.063C165.211 227.817 173.261 229.291 181.679 228.935C182.686 228.899 183.699 228.838 184.712 228.748H184.763C191.461 227.865 197.976 226.005 204.081 223.233C233.051 209.632 231.202 178.224 227.136 160.455C215.735 172.185 194.384 165.154 194.384 165.154Z" fill="#F9BF30"/>
<path opacity="0.43" d="M227.135 160.455C224.314 163.3 220.695 165.312 216.71 166.254C223.443 171.261 207.95 184.977 212.08 199.829C216.273 214.928 186.112 227.612 157.572 214.228C139.027 205.537 131.293 203.447 131.224 207.65V207.693C131.284 208.735 131.544 209.759 131.99 210.713C133.732 216.402 139.122 229.382 154.722 244.258C163.804 252.925 131.863 259.545 137.538 275.006C142.846 289.454 123.737 298.779 129.425 313.589C129.862 313.897 130.103 314.048 130.103 314.048C143.733 286.76 164.495 265.923 176.434 257.968C168.561 249.959 163.526 241.842 160.77 235.621C159.753 233.412 158.963 231.114 158.414 228.76V228.657C158.364 228.409 158.319 228.174 158.288 227.95C158.284 227.898 158.284 227.846 158.288 227.793C158.258 227.58 158.233 227.379 158.212 227.189C158.215 227.147 158.215 227.105 158.212 227.062C158.212 226.845 158.212 226.64 158.212 226.458C158.212 226.416 158.212 226.38 158.212 226.338C158.212 226.295 158.212 226.078 158.212 225.957C158.219 225.894 158.229 225.832 158.243 225.77C158.254 225.695 158.269 225.62 158.288 225.546L158.345 225.371C158.364 225.319 158.387 225.269 158.414 225.22C158.438 225.172 158.465 225.126 158.497 225.081C158.744 224.755 159.13 224.719 159.656 225.045C165.255 227.799 173.305 229.273 181.722 228.917C182.729 228.88 183.743 228.82 184.756 228.729H184.807C191.505 227.847 198.02 225.987 204.125 223.215C233.051 209.632 231.201 178.224 227.135 160.455V160.455Z" fill="#F98216"/>
<path fill-rule="evenodd" clip-rule="evenodd" d="M194.384 165.154C196.823 187.429 188.912 197.111 173.907 190.854C169.911 189.187 165.407 186.39 160.467 182.398C134.296 161.259 95.1852 161.585 90.587 223.831C85.9887 286.077 130.109 314.048 130.109 314.048C143.74 286.76 164.502 265.923 176.441 257.968C159.34 240.555 155.59 222.593 159.612 225.063C165.211 227.817 173.261 229.291 181.679 228.935C182.686 228.899 183.699 228.838 184.712 228.748H184.763C191.461 227.865 197.976 226.005 204.081 223.233C233.051 209.632 231.202 178.224 227.136 160.455C215.735 172.185 194.384 165.154 194.384 165.154V165.154Z" stroke="#1C1C1C" stroke-width="1.36"/>
<path d="M212.308 155.66C204.119 157.586 196.176 156.137 192.794 155.321C193.529 158.825 194.061 162.104 194.384 165.148C194.707 168.192 215.735 172.161 227.135 160.449C226.338 156.877 225.297 153.359 224.019 149.916C220.664 152.711 216.644 154.683 212.308 155.66Z" fill="white"/>
<path opacity="0.71" d="M227.136 160.455C226.338 156.883 225.297 153.365 224.019 149.922C220.663 152.715 216.643 154.684 212.308 155.66C212.308 155.66 209.775 158.595 212.118 161.784C214.462 164.973 194.219 163.403 194.384 165.154C194.384 165.154 215.735 172.185 227.136 160.455Z" fill="#AFC0F9"/>
<path fill-rule="evenodd" clip-rule="evenodd" d="M212.308 155.66C204.119 157.586 196.176 156.137 192.794 155.322C193.529 158.825 194.061 162.104 194.384 165.148C194.707 168.192 215.735 172.161 227.135 160.449C226.338 156.877 225.297 153.359 224.019 149.916C220.664 152.711 216.644 154.683 212.308 155.66V155.66Z" stroke="#1C1C1C" stroke-width="1.36"/>
<path d="M227.281 102.715L236.871 128.517L227.281 102.715Z" fill="white"/>
<path d="M227.281 102.715L236.871 128.517" stroke="#1C1C1C" stroke-width="1.36" stroke-linecap="round"/>
<path d="M205.018 113.097L212.498 133.222L205.018 113.097Z" fill="white"/>
<path d="M205.018 113.097L212.498 133.222" stroke="#1C1C1C" stroke-width="1.36" stroke-linecap="round"/>
<path d="M261.558 127.346C263.639 126.635 262.158 117.622 258.251 107.214C254.343 96.8069 249.488 88.9461 247.406 89.6567C245.325 90.3674 246.806 99.3804 250.713 109.788C254.621 120.195 259.476 128.056 261.558 127.346Z" fill="white" stroke="#1C1C1C" stroke-width="1.36" stroke-linecap="round"/>
<path d="M141.338 163.016L135.841 163.669L141.338 163.016Z" fill="white"/>
<path d="M141.338 163.016L135.841 163.669" stroke="#1C1C1C" stroke-width="1.36" stroke-linecap="round"/>
<path d="M141.338 163.016L135.841 163.669C136.81 164.146 140.053 168.211 143.245 167.896C142.662 166.465 141.338 163.016 141.338 163.016V163.016Z" fill="#1C1C1C" stroke="#1C1C1C" stroke-width="1.36"/>
<path d="M236.243 264.823C236.243 264.823 234.685 276.015 230.632 285.184" stroke="#1C1C1C" stroke-width="1.36" stroke-linecap="round"/>
<path d="M144.201 140.458C144.201 140.458 146.323 144.202 148.502 145.229C148.78 145.459 152.422 147.476 145.791 148.792" stroke="#1C1C1C" stroke-width="1.36" stroke-linecap="round"/>
<path d="M137.272 144.897C139.267 141.43 142.574 143.218 142.574 143.218" stroke="#1C1C1C" stroke-width="1.36" stroke-linecap="round"/>
<path d="M146.215 155.889C147.436 155.889 148.426 154.946 148.426 153.781C148.426 152.617 147.436 151.673 146.215 151.673C144.995 151.673 144.005 152.617 144.005 153.781C144.005 154.946 144.995 155.889 146.215 155.889Z" fill="white" stroke="#1C1C1C" stroke-width="1.36" stroke-linecap="round"/>
<path d="M131.851 205.621C131.851 205.621 147.919 219.47 161.372 225.855" stroke="#1C1C1C" stroke-width="1.36" stroke-linecap="round"/>
<path d="M250.963 100.848C250.963 100.848 247.561 95.8656 248.587 94.114C249.614 92.3625 254.25 100.83 255.973 108.767C257.695 116.703 253.388 104.503 250.963 100.848Z" fill="#AFC0F9"/>
<path d="M258.817 116.999C258.817 116.999 256.822 111.442 256.372 112.729C255.923 114.015 259.317 121.571 258.817 116.999Z" fill="#AFC0F9"/>
<path d="M117.67 176.135C117.67 176.135 102.241 182.555 101.798 194.345C101.354 206.135 105.68 186.119 114.307 187.767C122.933 189.416 126.499 172.728 117.67 176.135Z" fill="white"/>
<path d="M131.851 174.74C131.851 174.74 124.948 173.532 125.955 178.303C126.962 183.074 140.193 176.413 131.851 174.74Z" fill="white"/>
<path d="M198.932 170.077C198.932 170.077 196.126 174.045 200.148 174.595C204.17 175.144 206.488 168.561 198.932 170.077Z" fill="white"/>
<path d="M207.482 169.853C207.482 169.853 205.285 169.781 205.582 171.369C205.88 172.958 210.649 171.822 207.482 169.853Z" fill="white"/>
<path d="M231.063 104.122C231.063 104.122 220.137 106.937 220.295 109.298C220.454 111.66 227.896 106.882 225.185 111.388C222.474 115.894 242.375 101.694 231.063 104.122Z" fill="white"/>
<path d="M217.116 111.388C217.116 111.388 213.196 109.975 212.499 112.536C211.802 115.096 217.661 114.746 217.116 111.388Z" fill="white"/>
<path d="M134.593 123.159C134.593 123.159 123.509 126.506 120.925 135.336C118.341 144.166 126.531 128.77 131.851 127.895C137.171 127.019 138.058 123.141 134.593 123.159Z" fill="white"/>
<path d="M119.342 141.412C119.342 141.412 117.905 140.113 116.898 142.547C115.891 144.981 118.912 146.213 119.342 141.412Z" fill="white"/>
<path d="M113.008 102.727C113.008 102.727 107.099 104.883 106.168 108.078C105.237 111.273 118.17 102.298 113.008 102.727Z" fill="white"/>
<path d="M102.659 96.9044C102.659 96.9044 99.9737 99.8035 100.525 100.595C101.076 101.386 105.25 97.6413 102.659 96.9044Z" fill="white"/>
<path d="M188.805 141.412C188.805 141.412 183.617 138.815 184.187 137.993C184.757 137.172 191.091 138.47 191.382 142.106C191.674 145.742 190.008 142.052 188.805 141.412Z" fill="white"/>
<path d="M192.674 145.404C192.674 145.404 191.445 144.571 191.407 145.736C191.369 146.902 192.674 147.125 192.674 145.404Z" fill="white"/>
<path d="M166.003 138.609C166.003 138.609 165.572 142.463 166.864 143.828C168.156 145.193 167.193 137.099 166.003 138.609Z" fill="white"/>
<path d="M240.158 239.722C240.158 239.722 233.672 234.636 235.401 233.187C237.13 231.737 252.857 236.75 255.904 250.841C258.95 264.932 247.651 245.387 240.158 239.722Z" fill="white"/>
<path d="M257.734 261.502C257.734 261.502 256.518 257.147 259.634 258.596C262.75 260.046 259.456 266.436 257.734 261.502Z" fill="white"/>
<path d="M181.666 259.2C186.456 255.539 192.657 254.001 198.71 254.972C209.211 256.476 189.077 258.808 192.243 261.689C195.41 264.57 174.902 262.685 181.666 259.2Z" fill="white"/>
<path d="M205.038 254.701C205.038 254.701 210.649 251.379 213.233 254.26C215.818 257.141 202.314 256.778 205.038 254.701Z" fill="white"/>
<path d="M296.053 301.485C296.053 301.485 295.622 305 300.797 308.292C305.971 311.584 298.7 300.99 296.053 301.485Z" fill="white"/>
<path d="M220.891 351.754C220.891 351.754 216.4 358.797 217.977 360.965C219.554 363.134 223.013 352.171 220.891 351.754Z" fill="white"/>
<path d="M110.474 282.937C111.057 284.088 111.663 285.25 112.292 286.422" stroke="white" stroke-width="1.36" stroke-linecap="round"/>
<path d="M96.3312 217.725C94.7984 230.113 95.4508 250.624 107.675 277.181" stroke="white" stroke-width="1.36" stroke-linecap="round"/>
<path d="M97.6422 210.393C97.4332 211.262 97.2242 212.205 97.0089 213.274" stroke="white" stroke-width="1.36" stroke-linecap="round"/>
<path d="M99.5484 204.353C99.5484 204.353 99.181 205.168 98.668 206.769" stroke="white" stroke-width="1.36" stroke-linecap="round"/>
<path d="M197.696 183.805C196.48 187.387 194.149 191.657 189.798 193.046" stroke="white" stroke-width="1.36" stroke-linecap="round"/>
<path d="M198.931 178.442C198.931 178.442 198.862 179.155 198.64 180.254" stroke="white" stroke-width="1.36" stroke-linecap="round"/>
<path d="M225.457 254.556C229.46 254.598 234.451 254.954 236.857 256.368" stroke="white" stroke-width="1.36" stroke-linecap="round"/>
<path d="M219.604 254.701C219.604 254.701 220.567 254.634 222.062 254.592" stroke="white" stroke-width="1.36" stroke-linecap="round"/>
<path d="M223.278 310.569C219.63 315.908 214.411 321.767 207.773 324.756" stroke="white" stroke-width="1.36" stroke-linecap="round"/>
<path d="M226.686 305C226.185 305.918 225.615 306.909 224.975 307.948" stroke="white" stroke-width="1.36" stroke-linecap="round"/>
<path d="M229.428 299.377C229.428 299.377 229.041 300.331 228.294 301.884" stroke="white" stroke-width="1.36" stroke-linecap="round"/>
<path d="M268.957 278.485C271.6 284.132 273.575 290.041 274.847 296.104" stroke="white" stroke-width="1.36" stroke-linecap="round"/>
<path d="M265.917 272.337C266.297 273.044 266.696 273.805 267.108 274.614" stroke="white" stroke-width="1.36" stroke-linecap="round"/>
<path d="M262.483 266.472C262.483 266.472 263.034 267.306 263.908 268.804" stroke="white" stroke-width="1.36" stroke-linecap="round"/>
<path d="M169.238 146.654L171.879 152.984" stroke="white" stroke-width="1.36" stroke-linecap="round"/>
<path d="M208.438 114.215L196.879 119.367" stroke="white" stroke-width="1.36" stroke-linecap="round"/>
<path d="M243.717 93.8845C243.717 93.8845 240.195 96.7716 243.717 105.729" stroke="white" stroke-width="1.36" stroke-linecap="round"/>
<path d="M115.776 147.488C115.776 147.488 111.343 156.656 115.776 157.677" stroke="white" stroke-width="1.36" stroke-linecap="round"/>
<path d="M106.13 111.001C106.13 111.001 104.337 123.474 116.694 121.547" stroke="white" stroke-width="1.36" stroke-linecap="round"/>
<path d="M330.844 318.886C333.32 315.304 336.165 311.968 339.337 308.926" stroke="white" stroke-width="1.36" stroke-linecap="round"/>
<path d="M319.576 326.526C319.576 326.526 322.901 331.418 328.317 322.697" stroke="white" stroke-width="1.36" stroke-linecap="round"/>
<path d="M211.352 390.512C212.365 391.628 213.485 392.654 214.696 393.574" stroke="white" stroke-width="1.36" stroke-linecap="round"/>
<path d="M210.18 377.442C210.18 377.442 205.746 381.869 209.585 388.169" stroke="white" stroke-width="1.36" stroke-linecap="round"/>
<path d="M379.455 245.593C379.455 245.593 377.441 246.402 377.587 251.343C377.733 256.283 385.491 245.387 379.455 245.593Z" fill="white"/>
<path d="M378.885 254.435C378.885 254.435 376.757 253.922 376.985 255.878C377.213 257.835 380 256.615 378.885 254.435Z" fill="white"/>
<path d="M309.354 240.495C310.269 241.775 311.114 243.1 311.887 244.463" stroke="#1C1C1C" stroke-width="1.36" stroke-linecap="round"/>
<path d="M288.288 223.777C295.072 226.669 301.107 230.947 305.965 236.309" stroke="#1C1C1C" stroke-width="1.36" stroke-linecap="round"/>
<path d="M334.448 301.884C334.448 301.884 329.463 305.363 330.844 311.179" stroke="#1C1C1C" stroke-width="1.36" stroke-linecap="round"/>
<path d="M339.337 300.229C339.337 300.229 333.878 302.216 335.601 308.932" stroke="#1C1C1C" stroke-width="1.36" stroke-linecap="round"/>
<path d="M343.809 298.882C343.809 298.882 338.184 300.398 339.274 307.235" stroke="#1C1C1C" stroke-width="1.36" stroke-linecap="round"/>
<path d="M233.653 390.88C233.653 390.88 229.853 386.242 223.798 387.74" stroke="#1C1C1C" stroke-width="1.36" stroke-linecap="round"/>
<path d="M235.547 395.489C235.547 395.489 233.292 390.349 226.312 392.197" stroke="#1C1C1C" stroke-width="1.36" stroke-linecap="round"/>
<path d="M237.092 399.711C237.092 399.711 235.325 394.396 228.224 395.646" stroke="#1C1C1C" stroke-width="1.36" stroke-linecap="round"/>
<path d="M356.401 312.351C355.767 313.408 355.02 314.525 354.178 315.697" stroke="#1C1C1C" stroke-width="1.36" stroke-linecap="round"/>
<path d="M357.743 293.482C357.743 293.482 363.311 297.106 358.934 307.483" stroke="#1C1C1C" stroke-width="1.36" stroke-linecap="round"/>
<path d="M244.673 373.105C244.036 373.814 243.381 374.513 242.71 375.201" stroke="#1C1C1C" stroke-width="1.36" stroke-linecap="round"/>
<path d="M249.671 367.12C248.886 368.134 248.075 369.149 247.232 370.14" stroke="#1C1C1C" stroke-width="1.36" stroke-linecap="round"/>
<path d="M267.107 336.196C263.4 345.644 258.56 354.653 252.685 363.043" stroke="#1C1C1C" stroke-width="1.36" stroke-linecap="round"/>
<path d="M82.0678 220.002C81.9116 221.238 81.7786 222.496 81.6688 223.777" stroke="#1C1C1C" stroke-width="1.36" stroke-linecap="round"/>
<path d="M83.8726 210.163C83.5053 211.691 83.1633 213.268 82.8593 214.88" stroke="#1C1C1C" stroke-width="1.36" stroke-linecap="round"/>
<path d="M99.1051 177.3C99.1051 177.3 90.9219 187.423 85.6776 203.815" stroke="#1C1C1C" stroke-width="1.36" stroke-linecap="round"/>
<path d="M216.792 221.198C215.957 221.664 215.077 222.052 214.164 222.357" stroke="#1C1C1C" stroke-width="1.36" stroke-linecap="round"/>
<path d="M228.054 206.008C228.054 206.008 225.679 214.016 219.82 219.084" stroke="#1C1C1C" stroke-width="1.36" stroke-linecap="round"/>
</svg>
