<svg width="337" height="450" viewBox="0 0 337 450" fill="none" xmlns="http://www.w3.org/2000/svg">
<path d="M171.203 61.228H320.776V423.355H171.203V61.228Z" fill="#508DEF"/>
<path d="M186.272 77.3049H236.712V231.683H186.272V77.3049Z" fill="#508DEF" stroke="white" stroke-width="1.26"/>
<path fill-rule="evenodd" clip-rule="evenodd" d="M249.629 77.3049H300.069V231.683H249.629V77.3049Z" stroke="white" stroke-width="1.26"/>
<path d="M186.272 247.102H236.712V401.48H186.272V247.102Z" fill="#508DEF" stroke="white" stroke-width="1.26"/>
<path d="M249.629 247.102H300.069V401.48H249.629V247.102Z" fill="#508DEF" stroke="white" stroke-width="1.26"/>
<path d="M156.554 423.319L27.6601 443.377V9.7168L156.554 59.814V423.319Z" fill="#0B539B"/>
<path fill-rule="evenodd" clip-rule="evenodd" d="M162.796 52.3765H329.503V432.206H162.796V52.3765ZM320.776 423.355V61.228H171.516V423.355H320.776Z" fill="#77ADFC"/>
<path opacity="0.33" d="M323.538 52.3765H162.838V432.206H264.47C260.721 417.303 228.545 427.462 213.867 387.666C194.616 335.49 252.32 289.578 222.879 202.654C188.402 100.954 301.375 66.2405 323.538 52.3765V52.3765Z" fill="#0F59B2"/>
<path d="M320.776 61.228H321.406V60.598H320.776V61.228ZM320.776 423.355V423.985H321.406V423.355H320.776ZM171.516 423.355H170.886V423.985H171.516V423.355ZM171.516 61.228V60.598H170.886V61.228H171.516ZM329.503 52.3765H330.133V51.7465H329.503V52.3765ZM162.796 52.3765V51.7465H162.166V52.3765H162.796ZM162.796 432.206H162.166V432.836H162.796V432.206ZM329.503 432.206V432.836H330.133V432.206H329.503ZM320.146 61.228V423.355H321.406V61.228H320.146ZM320.776 422.725H171.516V423.985H320.776V422.725ZM172.146 423.355V61.228H170.886V423.355H172.146ZM171.516 61.858H320.776V60.598H171.516V61.858ZM329.503 51.7465H162.796V53.0065H329.503V51.7465ZM162.166 52.3765V432.206H163.426V52.3765H162.166ZM162.796 432.836H329.503V431.576H162.796V432.836ZM330.133 432.206V52.3765H328.873V432.206H330.133Z" fill="#161616"/>
<path fill-rule="evenodd" clip-rule="evenodd" d="M23.1863 449.209V1.26135L35.2015 5.67296L156.937 50.39L162.774 52.511V432.086L154.963 433.048L33.2061 447.979L23.1863 449.209ZM153.869 58.7041L32.1125 14.0082V439.156L153.869 424.217V58.7041Z" fill="#508DEF"/>
<path d="M23.1863 1.26135L23.4035 0.669957L22.5563 0.358912V1.26135H23.1863ZM23.1863 449.209H22.5563V449.921L23.2631 449.835L23.1863 449.209ZM35.2015 5.67296L35.4188 5.0816L35.4187 5.08157L35.2015 5.67296ZM156.937 50.39L156.72 50.9814L156.722 50.9821L156.937 50.39ZM162.774 52.511H163.404V52.0696L162.989 51.9188L162.774 52.511ZM162.774 432.086L162.851 432.711L163.404 432.643V432.086H162.774ZM154.963 433.048L155.04 433.673L155.04 433.673L154.963 433.048ZM33.2061 447.979L33.1294 447.354H33.1293L33.2061 447.979ZM32.1125 14.0082L32.3296 13.4168L31.4825 13.1059V14.0082H32.1125ZM153.869 58.7041H154.499V58.2642L154.087 58.1127L153.869 58.7041ZM32.1125 439.156H31.4825V439.868L32.1892 439.781L32.1125 439.156ZM153.869 424.217L153.946 424.843L154.499 424.775V424.217H153.869ZM22.5563 1.26135V449.209H23.8163V1.26135H22.5563ZM35.4187 5.08157L23.4035 0.669957L22.9692 1.85275L34.9844 6.26436L35.4187 5.08157ZM157.154 49.7986L35.4188 5.0816L34.9843 6.26433L156.72 50.9814L157.154 49.7986ZM162.989 51.9188L157.152 49.7979L156.722 50.9821L162.559 53.1031L162.989 51.9188ZM163.404 432.086V52.511H162.144V432.086H163.404ZM155.04 433.673L162.851 432.711L162.697 431.461L154.886 432.422L155.04 433.673ZM33.2828 448.605L155.04 433.673L154.886 432.422L33.1294 447.354L33.2828 448.605ZM23.2631 449.835L33.2829 448.605L33.1293 447.354L23.1096 448.584L23.2631 449.835ZM31.8954 14.5997L153.652 59.2955L154.087 58.1127L32.3296 13.4168L31.8954 14.5997ZM32.7425 439.156V14.0082H31.4825V439.156H32.7425ZM153.793 423.592L32.0358 438.531L32.1892 439.781L153.946 424.843L153.793 423.592ZM153.239 58.7041V424.217H154.499V58.7041H153.239Z" fill="#161616"/>
<path d="M69.7062 134.91C69.7062 134.91 64.3306 102.438 82.2327 95.3191C100.135 88.1997 98.5654 132.542 92.3803 134.91C86.1951 137.279 69.7062 134.91 69.7062 134.91Z" fill="#F98506" stroke="#161616" stroke-width="1.26" stroke-linecap="round"/>
<path d="M96.6268 131.078C96.6268 131.078 62.5411 101.852 82.2327 95.3048C101.924 88.7581 144.482 117.483 150.049 141.047C155.616 164.611 96.6268 131.078 96.6268 131.078Z" fill="#F7C908" stroke="#161616" stroke-width="1.26" stroke-linecap="round"/>
<path d="M82.8434 250.899C82.8434 250.899 63.0808 268.687 51.3425 262.352C39.6043 256.017 62.9459 238.095 62.9459 238.095L82.8434 250.899Z" fill="#161616" stroke="#161616" stroke-width="1.26"/>
<path d="M127.78 216.914C92.7992 209.278 53.5794 226.508 58.11 247.477C87.31 272.724 78.9732 311.198 32.6522 309.529V365.954C74.7409 360.546 105.539 352.521 127.808 343.083C223.844 302.255 160.594 234.638 160.594 234.638C151.476 225.172 139.887 219.551 127.78 216.914Z" fill="#450470"/>
<path d="M32.6522 328.159C60.5102 326.745 80.081 318.261 90.8251 302.919C107.158 279.589 97.2162 249.301 96.7759 248.021L94.2408 248.87C94.3402 249.167 104.182 279.221 88.6238 301.406C78.3838 316.013 59.5586 324.101 32.6522 325.486V328.159Z" fill="#AF0B65"/>
<path d="M107.896 308.229C93.4526 329.558 67.4906 341.761 32.6238 343.656V346.342C77.7305 343.939 99.6661 325.189 110.169 309.579C121.943 292.123 122.241 275.241 122.276 274.526H119.599C119.628 274.689 119.28 291.424 107.896 308.229Z" fill="#AF0B65"/>
<path opacity="0.65" d="M160.594 234.638L160.36 234.405C134.185 214.432 97.6494 217.225 82.8434 223.425C59.4947 233.224 61.7245 250.899 61.7245 250.899C61.7245 250.899 79.8893 261.256 80.1876 293.679C80.4858 326.101 128.646 320.919 113.059 337.215C97.4718 353.511 71.446 359.669 71.1619 359.733C94.3544 355.06 112.967 349.404 127.773 343.111C223.845 302.255 160.594 234.638 160.594 234.638Z" fill="#161616"/>
<path fill-rule="evenodd" clip-rule="evenodd" d="M127.78 216.914C92.7992 209.278 53.5794 226.508 58.11 247.477C87.31 272.724 78.9732 311.198 32.6522 309.529V365.954C74.7409 360.546 105.539 352.521 127.808 343.083C223.844 302.255 160.594 234.638 160.594 234.638C151.476 225.172 139.887 219.551 127.78 216.914V216.914Z" stroke="#161616" stroke-width="1.26"/>
<path d="M109.167 132.464C107.804 128.913 106.076 125.511 104.012 122.312C103.117 121.244 92.2809 106.758 100.135 105.111C104.755 104.101 109.585 105.229 113.272 108.179C111.71 108.179 101.001 109.247 106.803 114.132C112.604 119.017 121.41 120.205 120.941 127.176C120.473 134.147 109.167 132.464 109.167 132.464Z" fill="#F98506"/>
<mask id="mask0_190_231" style="mask-type:luminance" maskUnits="userSpaceOnUse" x="58" y="210" width="141" height="167">
<path fill-rule="evenodd" clip-rule="evenodd" d="M195.852 345.876C192.706 325.373 186.35 300.261 172.418 270.999C168.274 262.162 163.368 253.701 157.754 245.71C125.585 200.583 91.0026 211.067 91.0026 211.067C91.0026 211.067 59.445 220.838 58.1242 240.11C58.1242 240.11 72.1987 249.11 98.8353 277.998C111.852 292.364 148.998 336.515 146.875 370.521C154.374 374.326 162.68 376.285 171.097 376.234C180.643 376.18 190.033 373.824 198.465 369.369C197.939 362.391 197.18 354.544 195.852 345.876Z" fill="white"/>
</mask>
<g mask="url(#mask0_190_231)">
<path d="M195.852 345.876C192.706 325.373 186.35 300.261 172.418 270.999C168.274 262.162 163.368 253.701 157.754 245.71C125.585 200.583 91.0026 211.067 91.0026 211.067C91.0026 211.067 59.445 220.838 58.1242 240.11C58.1242 240.11 72.1987 249.11 98.8353 277.998C111.852 292.364 148.998 336.515 146.875 370.521C154.374 374.326 162.68 376.285 171.097 376.234C180.643 376.18 190.033 373.824 198.465 369.369C197.939 362.391 197.18 354.544 195.852 345.876Z" fill="#640DB7"/>
</g>
<path d="M178.042 375.781C167.845 327.374 144.95 290.01 127.389 267.068C108.074 241.835 90.8464 228.099 90.676 227.957L89.0072 230.078C89.1776 230.212 106.192 243.794 125.316 268.786C142.65 291.445 165.253 328.328 175.365 376.085C176.267 375.986 177.154 375.895 178.042 375.781Z" fill="#DB1679"/>
<path d="M189.113 373.307C178.795 326.038 158.144 288.087 142.387 264.289C124.755 237.657 109.238 222.485 109.082 222.337L107.215 224.245C107.818 224.832 166.694 282.819 186.542 374.085C187.451 373.844 188.31 373.583 189.113 373.307Z" fill="#DB1679"/>
<path opacity="0.4" d="M171.083 376.234C180.628 376.18 190.019 373.824 198.451 369.369C198.167 365.233 166.9 381.473 161.844 354.812C156.788 328.152 132.388 289.939 103.231 260.316C79.6976 236.406 124.755 230.248 142.998 228.756C140.843 226.756 138.587 224.868 136.237 223.1C109.799 216.638 73.3988 223.22 58.2236 238.937C58.1739 239.325 58.11 239.714 58.0887 240.117C58.0887 240.117 72.1632 249.117 98.7997 278.005C111.816 292.371 148.963 336.522 146.839 370.528C154.346 374.334 162.659 376.291 171.083 376.234Z" fill="#161616"/>
<path d="M169.4 264.976C168.164 262.591 166.917 260.307 165.657 258.124" stroke="#161616" stroke-width="1.26" stroke-linecap="round"/>
<path d="M90.9884 211.067C90.9884 211.067 59.4308 220.838 58.11 240.11C58.11 240.11 72.1845 249.11 98.8211 277.998C111.838 292.364 148.984 336.515 146.861 370.521C154.36 374.326 162.666 376.285 171.083 376.234C180.628 376.18 190.019 373.824 198.451 369.369C197.939 362.391 197.18 354.522 195.852 345.876C192.706 325.373 186.35 300.261 172.418 270.999" stroke="#161616" stroke-width="1.26" stroke-linecap="round"/>
<path d="M144.24 169.15C150.049 140.658 135.186 127.932 135.179 127.925C131.153 127.091 123.867 124.39 123.867 124.39C120.813 122.8 121.105 124.03 115.622 123.478L115.779 123.266C111.876 122.748 107.948 122.439 104.012 122.34C104.296 122.778 104.587 123.259 104.885 123.754C104.026 123.881 103.16 124.023 102.279 124.199C106.362 129.721 112.022 145.897 102.784 154.6C92.1317 164.625 87.9633 202.711 105.588 227.42C123.512 225.384 141.492 229.074 154.082 234.702C147.848 225.773 136.67 204.019 144.24 169.15Z" fill="white"/>
<path d="M123.839 135.243C123.839 135.243 108.457 121.548 113.599 134.281C117.739 146.901 109.033 147.127 106.497 139.188C103.962 131.248 99.7797 119.392 115.807 123.238C123.988 128.35 123.839 135.243 123.839 135.243Z" fill="#C2D2F9"/>
<path d="M147.926 223.468C143.523 221.347 137.224 220.81 126.459 217.437C106.576 211.223 114.074 182.166 115.97 166.668C119.315 139.435 111.127 128.922 108.102 122.503C106.86 122.425 105.503 122.354 104.033 122.312C104.317 122.75 104.609 123.231 104.907 123.726C104.048 123.853 103.181 123.995 102.301 124.171C106.384 129.693 112.043 145.869 102.805 154.572C92.153 164.597 87.9846 202.682 105.61 227.392C123.533 225.355 141.513 229.046 154.104 234.674C151.667 231.157 149.597 227.402 147.926 223.468Z" fill="#C2D2F9"/>
<path fill-rule="evenodd" clip-rule="evenodd" d="M144.24 169.15C150.049 140.658 135.186 127.932 135.179 127.925C131.153 127.091 123.867 124.39 123.867 124.39C120.813 122.8 121.105 124.03 115.622 123.478L115.779 123.266C111.876 122.748 107.948 122.439 104.012 122.34C104.296 122.778 104.587 123.259 104.885 123.754C104.026 123.881 103.16 124.023 102.279 124.199C106.362 129.721 112.022 145.897 102.784 154.6C92.1317 164.625 87.9633 202.711 105.588 227.42C123.512 225.384 141.492 229.074 154.082 234.702C147.848 225.773 136.67 204.019 144.24 169.15Z" stroke="#161616" stroke-width="1.26"/>
<path d="M115.005 123.132C115.005 123.132 123.334 97.6804 127.311 94.909C131.288 92.1376 140.043 97.1572 140.803 102.962C141.563 108.766 143.324 121.838 131.657 124.214C131.785 133.058 134.412 142.595 131.657 146.71C128.902 150.825 119.379 146.76 115.005 123.132Z" fill="#F96353"/>
<path fill-rule="evenodd" clip-rule="evenodd" d="M115.005 123.132C115.005 123.132 123.334 97.6805 127.311 94.9091C131.288 92.1377 140.043 97.1573 140.803 102.962C141.563 108.766 143.324 121.838 131.657 124.214C131.785 133.058 134.412 142.595 131.657 146.71C128.902 150.825 119.379 146.76 115.005 123.132Z" stroke="#161616" stroke-width="1.26"/>
<path d="M130.94 101.724C131.193 101.044 131.723 100.502 132.4 100.233C133.076 99.9632 133.836 99.9915 134.49 100.31C139.745 102.827 151.753 107.345 155.851 98.4793C161.148 86.9908 149.005 74.0599 142.99 78.6836C136.976 83.3073 138.73 89.642 129.2 87.7897C119.67 85.9373 114.131 91.4377 121.197 107.43C123.895 105.083 124.826 99.9357 127.077 100.862C129.328 101.788 124.691 110.894 126.146 111.021C127.133 111.106 129.555 105.259 130.94 101.724Z" fill="#161616" stroke="#161616" stroke-width="1.26"/>
<path d="M123.867 119.993C123.867 119.993 126.374 125.296 131.678 124.235" stroke="#161616" stroke-width="1.26" stroke-linecap="round"/>
<path d="M131.692 124.214C126.374 125.295 123.881 119.972 123.881 119.972C123.441 122.475 125.145 129.226 131.692 130.329C131.849 127.692 131.692 124.214 131.692 124.214Z" fill="#161616" stroke="#161616" stroke-width="1.26"/>
<path d="M81.8421 178.609C81.8421 178.609 77.8583 168.365 82.2327 160.737" stroke="#161616" stroke-width="1.26" stroke-linecap="round"/>
<path d="M91.9471 122.474C80.2657 128.837 67.2208 142.27 53.6007 161.635C21.3826 207.37 45.4485 264.989 52.6065 262.218C64.8348 239.439 85.1797 229.696 105.588 227.37C87.9633 202.682 96.1368 173.349 105.439 162.101C117.469 147.551 109.274 130.52 104.019 122.312" fill="#F7C908"/>
<path d="M105.07 227.434C96.6552 215.168 67.7179 235.996 56.8175 222.697C38.7237 191.462 71.3963 156.947 90.1434 147.233C103.671 140.227 100.575 128.42 97.8127 122.39L91.9471 122.474C80.2656 128.837 67.2208 142.27 53.6007 161.635C21.3826 207.37 45.4485 264.989 52.6065 262.218C64.7354 239.63 84.8317 229.859 105.07 227.434Z" fill="#F98506"/>
<path d="M67.306 143.946C62.8228 149.13 58.2543 155.022 53.6007 161.62C21.3826 207.356 45.4485 264.975 52.6065 262.204C64.8348 239.425 85.1797 229.682 105.588 227.356C87.9633 202.668 96.1368 173.335 105.439 162.087C117.469 147.537 109.274 130.506 104.019 122.298" stroke="#161616" stroke-width="1.26" stroke-linecap="round"/>
<path d="M238.069 183.028L238.026 183.078L238.069 183.028Z" fill="#F7C908" stroke="#161616" stroke-width="1.26"/>
<path d="M237.528 183.396C235.512 184.456 232.146 182.378 228.702 178.369C226.482 175.728 224.555 172.855 222.957 169.8C222.659 169.242 222.382 168.69 222.119 168.146C222.019 167.948 221.927 167.75 221.835 167.552C221.669 167.213 221.513 166.873 221.366 166.534C221.253 166.287 221.139 166.032 221.032 165.785C220.926 165.537 220.812 165.261 220.713 165C220.613 164.738 220.471 164.413 220.358 164.116C220.294 163.961 220.244 163.805 220.18 163.642C219.578 162.027 219.085 160.374 218.703 158.694C218.54 157.987 218.405 157.237 218.313 156.573C216.807 157.718 215.288 158.976 213.754 160.362C196.001 176.467 183.531 169.602 166.822 148.23C155.872 134.218 142.848 129.495 135.179 127.904C135.179 127.904 150.049 140.63 144.24 169.129C136.67 203.997 147.848 225.751 154.082 234.631C161.425 237.912 166.943 241.842 169.542 245.688C194.602 235.713 160.395 204.577 154.629 190.72C164.741 197.267 173.838 200.696 181.976 201.869C211.964 207.165 236.975 184.011 238.018 183.028C237.872 183.171 237.707 183.295 237.528 183.396Z" fill="#F7C908"/>
<path d="M169.542 245.71C183.567 240.124 179.022 227.915 171.296 215.811C163.57 203.707 176.977 226.593 171.296 231.69C165.615 236.787 147.521 222.549 147.521 222.549C149.26 226.804 151.461 230.858 154.082 234.638C161.418 237.933 166.943 241.864 169.542 245.71Z" fill="#F98506"/>
<path d="M237.528 183.396C235.512 184.456 232.146 182.378 228.702 178.369C226.482 175.728 224.555 172.855 222.957 169.8C222.659 169.242 222.382 168.69 222.119 168.146C222.019 167.948 221.927 167.75 221.835 167.545C221.671 167.213 221.515 166.873 221.366 166.534C221.217 166.195 221.139 166.032 221.032 165.785C220.926 165.537 220.812 165.261 220.713 165C220.613 164.738 220.471 164.413 220.358 164.116C220.294 163.961 220.244 163.805 220.18 163.642C219.578 162.027 219.085 160.374 218.703 158.693C218.54 157.986 218.405 157.237 218.313 156.573C218.036 156.785 217.752 157.025 217.468 157.244C212.17 165.431 222.154 192.594 209.656 186.796C197.158 180.999 186.08 189.985 170.6 188.21C155.119 186.436 155.574 177.068 154.061 171.313C154.061 171.313 150.333 183.374 154.608 190.727C164.72 197.274 173.817 200.703 181.955 201.876C211.943 207.172 236.953 184.018 237.997 183.035C237.857 183.174 237.699 183.296 237.528 183.396Z" fill="#F98506"/>
<path d="M135.179 127.925C135.179 127.925 150.049 140.651 144.24 169.15C136.67 204.018 147.848 225.773 154.082 234.652C161.425 237.933 166.943 241.864 169.542 245.71C194.602 235.734 160.395 204.598 154.629 190.741C164.741 197.288 173.838 200.717 181.976 201.89C211.964 207.186 236.975 184.032 238.018 183.049C237.871 183.185 237.706 183.301 237.528 183.396C235.512 184.456 232.146 182.378 228.702 178.369C226.482 175.728 224.555 172.855 222.957 169.8C222.659 169.242 222.382 168.69 222.119 168.146C222.019 167.948 221.927 167.75 221.835 167.552C221.669 167.213 221.513 166.873 221.366 166.534C221.253 166.286 221.139 166.032 221.032 165.785C220.926 165.537 220.812 165.261 220.713 165C220.613 164.738 220.471 164.413 220.358 164.116C220.294 163.961 220.244 163.805 220.18 163.642C219.578 162.027 219.085 160.374 218.703 158.693C218.54 157.986 218.405 157.237 218.313 156.572C216.807 157.718 215.288 158.976 213.754 160.362C196.001 176.467 183.531 169.602 166.822 148.23C161.307 141.016 154.113 135.246 145.859 131.418" stroke="#161616" stroke-width="1.26" stroke-linecap="round"/>
<path d="M235.867 166.668C234.972 168.358 233.942 170.203 232.785 172.133C231.627 174.063 230.214 176.248 228.702 178.369C232.146 182.378 235.512 184.456 237.528 183.396C237.706 183.301 237.871 183.185 238.018 183.049L238.061 183C240.241 180.907 239.29 174.169 235.867 166.668V166.668Z" fill="#161616" stroke="#161616" stroke-width="1.26"/>
<path d="M254.33 152.727C249.799 146.364 238.551 144.794 225.428 151.949C222.948 153.319 220.574 154.871 218.327 156.594C218.419 157.265 218.554 158.008 218.717 158.715C219.64 162.579 221.072 166.304 222.978 169.793C224.577 172.848 226.503 175.721 228.723 178.362C230.236 176.241 231.563 174.12 232.806 172.126C234.049 170.133 234.993 168.351 235.888 166.661C238.579 161.571 240.078 157.859 240.511 157.371C242.499 155.144 245.333 159.252 246.902 158.785C248.471 158.319 244.914 156.933 246.306 154.296C247.697 151.659 260.16 160.913 254.33 152.727Z" fill="#F96353"/>
<path d="M248.116 153.893C235.909 147.594 233.85 162.122 227.601 164.498C223.34 166.11 220.216 160.256 218.632 156.367L218.313 156.601C218.405 157.272 218.54 158.015 218.703 158.722C219.625 162.586 221.058 166.311 222.964 169.8C224.563 172.855 226.489 175.728 228.709 178.369C230.221 176.248 231.549 174.127 232.792 172.133C234.035 170.14 234.979 168.358 235.874 166.668C238.565 161.578 240.064 157.866 240.497 157.378C242.485 155.151 245.318 159.259 246.888 158.792C248.457 158.326 244.9 156.94 246.291 154.303C246.568 153.808 247.243 153.737 248.116 153.893Z" fill="#E53E23"/>
<path fill-rule="evenodd" clip-rule="evenodd" d="M254.33 152.727C249.799 146.364 238.551 144.794 225.428 151.949C222.948 153.319 220.574 154.871 218.327 156.594C218.419 157.265 218.554 158.008 218.717 158.715C219.64 162.579 221.072 166.304 222.978 169.793C224.577 172.848 226.503 175.721 228.723 178.362C230.236 176.241 231.563 174.12 232.806 172.126C234.049 170.133 234.993 168.351 235.888 166.661C238.579 161.571 240.078 157.859 240.511 157.371C242.499 155.144 245.333 159.252 246.902 158.785C248.471 158.319 244.914 156.933 246.306 154.296C247.697 151.659 260.16 160.913 254.33 152.727V152.727Z" stroke="#161616" stroke-width="1.26"/>
<path d="M109.167 132.464C107.804 128.913 106.076 125.511 104.012 122.312C100.461 122.199 96.3711 122.206 91.94 122.474C74.0663 123.563 51.1792 128.958 42.0613 148.251C38.7531 155.181 38.1016 163.076 40.2292 170.451C41.0934 173.702 42.2829 176.859 43.7797 179.875C49.8442 192.601 65.1969 214.234 100.682 219.007C103.998 219.452 107.477 219.756 111.156 219.883C109.288 219.601 108.237 215.493 108.209 209.547C108.213 205.894 108.501 202.247 109.068 198.638C109.984 192.643 111.461 187.326 113.08 183.792C107.789 182.317 102.382 181.286 96.9179 180.709L96.4492 180.653C68.7546 177.118 82.0196 152.5 95.5403 151.574" fill="#F7C908"/>
<path d="M111.127 219.876C109.26 219.594 108.209 215.486 108.18 209.54C108.185 205.887 108.472 202.24 109.04 198.631C109.956 192.636 111.433 187.319 113.052 183.785L112.228 183.558C102.791 181.84 92.9342 210.424 86.5786 195.768C80.0313 180.667 55.0422 193.103 52.0669 160.765C49.0915 128.427 92.7637 127.105 92.7637 127.105C91.7767 125.507 89.2771 123.973 88.077 122.807C70.4731 124.122 50.9165 129.573 42.0755 148.258C38.7673 155.188 38.1158 163.083 40.2434 170.458C41.1076 173.709 42.2971 176.867 43.794 179.882C49.8584 192.608 65.2111 214.242 100.696 219.014C103.969 219.445 107.449 219.749 111.127 219.876Z" fill="#F98506"/>
<path d="M78.1211 124.207C63.6418 127.034 48.9423 133.701 42.0684 148.244C38.7603 155.174 38.1087 163.069 40.2363 170.444C41.1005 173.695 42.29 176.852 43.7869 179.868C49.8513 192.594 65.2041 214.227 100.689 219C104.005 219.445 107.485 219.749 111.163 219.876C109.295 219.593 108.244 215.486 108.216 209.54C108.22 205.887 108.508 202.24 109.075 198.631C109.991 192.636 111.468 187.319 113.087 183.784C107.796 182.31 102.389 181.279 96.9251 180.702L96.4564 180.645C68.7618 177.111 82.0268 152.493 95.5474 151.567" stroke="#161616" stroke-width="1.26" stroke-linecap="round"/>
<path d="M109.167 132.464C107.804 128.913 106.076 125.511 104.012 122.312C103.117 121.244 92.2809 106.758 100.135 105.111C104.755 104.101 109.585 105.229 113.272 108.179" stroke="#161616" stroke-width="1.26" stroke-linecap="round"/>
<path d="M112.668 209.088C111.163 209.279 109.665 209.434 108.18 209.54C108.18 215.486 109.26 219.594 111.127 219.876C113.258 220.202 115.878 215.394 117.788 208.246C116.077 208.593 114.366 208.861 112.668 209.088Z" fill="#161616" stroke="#161616" stroke-width="1.26" stroke-linecap="round"/>
<path d="M120.189 186.252C117.863 185.271 115.479 184.43 113.052 183.735C111.433 187.319 109.956 192.615 109.04 198.582C108.462 202.206 108.168 205.87 108.159 209.54C109.643 209.434 111.142 209.278 112.647 209.088C114.344 208.861 116.056 208.593 117.767 208.246C120.404 207.729 123.011 207.073 125.578 206.281C129.839 206.776 127.169 216.744 131.543 215.557C135.918 214.369 134.327 204.075 135.918 205.659C137.508 207.242 138.836 210.806 138.836 208.169C138.85 206.161 138.609 194.022 120.189 186.252Z" fill="#F96353"/>
<path d="M115.005 199.706C110.858 200.922 112.406 189.356 113.364 183.848L113.052 183.756C111.433 187.341 109.956 192.636 109.04 198.603C108.464 202.221 108.169 205.877 108.159 209.54C109.643 209.434 111.142 209.279 112.647 209.088C114.344 208.861 116.056 208.593 117.767 208.246C120.404 207.729 123.011 207.073 125.578 206.281C129.839 206.776 127.169 216.744 131.543 215.557C137.118 201.233 120.416 198.115 115.005 199.706Z" fill="#E53E23"/>
<path fill-rule="evenodd" clip-rule="evenodd" d="M120.189 186.252C117.863 185.271 115.479 184.43 113.052 183.735C111.433 187.319 109.956 192.615 109.04 198.582C108.462 202.206 108.168 205.87 108.159 209.54C109.643 209.434 111.142 209.278 112.647 209.088C114.344 208.861 116.056 208.593 117.767 208.246C120.404 207.729 123.011 207.073 125.578 206.281C129.839 206.776 127.169 216.744 131.543 215.557C135.918 214.369 134.327 204.075 135.918 205.659C137.508 207.242 138.836 210.806 138.836 208.169C138.85 206.161 138.609 194.022 120.189 186.252V186.252Z" stroke="#161616" stroke-width="1.26" stroke-linecap="round"/>
<path d="M88.0698 122.778C86.6496 121.824 109.238 139.364 101.328 155.632C101.328 147.311 89.7244 124.412 67.5403 133.532C71.3963 129.834 88.0698 122.778 88.0698 122.778Z" fill="#F98506"/>
<path d="M88.0699 122.778C86.6496 121.824 109.239 139.364 101.328 155.632" stroke="#161616" stroke-width="1.26" stroke-linecap="round"/>
<path d="M145.703 130.958C145.703 130.958 153.734 144.957 148.657 158.665" stroke="#161616" stroke-width="1.26" stroke-linecap="round"/>
<path d="M203.414 405.63C199.48 399.868 199.786 387.56 198.444 369.369C190.012 373.824 180.621 376.18 171.076 376.234C177.208 388.018 182.201 400.357 185.988 413.082C186.386 412.842 186.62 412.721 186.62 412.721C186.62 412.721 199.168 414.093 203.414 405.63Z" fill="#F96353"/>
<path d="M185.967 383.247C190.739 380.313 193.842 375.032 195.71 370.741C187.99 374.306 179.592 376.179 171.083 376.234C177.215 388.019 182.208 400.357 185.995 413.082C186.393 412.842 186.627 412.722 186.627 412.722C186.627 412.722 199.196 414.093 203.443 405.652C192.024 416.165 177.041 388.762 185.967 383.247Z" fill="#E53E23"/>
<path fill-rule="evenodd" clip-rule="evenodd" d="M203.414 405.63C199.48 399.868 199.786 387.56 198.444 369.369C190.012 373.824 180.621 376.18 171.076 376.234C177.208 388.018 182.201 400.357 185.988 413.082C186.386 412.842 186.62 412.721 186.62 412.721C186.62 412.721 199.168 414.093 203.414 405.63V405.63Z" stroke="#161616" stroke-width="1.26"/>
<path d="M237.095 410.912C230.2 410.912 212.433 418.83 203.414 405.63C199.154 414.114 186.599 412.7 186.599 412.7C186.599 412.7 186.364 412.82 185.967 413.061C187.913 419.709 189.403 426.481 190.426 433.33C201.028 433.882 239.481 415.663 237.095 410.912Z" fill="#F7C908"/>
<path d="M186.599 412.722C186.599 412.722 186.364 412.842 185.967 413.082C187.913 419.73 189.403 426.502 190.426 433.351C201.028 433.882 239.481 415.677 237.095 410.912C235.97 410.944 234.849 411.067 233.744 411.279C227.162 415.901 220.045 419.715 212.546 422.641C194.083 429.901 190.767 412.743 190.767 412.743C189.38 412.855 187.985 412.848 186.599 412.722Z" fill="#F98506"/>
<path fill-rule="evenodd" clip-rule="evenodd" d="M237.095 410.912C230.2 410.912 212.433 418.83 203.414 405.631C199.154 414.114 186.599 412.701 186.599 412.701C186.599 412.701 186.364 412.821 185.967 413.061C187.913 419.709 189.403 426.481 190.426 433.33C201.028 433.882 239.481 415.663 237.095 410.912V410.912Z" stroke="#161616"/>
<path d="M154.082 171.327C154.082 171.327 150.354 183.389 154.629 190.741" stroke="#161616" stroke-linecap="round"/>
<path d="M136.598 107.508C136.677 106.911 135.449 106.259 133.854 106.05C132.26 105.841 130.904 106.155 130.825 106.751C130.746 107.348 131.975 108 133.569 108.209C135.163 108.418 136.519 108.104 136.598 107.508Z" fill="white" stroke="#161515"/>
<path d="M134.895 106.27C135.96 106.567 136.677 107.055 136.621 107.515C136.564 107.975 135.733 108.265 134.632 108.279C134.05 108.046 133.674 107.572 133.73 107.14C133.88 106.624 134.355 106.268 134.895 106.27Z" fill="#161515"/>
<path d="M145.724 108.874C145.803 108.277 144.574 107.624 142.98 107.415C141.386 107.206 140.029 107.521 139.951 108.117C139.872 108.713 141.1 109.366 142.694 109.575C144.289 109.784 145.645 109.47 145.724 108.874Z" fill="white" stroke="#161515" stroke-width="1.26"/>
<path d="M144.02 107.635C145.085 107.932 145.802 108.427 145.746 108.887C145.689 109.346 144.858 109.636 143.757 109.651C143.175 109.41 142.799 108.943 142.855 108.505C143.007 107.989 143.481 107.635 144.02 107.635Z" fill="#161515"/>
<path d="M138.268 108.504C138.488 109.678 139.994 111.333 140.732 112.577C142.003 114.755 138.893 114.401 137.104 113.885" stroke="#161616" stroke-width="1.26" stroke-linecap="round"/>
<path d="M134.561 119.788C135.699 119.788 136.621 118.87 136.621 117.738C136.621 116.605 135.699 115.687 134.561 115.687C133.424 115.687 132.502 116.605 132.502 117.738C132.502 118.87 133.424 119.788 134.561 119.788Z" fill="#161515" stroke="#161515" stroke-width="1.26" stroke-linecap="round"/>
<path d="M203.414 405.63C201.348 402.605 200.46 397.762 199.864 391.229C190.298 399.713 179.98 395.825 179.98 395.825L179.704 395.118C182.08 400.989 184.158 406.975 185.931 413.054C186.329 412.813 186.563 412.693 186.563 412.693C186.563 412.693 199.168 414.093 203.414 405.63Z" fill="white"/>
<path d="M185.044 396.694C183.334 396.65 181.64 396.357 180.016 395.824L179.739 395.117C180.932 398.082 182.049 401.056 183.091 404.04C183.169 404.266 183.24 404.499 183.318 404.747C183.751 406.005 184.177 407.271 184.582 408.536C185.055 410.049 185.529 411.562 186.002 413.075C186.4 412.835 186.634 412.714 186.634 412.714C186.634 412.714 199.203 414.086 203.45 405.644C196.626 411.908 188.559 404.704 185.044 396.694Z" fill="#C2D2F9"/>
<path fill-rule="evenodd" clip-rule="evenodd" d="M203.414 405.63C201.348 402.605 200.46 397.762 199.864 391.229C190.298 399.713 179.98 395.825 179.98 395.825L179.704 395.118C182.08 400.989 184.158 406.975 185.931 413.054C186.329 412.813 186.563 412.693 186.563 412.693C186.563 412.693 199.168 414.093 203.414 405.63Z" stroke="#161616" stroke-width="1.26"/>
<rect x="304.819" y="212.849" width="12.9952" height="45.8482" rx="5.48" fill="white" stroke="#161616" stroke-width="1.26"/>
<path d="M311.317 246.672C312.38 246.672 313.241 245.814 313.241 244.755C313.241 243.697 312.38 242.839 311.317 242.839C310.254 242.839 309.393 243.697 309.393 244.755C309.393 245.814 310.254 246.672 311.317 246.672Z" fill="#161616"/>
<rect x="310.671" y="245.547" width="1.28531" height="3.98784" rx="0.642657" fill="#161616"/>
<path opacity="0.42" d="M311.416 225.928C309.149 225.929 307.052 227.127 305.906 229.074H293.912C292.72 229.019 291.594 229.62 290.982 230.639C290.369 231.658 290.369 232.931 290.982 233.95C291.594 234.969 292.72 235.57 293.912 235.515H305.906C307.474 238.172 310.729 239.328 313.632 238.259C316.536 237.19 318.252 234.204 317.707 231.17C317.162 228.137 314.512 225.928 311.416 225.928V225.928Z" fill="#0F59B2"/>
<path d="M311.416 223.036C309.149 223.038 307.052 224.235 305.906 226.183H293.912C292.72 226.127 291.594 226.728 290.982 227.748C290.369 228.767 290.369 230.039 290.982 231.058C291.594 232.078 292.72 232.679 293.912 232.623H305.906C307.474 235.28 310.729 236.436 313.632 235.367C316.536 234.299 318.252 231.312 317.707 228.279C317.162 225.245 314.512 223.037 311.416 223.036V223.036Z" fill="white" stroke="#161616" stroke-width="1.26"/>
<path d="M211.581 408.798C211.581 408.798 206.61 409.385 206.326 414.454" stroke="#161616" stroke-width="1.26" stroke-linecap="round"/>
<path d="M215.43 409.78C215.43 409.78 210.459 410.367 210.175 415.437" stroke="#161616" stroke-width="1.26" stroke-linecap="round"/>
<path d="M218.938 411.612C218.938 411.612 213.967 412.198 213.683 417.268" stroke="#161616" stroke-width="1.26" stroke-linecap="round"/>
<path opacity="0.56" d="M197.329 424.084C199.874 424.084 201.937 422.029 201.937 419.495C201.937 416.961 199.874 414.906 197.329 414.906C194.783 414.906 192.72 416.961 192.72 419.495C192.72 422.029 194.783 424.084 197.329 424.084Z" fill="white"/>
<path d="M215.856 407.894C215.856 407.894 219.562 404.654 220.954 406.479C222.346 408.304 215.856 407.894 215.856 407.894Z" fill="#161616"/>
<path d="M215.856 407.893C215.856 407.893 214.016 403.34 211.95 404.358C209.884 405.376 215.856 407.893 215.856 407.893Z" fill="#161616"/>
<path d="M233.964 141.457C233.964 141.457 253.634 139.195 258.761 152.324" stroke="#161616" stroke-width="1.26" stroke-linecap="round"/>
<path d="M192.493 173.229C192.493 173.229 204.096 173.448 207.405 169.694C210.714 165.94 213.193 165.502 214.549 168.365C215.905 171.228 209.415 173.356 203.5 175.195C197.584 177.033 198.706 183.396 192.457 179.656C186.208 175.916 188.722 173.356 192.493 173.229Z" fill="white"/>
<path d="M204.735 177.005C204.735 177.005 210.757 173.894 209.869 177.005C208.982 180.116 198.742 180.116 204.735 177.005Z" fill="white"/>
<path d="M82.2327 149.439C82.2327 149.439 70.5015 154.388 70.3524 163.013C70.2033 171.638 74.2225 157.732 78.3909 156.226C82.5593 154.72 88.2474 152.048 88.0059 150.719C87.7645 149.39 85.8188 147.488 82.2327 149.439Z" fill="white"/>
<path d="M76.1114 162.122C76.1114 162.122 72.8875 165.976 75.2664 166.414C77.6453 166.853 79.591 160.638 76.1114 162.122Z" fill="white"/>
<path d="M190.298 339.661C190.81 342.801 191.236 345.975 191.577 349.186" stroke="white" stroke-width="1.26" stroke-linecap="round"/>
<path d="M153.869 248.446C153.869 248.446 178.979 284.566 188.665 331.057" stroke="white" stroke-width="1.26" stroke-linecap="round"/>
<path d="M36.0679 361.19C36.0679 361.19 48.1825 361.635 65.4455 356.749" stroke="white" stroke-width="1.26" stroke-linecap="round"/>
<path d="M161.177 208.246C162.482 209.996 163.986 211.59 165.657 212.997C173.469 219.36 176.203 230.545 172.411 236.993" stroke="white" stroke-width="1.26" stroke-linecap="round"/>
<path d="M152.577 192.353C153.717 195.307 155.045 198.186 156.554 200.972" stroke="white" stroke-width="1.26" stroke-linecap="round"/>
<path d="M90.7328 97.9136C90.7328 97.9136 80.3793 97.5814 81.2101 104.75C82.0409 111.919 88.013 115.687 88.013 115.687" stroke="white" stroke-width="1.26" stroke-linecap="round"/>
<path d="M309.392 88.7864C309.392 88.7864 287.528 97.6662 293.77 132.549C300.012 167.432 285.248 181.897 292.641 190.663C300.033 199.43 311.565 171.334 309.364 143.613C307.163 115.892 323.645 78.5704 309.392 88.7864Z" fill="white"/>
<path d="M286.214 199.055C286.214 199.055 275.499 204.895 280.853 210.601C286.207 216.306 296.475 199.996 286.214 199.055Z" fill="white"/>
<path d="M311.963 374.085C309.217 379.603 308.319 385.851 309.4 391.915C311.21 402.053 301.304 404.216 302.909 410.912C304.514 417.607 313.98 410.7 315.272 402.159C316.565 393.619 313.98 368.754 311.963 374.085Z" fill="white"/>
<path d="M290.546 410.912C290.546 410.912 284.652 407.327 283.644 410.912C282.635 414.497 291.306 420.337 290.546 410.912Z" fill="white"/>
<path d="M190.938 154.501V83.4769H225.073" stroke="#161616" stroke-width="1.26"/>
<path d="M190.938 306.793V254.54H201.937" stroke="#161616" stroke-width="1.26"/>
<path d="M254.522 87.0614V115.249" stroke="#161616" stroke-width="1.26"/>
<path d="M254.082 258.697V331.057" stroke="#161616" stroke-width="1.26"/>
<path d="M326.379 38.1519C326.379 38.1519 338.28 36.9712 335.305 80.8116" stroke="#161616" stroke-width="1.26" stroke-linecap="round"/>
<path d="M17.5485 186.818V283.42" stroke="#161616" stroke-width="1.26" stroke-linecap="round"/>
</svg>
