<svg width="410" height="356" viewBox="0 0 410 356" fill="none" xmlns="http://www.w3.org/2000/svg">
<path d="M121 12.5L142.5 0.5L164 12.5L142.5 25V97.5L181.5 119.5V49L203 35.5L225 49L203 61.5V159L121 110.5V12.5Z" fill="#005478"/>
<path d="M225 120.5V94L242.5 84.5V13L266 0L288 13L266 25.5V94L225 120.5Z" fill="white"/>
<path d="M26.016 274.824C22.624 274.824 19.648 274.408 17.088 273.576C14.592 272.744 12.448 271.752 10.656 270.6C8.928 269.384 7.552 268.2 6.528 267.048C5.504 265.896 4.8 265.032 4.416 264.456C3.328 263.048 2.656 261.832 2.4 260.808C2.144 259.72 2.272 258.632 2.784 257.544C3.36 256.456 4.32 255.272 5.664 253.992C7.008 252.84 8.256 252.232 9.408 252.168C10.624 252.04 11.808 252.328 12.96 253.032C14.112 253.736 15.232 254.728 16.32 256.008C17.856 257.864 19.36 259.176 20.832 259.944C22.368 260.648 23.968 261 25.632 261C27.744 261 29.536 260.744 31.008 260.232C32.48 259.72 33.6 258.92 34.368 257.832C35.136 256.68 35.52 255.24 35.52 253.512C35.52 252.104 34.976 250.984 33.888 250.152C32.864 249.256 31.456 248.488 29.664 247.848C27.936 247.208 25.984 246.6 23.808 246.024C21.696 245.384 19.584 244.648 17.472 243.816C16 243.304 14.592 242.664 13.248 241.896C11.904 241.128 10.624 240.264 9.408 239.304C8.192 238.344 7.136 237.192 6.24 235.848C5.408 234.504 4.736 232.968 4.224 231.24C3.776 229.512 3.552 227.528 3.552 225.288C3.552 221.512 4.48 218.152 6.336 215.208C8.192 212.264 10.752 209.96 14.016 208.296C17.344 206.568 21.152 205.704 25.44 205.704C28.32 205.704 30.816 205.96 32.928 206.472C35.104 206.984 36.928 207.592 38.4 208.296C39.872 209 41.024 209.704 41.856 210.408C42.752 211.048 43.36 211.56 43.68 211.944C45.472 213.608 46.464 215.048 46.656 216.264C46.848 217.416 46.176 219.048 44.64 221.16C43.04 223.4 41.44 224.648 39.84 224.904C38.304 225.16 36.544 224.616 34.56 223.272C33.792 222.568 33.024 221.928 32.256 221.352C31.488 220.776 30.56 220.328 29.472 220.008C28.448 219.624 27.072 219.432 25.344 219.432C24.32 219.432 23.36 219.592 22.464 219.912C21.568 220.168 20.8 220.552 20.16 221.064C19.52 221.576 19.008 222.216 18.624 222.984C18.24 223.688 18.048 224.488 18.048 225.384C18.048 226.856 18.528 228.04 19.488 228.936C20.512 229.832 21.824 230.568 23.424 231.144C25.088 231.656 26.912 232.168 28.896 232.68C30.944 233.128 33.024 233.672 35.136 234.312C37.056 234.952 38.912 235.752 40.704 236.712C42.496 237.608 44.096 238.76 45.504 240.168C46.912 241.576 48.032 243.336 48.864 245.448C49.76 247.56 50.208 250.152 50.208 253.224C50.208 257.064 49.472 260.36 48 263.112C46.528 265.864 44.576 268.104 42.144 269.832C39.712 271.56 37.088 272.808 34.272 273.576C31.456 274.408 28.704 274.824 26.016 274.824ZM79.3823 274.632C76.3743 274.632 73.3663 274.056 70.3583 272.904C67.4143 271.688 64.7263 269.992 62.2943 267.816C59.8623 265.64 57.9423 263.048 56.5343 260.04C55.1263 256.968 54.4223 253.576 54.4223 249.864C54.4223 246.408 55.0623 243.208 56.3423 240.264C57.6223 237.256 59.4143 234.6 61.7183 232.296C64.0223 229.992 66.6463 228.2 69.5903 226.92C72.5983 225.576 75.7983 224.904 79.1903 224.904C83.7983 224.904 87.9583 226.024 91.6703 228.264C95.4463 230.44 98.4543 233.416 100.694 237.192C102.934 240.968 104.054 245.16 104.054 249.768C104.054 253.672 103.318 257.16 101.846 260.232C100.438 263.24 98.5183 265.832 96.0863 268.008C93.7183 270.184 91.0623 271.848 88.1183 273C85.2383 274.088 82.3263 274.632 79.3823 274.632ZM79.1903 260.136C80.7263 260.136 82.2943 259.752 83.8943 258.984C85.4943 258.216 86.8383 257.064 87.9263 255.528C89.0143 253.992 89.5583 252.04 89.5583 249.672C89.5583 247.624 89.1103 245.832 88.2143 244.296C87.3183 242.76 86.0703 241.576 84.4703 240.744C82.9343 239.848 81.1423 239.4 79.0943 239.4C77.1743 239.4 75.4463 239.848 73.9103 240.744C72.4383 241.64 71.2223 242.888 70.2623 244.488C69.3663 246.024 68.9183 247.784 68.9183 249.768C68.9183 252.072 69.4303 254.024 70.4543 255.624C71.5423 257.16 72.8863 258.312 74.4863 259.08C76.0863 259.784 77.6543 260.136 79.1903 260.136ZM151.823 273.768C149.455 273.768 147.279 273.512 145.295 273C143.375 272.552 141.679 271.848 140.207 270.888C138.799 269.864 137.583 268.616 136.559 267.144C135.599 265.672 134.863 263.976 134.351 262.056C133.903 260.136 133.679 257.96 133.679 255.528L133.583 211.08C133.583 209.8 133.679 208.616 133.871 207.528C134.127 206.44 134.767 205.544 135.791 204.84C136.815 204.136 138.511 203.784 140.879 203.784C143.183 203.784 144.815 204.136 145.775 204.84C146.799 205.544 147.439 206.44 147.695 207.528C147.951 208.616 148.079 209.8 148.079 211.08V255.816C148.079 256.456 148.143 257 148.271 257.448C148.399 257.896 148.591 258.28 148.847 258.6C149.167 258.856 149.583 259.048 150.095 259.176C150.607 259.304 151.247 259.368 152.015 259.368C153.743 259.368 155.151 259.592 156.239 260.04C157.327 260.488 158.095 261.256 158.543 262.344C159.055 263.432 159.311 264.84 159.311 266.568C159.311 268.232 159.023 269.608 158.447 270.696C157.935 271.72 157.135 272.488 156.047 273C154.959 273.512 153.551 273.768 151.823 273.768ZM125.903 273.768C123.599 273.768 121.551 273.544 119.759 273.096C118.031 272.648 116.527 271.976 115.247 271.08C113.967 270.12 112.911 268.936 112.079 267.528C111.247 266.056 110.607 264.328 110.159 262.344C109.775 260.36 109.583 258.088 109.583 255.528V211.08C109.583 209.8 109.711 208.616 109.967 207.528C110.223 206.44 110.831 205.544 111.791 204.84C112.815 204.136 114.511 203.784 116.879 203.784C119.183 203.784 120.815 204.136 121.775 204.84C122.799 205.544 123.439 206.44 123.695 207.528C123.951 208.616 124.079 209.8 124.079 211.08V255.816C124.079 256.648 124.175 257.32 124.367 257.832C124.559 258.344 124.815 258.728 125.135 258.984C125.455 259.24 125.711 259.368 125.903 259.368C127.375 259.368 128.527 259.592 129.359 260.04C130.191 260.488 130.799 261.256 131.183 262.344C131.567 263.432 131.759 264.84 131.759 266.568C131.759 268.232 131.535 269.608 131.087 270.696C130.703 271.72 130.063 272.488 129.167 273C128.335 273.512 127.247 273.768 125.903 273.768ZM172.772 273.864C170.404 273.864 168.708 273.544 167.684 272.904C166.724 272.2 166.116 271.304 165.86 270.216C165.668 269.064 165.572 267.88 165.572 266.664V233.16C165.572 231.88 165.668 230.696 165.86 229.608C166.116 228.52 166.756 227.656 167.78 227.016C168.804 226.312 170.5 225.96 172.868 225.96C175.172 225.96 176.804 226.312 177.764 227.016C178.788 227.72 179.396 228.616 179.588 229.704C179.844 230.792 179.972 232.008 179.972 233.352V266.76C179.972 267.976 179.844 269.16 179.588 270.312C179.396 271.4 178.788 272.264 177.764 272.904C176.804 273.544 175.14 273.864 172.772 273.864ZM172.772 218.952C170.34 218.952 168.612 218.6 167.588 217.896C166.564 217.192 165.924 216.264 165.668 215.112C165.476 213.96 165.38 212.744 165.38 211.464C165.38 210.12 165.508 208.904 165.764 207.816C166.02 206.664 166.66 205.768 167.684 205.128C168.708 204.424 170.436 204.072 172.868 204.072C175.236 204.072 176.932 204.424 177.956 205.128C178.98 205.832 179.588 206.76 179.78 207.912C180.036 209.064 180.164 210.28 180.164 211.56C180.164 212.84 180.036 214.056 179.78 215.208C179.588 216.36 178.98 217.288 177.956 217.992C176.932 218.632 175.204 218.952 172.772 218.952ZM210.554 274.248C207.738 274.248 204.858 273.736 201.914 272.712C199.034 271.624 196.346 270.056 193.85 268.008C191.418 265.896 189.466 263.336 187.994 260.328C186.522 257.256 185.786 253.736 185.786 249.768C185.786 245.8 186.522 242.312 187.994 239.304C189.466 236.296 191.418 233.768 193.85 231.72C196.282 229.672 198.938 228.136 201.818 227.112C204.762 226.024 207.61 225.48 210.362 225.48C212.73 225.48 214.842 225.768 216.698 226.344C218.618 226.856 220.218 227.496 221.498 228.264C222.842 229.032 223.802 229.704 224.378 230.28C225.466 231.112 226.426 231.944 227.258 232.776C228.09 233.608 228.474 234.696 228.41 236.04C228.346 236.744 228.122 237.48 227.738 238.248C227.354 238.952 226.874 239.688 226.298 240.456C224.378 243.144 222.458 244.36 220.538 244.104C219.578 243.912 218.682 243.592 217.85 243.144C217.082 242.696 216.314 242.248 215.546 241.8C214.842 241.288 214.074 240.872 213.242 240.552C212.41 240.232 211.45 240.072 210.362 240.072C208.506 240.072 206.842 240.488 205.37 241.32C203.898 242.152 202.714 243.304 201.818 244.776C200.986 246.248 200.57 247.944 200.57 249.864C200.57 251.72 200.986 253.384 201.818 254.856C202.714 256.328 203.866 257.512 205.274 258.408C206.746 259.24 208.378 259.656 210.17 259.656C211.258 259.656 212.186 259.528 212.954 259.272C213.786 259.016 214.49 258.728 215.066 258.408C215.642 258.024 216.09 257.736 216.41 257.544C217.178 257.032 217.914 256.584 218.618 256.2C219.322 255.752 220.058 255.528 220.826 255.528C221.722 255.528 222.65 255.88 223.61 256.584C224.57 257.224 225.626 258.28 226.778 259.752C227.802 261.096 228.378 262.344 228.506 263.496C228.698 264.648 228.442 265.736 227.738 266.76C227.034 267.784 225.946 268.776 224.474 269.736C223.962 270.184 223.034 270.76 221.69 271.464C220.41 272.168 218.81 272.808 216.89 273.384C215.034 273.96 212.922 274.248 210.554 274.248ZM242.991 273.864C240.623 273.864 238.927 273.544 237.903 272.904C236.943 272.2 236.335 271.304 236.079 270.216C235.887 269.064 235.791 267.88 235.791 266.664V233.16C235.791 231.88 235.887 230.696 236.079 229.608C236.335 228.52 236.975 227.656 237.999 227.016C239.023 226.312 240.719 225.96 243.087 225.96C245.391 225.96 247.023 226.312 247.983 227.016C249.007 227.72 249.615 228.616 249.807 229.704C250.063 230.792 250.191 232.008 250.191 233.352V266.76C250.191 267.976 250.063 269.16 249.807 270.312C249.615 271.4 249.007 272.264 247.983 272.904C247.023 273.544 245.359 273.864 242.991 273.864ZM242.991 218.952C240.559 218.952 238.831 218.6 237.807 217.896C236.783 217.192 236.143 216.264 235.887 215.112C235.695 213.96 235.599 212.744 235.599 211.464C235.599 210.12 235.727 208.904 235.983 207.816C236.239 206.664 236.879 205.768 237.903 205.128C238.927 204.424 240.655 204.072 243.087 204.072C245.455 204.072 247.151 204.424 248.175 205.128C249.199 205.832 249.807 206.76 249.999 207.912C250.255 209.064 250.383 210.28 250.383 211.56C250.383 212.84 250.255 214.056 249.999 215.208C249.807 216.36 249.199 217.288 248.175 217.992C247.151 218.632 245.423 218.952 242.991 218.952ZM282.577 273.864C279.313 273.864 276.497 273.512 274.129 272.808C271.825 272.104 269.905 271.016 268.369 269.544C266.833 268.072 265.681 266.216 264.913 263.976C264.209 261.672 263.857 258.952 263.857 255.816V216.84C263.857 215.56 263.953 214.408 264.145 213.384C264.401 212.36 265.041 211.528 266.065 210.888C267.089 210.184 268.753 209.832 271.057 209.832C273.361 209.832 275.025 210.184 276.049 210.888C277.073 211.592 277.681 212.488 277.873 213.576C278.129 214.664 278.257 215.848 278.257 217.128V255.24C278.257 256.264 278.321 257.128 278.449 257.832C278.641 258.472 278.897 258.952 279.217 259.272C279.537 259.592 279.985 259.816 280.561 259.944C281.137 260.072 281.841 260.136 282.673 260.136C284.081 260.136 285.329 260.264 286.417 260.52C287.505 260.776 288.337 261.352 288.913 262.248C289.553 263.144 289.873 264.648 289.873 266.76C289.873 269.064 289.521 270.728 288.817 271.752C288.113 272.776 287.185 273.384 286.033 273.576C284.945 273.768 283.793 273.864 282.577 273.864ZM260.881 226.632H271.441L284.689 226.248C285.905 226.248 287.057 226.376 288.145 226.632C289.233 226.824 290.129 227.432 290.833 228.456C291.537 229.48 291.889 231.176 291.889 233.544C291.889 235.72 291.537 237.32 290.833 238.344C290.193 239.368 289.329 240.04 288.241 240.36C287.153 240.616 285.969 240.744 284.689 240.744L272.113 240.456H260.497C258.641 240.392 257.329 239.848 256.561 238.824C255.857 237.736 255.505 235.944 255.505 233.448C255.505 231.144 255.953 229.448 256.849 228.36C257.745 227.208 259.089 226.632 260.881 226.632ZM326.27 274.728C321.598 274.728 317.47 273.832 313.886 272.04C310.366 270.184 307.358 267.752 304.862 264.744C302.43 261.672 300.606 258.248 299.39 254.472C298.174 250.632 297.566 246.728 297.566 242.76V214.056C297.566 212.776 297.662 211.592 297.854 210.504C298.11 209.352 298.75 208.424 299.773 207.72C300.798 207.016 302.494 206.664 304.862 206.664C307.294 206.664 309.022 207.016 310.046 207.72C311.07 208.424 311.678 209.352 311.87 210.504C312.126 211.592 312.254 212.808 312.254 214.152V242.76C312.254 245.576 312.702 248.296 313.598 250.92C314.558 253.544 316.094 255.72 318.206 257.448C320.318 259.176 323.102 260.04 326.558 260.04C329.502 260.04 332.03 259.336 334.142 257.928C336.254 256.456 337.886 254.44 339.038 251.88C340.19 249.256 340.766 246.184 340.766 242.664V213.48C340.766 212.328 340.894 211.24 341.15 210.216C341.406 209.192 342.046 208.36 343.07 207.72C344.094 207.016 345.79 206.664 348.158 206.664C350.526 206.664 352.19 207.048 353.15 207.816C354.174 208.52 354.782 209.416 354.974 210.504C355.23 211.592 355.358 212.808 355.358 214.152V242.952C355.358 246.984 354.718 250.888 353.438 254.664C352.222 258.44 350.366 261.832 347.87 264.84C345.438 267.848 342.398 270.248 338.75 272.04C335.166 273.832 331.006 274.728 326.27 274.728ZM382.641 274.824C379.249 274.824 376.273 274.408 373.713 273.576C371.217 272.744 369.073 271.752 367.281 270.6C365.553 269.384 364.177 268.2 363.153 267.048C362.129 265.896 361.425 265.032 361.041 264.456C359.953 263.048 359.281 261.832 359.025 260.808C358.769 259.72 358.897 258.632 359.409 257.544C359.985 256.456 360.945 255.272 362.289 253.992C363.633 252.84 364.881 252.232 366.033 252.168C367.249 252.04 368.433 252.328 369.585 253.032C370.737 253.736 371.857 254.728 372.945 256.008C374.481 257.864 375.985 259.176 377.457 259.944C378.993 260.648 380.593 261 382.257 261C384.369 261 386.161 260.744 387.633 260.232C389.105 259.72 390.225 258.92 390.993 257.832C391.761 256.68 392.145 255.24 392.145 253.512C392.145 252.104 391.601 250.984 390.513 250.152C389.489 249.256 388.081 248.488 386.289 247.848C384.561 247.208 382.609 246.6 380.433 246.024C378.321 245.384 376.209 244.648 374.097 243.816C372.625 243.304 371.217 242.664 369.873 241.896C368.529 241.128 367.249 240.264 366.033 239.304C364.817 238.344 363.761 237.192 362.865 235.848C362.033 234.504 361.361 232.968 360.849 231.24C360.401 229.512 360.177 227.528 360.177 225.288C360.177 221.512 361.105 218.152 362.961 215.208C364.817 212.264 367.377 209.96 370.641 208.296C373.969 206.568 377.777 205.704 382.065 205.704C384.945 205.704 387.441 205.96 389.553 206.472C391.729 206.984 393.553 207.592 395.025 208.296C396.497 209 397.649 209.704 398.481 210.408C399.377 211.048 399.985 211.56 400.305 211.944C402.097 213.608 403.089 215.048 403.281 216.264C403.473 217.416 402.801 219.048 401.265 221.16C399.665 223.4 398.065 224.648 396.465 224.904C394.929 225.16 393.169 224.616 391.185 223.272C390.417 222.568 389.649 221.928 388.881 221.352C388.113 220.776 387.185 220.328 386.097 220.008C385.073 219.624 383.697 219.432 381.969 219.432C380.945 219.432 379.985 219.592 379.089 219.912C378.193 220.168 377.425 220.552 376.785 221.064C376.145 221.576 375.633 222.216 375.249 222.984C374.865 223.688 374.673 224.488 374.673 225.384C374.673 226.856 375.153 228.04 376.113 228.936C377.137 229.832 378.449 230.568 380.049 231.144C381.713 231.656 383.537 232.168 385.521 232.68C387.569 233.128 389.649 233.672 391.761 234.312C393.681 234.952 395.537 235.752 397.329 236.712C399.121 237.608 400.721 238.76 402.129 240.168C403.537 241.576 404.657 243.336 405.489 245.448C406.385 247.56 406.833 250.152 406.833 253.224C406.833 257.064 406.097 260.36 404.625 263.112C403.153 265.864 401.201 268.104 398.769 269.832C396.337 271.56 393.713 272.808 390.897 273.576C388.081 274.408 385.329 274.824 382.641 274.824Z" fill="white"/>
<path d="M67.984 325.888C68.3467 325.888 68.6773 325.92 68.976 325.984C69.2747 326.048 69.52 326.229 69.712 326.528C69.9253 326.805 70.032 327.296 70.032 328C70.032 328.661 69.9253 329.141 69.712 329.44C69.52 329.739 69.264 329.92 68.944 329.984C68.624 330.048 68.2827 330.08 67.92 330.08H62.768V345.92C62.768 346.325 62.7253 346.709 62.64 347.072C62.576 347.435 62.3733 347.733 62.032 347.968C61.712 348.181 61.1573 348.288 60.368 348.288C59.6 348.288 59.0453 348.181 58.704 347.968C58.3627 347.733 58.16 347.435 58.096 347.072C58.032 346.688 58 346.293 58 345.888V330.08H52.784C52.4427 330.08 52.112 330.048 51.792 329.984C51.472 329.899 51.216 329.717 51.024 329.44C50.832 329.141 50.736 328.651 50.736 327.968C50.736 327.285 50.832 326.805 51.024 326.528C51.216 326.229 51.472 326.048 51.792 325.984C52.112 325.92 52.4427 325.888 52.784 325.888H67.984ZM76.1543 348.576C74.6609 348.576 73.3703 348.331 72.2823 347.84C71.2156 347.349 70.3409 346.709 69.6583 345.92C68.9756 345.109 68.4636 344.213 68.1223 343.232C67.8023 342.251 67.6423 341.269 67.6423 340.288C67.6423 338.688 68.0049 337.269 68.7303 336.032C69.4556 334.795 70.4583 333.824 71.7383 333.12C73.0183 332.395 74.4903 332.032 76.1543 332.032C77.3916 332.032 78.4583 332.235 79.3543 332.64C80.2716 333.024 81.0183 333.536 81.5943 334.176C82.1916 334.795 82.6289 335.467 82.9062 336.192C83.2049 336.917 83.3542 337.611 83.3542 338.272C83.3542 339.445 83.0663 340.32 82.4903 340.896C81.9356 341.451 81.2209 341.728 80.3463 341.728H72.7303C72.7729 342.283 72.9649 342.752 73.3063 343.136C73.6689 343.52 74.1169 343.819 74.6503 344.032C75.1836 344.245 75.7489 344.352 76.3463 344.352C76.8583 344.352 77.3063 344.331 77.6903 344.288C78.0743 344.224 78.4049 344.149 78.6823 344.064C78.9596 343.957 79.2156 343.861 79.4503 343.776C79.6849 343.669 79.8876 343.584 80.0583 343.52C80.2503 343.456 80.4316 343.413 80.6023 343.392C80.9223 343.371 81.2103 343.467 81.4663 343.68C81.7436 343.872 81.9889 344.171 82.2023 344.576C82.3516 344.811 82.4476 345.035 82.4903 345.248C82.5543 345.461 82.5863 345.675 82.5863 345.888C82.5863 346.4 82.3196 346.859 81.7863 347.264C81.2743 347.669 80.5383 347.989 79.5783 348.224C78.6396 348.459 77.4983 348.576 76.1543 348.576ZM72.7303 339.104H77.7863C78.1276 339.104 78.3729 339.051 78.5223 338.944C78.6929 338.816 78.7783 338.581 78.7783 338.24C78.7783 337.856 78.6609 337.525 78.4263 337.248C78.1916 336.949 77.8716 336.725 77.4663 336.576C77.0823 336.405 76.6343 336.32 76.1223 336.32C75.4609 336.32 74.8743 336.448 74.3623 336.704C73.8503 336.96 73.4449 337.301 73.1463 337.728C72.8689 338.155 72.7303 338.613 72.7303 339.104ZM93.3098 348.416C92.3711 348.416 91.4111 348.245 90.4298 347.904C89.4698 347.541 88.5738 347.019 87.7418 346.336C86.9311 345.632 86.2804 344.779 85.7898 343.776C85.2991 342.752 85.0538 341.579 85.0538 340.256C85.0538 338.933 85.2991 337.771 85.7898 336.768C86.2804 335.765 86.9311 334.923 87.7418 334.24C88.5524 333.557 89.4378 333.045 90.3978 332.704C91.3791 332.341 92.3284 332.16 93.2458 332.16C94.0351 332.16 94.7391 332.256 95.3578 332.448C95.9978 332.619 96.5311 332.832 96.9578 333.088C97.4058 333.344 97.7258 333.568 97.9178 333.76C98.2804 334.037 98.6004 334.315 98.8778 334.592C99.1551 334.869 99.2831 335.232 99.2618 335.68C99.2404 335.915 99.1658 336.16 99.0378 336.416C98.9098 336.651 98.7498 336.896 98.5578 337.152C97.9178 338.048 97.2778 338.453 96.6378 338.368C96.3178 338.304 96.0191 338.197 95.7418 338.048C95.4858 337.899 95.2298 337.749 94.9738 337.6C94.7391 337.429 94.4831 337.291 94.2058 337.184C93.9284 337.077 93.6084 337.024 93.2458 337.024C92.6271 337.024 92.0724 337.163 91.5818 337.44C91.0911 337.717 90.6964 338.101 90.3978 338.592C90.1204 339.083 89.9818 339.648 89.9818 340.288C89.9818 340.907 90.1204 341.461 90.3978 341.952C90.6964 342.443 91.0804 342.837 91.5498 343.136C92.0404 343.413 92.5844 343.552 93.1818 343.552C93.5444 343.552 93.8538 343.509 94.1098 343.424C94.3871 343.339 94.6218 343.243 94.8138 343.136C95.0058 343.008 95.1551 342.912 95.2618 342.848C95.5178 342.677 95.7631 342.528 95.9978 342.4C96.2324 342.251 96.4778 342.176 96.7338 342.176C97.0324 342.176 97.3418 342.293 97.6618 342.528C97.9818 342.741 98.3338 343.093 98.7178 343.584C99.0591 344.032 99.2511 344.448 99.2938 344.832C99.3578 345.216 99.2724 345.579 99.0378 345.92C98.8031 346.261 98.4404 346.592 97.9498 346.912C97.7791 347.061 97.4698 347.253 97.0218 347.488C96.5951 347.723 96.0618 347.936 95.4218 348.128C94.8031 348.32 94.0991 348.416 93.3098 348.416ZM103.647 348.288C102.879 348.288 102.324 348.181 101.983 347.968C101.641 347.733 101.428 347.435 101.343 347.072C101.279 346.688 101.247 346.283 101.247 345.856V327.424C101.247 326.997 101.289 326.603 101.375 326.24C101.46 325.877 101.673 325.589 102.015 325.376C102.356 325.141 102.911 325.024 103.679 325.024C104.468 325.024 105.023 325.141 105.343 325.376C105.684 325.611 105.887 325.909 105.951 326.272C106.036 326.635 106.079 327.029 106.079 327.456V333.984C106.463 333.579 106.953 333.195 107.551 332.832C108.169 332.469 108.895 332.288 109.727 332.288C111.049 332.288 112.233 332.629 113.279 333.312C114.345 333.973 115.188 334.891 115.807 336.064C116.447 337.237 116.767 338.581 116.767 340.096V345.888C116.767 346.315 116.724 346.709 116.639 347.072C116.553 347.435 116.351 347.733 116.031 347.968C115.711 348.181 115.145 348.288 114.335 348.288C113.588 348.288 113.033 348.181 112.671 347.968C112.329 347.733 112.116 347.435 112.031 347.072C111.967 346.688 111.935 346.283 111.935 345.856V340.064C111.935 339.445 111.828 338.923 111.615 338.496C111.401 338.048 111.081 337.696 110.655 337.44C110.249 337.184 109.748 337.056 109.151 337.056C108.361 337.056 107.668 337.301 107.071 337.792C106.495 338.261 106.164 338.837 106.079 339.52V345.888C106.079 346.315 106.036 346.709 105.951 347.072C105.865 347.435 105.652 347.733 105.311 347.968C104.991 348.181 104.436 348.288 103.647 348.288ZM121.493 348.256C120.704 348.256 120.139 348.149 119.797 347.936C119.477 347.701 119.275 347.403 119.189 347.04C119.125 346.656 119.093 346.261 119.093 345.856V334.592C119.093 334.187 119.136 333.813 119.221 333.472C119.307 333.109 119.509 332.821 119.829 332.608C120.171 332.395 120.736 332.288 121.525 332.288C122.208 332.288 122.709 332.384 123.029 332.576C123.349 332.747 123.552 332.96 123.637 333.216C123.744 333.472 123.797 333.717 123.797 333.952C123.797 334.165 123.819 334.315 123.861 334.4L123.669 335.008C123.712 334.688 123.872 334.368 124.149 334.048C124.448 333.707 124.811 333.408 125.237 333.152C125.685 332.875 126.155 332.661 126.645 332.512C127.157 332.363 127.659 332.288 128.149 332.288C129.173 332.288 130.08 332.48 130.869 332.864C131.68 333.227 132.363 333.76 132.917 334.464C133.472 335.168 133.888 336 134.165 336.96C134.464 337.899 134.613 338.933 134.613 340.064V345.888C134.613 346.293 134.571 346.688 134.485 347.072C134.421 347.435 134.219 347.723 133.877 347.936C133.557 348.149 133.003 348.256 132.213 348.256C131.403 348.256 130.827 348.149 130.485 347.936C130.165 347.701 129.963 347.403 129.877 347.04C129.792 346.656 129.749 346.261 129.749 345.856V340.064C129.749 339.424 129.643 338.88 129.429 338.432C129.216 337.984 128.896 337.643 128.469 337.408C128.043 337.152 127.52 337.024 126.901 337.024C126.283 337.024 125.749 337.152 125.301 337.408C124.853 337.664 124.501 338.016 124.245 338.464C124.011 338.912 123.893 339.445 123.893 340.064V345.888C123.893 346.293 123.851 346.688 123.765 347.072C123.701 347.435 123.499 347.723 123.157 347.936C122.837 348.149 122.283 348.256 121.493 348.256ZM144.805 348.544C143.802 348.544 142.799 348.352 141.797 347.968C140.815 347.563 139.919 346.997 139.109 346.272C138.298 345.547 137.658 344.683 137.189 343.68C136.719 342.656 136.485 341.525 136.485 340.288C136.485 339.136 136.698 338.069 137.125 337.088C137.551 336.085 138.149 335.2 138.917 334.432C139.685 333.664 140.559 333.067 141.541 332.64C142.543 332.192 143.61 331.968 144.741 331.968C146.277 331.968 147.663 332.341 148.901 333.088C150.159 333.813 151.162 334.805 151.909 336.064C152.655 337.323 153.029 338.72 153.029 340.256C153.029 341.557 152.783 342.72 152.293 343.744C151.823 344.747 151.183 345.611 150.373 346.336C149.583 347.061 148.698 347.616 147.717 348C146.757 348.363 145.786 348.544 144.805 348.544ZM144.741 343.712C145.253 343.712 145.775 343.584 146.309 343.328C146.842 343.072 147.29 342.688 147.653 342.176C148.015 341.664 148.197 341.013 148.197 340.224C148.197 339.541 148.047 338.944 147.749 338.432C147.45 337.92 147.034 337.525 146.501 337.248C145.989 336.949 145.391 336.8 144.709 336.8C144.069 336.8 143.493 336.949 142.981 337.248C142.49 337.547 142.085 337.963 141.765 338.496C141.466 339.008 141.317 339.595 141.317 340.256C141.317 341.024 141.487 341.675 141.829 342.208C142.191 342.72 142.639 343.104 143.173 343.36C143.706 343.595 144.229 343.712 144.741 343.712ZM161.144 348.288C160.269 348.288 159.49 348.235 158.808 348.128C158.146 348.043 157.57 347.872 157.08 347.616C156.61 347.36 156.226 347.008 155.928 346.56C155.629 346.112 155.405 345.536 155.256 344.832C155.128 344.107 155.064 343.221 155.064 342.176V327.392C155.064 326.965 155.096 326.571 155.16 326.208C155.245 325.845 155.458 325.547 155.799 325.312C156.141 325.077 156.696 324.96 157.464 324.96C158.232 324.96 158.776 325.077 159.096 325.312C159.437 325.547 159.65 325.845 159.736 326.208C159.821 326.571 159.864 326.965 159.864 327.392V341.952C159.864 342.293 159.874 342.581 159.896 342.816C159.938 343.029 160.002 343.2 160.088 343.328C160.194 343.456 160.333 343.541 160.504 343.584C160.674 343.627 160.898 343.648 161.176 343.648C161.432 343.648 161.688 343.68 161.944 343.744C162.221 343.808 162.456 344 162.648 344.32C162.84 344.64 162.936 345.173 162.936 345.92C162.936 346.688 162.84 347.243 162.648 347.584C162.456 347.925 162.221 348.128 161.944 348.192C161.688 348.256 161.421 348.288 161.144 348.288ZM172.305 348.544C171.302 348.544 170.299 348.352 169.297 347.968C168.315 347.563 167.419 346.997 166.609 346.272C165.798 345.547 165.158 344.683 164.689 343.68C164.219 342.656 163.985 341.525 163.985 340.288C163.985 339.136 164.198 338.069 164.625 337.088C165.051 336.085 165.649 335.2 166.417 334.432C167.185 333.664 168.059 333.067 169.041 332.64C170.043 332.192 171.11 331.968 172.241 331.968C173.777 331.968 175.163 332.341 176.401 333.088C177.659 333.813 178.662 334.805 179.409 336.064C180.155 337.323 180.529 338.72 180.529 340.256C180.529 341.557 180.283 342.72 179.793 343.744C179.323 344.747 178.683 345.611 177.873 346.336C177.083 347.061 176.198 347.616 175.217 348C174.257 348.363 173.286 348.544 172.305 348.544ZM172.241 343.712C172.753 343.712 173.275 343.584 173.809 343.328C174.342 343.072 174.79 342.688 175.153 342.176C175.515 341.664 175.697 341.013 175.697 340.224C175.697 339.541 175.547 338.944 175.249 338.432C174.95 337.92 174.534 337.525 174.001 337.248C173.489 336.949 172.891 336.8 172.209 336.8C171.569 336.8 170.993 336.949 170.481 337.248C169.99 337.547 169.585 337.963 169.265 338.496C168.966 339.008 168.817 339.595 168.817 340.256C168.817 341.024 168.987 341.675 169.329 342.208C169.691 342.72 170.139 343.104 170.673 343.36C171.206 343.595 171.729 343.712 172.241 343.712ZM189.7 354.88C188.953 354.88 188.206 354.784 187.46 354.592C186.713 354.4 186.03 354.144 185.411 353.824C184.793 353.504 184.302 353.163 183.94 352.8C183.577 352.437 183.396 352.075 183.396 351.712C183.396 351.371 183.46 351.051 183.588 350.752C183.716 350.475 183.908 350.197 184.164 349.92C184.462 349.6 184.718 349.355 184.932 349.184C185.145 349.013 185.401 348.928 185.7 348.928C185.998 348.928 186.265 349.003 186.5 349.152C186.734 349.323 186.98 349.504 187.236 349.696C187.513 349.888 187.854 350.059 188.26 350.208C188.665 350.379 189.177 350.464 189.796 350.464C190.244 350.464 190.649 350.379 191.012 350.208C191.374 350.059 191.694 349.824 191.972 349.504C192.249 349.205 192.462 348.843 192.612 348.416C192.761 348.011 192.836 347.552 192.836 347.04V333.792C192.9 333.237 193.113 332.843 193.476 332.608C193.86 332.352 194.436 332.224 195.204 332.224C195.972 332.224 196.505 332.341 196.804 332.576C197.124 332.789 197.316 333.077 197.38 333.44C197.465 333.803 197.508 334.187 197.508 334.592V347.232C197.508 348.448 197.284 349.525 196.836 350.464C196.388 351.424 195.79 352.224 195.044 352.864C194.297 353.525 193.465 354.027 192.548 354.368C191.63 354.709 190.681 354.88 189.7 354.88ZM189.124 347.872C188.164 347.872 187.246 347.669 186.372 347.264C185.518 346.837 184.75 346.261 184.068 345.536C183.406 344.811 182.884 343.979 182.5 343.04C182.116 342.101 181.924 341.109 181.924 340.064C181.924 339.019 182.116 338.037 182.5 337.12C182.884 336.181 183.406 335.36 184.068 334.656C184.75 333.931 185.518 333.365 186.372 332.96C187.246 332.533 188.164 332.32 189.124 332.32C190.062 332.32 190.862 332.512 191.524 332.896C192.185 333.259 192.718 333.792 193.124 334.496C193.55 335.179 193.86 336 194.052 336.96C194.244 337.899 194.34 338.955 194.34 340.128C194.34 341.707 194.169 343.083 193.828 344.256C193.486 345.408 192.932 346.304 192.164 346.944C191.396 347.563 190.382 347.872 189.124 347.872ZM189.7 343.232C190.254 343.232 190.756 343.093 191.204 342.816C191.652 342.517 192.004 342.133 192.26 341.664C192.537 341.195 192.676 340.661 192.676 340.064C192.676 339.467 192.537 338.933 192.26 338.464C192.004 337.995 191.641 337.621 191.172 337.344C190.724 337.067 190.212 336.928 189.635 336.928C189.06 336.928 188.548 337.067 188.1 337.344C187.652 337.621 187.289 338.005 187.012 338.496C186.756 338.965 186.628 339.499 186.628 340.096C186.628 340.672 186.766 341.195 187.044 341.664C187.321 342.133 187.684 342.517 188.132 342.816C188.601 343.093 189.124 343.232 189.7 343.232ZM204.325 354.752C203.45 354.368 202.938 353.941 202.789 353.472C202.661 353.003 202.778 352.373 203.141 351.584L211.173 333.632C211.535 332.8 211.93 332.309 212.357 332.16C212.805 331.989 213.466 332.075 214.341 332.416C215.194 332.821 215.685 333.248 215.813 333.696C215.962 334.144 215.866 334.741 215.525 335.488L207.461 353.568C207.098 354.4 206.703 354.901 206.277 355.072C205.85 355.243 205.199 355.136 204.325 354.752ZM207.109 347.296L199.589 335.84C199.119 335.136 198.927 334.549 199.013 334.08C199.119 333.611 199.546 333.131 200.293 332.64C201.125 332.128 201.765 331.936 202.213 332.064C202.682 332.171 203.151 332.587 203.621 333.312L209.157 341.792L207.109 347.296ZM236.351 348.544C235.412 348.544 234.42 348.395 233.375 348.096C232.329 347.797 231.305 347.349 230.303 346.752C229.3 346.155 228.383 345.397 227.551 344.48C226.74 343.541 226.089 342.453 225.599 341.216C225.129 339.957 224.895 338.528 224.895 336.928C224.895 335.392 225.129 334.027 225.599 332.832C226.089 331.616 226.74 330.56 227.551 329.664C228.361 328.768 229.268 328.032 230.271 327.456C231.273 326.859 232.308 326.421 233.375 326.144C234.441 325.845 235.455 325.696 236.415 325.696C237.503 325.696 238.452 325.824 239.263 326.08C240.073 326.336 240.735 326.603 241.247 326.88C241.759 327.136 242.079 327.317 242.207 327.424C242.591 327.659 242.953 327.925 243.295 328.224C243.636 328.523 243.817 328.917 243.839 329.408C243.839 329.664 243.785 329.92 243.679 330.176C243.593 330.411 243.455 330.667 243.263 330.944C242.921 331.435 242.591 331.797 242.271 332.032C241.972 332.245 241.663 332.352 241.343 332.352C241.087 332.352 240.841 332.288 240.607 332.16C240.393 332.032 240.116 331.861 239.775 331.648C239.625 331.541 239.412 331.413 239.135 331.264C238.857 331.093 238.484 330.944 238.015 330.816C237.545 330.667 236.948 330.592 236.223 330.592C235.476 330.592 234.719 330.731 233.951 331.008C233.204 331.264 232.511 331.659 231.871 332.192C231.231 332.725 230.719 333.408 230.335 334.24C229.951 335.051 229.759 336 229.759 337.088C229.759 338.219 229.951 339.189 230.335 340C230.74 340.811 231.263 341.483 231.903 342.016C232.543 342.549 233.236 342.955 233.983 343.232C234.751 343.488 235.497 343.616 236.223 343.616C236.863 343.616 237.407 343.552 237.855 343.424C238.324 343.296 238.719 343.147 239.039 342.976C239.38 342.784 239.668 342.613 239.903 342.464C240.137 342.315 240.372 342.176 240.607 342.048C240.863 341.92 241.119 341.856 241.375 341.856C241.673 341.856 241.972 341.973 242.271 342.208C242.591 342.443 242.911 342.816 243.231 343.328C243.423 343.605 243.572 343.883 243.679 344.16C243.785 344.416 243.828 344.672 243.807 344.928C243.807 345.376 243.636 345.749 243.295 346.048C242.953 346.325 242.591 346.581 242.207 346.816C242.036 346.901 241.705 347.093 241.215 347.392C240.724 347.669 240.073 347.925 239.263 348.16C238.452 348.416 237.481 348.544 236.351 348.544ZM253.617 348.544C252.614 348.544 251.612 348.352 250.609 347.968C249.628 347.563 248.732 346.997 247.921 346.272C247.11 345.547 246.47 344.683 246.001 343.68C245.532 342.656 245.297 341.525 245.297 340.288C245.297 339.136 245.51 338.069 245.937 337.088C246.364 336.085 246.961 335.2 247.729 334.432C248.497 333.664 249.372 333.067 250.353 332.64C251.356 332.192 252.422 331.968 253.553 331.968C255.089 331.968 256.476 332.341 257.713 333.088C258.972 333.813 259.974 334.805 260.721 336.064C261.468 337.323 261.841 338.72 261.841 340.256C261.841 341.557 261.596 342.72 261.105 343.744C260.636 344.747 259.996 345.611 259.185 346.336C258.396 347.061 257.51 347.616 256.529 348C255.569 348.363 254.598 348.544 253.617 348.544ZM253.553 343.712C254.065 343.712 254.588 343.584 255.121 343.328C255.654 343.072 256.102 342.688 256.465 342.176C256.828 341.664 257.009 341.013 257.009 340.224C257.009 339.541 256.86 338.944 256.561 338.432C256.262 337.92 255.846 337.525 255.313 337.248C254.801 336.949 254.204 336.8 253.521 336.8C252.881 336.8 252.305 336.949 251.793 337.248C251.302 337.547 250.897 337.963 250.577 338.496C250.278 339.008 250.129 339.595 250.129 340.256C250.129 341.024 250.3 341.675 250.641 342.208C251.004 342.72 251.452 343.104 251.985 343.36C252.518 343.595 253.041 343.712 253.553 343.712ZM266.148 348.288C265.38 348.288 264.825 348.171 264.484 347.936C264.143 347.701 263.94 347.403 263.876 347.04C263.812 346.677 263.78 346.283 263.78 345.856V334.656C263.78 334.229 263.812 333.845 263.876 333.504C263.961 333.141 264.175 332.853 264.516 332.64C264.857 332.405 265.423 332.288 266.212 332.288C267.001 332.288 267.577 332.448 267.94 332.768C268.303 333.067 268.484 333.568 268.484 334.272L268.068 334.624C268.111 334.517 268.239 334.336 268.452 334.08C268.665 333.824 268.943 333.557 269.284 333.28C269.625 333.003 270.02 332.768 270.468 332.576C270.937 332.363 271.439 332.256 271.972 332.256C272.676 332.256 273.305 332.363 273.86 332.576C274.436 332.768 274.948 333.067 275.396 333.472C275.865 333.856 276.271 334.347 276.612 334.944C276.911 334.517 277.273 334.101 277.7 333.696C278.127 333.291 278.628 332.949 279.204 332.672C279.801 332.395 280.463 332.256 281.188 332.256C282.425 332.256 283.471 332.576 284.324 333.216C285.199 333.835 285.86 334.731 286.308 335.904C286.756 337.077 286.98 338.496 286.98 340.16V345.888C286.98 346.293 286.937 346.688 286.852 347.072C286.788 347.435 286.585 347.733 286.244 347.968C285.903 348.181 285.337 348.288 284.548 348.288C283.759 348.288 283.193 348.171 282.852 347.936C282.532 347.701 282.329 347.403 282.244 347.04C282.18 346.656 282.148 346.261 282.148 345.856V340.128C282.148 339.467 282.073 338.912 281.924 338.464C281.775 338.016 281.54 337.675 281.22 337.44C280.921 337.184 280.537 337.056 280.068 337.056C279.577 337.056 279.161 337.173 278.82 337.408C278.479 337.621 278.223 337.963 278.052 338.432C277.881 338.88 277.796 339.456 277.796 340.16V345.888C277.796 346.315 277.743 346.72 277.636 347.104C277.529 347.467 277.295 347.765 276.932 348C276.591 348.213 276.036 348.309 275.268 348.288C274.5 348.267 273.956 348.139 273.636 347.904C273.316 347.669 273.124 347.371 273.06 347.008C272.996 346.624 272.964 346.24 272.964 345.856V340.128C272.964 339.467 272.889 338.912 272.74 338.464C272.591 337.995 272.367 337.643 272.068 337.408C271.769 337.173 271.375 337.056 270.884 337.056C270.351 337.056 269.913 337.195 269.572 337.472C269.231 337.749 268.975 338.123 268.804 338.592C268.655 339.04 268.58 339.552 268.58 340.128V345.888C268.58 346.315 268.537 346.709 268.452 347.072C268.388 347.435 268.185 347.733 267.844 347.968C267.503 348.181 266.937 348.288 266.148 348.288ZM297.884 348C296.838 348 295.91 347.797 295.1 347.392C294.31 346.965 293.649 346.4 293.116 345.696C292.604 344.971 292.209 344.139 291.932 343.2C291.676 342.261 291.558 341.248 291.58 340.16C291.58 339.115 291.718 338.123 291.996 337.184C292.273 336.224 292.668 335.381 293.18 334.656C293.713 333.909 294.364 333.333 295.132 332.928C295.921 332.501 296.838 332.288 297.884 332.288C298.822 332.288 299.729 332.501 300.604 332.928C301.5 333.355 302.289 333.941 302.972 334.688C303.654 335.413 304.188 336.256 304.572 337.216C304.977 338.176 305.18 339.189 305.18 340.256C305.18 341.323 304.977 342.336 304.572 343.296C304.188 344.235 303.654 345.056 302.972 345.76C302.289 346.464 301.51 347.019 300.636 347.424C299.761 347.808 298.844 348 297.884 348ZM291.708 354.912C290.94 354.912 290.385 354.795 290.044 354.56C289.724 354.347 289.521 354.059 289.436 353.696C289.372 353.355 289.34 352.981 289.34 352.576V334.688C289.34 334.261 289.372 333.877 289.436 333.536C289.5 333.173 289.692 332.875 290.012 332.64C290.353 332.405 290.908 332.288 291.676 332.288C292.337 332.288 292.86 332.384 293.244 332.576C293.649 332.768 293.937 333.067 294.108 333.472V352.544C294.129 352.949 294.097 353.333 294.012 353.696C293.926 354.059 293.713 354.347 293.372 354.56C293.052 354.795 292.497 354.912 291.708 354.912ZM297.212 343.488C297.809 343.488 298.342 343.349 298.812 343.072C299.281 342.773 299.654 342.379 299.932 341.888C300.23 341.397 300.38 340.853 300.38 340.256C300.38 339.637 300.241 339.093 299.964 338.624C299.686 338.133 299.313 337.749 298.844 337.472C298.374 337.195 297.841 337.056 297.244 337.056C296.668 337.056 296.134 337.205 295.644 337.504C295.174 337.781 294.801 338.165 294.524 338.656C294.268 339.125 294.14 339.659 294.14 340.256C294.14 340.853 294.278 341.397 294.556 341.888C294.833 342.379 295.206 342.773 295.676 343.072C296.145 343.349 296.657 343.488 297.212 343.488ZM320.212 348.256C319.422 348.256 318.836 348.117 318.452 347.84C318.089 347.563 317.908 347.221 317.908 346.816L318.228 346.272C318.1 346.485 317.854 346.752 317.492 347.072C317.129 347.371 316.66 347.648 316.084 347.904C315.508 348.139 314.793 348.256 313.94 348.256C312.958 348.256 312.02 348.043 311.124 347.616C310.249 347.189 309.47 346.603 308.788 345.856C308.105 345.088 307.561 344.224 307.156 343.264C306.772 342.304 306.58 341.291 306.58 340.224C306.58 339.179 306.772 338.187 307.156 337.248C307.561 336.288 308.105 335.445 308.788 334.72C309.492 333.973 310.281 333.387 311.156 332.96C312.03 332.533 312.958 332.32 313.94 332.32C314.729 332.32 315.401 332.437 315.956 332.672C316.51 332.885 316.969 333.141 317.332 333.44C317.716 333.739 318.004 334.027 318.196 334.304L317.94 333.856C317.918 333.344 318.089 332.96 318.452 332.704C318.836 332.427 319.433 332.288 320.244 332.288C321.012 332.288 321.556 332.405 321.876 332.64C322.217 332.875 322.42 333.184 322.484 333.568C322.569 333.952 322.612 334.357 322.612 334.784V345.824C322.612 346.229 322.569 346.624 322.484 347.008C322.42 347.392 322.217 347.701 321.876 347.936C321.556 348.149 321.001 348.256 320.212 348.256ZM314.644 343.488C315.198 343.488 315.7 343.349 316.148 343.072C316.617 342.773 316.98 342.379 317.236 341.888C317.513 341.397 317.652 340.853 317.652 340.256C317.652 339.637 317.513 339.093 317.236 338.624C316.958 338.133 316.585 337.749 316.116 337.472C315.646 337.173 315.134 337.024 314.58 337.024C313.961 337.024 313.406 337.173 312.916 337.472C312.446 337.771 312.062 338.165 311.764 338.656C311.486 339.147 311.348 339.701 311.348 340.32C311.348 340.896 311.486 341.429 311.764 341.92C312.062 342.389 312.457 342.773 312.948 343.072C313.46 343.349 314.025 343.488 314.644 343.488ZM327.587 348.256C326.798 348.256 326.232 348.149 325.891 347.936C325.571 347.701 325.368 347.403 325.283 347.04C325.219 346.656 325.187 346.261 325.187 345.856V334.592C325.187 334.187 325.23 333.813 325.315 333.472C325.4 333.109 325.603 332.821 325.923 332.608C326.264 332.395 326.83 332.288 327.619 332.288C328.302 332.288 328.803 332.384 329.123 332.576C329.443 332.747 329.646 332.96 329.731 333.216C329.838 333.472 329.891 333.717 329.891 333.952C329.891 334.165 329.912 334.315 329.955 334.4L329.763 335.008C329.806 334.688 329.966 334.368 330.243 334.048C330.542 333.707 330.904 333.408 331.331 333.152C331.779 332.875 332.248 332.661 332.739 332.512C333.251 332.363 333.752 332.288 334.243 332.288C335.267 332.288 336.174 332.48 336.963 332.864C337.774 333.227 338.456 333.76 339.011 334.464C339.566 335.168 339.982 336 340.259 336.96C340.558 337.899 340.707 338.933 340.707 340.064V345.888C340.707 346.293 340.664 346.688 340.579 347.072C340.515 347.435 340.312 347.723 339.971 347.936C339.651 348.149 339.096 348.256 338.307 348.256C337.496 348.256 336.92 348.149 336.579 347.936C336.259 347.701 336.056 347.403 335.971 347.04C335.886 346.656 335.843 346.261 335.843 345.856V340.064C335.843 339.424 335.736 338.88 335.523 338.432C335.31 337.984 334.99 337.643 334.563 337.408C334.136 337.152 333.614 337.024 332.995 337.024C332.376 337.024 331.843 337.152 331.395 337.408C330.947 337.664 330.595 338.016 330.339 338.464C330.104 338.912 329.987 339.445 329.987 340.064V345.888C329.987 346.293 329.944 346.688 329.859 347.072C329.795 347.435 329.592 347.723 329.251 347.936C328.931 348.149 328.376 348.256 327.587 348.256ZM346.794 354.752C345.919 354.368 345.407 353.941 345.258 353.472C345.13 353.003 345.247 352.373 345.61 351.584L353.642 333.632C354.004 332.8 354.399 332.309 354.826 332.16C355.274 331.989 355.935 332.075 356.81 332.416C357.663 332.821 358.154 333.248 358.282 333.696C358.431 334.144 358.335 334.741 357.994 335.488L349.93 353.568C349.567 354.4 349.172 354.901 348.746 355.072C348.319 355.243 347.668 355.136 346.794 354.752ZM349.578 347.296L342.058 335.84C341.588 335.136 341.396 334.549 341.482 334.08C341.588 333.611 342.015 333.131 342.762 332.64C343.594 332.128 344.234 331.936 344.682 332.064C345.151 332.171 345.62 332.587 346.09 333.312L351.626 341.792L349.578 347.296Z" fill="white"/>
</svg>
